<svg width="621" height="42" viewBox="0 0 621 42" fill="none" xmlns="http://www.w3.org/2000/svg">
<path d="M19.0312 33.775L7.48125 22.225C7.30625 22.05 7.182 21.8604 7.1085 21.6562C7.035 21.4521 6.99883 21.2333 7 21C7 20.7666 7.03675 20.5479 7.11025 20.3437C7.18375 20.1396 7.30741 19.95 7.48125 19.775L19.0312 8.22498C19.3521 7.90415 19.7534 7.73673 20.2352 7.72273C20.7171 7.70873 21.1324 7.87615 21.4812 8.22498C21.8312 8.54582 22.0138 8.94715 22.029 9.42898C22.0442 9.91082 21.8762 10.3262 21.525 10.675L12.95 19.25H32.5062C33.0021 19.25 33.418 19.418 33.754 19.754C34.09 20.09 34.2574 20.5053 34.2562 21C34.2562 21.4958 34.0888 21.9117 33.754 22.2477C33.4192 22.5837 33.0032 22.7512 32.5062 22.75H12.95L21.525 31.325C21.8458 31.6458 22.0138 32.0541 22.029 32.55C22.0442 33.0458 21.8762 33.4541 21.525 33.775C21.2042 34.125 20.7958 34.3 20.3 34.3C19.8042 34.3 19.3812 34.125 19.0312 33.775Z" fill="url(#paint0_linear_0_657)" fill-opacity="0.876812"/>
<path d="M601.969 33.775L613.519 22.225C613.694 22.05 613.818 21.8604 613.892 21.6562C613.965 21.4521 614.001 21.2333 614 21C614 20.7666 613.963 20.5479 613.89 20.3437C613.816 20.1396 613.693 19.95 613.519 19.775L601.969 8.22498C601.648 7.90415 601.247 7.73673 600.765 7.72273C600.283 7.70873 599.868 7.87615 599.519 8.22498C599.169 8.54582 598.986 8.94715 598.971 9.42898C598.956 9.91082 599.124 10.3262 599.475 10.675L608.05 19.25H588.494C587.998 19.25 587.582 19.418 587.246 19.754C586.91 20.09 586.743 20.5053 586.744 21C586.744 21.4958 586.911 21.9117 587.246 22.2477C587.581 22.5837 587.997 22.7512 588.494 22.75H608.05L599.475 31.325C599.154 31.6458 598.986 32.0541 598.971 32.55C598.956 33.0458 599.124 33.4541 599.475 33.775C599.796 34.125 600.204 34.3 600.7 34.3C601.196 34.3 601.619 34.125 601.969 33.775Z" fill="url(#paint1_linear_0_657)" fill-opacity="0.876812"/>
<defs>
<linearGradient id="paint0_linear_0_657" x1="20.6281" y1="7.72192" x2="20.6281" y2="34.3" gradientUnits="userSpaceOnUse">
<stop stop-color="#FFBA41"/>
<stop offset="1" stop-color="#FFFBBD"/>
</linearGradient>
<linearGradient id="paint1_linear_0_657" x1="600.372" y1="7.72192" x2="600.372" y2="34.3" gradientUnits="userSpaceOnUse">
<stop stop-color="#FFBA41"/>
<stop offset="1" stop-color="#FFFBBD"/>
</linearGradient>
</defs>
</svg>
