<svg width="138" height="133" viewBox="0 0 138 133" fill="none" xmlns="http://www.w3.org/2000/svg">
<g clip-path="url(#clip0_0_1420)">
<path fill-rule="evenodd" clip-rule="evenodd" d="M69.0973 23.3241C71.4252 21.7338 73.6283 19.5267 75.9035 17.7236C73.5126 17.9389 70.2694 20.3542 69.0973 23.3241Z" fill="#322000"/>
<path fill-rule="evenodd" clip-rule="evenodd" d="M78.7174 20.4982C78.0798 20.3237 78.5002 20.2265 78.0128 19.8752C75.247 20.4673 71.8706 22.2603 70.3122 25.3851C72.7759 23.234 75.6291 21.5751 78.7174 20.4982Z" fill="#322000"/>
<path fill-rule="evenodd" clip-rule="evenodd" d="M75.1824 24.726C76.2199 24.3975 77.23 23.9879 78.2032 23.5008C78.0605 23.4085 78.1444 23.2603 77.9434 23.1659C75.9284 23.6841 73.8817 23.9197 72.1671 25.9427C73.3183 26.1518 74.2173 25.1495 75.1824 24.726Z" fill="#322000"/>
<path fill-rule="evenodd" clip-rule="evenodd" d="M31.7538 34.6007C31.5063 36.8231 32.7406 38.8729 33.4004 40.9083C33.6349 41.8613 33.932 42.7978 34.2898 43.7116C37.9566 51.315 49.931 55.0284 57.2679 57.3121C57.2254 58.3387 57.2522 59.367 57.3482 60.3899C51.7591 58.3323 46.2494 56.6119 41.0451 56.352C40.624 55.8768 40.0813 55.5255 39.4753 55.3358C37.3874 54.5679 31.8619 55.1722 30.6439 55.9681C30.1297 56.408 29.6866 56.9248 29.3304 57.5002C28.2408 58.1529 26.9879 58.0089 25.8647 58.4374C26.3454 60.3448 28.522 59.4666 29.6003 58.7947C32.7398 60.8272 35.9483 59.3304 39.0181 59.4832C42.4574 61.531 46.2424 61.4439 49.7517 62.298C45.4018 62.8842 41.1323 63.9607 37.0246 65.5069C35.0573 66.2824 32.4489 67.8459 32.6806 70.0091C30.6951 70.6655 27.7881 70.8683 26.2098 73.1225C25.1185 74.6794 23.6196 79.1293 23.9413 80.5646C24.1861 81.6402 25.3011 82.2549 24.9774 83.1413C24.6537 84.0277 22.7196 84.7888 22.8651 85.9075C24.7248 86.623 26.5946 84.3787 27.0395 82.4034C29.7838 80.225 31.5778 74.62 34.5164 71.8289C34.9133 72.1462 35.392 72.3446 35.8971 72.4011C40.7454 70.1195 45.7949 66.3123 50.6419 65.5785C47.7754 68.4133 45.3179 71.6336 43.34 75.1466C40.6494 79.8733 38.7554 85.0441 39.5762 89.5543C39.7054 90.2931 40.1389 90.9668 40.238 91.7338C40.6895 95.5999 39.8947 101.042 45.097 103.623C47.2693 104.684 49.0579 103.209 50.9644 102.656C53.1553 102.014 55.6711 101.808 57.7865 100.712C65.3504 96.7929 70.0765 86.2721 72.3237 78.4947C73.7174 83.9298 73.8453 89.6122 72.6975 95.1045C72.355 96.1433 72.2934 97.2542 72.519 98.3245C71.4678 102.028 68.8401 106.068 70.2197 109.237C69.7167 110.4 68.5615 110.713 68.3632 111.847C69.6035 113.317 71.2812 111.02 71.927 109.544C72.5352 109.482 73.1206 109.28 73.6367 108.952C74.1528 108.624 74.5853 108.181 74.8999 107.657C75.1825 107.22 75.1328 106.616 75.4336 106.096C75.6347 105.785 76.0521 105.472 76.1949 105.159C77.1836 102.988 76.1025 100.573 76.0041 98.8294C79.6695 92.5418 76.6567 86.3387 76.3117 80.9096C77.6385 84.0677 79.4573 87.0915 80.3613 90.369C80.6136 90.7706 80.8294 90.7316 81.2595 90.9505C81.5983 93.6475 81.9424 96.3362 84.8034 98.4861C85.0896 99.3504 85.4987 101.092 86.9458 100.826C87.9239 99.7199 86.4242 98.761 86.462 97.6538C86.469 97.1461 86.8617 96.6499 86.9196 96.2108C87.0237 95.0301 86.9327 93.8402 86.6502 92.689C86.2131 90.5755 85.1262 88.6515 83.5415 87.1862C83.3027 84.0773 81.6484 80.9098 79.8276 77.9442C78.1977 75.2842 76.1245 72.9227 73.6978 70.9621C74.7429 70.7095 75.7026 70.0918 76.757 69.9168C80.8642 73.7668 85.7187 79.3515 91.9851 82.479C97.5869 85.2715 103.122 85.1497 107.18 80.8678C110.022 80.9682 116.456 77.5807 115.338 73.915C109.104 70.0575 103.439 69.2019 97.4836 67.1215C92.2387 65.2866 87.1923 63.3659 81.8787 61.7844C82.1272 61.2901 81.9164 60.8796 82.1565 60.3799C83.7091 60.3552 85.2559 60.1839 86.7762 59.8683C88.973 59.4559 91.3737 59.3541 92.9167 56.5291C93.9127 54.6961 95.5878 52.8262 96.5735 50.641C96.9209 49.8652 96.7082 48.9056 96.9795 48.0449C97.2508 47.1841 98.1009 46.6623 97.8443 45.7338C96.9629 45.1632 96.0929 46.4702 95.8631 47.3221C93.3201 47.7725 90.1322 52.2368 90.2635 54.9783C87.3119 54.6452 84.3446 55.4511 81.967 57.2315C81.5956 56.6628 81.301 56.0474 81.0908 55.4015C85.7723 52.4759 85.0245 46.1785 83.144 42.9003C85.416 42.2982 87.9501 41.6039 90.6095 42.17C92.5873 42.5927 94.6868 44.4283 95.6064 42.0693C94.5677 40.1222 93.1793 41.0341 92.1175 41.0734C90.626 41.1323 87.6431 40.8453 85.7491 41.0844C84.5529 41.2392 82.8449 42.111 82.0568 41.8748C80.8454 41.5194 80.1903 40.4521 79.0732 40.0982C80.6466 35.8276 80.3315 31.3827 76.3278 28.6241C75.9487 28.731 75.6215 28.9724 75.4075 29.303C75.1934 29.6336 75.1072 30.031 75.1649 30.4206C75.4546 31.3348 76.2962 31.01 76.9144 31.3983C80.092 33.372 78.7154 36.6025 78.0283 39.7434C75.0023 40.167 70.0662 39.4375 68.0533 43.6141C67.5192 44.8669 67.3456 46.244 67.5522 47.5901C67.0466 47.3224 66.1965 47.8442 65.9926 47.5335C66.5212 43.9655 66.3998 40.3314 65.6344 36.8067C67.3004 35.7052 70.8346 35.3247 71.9838 33.1263C72.1779 32.4925 72.3295 31.8464 72.4376 31.1924C72.6209 30.5964 73.1134 29.8907 72.7061 29.3054C72.2783 29.3941 71.8814 29.5939 71.5552 29.8845C71.2291 30.1752 70.9851 30.5466 70.8479 30.9614C70.3772 30.8235 70.031 31.064 69.548 31.2397C68.1073 31.7723 63.5222 34.0337 62.6556 35.9981C62.4643 36.4223 62.6913 37.2125 62.6428 37.7291C62.3597 39.1192 62.241 40.5377 62.2893 41.9555C62.5035 44.2207 63.0425 46.4432 63.89 48.5548C63.2544 48.7271 62.7194 49.3695 62.0132 49.2459C53.9508 42.3231 44.3438 32.542 34.8387 26.4126C34.1503 25.967 32.2601 26.8995 31.8556 27.3405C29.3758 30.0117 31.05 32.394 31.7538 34.6007Z" fill="#322000"/>
<path fill-rule="evenodd" clip-rule="evenodd" d="M119.361 76.0549L119.026 75.8375C117.289 77.6916 115.238 80.2351 113.788 81.9771C115.949 81.7316 118.331 78.604 119.361 76.0549Z" fill="#322000"/>
<path fill-rule="evenodd" clip-rule="evenodd" d="M121.144 78.4717L120.834 78.2707C119.386 79.7159 117.505 81.3695 116.372 82.6967C118.133 82.6453 120.461 80.6861 121.144 78.4717Z" fill="#322000"/>
<path fill-rule="evenodd" clip-rule="evenodd" d="M121.814 80.8591C120.573 81.9493 119.242 82.6606 117.966 83.6209C118.4 83.6936 118.844 83.6798 119.273 83.5801C119.702 83.4805 120.107 83.2971 120.464 83.0404C120.822 82.7837 121.126 82.4589 121.357 82.0845C121.589 81.7102 121.744 81.2937 121.814 80.8591Z" fill="#322000"/>
<path fill-rule="evenodd" clip-rule="evenodd" d="M28.5144 32.9802C28.3858 33.0816 28.2325 33.1469 28.0704 33.1693C27.6088 34.7026 27.5317 36.3258 27.8456 37.896C28.081 38.8942 28.6673 40.6198 30.0971 40.3065C29.0041 38.0217 28.462 35.5125 28.5144 32.9802Z" fill="#322000"/>
<path fill-rule="evenodd" clip-rule="evenodd" d="M27.5982 40.1184C27.886 38.22 26.8824 36.6053 26.7499 34.8042L26.5233 34.6575C25.578 36.7616 26.4913 38.4607 27.5982 40.1184Z" fill="#322000"/>
<path fill-rule="evenodd" clip-rule="evenodd" d="M26.4891 41.9972C25.846 40.1752 25.3965 38.3118 24.6427 36.5135C23.1079 38.2955 24.6595 41.2536 26.4891 41.9972Z" fill="#322000"/>
<path fill-rule="evenodd" clip-rule="evenodd" d="M70.8644 32.3897C69.3577 34.4043 67.4035 34.2948 65.7211 35.4214C66.9507 34.0374 68.9339 32.1883 70.8644 32.3897Z" fill="url(#paint0_linear_0_1420)"/>
<path fill-rule="evenodd" clip-rule="evenodd" d="M95.6805 48.8002C95.7537 50.5273 93.3915 53.2746 92.2119 54.6552C92.8405 52.7273 93.6748 49.5983 95.6805 48.8002Z" fill="url(#paint1_linear_0_1420)"/>
<path fill-rule="evenodd" clip-rule="evenodd" d="M64.7276 46.2857C63.5404 43.6112 63.7499 40.6377 63.7659 37.7056C64.0701 37.6405 64.3532 37.4425 64.7255 37.6954C65.0235 40.5511 65.0242 43.4299 64.7276 46.2857Z" fill="url(#paint2_linear_0_1420)"/>
<path fill-rule="evenodd" clip-rule="evenodd" d="M113.801 75.3144C112.582 76.5748 111.189 77.6546 109.664 78.5212C103.832 81.2737 95.2936 80.1656 87.7021 74.6317C84.5729 72.3439 81.7126 69.4202 78.6457 67.0178C78.1421 66.6918 77.5293 66.2951 77.0375 65.8218C76.7397 65.5457 75.9294 65.1045 76.1676 64.4606C76.6364 63.8468 77.052 64.8425 77.2456 65.0036C81.1281 68.1367 85.2223 70.9981 89.499 73.5673C89.0267 72.0703 86.9576 71.255 85.4979 70.179C82.729 68.2991 80.0713 66.2604 77.5381 64.0732C82.9483 67.1113 88.6779 69.542 94.6223 71.3208C89.8353 68.889 84.9944 66.9822 79.4949 63.7556C78.9073 63.3752 77.5398 62.9664 77.3711 62.3807C77.8798 62.0548 78.667 62.4214 79.1489 62.5786C83.8043 64.0913 88.6522 65.693 93.4961 67.4112C100.027 69.7446 106.235 71.6552 112.802 74.6677C113.207 74.7448 113.565 74.9769 113.801 75.3144Z" fill="url(#paint3_linear_0_1420)"/>
<path fill-rule="evenodd" clip-rule="evenodd" d="M80.1952 61.1831C78.996 60.8646 77.7805 60.6106 76.5541 60.4223C75.8789 63.2134 71.6474 65.7752 74.9534 67.8082C72.0373 69.3869 68.5088 70.605 64.4761 67.5417C61.0655 64.9526 58.4068 61.5518 59.3523 58.0302C60.2853 57.8956 61.3746 58.4579 62.3549 58.5445C63.6141 56.7227 65.0387 55.021 66.6107 53.4611C66.1407 52.3468 64.4712 51.54 63.7637 50.4983C66.541 48.9131 69.8492 49.6728 73.2768 51.2604C73.943 51.501 72.8944 52.1087 73.3339 52.4051C73.7733 52.7016 74.1764 52.1525 74.5869 51.9417C78.8312 53.8316 81.2035 57.583 80.1952 61.1831ZM75.2478 53.8467C74.4064 53.159 73.7531 54.9042 74.1224 55.3458C74.7304 55.382 75.2639 54.4289 75.2478 53.8467ZM76.9271 57.6379C77.4566 57.2064 77.8875 56.0439 76.969 55.6042C76.2241 56.1107 76.2234 57.4921 76.9271 57.6379ZM67.0436 52.0379C67.5824 52.0888 68.1757 51.2459 68.3249 50.7946C67.77 50.1613 66.7266 51.5706 67.0436 52.0379ZM70.4483 54.3968C71.228 55.0326 71.9903 53.763 71.9094 53.115C71.147 52.5262 70.679 53.8195 70.4483 54.3968ZM68.3774 52.4248C68.4095 52.7434 68.3086 53.0831 68.761 53.3045C69.2133 53.5258 69.4267 53.1041 69.6728 52.632C69.6567 52.4838 69.5923 52.345 69.4895 52.2369C69.3868 52.1289 69.2514 52.0576 69.1042 52.0341C68.957 52.0105 68.8061 52.036 68.6748 52.1066C68.5434 52.1772 68.439 52.2891 68.3774 52.4248ZM77.0557 59.1507C77.6936 59.5637 78.1643 59.4991 78.5299 58.8423C78.1947 58.0535 77.1111 58.5314 77.0557 59.1507ZM72.1466 56.9257C73.8447 56.1428 72.157 54.6095 71.399 56.6085C71.6859 56.9014 71.878 56.7518 72.1466 56.9257ZM74.3685 56.9346C73.5615 57.1507 73.5103 58.4995 74.3128 58.9713C74.468 58.8527 74.5947 58.7009 74.6837 58.527C74.7726 58.3531 74.8215 58.1615 74.8269 57.9663C74.8322 57.771 74.7938 57.577 74.7145 57.3985C74.6352 57.22 74.517 57.0615 74.3685 56.9346ZM67.8048 56.0329C68.5603 56.522 69.1437 55.9704 69.687 55.3335C69.142 54.4088 67.68 55.2135 67.7964 56.0275L67.8048 56.0329ZM70.3024 60.0323C71.0243 60.4996 71.9097 58.6903 71.8387 58.1559L71.5029 57.9385C70.8925 58.127 70.0032 59.4455 70.294 60.0268L70.3024 60.0323ZM71.5943 62.4529C72.0744 62.6476 72.6112 62.6483 73.0918 62.4551C73.5724 62.2618 73.9593 61.8897 74.171 61.4169C73.1241 60.9179 72.3639 61.7242 71.5859 62.4475L71.5943 62.4529ZM69.1189 58.6585C68.0077 58.5348 66.9849 60.8509 68.5192 61.2962C68.9313 61.0114 69.2215 60.5825 69.3326 60.0941C69.4436 59.6057 69.3673 59.0934 69.1189 58.6585ZM64.854 58.1252C64.598 58.6862 65.3524 60.1156 66.3447 59.2452C66.8359 58.0264 65.4597 56.7663 64.8703 58.1001L64.854 58.1252ZM69.9105 65.5323C70.7772 66.0338 72.0154 65.7037 71.9341 64.6147C71.0917 64.0574 70.4752 64.6232 69.9268 65.5071L69.9105 65.5323ZM63.6876 62.1352C64.3756 61.9373 64.3363 60.8755 64.7982 60.1619C63.9124 59.4693 62.5158 61.6267 63.7039 62.11L63.6876 62.1352ZM66.7904 64.942C67.2883 64.8354 67.6475 64.115 68.0333 63.5189C67.8495 61.6131 65.4236 64.1644 66.8067 64.9168L66.7904 64.942ZM61.163 62.0971C61.7064 61.2576 61.3174 60.5889 61.725 59.7568L61.3892 59.5394C60.1767 59.9219 60.4904 61.7927 61.1793 62.0719L61.163 62.0971ZM68.976 68.4296C69.4355 68.7148 69.9843 68.8199 70.5166 68.7246C71.049 68.6294 71.5272 68.3405 71.8593 67.9137C71.1123 67.025 69.3916 67.5669 69.0007 68.4099L68.976 68.4296ZM65.8136 67.1686C66.0138 67.2292 66.2247 67.2463 66.432 67.2188C66.6394 67.1914 66.8385 67.12 67.0161 67.0094C67.1937 66.8989 67.3456 66.7517 67.4617 66.5777C67.5779 66.4037 67.6555 66.2069 67.6895 66.0005C66.9158 65.3924 65.7273 66.3266 65.8383 67.1489L65.8136 67.1686Z" fill="url(#paint4_linear_0_1420)"/>
<path fill-rule="evenodd" clip-rule="evenodd" d="M62.7787 51.5046C56.9414 48.1189 52.2822 43.6494 46.6011 39.9121C50.92 44.6497 57.8261 49.7518 63.8815 53.4813C63.3435 54.5149 62.2918 53.4528 61.6972 53.1751C56.8761 50.888 50.6182 46.956 45.5908 44.1779C50.1191 48.4079 57.0932 51.9696 62.5266 54.8199C58.2602 54.1784 53.5932 51.8005 48.5672 49.1306C42.7477 46.0303 37.5874 43.2734 34.8015 38.468C34.2305 37.3899 33.7353 36.2733 33.3197 35.1262C32.8117 34.0608 32.4111 32.9475 32.1237 31.8027C31.8788 29.4761 33.4942 27.0911 36.0423 28.4547C37.2838 29.342 38.4594 30.318 39.56 31.3752C47.8506 37.7429 54.5339 45.25 62.7787 51.5046ZM40.2474 34.0121C39.8511 33.516 39.3691 33.0951 38.8243 32.7692C38.4794 33.3203 39.6704 34.6273 40.2474 34.0121ZM38.272 38.2964C39.0614 39.2483 39.9906 40.6836 41.4978 41.1709C40.7537 40.2961 39.3703 38.4952 38.2754 38.3463L38.272 38.2964Z" fill="url(#paint5_linear_0_1420)"/>
<path fill-rule="evenodd" clip-rule="evenodd" d="M105.406 81.1607C96.7615 88.2394 82.6221 74.75 76.0174 66.9005C77.7584 68.0839 79.3989 69.4088 80.9221 70.8619C84.2698 74.025 87.9683 76.7949 91.9454 79.1177C96.637 81.6784 101.37 81.5258 105.406 81.1607Z" fill="url(#paint6_linear_0_1420)"/>
<path fill-rule="evenodd" clip-rule="evenodd" d="M72.3771 71.5486C76.5524 75.5142 79.9808 80.0447 81.658 84.7041C82.0735 85.9024 83.098 87.6138 81.7154 88.5534C80.8291 87.2941 80.1147 85.9223 79.5912 84.4741C78.3991 81.5985 77.0273 78.8007 75.484 76.0972C74.6275 74.697 73.4084 73.5623 72.5039 72.1072C72.3706 71.8898 72.1084 71.9821 72.3771 71.5486Z" fill="url(#paint7_linear_0_1420)"/>
<path fill-rule="evenodd" clip-rule="evenodd" d="M56.5879 61.8037C51.2113 60.9081 46.047 60.9362 40.4125 58.8015C42.5037 57.5583 45.368 58.5072 48.0056 59.1068C50.9676 59.6445 53.8507 60.5505 56.5879 61.8037Z" fill="url(#paint8_linear_0_1420)"/>
<path fill-rule="evenodd" clip-rule="evenodd" d="M70.2838 73.0524C66.0816 72.6431 60.2003 69.2885 56.4571 65.6859C59.4094 63.7017 61.9784 68.6765 65.2563 70.2743C67.2247 71.2269 69.8867 70.7583 70.2838 73.0524Z" fill="url(#paint9_linear_0_1420)"/>
<path fill-rule="evenodd" clip-rule="evenodd" d="M70.4597 77.4549C64.9569 78.0977 56.6168 72.1745 52.5953 67.4746C53.4014 66.8186 54.2914 66.273 55.2417 65.8523C58.3725 69.9041 65.4952 73.5859 69.7877 74.3158C71.1389 74.5472 70.4999 76.3255 70.4597 77.4549Z" fill="#0B0B0B"/>
<path fill-rule="evenodd" clip-rule="evenodd" d="M73.9786 97.5419C73.4118 96.8534 73.9538 95.9058 74.0581 95.2109C74.8717 89.9243 75.2828 84.2103 73.9203 79.2304C73.8112 79.1598 73.9149 79.0363 73.9495 78.9277C73.9841 78.819 74.1377 78.8946 74.2468 78.9653C74.3559 79.0359 74.2853 79.1451 74.4028 79.2211C75.9244 83.9408 76.5905 88.8944 76.3697 93.8483C76.3245 95.0223 76.1619 98.181 73.9786 97.5419Z" fill="url(#paint10_linear_0_1420)"/>
<path fill-rule="evenodd" clip-rule="evenodd" d="M39.0265 57.4278C36.4454 58.1394 33.3645 58.8133 30.7097 57.7618C33.2124 56.5825 36.2706 55.6675 39.0265 57.4278Z" fill="url(#paint11_linear_0_1420)"/>
<path fill-rule="evenodd" clip-rule="evenodd" d="M68.8678 82.6188C62.2374 81.7097 53.2222 75.5043 49.8528 69.9995C50.3285 69.2278 50.9328 68.5432 51.6395 67.9755C55.1715 73.1925 64.3837 79.2038 70.1818 78.8593C69.9809 80.1832 69.5353 81.4581 68.8678 82.6188Z" fill="url(#paint12_linear_0_1420)"/>
<path fill-rule="evenodd" clip-rule="evenodd" d="M83.1944 89.2129L83.4126 89.3542C84.8493 91.404 85.9561 93.8716 84.9604 96.5506C83.2081 94.3442 81.9483 92.0395 83.1944 89.2129Z" fill="url(#paint13_linear_0_1420)"/>
<path fill-rule="evenodd" clip-rule="evenodd" d="M49.1676 70.8186C52.5128 76.3793 61.7042 82.9012 68.4285 83.7758C68.0568 85.0124 67.2703 86.3378 66.7466 87.6069C59.4957 84.9143 52.1661 78.847 46.9085 73.8115C47.6101 72.776 48.3641 71.7771 49.1676 70.8186Z" fill="#0B0B0B"/>
<path fill-rule="evenodd" clip-rule="evenodd" d="M46.2509 74.8273C50.9904 80.1112 59.2544 86.3544 66.1981 88.6933C65.6697 89.6753 65.0627 90.613 64.3831 91.4971C57.7253 89.1765 48.8409 83.4132 44.1864 78.2557C44.9141 77.0948 45.382 76.004 46.2509 74.8273Z" fill="url(#paint14_linear_0_1420)"/>
<path fill-rule="evenodd" clip-rule="evenodd" d="M32.5918 71.8575C29.8009 74.4942 28.7131 80.4253 25.5686 80.4982C25.6184 76.5754 28.6878 71.5579 32.5918 71.8575Z" fill="url(#paint15_linear_0_1420)"/>
<path fill-rule="evenodd" clip-rule="evenodd" d="M72.1609 107.968C69.7729 106.136 73.0768 102.247 73.5302 99.4676C73.9726 99.4244 74.4187 99.4957 74.8256 99.6748C75.268 102.248 75.2007 105.481 72.1609 107.968Z" fill="url(#paint16_linear_0_1420)"/>
<path fill-rule="evenodd" clip-rule="evenodd" d="M63.1447 92.4346C63.4098 93.166 62.0333 93.7283 61.6608 94.4877C55.3607 93.8044 46.0045 88.8434 41.8523 83.094C42.0022 82.0712 42.965 80.86 43.3637 79.7839C49.0759 85.242 55.794 89.5385 63.1447 92.4346Z" fill="#0B0B0B"/>
<path fill-rule="evenodd" clip-rule="evenodd" d="M59.9646 95.6173C59.6887 96.761 57.6647 97.4402 56.6744 98.2524C54.0466 97.7993 51.524 96.8687 49.2314 95.5069C46.2489 93.8024 42.3637 91.192 41.3715 88.9891C40.6908 87.4644 41.4373 86.0536 41.3892 84.5453C45.2903 89.1554 53.9904 95.0377 59.9646 95.6173Z" fill="url(#paint17_linear_0_1420)"/>
<path fill-rule="evenodd" clip-rule="evenodd" d="M69.5015 47.7441C72.0864 47.7259 75.6444 44.3827 75.3379 41.1942C77.2893 40.6825 81.8354 42.5296 82.1233 44.9555C80.933 45.6605 79.975 46.6984 79.3673 47.9412C78.7596 49.184 78.5288 50.5775 78.7032 51.9499C78.8093 52.4116 79.4513 52.9106 79.0492 53.1268C76.6916 50.457 72.4165 48.7616 69.5015 47.7441Z" fill="#0B0B0B"/>
<path fill-rule="evenodd" clip-rule="evenodd" d="M69.2262 46.458C69.1256 46.1655 69.0911 45.8543 69.1253 45.5469C69.1596 45.2394 69.2616 44.9434 69.4241 44.6802C69.7179 44.8704 70.0621 45.0932 70.2809 45.068C70.8685 45.4484 73.1106 43.4571 72.8191 43.8522C71.8468 45.7958 70.5217 46.0578 69.2262 46.458Z" fill="url(#paint18_linear_0_1420)"/>
<path fill-rule="evenodd" clip-rule="evenodd" d="M90.8929 56.1958C90.5705 57.7978 88.641 58.0735 87.4137 58.3868C86.0434 58.6383 84.6589 58.8042 83.268 58.8837C84.5553 57.4656 86.9052 57.2953 88.7894 56.7401C89.505 56.5363 90.2198 55.8554 90.8929 56.1958Z" fill="url(#paint19_linear_0_1420)"/>
<path fill-rule="evenodd" clip-rule="evenodd" d="M80.1166 50.0059C80.5699 50.2993 80.7227 51.9587 82.1114 52.0953C81.9049 52.4143 81.6974 52.8637 81.4124 52.9175C80.0485 52.1537 80.2582 51.0386 80.1166 50.0059Z" fill="url(#paint20_linear_0_1420)"/>
<path fill-rule="evenodd" clip-rule="evenodd" d="M35.1047 41.4041C40.0445 47.3537 52.389 52.5933 59.8407 55.9878L60.1009 56.1562C55.5231 54.8366 48.556 53.233 43.2214 50.3038C39.5349 48.4082 36.6537 45.2491 35.1047 41.4041Z" fill="url(#paint21_linear_0_1420)"/>
<path fill-rule="evenodd" clip-rule="evenodd" d="M50.9574 63.8767C48.3335 64.5198 45.7796 65.4201 43.3325 66.5646C40.7715 67.9444 38.5067 69.8972 35.8777 70.9589C35.3297 70.5674 34.8154 70.1309 34.3401 69.6538C36.5398 66.7894 40.2292 65.7827 43.1279 65.1694C45.7045 64.5571 48.3207 64.1252 50.9574 63.8767Z" fill="url(#paint22_linear_0_1420)"/>
<path fill-rule="evenodd" clip-rule="evenodd" d="M54.5041 99.3968C52.7518 99.6562 50.0198 101.723 47.8764 101.777C47.064 101.799 46.3787 101.165 45.6546 101.768C44.7097 101.308 43.906 100.603 43.3276 99.7252C42.7492 98.8477 42.4174 97.8309 42.367 96.7812C43.9115 98.1861 46.2905 100.179 48.3019 100.623C46.6628 98.3709 43.1151 97.3369 42.0117 95.1217C41.3646 93.8212 42.2483 92.7137 41.7039 91.4201C44.5228 94.1503 50.5099 98.5742 54.5041 99.3968Z" fill="#0B0B0B"/>
</g>
<defs>
<linearGradient id="paint0_linear_0_1420" x1="69.7437" y1="31.6642" x2="66.8418" y2="36.1469" gradientUnits="userSpaceOnUse">
<stop stop-color="#FFBA41"/>
<stop offset="1" stop-color="#694402" stop-opacity="0.75"/>
</linearGradient>
<linearGradient id="paint1_linear_0_1420" x1="95.6809" y1="48.8004" x2="91.9855" y2="54.5087" gradientUnits="userSpaceOnUse">
<stop stop-color="#FFBA41"/>
<stop offset="1" stop-color="#694402" stop-opacity="0.75"/>
</linearGradient>
<linearGradient id="paint2_linear_0_1420" x1="66.3499" y1="38.7468" x2="62.4317" y2="44.7994" gradientUnits="userSpaceOnUse">
<stop stop-color="#FFBA41"/>
<stop offset="1" stop-color="#694402" stop-opacity="0.75"/>
</linearGradient>
<linearGradient id="paint3_linear_0_1420" x1="98.0785" y1="64.9975" x2="90.5928" y2="76.5609" gradientUnits="userSpaceOnUse">
<stop stop-color="#FFBA41"/>
<stop offset="1" stop-color="#694402" stop-opacity="0.75"/>
</linearGradient>
<linearGradient id="paint4_linear_0_1420" x1="74.6114" y1="51.7751" x2="64.4077" y2="67.537" gradientUnits="userSpaceOnUse">
<stop offset="0.161458" stop-color="#FFF9C0"/>
<stop offset="0.65625" stop-color="#FFBA41"/>
</linearGradient>
<linearGradient id="paint5_linear_0_1420" x1="50.5473" y1="37.8447" x2="44.5691" y2="47.0795" gradientUnits="userSpaceOnUse">
<stop stop-color="#FFBA41"/>
<stop offset="1" stop-color="#694402" stop-opacity="0.75"/>
</linearGradient>
<linearGradient id="paint6_linear_0_1420" x1="91.7986" y1="72.3517" x2="87.9316" y2="78.3252" gradientUnits="userSpaceOnUse">
<stop stop-color="#FFBA41"/>
<stop offset="1" stop-color="#694402" stop-opacity="0.75"/>
</linearGradient>
<linearGradient id="paint7_linear_0_1420" x1="79.6043" y1="76.2272" x2="74.6047" y2="83.9502" gradientUnits="userSpaceOnUse">
<stop stop-color="#FFBA41"/>
<stop offset="1" stop-color="#694402" stop-opacity="0.75"/>
</linearGradient>
<linearGradient id="paint8_linear_0_1420" x1="50.2038" y1="57.6709" x2="46.7965" y2="62.9342" gradientUnits="userSpaceOnUse">
<stop stop-color="#FFBA41"/>
<stop offset="1" stop-color="#694402" stop-opacity="0.75"/>
</linearGradient>
<linearGradient id="paint9_linear_0_1420" x1="64.1227" y1="68.2071" x2="62.7222" y2="70.3706" gradientUnits="userSpaceOnUse">
<stop offset="0.161458" stop-color="#FFF9C0"/>
<stop offset="0.65625" stop-color="#FFBA41"/>
</linearGradient>
<linearGradient id="paint10_linear_0_1420" x1="78.7433" y1="81.8762" x2="70.1897" y2="95.0892" gradientUnits="userSpaceOnUse">
<stop stop-color="#FFBA41"/>
<stop offset="1" stop-color="#694402" stop-opacity="0.75"/>
</linearGradient>
<linearGradient id="paint11_linear_0_1420" x1="36.1723" y1="55.5801" x2="33.5639" y2="59.6095" gradientUnits="userSpaceOnUse">
<stop stop-color="#FFBA41"/>
<stop offset="1" stop-color="#694402" stop-opacity="0.75"/>
</linearGradient>
<linearGradient id="paint12_linear_0_1420" x1="61.3919" y1="73.1691" x2="58.2092" y2="78.0855" gradientUnits="userSpaceOnUse">
<stop offset="0.161458" stop-color="#FFF9C0"/>
<stop offset="0.65625" stop-color="#FFBA41"/>
</linearGradient>
<linearGradient id="paint13_linear_0_1420" x1="85.4903" y1="90.6992" x2="82.6645" y2="95.0643" gradientUnits="userSpaceOnUse">
<stop stop-color="#FFBA41"/>
<stop offset="1" stop-color="#694402" stop-opacity="0.75"/>
</linearGradient>
<linearGradient id="paint14_linear_0_1420" x1="56.4605" y1="81.4366" x2="53.5413" y2="85.946" gradientUnits="userSpaceOnUse">
<stop offset="0.161458" stop-color="#FFF9C0"/>
<stop offset="0.65625" stop-color="#FFBA41"/>
</linearGradient>
<linearGradient id="paint15_linear_0_1420" x1="31.4968" y1="71.1487" x2="25.481" y2="80.4415" gradientUnits="userSpaceOnUse">
<stop stop-color="#FFBA41"/>
<stop offset="1" stop-color="#694402" stop-opacity="0.75"/>
</linearGradient>
<linearGradient id="paint16_linear_0_1420" x1="75.4435" y1="100.075" x2="70.8733" y2="107.135" gradientUnits="userSpaceOnUse">
<stop stop-color="#FFBA41"/>
<stop offset="1" stop-color="#694402" stop-opacity="0.75"/>
</linearGradient>
<linearGradient id="paint17_linear_0_1420" x1="50.924" y1="89.7648" x2="47.7629" y2="94.6478" gradientUnits="userSpaceOnUse">
<stop offset="0.161458" stop-color="#FFF9C0"/>
<stop offset="0.65625" stop-color="#FFBA41"/>
</linearGradient>
<linearGradient id="paint18_linear_0_1420" x1="71.8578" y1="43.1632" x2="69.5775" y2="46.6855" gradientUnits="userSpaceOnUse">
<stop stop-color="#FFBA41"/>
<stop offset="1" stop-color="#694402" stop-opacity="0.75"/>
</linearGradient>
<linearGradient id="paint19_linear_0_1420" x1="88.8782" y1="54.8916" x2="85.4002" y2="60.2641" gradientUnits="userSpaceOnUse">
<stop stop-color="#FFBA41"/>
<stop offset="1" stop-color="#694402" stop-opacity="0.75"/>
</linearGradient>
<linearGradient id="paint20_linear_0_1420" x1="81.3008" y1="50.7724" x2="80.3516" y2="52.2386" gradientUnits="userSpaceOnUse">
<stop stop-color="#FFBA41"/>
<stop offset="1" stop-color="#694402" stop-opacity="0.75"/>
</linearGradient>
<linearGradient id="paint21_linear_0_1420" x1="47.9289" y1="48.2765" x2="45.5674" y2="51.9244" gradientUnits="userSpaceOnUse">
<stop stop-color="#FFBA41"/>
<stop offset="1" stop-color="#694402" stop-opacity="0.75"/>
</linearGradient>
<linearGradient id="paint22_linear_0_1420" x1="46.4201" y1="60.9394" x2="38.736" y2="72.8093" gradientUnits="userSpaceOnUse">
<stop stop-color="#FFBA41"/>
<stop offset="1" stop-color="#694402" stop-opacity="0.75"/>
</linearGradient>
<clipPath id="clip0_0_1420">
<rect width="106" height="88.93" fill="white" transform="translate(48.3274 -0.128174) rotate(32.9175)"/>
</clipPath>
</defs>
</svg>
