<svg width="144" height="65" viewBox="0 0 144 65" fill="none" xmlns="http://www.w3.org/2000/svg">
<path d="M4.54551 39.8035C2.56845 37.5408 1.66368 36.4956 1.20106 35.3859C0.431137 33.539 0.431137 31.461 1.20106 29.6141C1.66368 28.5044 2.56845 27.4592 4.54551 25.1965L22.3702 4.79647C23.4379 3.57449 23.9298 3.01485 24.4906 2.57882C25.4205 1.85592 26.5076 1.36218 27.6638 1.1376C28.3612 1.00214 29.1062 1 30.729 1H113.271C114.894 1 115.639 1.00214 116.336 1.1376C117.492 1.36218 118.58 1.85592 119.509 2.57882L119.816 2.18408L119.509 2.57883C120.07 3.01485 120.562 3.57449 121.63 4.79647L139.454 25.1965C141.432 27.4592 142.336 28.5044 142.799 29.6141C143.569 31.461 143.569 33.539 142.799 35.3859C142.336 36.4956 141.432 37.5408 139.454 39.8035L121.63 60.2035C120.562 61.4255 120.07 61.9852 119.509 62.4212C118.58 63.1441 117.492 63.6378 116.336 63.8624C115.639 63.9979 114.894 64 113.271 64H30.7289C29.1062 64 28.3612 63.9979 27.6638 63.8624C26.5076 63.6378 25.4205 63.1441 24.4906 62.4212C23.9298 61.9852 23.4379 61.4255 22.3702 60.2035L4.54551 39.8035Z" fill="#F2BB5A" fill-opacity="0.1"/>
<path d="M4.54551 39.8035C2.56845 37.5408 1.66368 36.4956 1.20106 35.3859C0.431137 33.539 0.431137 31.461 1.20106 29.6141C1.66368 28.5044 2.56845 27.4592 4.54551 25.1965L22.3702 4.79647C23.4379 3.57449 23.9298 3.01485 24.4906 2.57882C25.4205 1.85592 26.5076 1.36218 27.6638 1.1376C28.3612 1.00214 29.1062 1 30.729 1H113.271C114.894 1 115.639 1.00214 116.336 1.1376C117.492 1.36218 118.58 1.85592 119.509 2.57882L119.816 2.18408L119.509 2.57883C120.07 3.01485 120.562 3.57449 121.63 4.79647L139.454 25.1965C141.432 27.4592 142.336 28.5044 142.799 29.6141C143.569 31.461 143.569 33.539 142.799 35.3859C142.336 36.4956 141.432 37.5408 139.454 39.8035L121.63 60.2035C120.562 61.4255 120.07 61.9852 119.509 62.4212C118.58 63.1441 117.492 63.6378 116.336 63.8624C115.639 63.9979 114.894 64 113.271 64H30.7289C29.1062 64 28.3612 63.9979 27.6638 63.8624C26.5076 63.6378 25.4205 63.1441 24.4906 62.4212C23.9298 61.9852 23.4379 61.4255 22.3702 60.2035L4.54551 39.8035Z" stroke="url(#paint0_linear_0_1107)"/>
<path d="M4.54551 39.8035C2.56845 37.5408 1.66368 36.4956 1.20106 35.3859C0.431137 33.539 0.431137 31.461 1.20106 29.6141C1.66368 28.5044 2.56845 27.4592 4.54551 25.1965L22.3702 4.79647C23.4379 3.57449 23.9298 3.01485 24.4906 2.57882C25.4205 1.85592 26.5076 1.36218 27.6638 1.1376C28.3612 1.00214 29.1062 1 30.729 1H113.271C114.894 1 115.639 1.00214 116.336 1.1376C117.492 1.36218 118.58 1.85592 119.509 2.57882L119.816 2.18408L119.509 2.57883C120.07 3.01485 120.562 3.57449 121.63 4.79647L139.454 25.1965C141.432 27.4592 142.336 28.5044 142.799 29.6141C143.569 31.461 143.569 33.539 142.799 35.3859C142.336 36.4956 141.432 37.5408 139.454 39.8035L121.63 60.2035C120.562 61.4255 120.07 61.9852 119.509 62.4212C118.58 63.1441 117.492 63.6378 116.336 63.8624C115.639 63.9979 114.894 64 113.271 64H30.7289C29.1062 64 28.3612 63.9979 27.6638 63.8624C26.5076 63.6378 25.4205 63.1441 24.4906 62.4212C23.9298 61.9852 23.4379 61.4255 22.3702 60.2035L4.54551 39.8035Z" stroke="url(#paint1_linear_0_1107)"/>
<path d="M21.018 39.5V38.474C21.354 38.474 21.624 38.378 21.828 38.186C22.032 37.994 22.2 37.742 22.332 37.43C22.464 37.106 22.602 36.746 22.746 36.35L26.328 26.576H27.3L31.206 36.53C31.278 36.734 31.374 37.022 31.494 37.394C31.614 37.766 31.68 38.09 31.692 38.366C31.896 38.354 32.094 38.342 32.286 38.33C32.478 38.318 32.646 38.312 32.79 38.312V39.5H28.2V38.51C28.572 38.51 28.824 38.432 28.956 38.276C29.088 38.12 29.142 37.916 29.118 37.664C29.106 37.412 29.046 37.154 28.938 36.89L28.488 35.666L24.312 35.738L23.916 36.944C23.844 37.148 23.76 37.382 23.664 37.646C23.568 37.898 23.472 38.126 23.376 38.33C23.592 38.318 23.826 38.306 24.078 38.294C24.342 38.282 24.552 38.276 24.708 38.276V39.5H21.018ZM24.708 34.586H28.092L27.12 31.94C26.976 31.532 26.838 31.124 26.706 30.716C26.586 30.296 26.484 29.912 26.4 29.564H26.364C26.292 29.804 26.202 30.116 26.094 30.5C25.998 30.884 25.86 31.322 25.68 31.814L24.708 34.586ZM36.9751 39.788C36.2551 39.788 35.6131 39.602 35.0491 39.23C34.4851 38.858 34.0411 38.33 33.7171 37.646C33.4051 36.962 33.2491 36.158 33.2491 35.234C33.2491 34.262 33.4411 33.398 33.8251 32.642C34.2091 31.886 34.7371 31.292 35.4091 30.86C36.0931 30.428 36.8791 30.212 37.7671 30.212C38.1151 30.212 38.4391 30.254 38.7391 30.338C39.0511 30.41 39.3211 30.494 39.5491 30.59V28.988C39.5491 28.808 39.5491 28.586 39.5491 28.322C39.5611 28.058 39.5791 27.794 39.6031 27.53C39.4111 27.542 39.1891 27.554 38.9371 27.566C38.6971 27.578 38.4931 27.59 38.3251 27.602V26.432C38.8771 26.432 39.3271 26.408 39.6751 26.36C40.0231 26.3 40.2931 26.228 40.4851 26.144C40.6891 26.06 40.8331 25.982 40.9171 25.91H41.7451V36.926C41.7451 37.106 41.7391 37.334 41.7271 37.61C41.7151 37.874 41.6971 38.138 41.6731 38.402C41.8771 38.378 42.0871 38.366 42.3031 38.366C42.5311 38.354 42.7231 38.342 42.8791 38.33V39.5H39.7471C39.7231 39.356 39.6991 39.212 39.6751 39.068C39.6631 38.912 39.6451 38.768 39.6211 38.636C39.2491 39.032 38.8411 39.32 38.3971 39.5C37.9531 39.692 37.4791 39.788 36.9751 39.788ZM37.8211 38.402C38.1571 38.402 38.4811 38.312 38.7931 38.132C39.1051 37.94 39.3571 37.706 39.5491 37.43C39.5371 37.262 39.5311 37.094 39.5311 36.926C39.5311 36.746 39.5311 36.566 39.5311 36.386L39.5491 31.778C39.3691 31.634 39.1411 31.526 38.8651 31.454C38.5891 31.37 38.3071 31.328 38.0191 31.328C37.4551 31.34 36.9931 31.52 36.6331 31.868C36.2851 32.204 36.0271 32.648 35.8591 33.2C35.7031 33.752 35.6311 34.352 35.6431 35C35.6431 35.588 35.7211 36.14 35.8771 36.656C36.0331 37.172 36.2671 37.592 36.5791 37.916C36.9031 38.24 37.3171 38.402 37.8211 38.402ZM47.7154 39.788C46.9954 39.788 46.3534 39.602 45.7894 39.23C45.2254 38.858 44.7814 38.33 44.4574 37.646C44.1454 36.962 43.9894 36.158 43.9894 35.234C43.9894 34.262 44.1814 33.398 44.5654 32.642C44.9494 31.886 45.4774 31.292 46.1494 30.86C46.8334 30.428 47.6194 30.212 48.5074 30.212C48.8554 30.212 49.1794 30.254 49.4794 30.338C49.7914 30.41 50.0614 30.494 50.2894 30.59V28.988C50.2894 28.808 50.2894 28.586 50.2894 28.322C50.3014 28.058 50.3194 27.794 50.3434 27.53C50.1514 27.542 49.9294 27.554 49.6774 27.566C49.4374 27.578 49.2334 27.59 49.0654 27.602V26.432C49.6174 26.432 50.0674 26.408 50.4154 26.36C50.7634 26.3 51.0334 26.228 51.2254 26.144C51.4294 26.06 51.5734 25.982 51.6574 25.91H52.4854V36.926C52.4854 37.106 52.4794 37.334 52.4674 37.61C52.4554 37.874 52.4374 38.138 52.4134 38.402C52.6174 38.378 52.8274 38.366 53.0434 38.366C53.2714 38.354 53.4634 38.342 53.6194 38.33V39.5H50.4874C50.4634 39.356 50.4394 39.212 50.4154 39.068C50.4034 38.912 50.3854 38.768 50.3614 38.636C49.9894 39.032 49.5814 39.32 49.1374 39.5C48.6934 39.692 48.2194 39.788 47.7154 39.788ZM48.5614 38.402C48.8974 38.402 49.2214 38.312 49.5334 38.132C49.8454 37.94 50.0974 37.706 50.2894 37.43C50.2774 37.262 50.2714 37.094 50.2714 36.926C50.2714 36.746 50.2714 36.566 50.2714 36.386L50.2894 31.778C50.1094 31.634 49.8814 31.526 49.6054 31.454C49.3294 31.37 49.0474 31.328 48.7594 31.328C48.1954 31.34 47.7334 31.52 47.3734 31.868C47.0254 32.204 46.7674 32.648 46.5994 33.2C46.4434 33.752 46.3714 34.352 46.3834 35C46.3834 35.588 46.4614 36.14 46.6174 36.656C46.7734 37.172 47.0074 37.592 47.3194 37.916C47.6434 38.24 48.0574 38.402 48.5614 38.402ZM69.1061 30.878C69.1061 30.206 69.0221 29.654 68.8541 29.222C68.6861 28.778 68.4341 28.448 68.0981 28.232C67.7741 28.016 67.3601 27.914 66.8561 27.926H65.7581V36.818C65.7581 37.142 65.7521 37.442 65.7401 37.718C65.7281 37.994 65.7101 38.21 65.6861 38.366C65.9141 38.354 66.1721 38.342 66.4601 38.33C66.7601 38.318 66.9881 38.312 67.1441 38.312V39.5H62.2301V38.51C62.5661 38.498 62.8241 38.438 63.0041 38.33C63.1841 38.222 63.3101 38.042 63.3821 37.79C63.4541 37.538 63.4901 37.184 63.4901 36.728L63.5081 27.944H62.3381C61.6301 27.956 61.0901 28.196 60.7181 28.664C60.3461 29.132 60.1601 29.87 60.1601 30.878H59.1521L59.2421 26.9H70.0241L70.1321 30.878H69.1061ZM74.7699 39.788C73.9179 39.788 73.1439 39.602 72.4479 39.23C71.7519 38.846 71.1999 38.312 70.7919 37.628C70.3959 36.932 70.1979 36.122 70.1979 35.198C70.1979 34.226 70.4019 33.362 70.8099 32.606C71.2179 31.85 71.7639 31.262 72.4479 30.842C73.1439 30.422 73.9059 30.212 74.7339 30.212C75.5859 30.212 76.3539 30.404 77.0379 30.788C77.7219 31.172 78.2619 31.706 78.6579 32.39C79.0659 33.074 79.2699 33.884 79.2699 34.82C79.2699 35.804 79.0719 36.674 78.6759 37.43C78.2919 38.174 77.7579 38.756 77.0739 39.176C76.4019 39.584 75.6339 39.788 74.7699 39.788ZM74.8599 38.69C75.3999 38.69 75.8139 38.522 76.1019 38.186C76.3899 37.85 76.5879 37.424 76.6959 36.908C76.8159 36.38 76.8759 35.84 76.8759 35.288C76.8759 34.82 76.8339 34.346 76.7499 33.866C76.6779 33.386 76.5579 32.954 76.3899 32.57C76.2219 32.174 75.9999 31.862 75.7239 31.634C75.4479 31.394 75.1119 31.274 74.7159 31.274C74.1879 31.286 73.7679 31.46 73.4559 31.796C73.1439 32.132 72.9159 32.558 72.7719 33.074C72.6399 33.59 72.5739 34.136 72.5739 34.712C72.5739 35.36 72.6519 35.996 72.8079 36.62C72.9639 37.232 73.2099 37.736 73.5459 38.132C73.8819 38.516 74.3199 38.702 74.8599 38.69ZM95.0552 30.932C94.9112 29.888 94.5572 29.096 93.9932 28.556C93.4292 28.004 92.6972 27.728 91.7972 27.728C91.1612 27.728 90.5912 27.872 90.0872 28.16C89.5952 28.436 89.1752 28.82 88.8272 29.312C88.4912 29.792 88.2332 30.356 88.0532 31.004C87.8732 31.64 87.7832 32.324 87.7832 33.056C87.7832 34.124 87.9512 35.066 88.2872 35.882C88.6352 36.698 89.1152 37.34 89.7272 37.808C90.3512 38.276 91.0772 38.51 91.9052 38.51C92.6732 38.51 93.4292 38.324 94.1732 37.952C94.9292 37.568 95.5532 37.028 96.0452 36.332L96.7832 36.998C96.2192 37.766 95.6192 38.354 94.9832 38.762C94.3472 39.158 93.7232 39.428 93.1112 39.572C92.5112 39.716 91.9652 39.788 91.4732 39.788C90.5492 39.788 89.7092 39.626 88.9532 39.302C88.2092 38.966 87.5612 38.51 87.0092 37.934C86.4692 37.346 86.0492 36.668 85.7492 35.9C85.4612 35.12 85.3172 34.28 85.3172 33.38C85.3172 32.552 85.4432 31.736 85.6952 30.932C85.9592 30.128 86.3492 29.402 86.8652 28.754C87.3932 28.106 88.0532 27.59 88.8452 27.206C89.6372 26.81 90.5552 26.612 91.5992 26.612C92.1272 26.612 92.6792 26.696 93.2552 26.864C93.8312 27.02 94.3712 27.254 94.8752 27.566L94.8032 26.738H96.0452V30.932H95.0552ZM103 39.5C102.964 39.32 102.94 39.17 102.928 39.05C102.928 38.918 102.922 38.768 102.91 38.6C102.502 39.008 102.064 39.308 101.596 39.5C101.14 39.692 100.666 39.788 100.174 39.788C99.3581 39.788 98.7281 39.566 98.2841 39.122C97.8521 38.678 97.6361 38.132 97.6361 37.484C97.6361 36.908 97.7921 36.422 98.1041 36.026C98.4161 35.618 98.8241 35.288 99.3281 35.036C99.8321 34.772 100.39 34.574 101.002 34.442C101.614 34.298 102.22 34.22 102.82 34.208V33.218C102.82 32.87 102.778 32.552 102.694 32.264C102.622 31.964 102.484 31.73 102.28 31.562C102.076 31.382 101.776 31.292 101.38 31.292C101.116 31.304 100.846 31.364 100.57 31.472C100.306 31.568 100.096 31.724 99.9401 31.94C100.036 32.048 100.096 32.168 100.12 32.3C100.144 32.42 100.156 32.528 100.156 32.624C100.156 32.84 100.072 33.068 99.9041 33.308C99.7361 33.536 99.4661 33.644 99.0941 33.632C98.7701 33.62 98.5181 33.506 98.3381 33.29C98.1701 33.074 98.0861 32.816 98.0861 32.516C98.0861 32.06 98.2481 31.664 98.5721 31.328C98.9081 30.98 99.3581 30.71 99.9221 30.518C100.486 30.314 101.116 30.212 101.812 30.212C102.844 30.212 103.636 30.482 104.188 31.022C104.74 31.562 105.01 32.426 104.998 33.614C104.998 34.034 104.998 34.418 104.998 34.766C104.998 35.102 104.992 35.444 104.98 35.792C104.98 36.128 104.98 36.506 104.98 36.926C104.98 37.106 104.974 37.334 104.962 37.61C104.95 37.874 104.932 38.138 104.908 38.402C105.124 38.378 105.34 38.366 105.556 38.366C105.784 38.354 105.97 38.342 106.114 38.33V39.5H103ZM102.802 35.27C102.442 35.294 102.088 35.354 101.74 35.45C101.392 35.534 101.08 35.654 100.804 35.81C100.528 35.966 100.306 36.164 100.138 36.404C99.9821 36.632 99.9101 36.896 99.9221 37.196C99.9341 37.568 100.054 37.844 100.282 38.024C100.51 38.192 100.774 38.276 101.074 38.276C101.422 38.276 101.734 38.204 102.01 38.06C102.298 37.916 102.562 37.724 102.802 37.484C102.802 37.364 102.802 37.238 102.802 37.106C102.802 36.974 102.802 36.842 102.802 36.71C102.802 36.542 102.802 36.332 102.802 36.08C102.802 35.828 102.802 35.558 102.802 35.27ZM107.221 38.546C107.569 38.546 107.815 38.474 107.959 38.33C108.103 38.174 108.193 37.958 108.229 37.682C108.265 37.406 108.283 37.094 108.283 36.746V33.362C108.283 33.146 108.289 32.918 108.301 32.678C108.313 32.438 108.331 32.192 108.355 31.94C108.151 31.952 107.929 31.964 107.689 31.976C107.449 31.976 107.251 31.982 107.095 31.994V30.842H107.761C108.241 30.842 108.643 30.788 108.967 30.68C109.291 30.56 109.519 30.44 109.651 30.32H110.407C110.431 30.464 110.449 30.692 110.461 31.004C110.473 31.316 110.479 31.628 110.479 31.94C110.755 31.58 111.043 31.274 111.343 31.022C111.643 30.758 111.949 30.56 112.261 30.428C112.585 30.284 112.915 30.212 113.251 30.212C113.635 30.212 113.971 30.32 114.259 30.536C114.559 30.752 114.709 31.1 114.709 31.58C114.709 31.736 114.667 31.904 114.583 32.084C114.511 32.264 114.391 32.414 114.223 32.534C114.067 32.654 113.851 32.714 113.575 32.714C113.323 32.714 113.083 32.636 112.855 32.48C112.639 32.312 112.525 32.048 112.513 31.688C112.261 31.676 111.997 31.766 111.721 31.958C111.457 32.15 111.217 32.384 111.001 32.66C110.785 32.936 110.617 33.218 110.497 33.506L110.515 36.926C110.515 37.118 110.509 37.352 110.497 37.628C110.485 37.892 110.467 38.15 110.443 38.402C110.635 38.378 110.839 38.366 111.055 38.366C111.271 38.354 111.451 38.348 111.595 38.348V39.5H107.221V38.546ZM119.116 39.788C118.78 39.788 118.45 39.746 118.126 39.662C117.814 39.578 117.526 39.422 117.262 39.194C117.01 38.966 116.806 38.63 116.65 38.186C116.494 37.73 116.416 37.13 116.416 36.386L116.452 31.742L115.174 31.76V30.5C115.534 30.488 115.882 30.368 116.218 30.14C116.554 29.9 116.848 29.588 117.1 29.204C117.352 28.82 117.52 28.412 117.604 27.98H118.702L118.684 30.5H121.222V31.652L118.684 31.706L118.666 36.332C118.666 36.692 118.696 37.028 118.756 37.34C118.828 37.64 118.948 37.88 119.116 38.06C119.296 38.24 119.536 38.33 119.836 38.33C120.064 38.33 120.322 38.258 120.61 38.114C120.91 37.97 121.21 37.682 121.51 37.25L122.248 37.916C121.948 38.372 121.636 38.726 121.312 38.978C121 39.23 120.694 39.416 120.394 39.536C120.106 39.656 119.848 39.728 119.62 39.752C119.392 39.776 119.224 39.788 119.116 39.788Z" fill="#FFF9C0"/>
<defs>
<linearGradient id="paint0_linear_0_1107" x1="-3.1446" y1="-4.83334" x2="46.8744" y2="50.1553" gradientUnits="userSpaceOnUse">
<stop stop-color="#FFE195"/>
<stop offset="0.177083" stop-color="#F2BB5A" stop-opacity="0.876812"/>
<stop offset="0.359375" stop-color="#BF7A00" stop-opacity="0.75"/>
<stop offset="1" stop-color="#BF7A00" stop-opacity="0"/>
<stop offset="1" stop-color="#0F1218" stop-opacity="0"/>
</linearGradient>
<linearGradient id="paint1_linear_0_1107" x1="141.597" y1="66.6334" x2="88.6452" y2="8.15688" gradientUnits="userSpaceOnUse">
<stop stop-color="#FFE195"/>
<stop offset="0.217042" stop-color="#F2BB5A" stop-opacity="0.86"/>
<stop offset="0.439162" stop-color="#BF7A00" stop-opacity="0.669735"/>
<stop offset="0.829796" stop-opacity="0"/>
</linearGradient>
</defs>
</svg>
