<svg width="435" height="47" viewBox="0 0 435 47" fill="none" xmlns="http://www.w3.org/2000/svg">
<path d="M154.228 8.368C154.121 7.36533 153.769 6.58667 153.172 6.032C152.585 5.47733 151.828 5.2 150.9 5.2C150.335 5.2 149.801 5.32267 149.3 5.568C148.809 5.80267 148.377 6.144 148.004 6.592C147.631 7.04 147.337 7.57867 147.124 8.208C146.911 8.83733 146.804 9.54667 146.804 10.336C146.804 11.3387 146.996 12.224 147.38 12.992C147.764 13.76 148.281 14.3573 148.932 14.784C149.583 15.2107 150.303 15.424 151.092 15.424C151.785 15.424 152.468 15.2693 153.14 14.96C153.812 14.64 154.361 14.1813 154.788 13.584L155.204 13.92C154.745 14.5493 154.249 15.0347 153.716 15.376C153.183 15.7173 152.649 15.9467 152.116 16.064C151.593 16.192 151.113 16.256 150.676 16.256C149.876 16.256 149.14 16.112 148.468 15.824C147.807 15.536 147.231 15.136 146.74 14.624C146.26 14.1013 145.887 13.4987 145.62 12.816C145.364 12.1227 145.236 11.376 145.236 10.576C145.236 9.81867 145.348 9.08267 145.572 8.368C145.807 7.65333 146.153 7.008 146.612 6.432C147.071 5.856 147.647 5.39733 148.34 5.056C149.044 4.71467 149.86 4.544 150.788 4.544C151.385 4.544 151.951 4.624 152.484 4.784C153.017 4.944 153.529 5.18933 154.02 5.52L153.94 4.656H154.804V8.368H154.228ZM156.392 15.52C156.722 15.52 156.952 15.44 157.08 15.28C157.208 15.1093 157.282 14.88 157.304 14.592C157.325 14.2933 157.336 13.952 157.336 13.568V9.92C157.336 9.74933 157.336 9.57867 157.336 9.408C157.346 9.23733 157.368 9.06133 157.4 8.88C157.208 8.89067 157.016 8.90133 156.824 8.912C156.642 8.912 156.456 8.91733 156.264 8.928V8.272H156.76C157.218 8.272 157.533 8.22933 157.704 8.144C157.885 8.048 158.034 7.94667 158.152 7.84H158.616C158.637 8.01067 158.653 8.224 158.664 8.48C158.674 8.72533 158.685 9.04 158.696 9.424C158.856 9.15733 159.074 8.896 159.352 8.64C159.629 8.384 159.938 8.17067 160.28 8C160.632 7.82933 161 7.744 161.384 7.744C161.682 7.744 161.944 7.824 162.168 7.984C162.392 8.144 162.504 8.4 162.504 8.752C162.504 8.83733 162.477 8.944 162.424 9.072C162.37 9.18933 162.285 9.296 162.168 9.392C162.05 9.47733 161.896 9.52 161.704 9.52C161.469 9.50933 161.282 9.41867 161.144 9.248C161.005 9.06667 160.952 8.85867 160.984 8.624C160.717 8.61333 160.44 8.68267 160.152 8.832C159.874 8.98133 159.613 9.18933 159.368 9.456C159.122 9.712 158.904 10.016 158.712 10.368L158.728 14.304C158.728 14.5173 158.722 14.7093 158.712 14.88C158.712 15.04 158.696 15.2107 158.664 15.392C158.834 15.3813 159 15.376 159.16 15.376C159.33 15.3653 159.501 15.3547 159.672 15.344V16H156.392V15.52ZM167.076 16.256C166.34 16.256 165.673 16.0853 165.076 15.744C164.489 15.392 164.025 14.9013 163.684 14.272C163.343 13.632 163.172 12.88 163.172 12.016C163.172 11.2693 163.337 10.5707 163.668 9.92C164.009 9.26933 164.484 8.74667 165.092 8.352C165.7 7.94667 166.404 7.744 167.204 7.744C167.652 7.744 168.068 7.81867 168.452 7.968C168.847 8.10667 169.193 8.32533 169.492 8.624C169.791 8.912 170.025 9.28 170.196 9.728C170.367 10.1653 170.452 10.6827 170.452 11.28L164.82 11.376C164.82 12.1867 164.905 12.9013 165.076 13.52C165.257 14.128 165.545 14.6027 165.94 14.944C166.335 15.2747 166.841 15.44 167.46 15.44C167.791 15.44 168.127 15.3813 168.468 15.264C168.82 15.1467 169.145 14.9867 169.444 14.784C169.743 14.5813 169.983 14.3573 170.164 14.112L170.548 14.432C170.26 14.88 169.913 15.2373 169.508 15.504C169.103 15.7707 168.687 15.9627 168.26 16.08C167.833 16.1973 167.439 16.256 167.076 16.256ZM164.868 10.704H168.948C168.948 10.32 168.889 9.952 168.772 9.6C168.665 9.23733 168.484 8.944 168.228 8.72C167.972 8.48533 167.636 8.368 167.22 8.368C166.601 8.368 166.084 8.55467 165.668 8.928C165.263 9.29067 164.996 9.88267 164.868 10.704ZM176.709 16C176.677 15.8187 176.655 15.6587 176.645 15.52C176.634 15.3813 176.618 15.2373 176.597 15.088C176.234 15.4507 175.839 15.7387 175.413 15.952C174.997 16.1547 174.554 16.256 174.085 16.256C173.274 16.256 172.671 16.0747 172.277 15.712C171.882 15.3387 171.685 14.8853 171.685 14.352C171.685 13.8613 171.834 13.44 172.133 13.088C172.442 12.7253 172.837 12.432 173.317 12.208C173.807 11.9733 174.335 11.8027 174.901 11.696C175.477 11.5787 176.031 11.5253 176.565 11.536V10.544C176.565 10.1707 176.533 9.81867 176.469 9.488C176.405 9.15733 176.266 8.88533 176.053 8.672C175.839 8.45867 175.498 8.34667 175.029 8.336C174.719 8.32533 174.399 8.384 174.069 8.512C173.749 8.64 173.514 8.85867 173.365 9.168C173.45 9.25333 173.503 9.35467 173.525 9.472C173.557 9.57867 173.573 9.68 173.573 9.776C173.573 9.904 173.519 10.0533 173.413 10.224C173.306 10.384 173.119 10.4587 172.853 10.448C172.629 10.448 172.458 10.3733 172.341 10.224C172.223 10.064 172.165 9.87733 172.165 9.664C172.165 9.30133 172.298 8.976 172.565 8.688C172.842 8.4 173.221 8.17067 173.701 8C174.181 7.82933 174.725 7.744 175.333 7.744C176.229 7.744 176.89 7.984 177.317 8.464C177.743 8.93333 177.951 9.68 177.941 10.704C177.941 11.0987 177.941 11.4987 177.941 11.904C177.941 12.2987 177.935 12.6987 177.925 13.104C177.925 13.4987 177.925 13.8987 177.925 14.304C177.925 14.4747 177.919 14.6453 177.909 14.816C177.898 14.9867 177.882 15.1787 177.861 15.392C178.053 15.3813 178.239 15.3707 178.421 15.36C178.613 15.3493 178.805 15.3387 178.997 15.328V16H176.709ZM176.565 12.08C176.202 12.0907 175.818 12.1387 175.413 12.224C175.018 12.2987 174.65 12.416 174.309 12.576C173.978 12.736 173.706 12.9493 173.493 13.216C173.29 13.472 173.194 13.7867 173.205 14.16C173.226 14.5547 173.354 14.8533 173.589 15.056C173.834 15.248 174.122 15.344 174.453 15.344C174.89 15.344 175.269 15.264 175.589 15.104C175.919 14.9333 176.245 14.6987 176.565 14.4C176.554 14.2827 176.549 14.1547 176.549 14.016C176.549 13.8773 176.549 13.7333 176.549 13.584C176.549 13.5307 176.549 13.36 176.549 13.072C176.559 12.784 176.565 12.4533 176.565 12.08ZM182.993 16.256C182.748 16.256 182.497 16.2187 182.241 16.144C181.985 16.08 181.745 15.9467 181.521 15.744C181.308 15.5413 181.137 15.248 181.009 14.864C180.881 14.4693 180.817 13.952 180.817 13.312L180.849 8.672L179.617 8.688V8C179.895 7.98933 180.177 7.888 180.465 7.696C180.753 7.49333 181.009 7.22133 181.233 6.88C181.468 6.53867 181.628 6.16533 181.713 5.76H182.257V8H184.945V8.624L182.257 8.656L182.225 13.104C182.225 13.584 182.263 13.9947 182.337 14.336C182.423 14.6667 182.556 14.9173 182.737 15.088C182.919 15.2587 183.153 15.344 183.441 15.344C183.74 15.344 184.017 15.2587 184.273 15.088C184.54 14.9173 184.775 14.6827 184.977 14.384L185.409 14.736C185.175 15.088 184.94 15.3653 184.705 15.568C184.481 15.7707 184.263 15.92 184.049 16.016C183.836 16.1227 183.639 16.1867 183.457 16.208C183.276 16.24 183.121 16.256 182.993 16.256ZM190.045 16.256C189.309 16.256 188.642 16.0853 188.045 15.744C187.458 15.392 186.994 14.9013 186.653 14.272C186.311 13.632 186.141 12.88 186.141 12.016C186.141 11.2693 186.306 10.5707 186.637 9.92C186.978 9.26933 187.453 8.74667 188.061 8.352C188.669 7.94667 189.373 7.744 190.173 7.744C190.621 7.744 191.037 7.81867 191.421 7.968C191.815 8.10667 192.162 8.32533 192.461 8.624C192.759 8.912 192.994 9.28 193.165 9.728C193.335 10.1653 193.421 10.6827 193.421 11.28L187.789 11.376C187.789 12.1867 187.874 12.9013 188.045 13.52C188.226 14.128 188.514 14.6027 188.909 14.944C189.303 15.2747 189.81 15.44 190.429 15.44C190.759 15.44 191.095 15.3813 191.437 15.264C191.789 15.1467 192.114 14.9867 192.413 14.784C192.711 14.5813 192.951 14.3573 193.133 14.112L193.517 14.432C193.229 14.88 192.882 15.2373 192.477 15.504C192.071 15.7707 191.655 15.9627 191.229 16.08C190.802 16.1973 190.407 16.256 190.045 16.256ZM187.837 10.704H191.917C191.917 10.32 191.858 9.952 191.741 9.6C191.634 9.23733 191.453 8.944 191.197 8.72C190.941 8.48533 190.605 8.368 190.189 8.368C189.57 8.368 189.053 8.55467 188.637 8.928C188.231 9.29067 187.965 9.88267 187.837 10.704ZM198.191 16.256C197.54 16.256 196.953 16.096 196.431 15.776C195.908 15.4453 195.492 14.976 195.183 14.368C194.884 13.76 194.735 13.0453 194.735 12.224C194.735 11.3493 194.911 10.576 195.263 9.904C195.615 9.232 196.1 8.704 196.719 8.32C197.348 7.936 198.057 7.744 198.847 7.744C199.199 7.744 199.545 7.792 199.887 7.888C200.239 7.97333 200.516 8.07467 200.719 8.192V6C200.719 5.82933 200.719 5.66933 200.719 5.52C200.729 5.36 200.745 5.17333 200.767 4.96C200.575 4.97067 200.383 4.98133 200.191 4.992C200.009 5.00267 199.823 5.01333 199.631 5.024V4.352C200.1 4.352 200.463 4.33067 200.719 4.288C200.975 4.24533 201.167 4.192 201.295 4.128C201.433 4.064 201.54 3.99467 201.615 3.92H202.079V14.304C202.079 14.4747 202.073 14.6453 202.062 14.816C202.052 14.9867 202.036 15.1787 202.015 15.392C202.207 15.3813 202.393 15.3707 202.575 15.36C202.767 15.3493 202.959 15.3387 203.151 15.328V16H200.863C200.831 15.84 200.804 15.696 200.783 15.568C200.772 15.4293 200.761 15.296 200.751 15.168C200.452 15.4987 200.084 15.7653 199.647 15.968C199.209 16.16 198.724 16.256 198.191 16.256ZM198.766 15.472C199.119 15.472 199.471 15.3707 199.823 15.168C200.185 14.9653 200.484 14.7147 200.719 14.416C200.708 14.288 200.703 14.1547 200.703 14.016C200.703 13.8667 200.703 13.7067 200.703 13.536L200.719 8.928C200.463 8.736 200.18 8.59733 199.871 8.512C199.572 8.416 199.263 8.368 198.943 8.368C198.409 8.368 197.945 8.52267 197.551 8.832C197.156 9.14133 196.857 9.57333 196.655 10.128C196.452 10.6827 196.361 11.3333 196.383 12.08C196.404 12.7307 196.505 13.312 196.687 13.824C196.879 14.336 197.145 14.7413 197.487 15.04C197.839 15.328 198.265 15.472 198.766 15.472ZM208.708 16V15.472C209.113 15.4613 209.391 15.3707 209.54 15.2C209.689 15.0187 209.769 14.7787 209.78 14.48C209.801 14.1707 209.812 13.8187 209.812 13.424V6.704C209.812 6.416 209.817 6.17067 209.828 5.968C209.839 5.75467 209.849 5.57867 209.86 5.44C209.668 5.45067 209.476 5.46133 209.284 5.472C209.092 5.48267 208.9 5.49333 208.708 5.504V4.8C209.295 4.78933 209.881 4.784 210.468 4.784C211.065 4.77333 211.684 4.768 212.324 4.768C213.561 4.768 214.527 4.98667 215.22 5.424C215.924 5.86133 216.265 6.55467 216.244 7.504C216.244 7.84533 216.143 8.18667 215.94 8.528C215.748 8.86933 215.455 9.17333 215.06 9.44C214.676 9.696 214.191 9.87733 213.604 9.984V10.016C214.777 10.016 215.663 10.288 216.26 10.832C216.857 11.3653 217.156 12.0427 217.156 12.864C217.156 13.5147 216.991 14.0747 216.66 14.544C216.329 15.0133 215.881 15.376 215.316 15.632C214.751 15.8773 214.105 16 213.38 16H208.708ZM211.156 15.36C211.327 15.3707 211.529 15.3813 211.764 15.392C212.009 15.392 212.233 15.392 212.436 15.392C212.649 15.392 212.788 15.392 212.852 15.392C213.673 15.392 214.335 15.1893 214.836 14.784C215.348 14.368 215.604 13.76 215.604 12.96C215.604 12.3093 215.476 11.8027 215.22 11.44C214.964 11.0773 214.628 10.8213 214.212 10.672C213.796 10.5227 213.343 10.448 212.852 10.448C212.532 10.448 212.239 10.4533 211.972 10.464C211.716 10.464 211.46 10.4747 211.204 10.496V14.112C211.204 14.4 211.199 14.6453 211.188 14.848C211.188 15.0507 211.177 15.2213 211.156 15.36ZM211.204 9.872L212.372 9.84C212.98 9.82933 213.46 9.70667 213.812 9.472C214.164 9.22667 214.415 8.92267 214.564 8.56C214.724 8.19733 214.799 7.81867 214.788 7.424C214.777 6.848 214.644 6.41067 214.388 6.112C214.143 5.81333 213.839 5.61067 213.476 5.504C213.113 5.39733 212.756 5.344 212.404 5.344C212.052 5.344 211.791 5.392 211.62 5.488C211.449 5.584 211.337 5.744 211.284 5.968C211.231 6.192 211.204 6.50133 211.204 6.896V9.872ZM219.514 20.336C219.183 20.336 218.901 20.256 218.666 20.096C218.431 19.936 218.314 19.6907 218.314 19.36C218.314 19.168 218.378 18.992 218.506 18.832C218.634 18.672 218.799 18.592 219.002 18.592C219.258 18.5813 219.429 18.6613 219.514 18.832C219.61 19.0027 219.658 19.152 219.658 19.28C219.658 19.312 219.658 19.344 219.658 19.376C219.658 19.4187 219.653 19.4613 219.642 19.504C219.674 19.5253 219.733 19.536 219.818 19.536C219.946 19.536 220.085 19.4827 220.234 19.376C220.383 19.2693 220.517 19.1147 220.634 18.912C220.773 18.6773 220.933 18.3253 221.114 17.856C221.306 17.3867 221.519 16.8267 221.754 16.176L219.258 10.832C218.981 10.2347 218.778 9.76 218.65 9.408C218.533 9.056 218.453 8.79467 218.41 8.624L217.642 8.656V8H220.954V8.48H220.89C220.442 8.512 220.197 8.68267 220.154 8.992C220.111 9.29067 220.234 9.74933 220.522 10.368L222.394 14.384C222.639 13.7013 222.874 13.0293 223.098 12.368C223.322 11.696 223.546 11.0293 223.77 10.368C223.855 10.1333 223.941 9.89333 224.026 9.648C224.122 9.392 224.213 9.168 224.298 8.976C224.394 8.77333 224.479 8.64533 224.554 8.592L223.45 8.656V8H225.962V8.48C225.567 8.62933 225.269 8.88 225.066 9.232C224.874 9.57333 224.677 10.016 224.474 10.56L222.474 16.144C222.154 17.04 221.861 17.7973 221.594 18.416C221.327 19.0453 221.034 19.52 220.714 19.84C220.394 20.1707 219.994 20.336 219.514 20.336ZM236.682 11.856C236.682 11.3867 236.618 11.0507 236.49 10.848C236.362 10.6453 236.16 10.5227 235.882 10.48C235.605 10.4373 235.237 10.4267 234.778 10.448L233.61 10.496V14.16C233.61 14.448 233.605 14.6933 233.594 14.896C233.594 15.0987 233.584 15.2693 233.562 15.408L236.618 15.36C237.088 15.3493 237.493 15.2747 237.834 15.136C238.176 14.9867 238.442 14.7307 238.634 14.368C238.826 14.0053 238.922 13.5093 238.922 12.88H239.466L239.37 16H231.114V15.472C231.52 15.4507 231.797 15.36 231.946 15.2C232.096 15.0293 232.176 14.8 232.186 14.512C232.208 14.2133 232.218 13.8773 232.218 13.504V6.592C232.218 6.37867 232.224 6.176 232.234 5.984C232.245 5.78133 232.256 5.6 232.266 5.44C232.074 5.45067 231.882 5.46133 231.69 5.472C231.498 5.48267 231.306 5.49333 231.114 5.504V4.8H238.81L238.89 7.6H238.362C238.362 6.97067 238.266 6.496 238.074 6.176C237.882 5.84533 237.621 5.62667 237.29 5.52C236.97 5.40267 236.608 5.34933 236.202 5.36L234.826 5.392C234.432 5.40267 234.149 5.47733 233.978 5.616C233.808 5.75467 233.701 5.96267 233.658 6.24C233.626 6.50667 233.61 6.85867 233.61 7.296V9.856L236.618 9.872L236.506 8.496H237.21V11.856H236.682ZM240.732 15.52C241.062 15.52 241.292 15.44 241.42 15.28C241.548 15.1093 241.622 14.88 241.644 14.592C241.665 14.2933 241.676 13.952 241.676 13.568V6C241.676 5.82933 241.676 5.66933 241.676 5.52C241.686 5.36 241.702 5.17333 241.724 4.96C241.532 4.97067 241.34 4.98133 241.148 4.992C240.966 5.00267 240.78 5.01333 240.588 5.024V4.352C241.057 4.352 241.42 4.33067 241.676 4.288C241.942 4.24533 242.14 4.192 242.268 4.128C242.406 4.064 242.513 3.99467 242.588 3.92H243.052L243.068 14.304C243.068 14.5173 243.062 14.7093 243.052 14.88C243.041 15.04 243.02 15.2107 242.988 15.392C243.158 15.3813 243.324 15.376 243.484 15.376C243.654 15.3653 243.825 15.3547 243.996 15.344V16H240.732V15.52ZM245.251 15.52C245.582 15.52 245.811 15.44 245.939 15.28C246.067 15.1093 246.142 14.88 246.163 14.592C246.184 14.2933 246.195 13.952 246.195 13.568V9.92C246.195 9.74933 246.2 9.58933 246.211 9.44C246.222 9.28 246.238 9.09333 246.259 8.88C246.067 8.89067 245.875 8.90133 245.683 8.912C245.502 8.92267 245.315 8.93333 245.123 8.944V8.272C245.592 8.272 245.955 8.25067 246.211 8.208C246.467 8.16533 246.659 8.112 246.787 8.048C246.926 7.984 247.032 7.91467 247.107 7.84H247.571V14.304C247.571 14.5173 247.566 14.7093 247.555 14.88C247.555 15.04 247.539 15.2107 247.507 15.392C247.678 15.3813 247.843 15.376 248.003 15.376C248.174 15.3653 248.344 15.3547 248.515 15.344V16H245.251V15.52ZM246.803 6.256C246.579 6.256 246.382 6.16533 246.211 5.984C246.04 5.80267 245.955 5.57867 245.955 5.312C245.955 5.04533 246.04 4.82133 246.211 4.64C246.392 4.448 246.595 4.352 246.819 4.352C247.064 4.352 247.267 4.448 247.427 4.64C247.598 4.82133 247.683 5.04533 247.683 5.312C247.683 5.57867 247.592 5.80267 247.411 5.984C247.24 6.16533 247.038 6.256 246.803 6.256ZM249.751 16V15.52C250.082 15.52 250.311 15.44 250.439 15.28C250.567 15.1093 250.642 14.88 250.663 14.592C250.684 14.2933 250.695 13.952 250.695 13.568L250.711 9.92C250.711 9.74933 250.711 9.57867 250.711 9.408C250.722 9.23733 250.743 9.06133 250.775 8.88C250.583 8.89067 250.391 8.90133 250.199 8.912C250.018 8.92267 249.831 8.93333 249.639 8.944V8.272C250.108 8.272 250.46 8.25067 250.695 8.208C250.94 8.16533 251.122 8.112 251.239 8.048C251.356 7.984 251.452 7.91467 251.527 7.84H251.991C252.002 7.91467 252.007 8 252.007 8.096C252.018 8.192 252.028 8.29867 252.039 8.416C252.05 8.53333 252.055 8.66667 252.055 8.816C252.29 8.61333 252.546 8.432 252.823 8.272C253.111 8.112 253.41 7.984 253.719 7.888C254.039 7.792 254.354 7.744 254.663 7.744C255.591 7.744 256.268 8.03733 256.695 8.624C257.122 9.2 257.335 10.1013 257.335 11.328V14.304C257.335 14.5173 257.33 14.7093 257.319 14.88C257.319 15.04 257.303 15.2107 257.271 15.392C257.442 15.3813 257.607 15.376 257.767 15.376C257.938 15.3653 258.108 15.3547 258.279 15.344V16H255.015V15.52C255.346 15.52 255.575 15.44 255.703 15.28C255.831 15.1093 255.906 14.88 255.927 14.592C255.948 14.2933 255.959 13.952 255.959 13.568V11.328C255.948 10.4107 255.794 9.71733 255.495 9.248C255.207 8.77867 254.748 8.54933 254.119 8.56C253.735 8.57067 253.356 8.672 252.983 8.864C252.62 9.056 252.316 9.30133 252.071 9.6C252.082 9.68533 252.087 9.78133 252.087 9.888C252.087 9.99467 252.087 10.1067 252.087 10.224L252.071 14.304C252.071 14.5173 252.066 14.7093 252.055 14.88C252.055 15.04 252.039 15.2107 252.007 15.392C252.178 15.3813 252.343 15.376 252.503 15.376C252.674 15.3653 252.844 15.3547 253.015 15.344V16H249.751ZM264.334 16C264.302 15.8187 264.28 15.6587 264.27 15.52C264.259 15.3813 264.243 15.2373 264.222 15.088C263.859 15.4507 263.464 15.7387 263.038 15.952C262.622 16.1547 262.179 16.256 261.71 16.256C260.899 16.256 260.296 16.0747 259.902 15.712C259.507 15.3387 259.31 14.8853 259.31 14.352C259.31 13.8613 259.459 13.44 259.758 13.088C260.067 12.7253 260.462 12.432 260.942 12.208C261.432 11.9733 261.96 11.8027 262.526 11.696C263.102 11.5787 263.656 11.5253 264.19 11.536V10.544C264.19 10.1707 264.158 9.81867 264.094 9.488C264.03 9.15733 263.891 8.88533 263.678 8.672C263.464 8.45867 263.123 8.34667 262.654 8.336C262.344 8.32533 262.024 8.384 261.694 8.512C261.374 8.64 261.139 8.85867 260.99 9.168C261.075 9.25333 261.128 9.35467 261.15 9.472C261.182 9.57867 261.198 9.68 261.198 9.776C261.198 9.904 261.144 10.0533 261.038 10.224C260.931 10.384 260.744 10.4587 260.478 10.448C260.254 10.448 260.083 10.3733 259.966 10.224C259.848 10.064 259.79 9.87733 259.79 9.664C259.79 9.30133 259.923 8.976 260.19 8.688C260.467 8.4 260.846 8.17067 261.326 8C261.806 7.82933 262.35 7.744 262.958 7.744C263.854 7.744 264.515 7.984 264.942 8.464C265.368 8.93333 265.576 9.68 265.566 10.704C265.566 11.0987 265.566 11.4987 265.566 11.904C265.566 12.2987 265.56 12.6987 265.55 13.104C265.55 13.4987 265.55 13.8987 265.55 14.304C265.55 14.4747 265.544 14.6453 265.534 14.816C265.523 14.9867 265.507 15.1787 265.486 15.392C265.678 15.3813 265.864 15.3707 266.046 15.36C266.238 15.3493 266.43 15.3387 266.622 15.328V16H264.334ZM264.19 12.08C263.827 12.0907 263.443 12.1387 263.038 12.224C262.643 12.2987 262.275 12.416 261.934 12.576C261.603 12.736 261.331 12.9493 261.118 13.216C260.915 13.472 260.819 13.7867 260.83 14.16C260.851 14.5547 260.979 14.8533 261.214 15.056C261.459 15.248 261.747 15.344 262.078 15.344C262.515 15.344 262.894 15.264 263.214 15.104C263.544 14.9333 263.87 14.6987 264.19 14.4C264.179 14.2827 264.174 14.1547 264.174 14.016C264.174 13.8773 264.174 13.7333 264.174 13.584C264.174 13.5307 264.174 13.36 264.174 13.072C264.184 12.784 264.19 12.4533 264.19 12.08ZM271.002 16.256C270.426 16.256 269.941 16.1493 269.546 15.936C269.162 15.7227 268.869 15.36 268.666 14.848C268.474 14.336 268.378 13.6427 268.378 12.768V9.92C268.378 9.74933 268.378 9.57867 268.378 9.408C268.389 9.23733 268.41 9.06133 268.442 8.88C268.261 8.89067 268.074 8.90133 267.882 8.912C267.701 8.912 267.519 8.91733 267.338 8.928V8.272H267.834C268.293 8.272 268.623 8.22933 268.826 8.144C269.039 8.048 269.205 7.94667 269.322 7.84H269.786V12.72C269.786 13.6373 269.914 14.3253 270.17 14.784C270.437 15.232 270.885 15.4507 271.514 15.44C271.919 15.4293 272.303 15.3067 272.666 15.072C273.039 14.8267 273.338 14.5387 273.562 14.208V10.096C273.562 9.84 273.567 9.62133 273.578 9.44C273.589 9.248 273.61 9.06133 273.642 8.88C273.45 8.89067 273.258 8.90133 273.066 8.912C272.874 8.912 272.682 8.91733 272.49 8.928V8.272H272.986C273.445 8.272 273.775 8.22933 273.978 8.144C274.191 8.048 274.357 7.94667 274.474 7.84H274.938L274.922 13.888C274.922 14.0587 274.917 14.2987 274.906 14.608C274.895 14.9173 274.879 15.1787 274.858 15.392C275.05 15.3813 275.242 15.3707 275.434 15.36C275.626 15.3493 275.818 15.3387 276.01 15.328V16H273.722C273.69 15.8187 273.663 15.648 273.642 15.488C273.631 15.328 273.621 15.1787 273.61 15.04C273.279 15.3707 272.879 15.6587 272.41 15.904C271.941 16.1387 271.471 16.256 271.002 16.256ZM277.173 15.52C277.503 15.52 277.733 15.44 277.861 15.28C277.989 15.1093 278.063 14.88 278.085 14.592C278.106 14.2933 278.117 13.952 278.117 13.568V9.92C278.117 9.74933 278.122 9.58933 278.133 9.44C278.143 9.28 278.159 9.09333 278.181 8.88C277.989 8.89067 277.797 8.90133 277.605 8.912C277.423 8.92267 277.237 8.93333 277.045 8.944V8.272C277.514 8.272 277.877 8.25067 278.133 8.208C278.389 8.16533 278.581 8.112 278.709 8.048C278.847 7.984 278.954 7.91467 279.029 7.84H279.493V14.304C279.493 14.5173 279.487 14.7093 279.477 14.88C279.477 15.04 279.461 15.2107 279.429 15.392C279.599 15.3813 279.765 15.376 279.925 15.376C280.095 15.3653 280.266 15.3547 280.437 15.344V16H277.173V15.52ZM278.725 6.256C278.501 6.256 278.303 6.16533 278.133 5.984C277.962 5.80267 277.877 5.57867 277.877 5.312C277.877 5.04533 277.962 4.82133 278.133 4.64C278.314 4.448 278.517 4.352 278.741 4.352C278.986 4.352 279.189 4.448 279.349 4.64C279.519 4.82133 279.605 5.04533 279.605 5.312C279.605 5.57867 279.514 5.80267 279.333 5.984C279.162 6.16533 278.959 6.256 278.725 6.256ZM285.081 16.256C284.387 16.256 283.822 16.1547 283.385 15.952C282.958 15.7387 282.649 15.4773 282.457 15.168C282.265 14.8587 282.169 14.5653 282.169 14.288C282.169 14.0533 282.227 13.856 282.345 13.696C282.462 13.536 282.638 13.4507 282.873 13.44C283.129 13.4293 283.31 13.5093 283.417 13.68C283.534 13.84 283.593 13.9893 283.593 14.128C283.593 14.2347 283.571 14.3467 283.529 14.464C283.497 14.5707 283.443 14.6773 283.369 14.784C283.443 15.0187 283.603 15.2213 283.849 15.392C284.105 15.5627 284.489 15.648 285.001 15.648C285.491 15.648 285.902 15.5307 286.233 15.296C286.563 15.0613 286.83 14.752 287.033 14.368C287.235 13.9733 287.39 13.5467 287.497 13.088C287.603 12.6187 287.673 12.1547 287.705 11.696C287.747 11.2373 287.769 10.8267 287.769 10.464C287.502 10.8267 287.145 11.1413 286.697 11.408C286.249 11.6747 285.71 11.808 285.081 11.808C284.441 11.808 283.902 11.7013 283.465 11.488C283.038 11.264 282.697 10.976 282.441 10.624C282.195 10.272 282.014 9.888 281.897 9.472C281.79 9.056 281.737 8.64533 281.737 8.24C281.737 7.54667 281.891 6.92267 282.201 6.368C282.51 5.80267 282.947 5.36 283.513 5.04C284.078 4.70933 284.745 4.544 285.513 4.544C286.27 4.544 286.889 4.688 287.369 4.976C287.859 5.264 288.243 5.66933 288.521 6.192C288.798 6.704 288.99 7.30667 289.097 8C289.214 8.69333 289.273 9.44533 289.273 10.256C289.273 10.7253 289.241 11.232 289.177 11.776C289.123 12.3093 289.011 12.8427 288.841 13.376C288.681 13.8987 288.446 14.3787 288.137 14.816C287.827 15.2427 287.422 15.5893 286.921 15.856C286.419 16.1227 285.806 16.256 285.081 16.256ZM285.417 11.088C285.758 11.088 286.083 11.008 286.393 10.848C286.713 10.6773 286.995 10.4587 287.241 10.192C287.486 9.92533 287.657 9.63733 287.753 9.328C287.721 8.82667 287.662 8.33067 287.577 7.84C287.491 7.34933 287.358 6.90133 287.177 6.496C287.006 6.09067 286.777 5.76533 286.489 5.52C286.201 5.27467 285.838 5.152 285.401 5.152C284.942 5.152 284.558 5.28533 284.249 5.552C283.939 5.808 283.705 6.144 283.545 6.56C283.395 6.976 283.321 7.41867 283.321 7.888C283.321 8.18667 283.347 8.52267 283.401 8.896C283.454 9.25867 283.55 9.61067 283.689 9.952C283.838 10.2827 284.051 10.5547 284.329 10.768C284.606 10.9813 284.969 11.088 285.417 11.088Z" fill="#FFFBBD" fill-opacity="0.6"/>
<path d="M9.728 34.368C9.62133 33.3653 9.26933 32.5867 8.672 32.032C8.08533 31.4773 7.328 31.2 6.4 31.2C5.83467 31.2 5.30133 31.3227 4.8 31.568C4.30933 31.8027 3.87733 32.144 3.504 32.592C3.13067 33.04 2.83733 33.5787 2.624 34.208C2.41067 34.8373 2.304 35.5467 2.304 36.336C2.304 37.3387 2.496 38.224 2.88 38.992C3.264 39.76 3.78133 40.3573 4.432 40.784C5.08267 41.2107 5.80267 41.424 6.592 41.424C7.28533 41.424 7.968 41.2693 8.64 40.96C9.312 40.64 9.86133 40.1813 10.288 39.584L10.704 39.92C10.2453 40.5493 9.74933 41.0347 9.216 41.376C8.68267 41.7173 8.14933 41.9467 7.616 42.064C7.09333 42.192 6.61333 42.256 6.176 42.256C5.376 42.256 4.64 42.112 3.968 41.824C3.30667 41.536 2.73067 41.136 2.24 40.624C1.76 40.1013 1.38667 39.4987 1.12 38.816C0.864 38.1227 0.736 37.376 0.736 36.576C0.736 35.8187 0.848 35.0827 1.072 34.368C1.30667 33.6533 1.65333 33.008 2.112 32.432C2.57067 31.856 3.14667 31.3973 3.84 31.056C4.544 30.7147 5.36 30.544 6.288 30.544C6.88533 30.544 7.45067 30.624 7.984 30.784C8.51733 30.944 9.02933 31.1893 9.52 31.52L9.44 30.656H10.304V34.368H9.728ZM15.8595 42.256C15.1128 42.256 14.4355 42.0853 13.8275 41.744C13.2195 41.392 12.7342 40.912 12.3715 40.304C12.0195 39.6853 11.8435 38.9813 11.8435 38.192C11.8435 37.3493 12.0195 36.592 12.3715 35.92C12.7235 35.248 13.2035 34.72 13.8115 34.336C14.4195 33.9413 15.1022 33.744 15.8595 33.744C16.6062 33.744 17.2835 33.9253 17.8915 34.288C18.4995 34.64 18.9848 35.12 19.3475 35.728C19.7102 36.336 19.8915 37.0293 19.8915 37.808C19.8915 38.6293 19.7102 39.3813 19.3475 40.064C18.9955 40.736 18.5155 41.2693 17.9075 41.664C17.2995 42.0587 16.6168 42.256 15.8595 42.256ZM15.9875 41.616C16.5528 41.616 17.0008 41.456 17.3315 41.136C17.6622 40.816 17.8968 40.4 18.0355 39.888C18.1848 39.376 18.2595 38.8373 18.2595 38.272C18.2595 37.792 18.2115 37.3227 18.1155 36.864C18.0302 36.3947 17.8915 35.9733 17.6995 35.6C17.5075 35.216 17.2568 34.912 16.9475 34.688C16.6488 34.464 16.2862 34.352 15.8595 34.352C15.3048 34.352 14.8515 34.512 14.4995 34.832C14.1475 35.152 13.8862 35.568 13.7155 36.08C13.5555 36.592 13.4755 37.1413 13.4755 37.728C13.4755 38.3893 13.5662 39.0187 13.7475 39.616C13.9288 40.2027 14.2062 40.6827 14.5795 41.056C14.9528 41.4293 15.4222 41.616 15.9875 41.616ZM21.1069 46.08V45.6C21.4375 45.6 21.6669 45.5147 21.7949 45.344C21.9229 45.184 21.9975 44.9547 22.0189 44.656C22.0402 44.368 22.0509 44.032 22.0509 43.648L22.0829 35.92C22.0829 35.7493 22.0829 35.5787 22.0829 35.408C22.0935 35.2373 22.1149 35.0613 22.1469 34.88C21.9549 34.8907 21.7629 34.9013 21.5709 34.912C21.3895 34.9227 21.2029 34.9333 21.0109 34.944V34.272C21.4802 34.272 21.8322 34.2507 22.0669 34.208C22.3122 34.1653 22.4882 34.112 22.5949 34.048C22.7122 33.984 22.8082 33.9147 22.8829 33.84H23.3629C23.3735 33.9467 23.3842 34.0747 23.3949 34.224C23.4055 34.3627 23.4162 34.5227 23.4269 34.704C23.7469 34.416 24.1255 34.1867 24.5629 34.016C25.0109 33.8347 25.4589 33.744 25.9069 33.744C26.5255 33.744 27.1015 33.904 27.6349 34.224C28.1682 34.544 28.6002 35.0027 28.9309 35.6C29.2615 36.1867 29.4269 36.8907 29.4269 37.712C29.4269 38.6187 29.2349 39.4133 28.8509 40.096C28.4775 40.7787 27.9815 41.312 27.3629 41.696C26.7442 42.0693 26.0722 42.256 25.3469 42.256C24.9735 42.256 24.6269 42.208 24.3069 42.112C23.9975 42.0267 23.7042 41.8987 23.4269 41.728V44.384C23.4269 44.5973 23.4215 44.784 23.4109 44.944C23.4109 45.1147 23.3949 45.2907 23.3629 45.472C23.5335 45.4613 23.6989 45.4507 23.8589 45.44C24.0295 45.44 24.2002 45.4347 24.3709 45.424V46.08H21.1069ZM25.3149 41.616C25.8269 41.616 26.2642 41.4613 26.6269 41.152C27.0002 40.832 27.2829 40.4 27.4749 39.856C27.6775 39.3013 27.7789 38.672 27.7789 37.968C27.7789 37.392 27.6935 36.8427 27.5229 36.32C27.3629 35.7867 27.1015 35.3547 26.7389 35.024C26.3869 34.6933 25.9175 34.528 25.3309 34.528C24.9682 34.528 24.6162 34.6187 24.2749 34.8C23.9442 34.9707 23.6669 35.1787 23.4429 35.424C23.4429 35.4667 23.4429 35.5307 23.4429 35.616C23.4535 35.6907 23.4589 35.8293 23.4589 36.032C23.4589 36.224 23.4589 36.5173 23.4589 36.912C23.4589 37.296 23.4535 37.8187 23.4429 38.48C23.4429 39.1413 23.4429 39.9787 23.4429 40.992C23.7095 41.1947 23.9975 41.3493 24.3069 41.456C24.6269 41.5627 24.9629 41.616 25.3149 41.616ZM31.9048 46.336C31.5741 46.336 31.2914 46.256 31.0568 46.096C30.8221 45.936 30.7048 45.6907 30.7048 45.36C30.7048 45.168 30.7688 44.992 30.8968 44.832C31.0248 44.672 31.1901 44.592 31.3928 44.592C31.6488 44.5813 31.8194 44.6613 31.9048 44.832C32.0008 45.0027 32.0488 45.152 32.0488 45.28C32.0488 45.312 32.0488 45.344 32.0488 45.376C32.0488 45.4187 32.0434 45.4613 32.0328 45.504C32.0648 45.5253 32.1234 45.536 32.2088 45.536C32.3368 45.536 32.4754 45.4827 32.6248 45.376C32.7741 45.2693 32.9074 45.1147 33.0248 44.912C33.1634 44.6773 33.3234 44.3253 33.5048 43.856C33.6968 43.3867 33.9101 42.8267 34.1448 42.176L31.6488 36.832C31.3714 36.2347 31.1688 35.76 31.0408 35.408C30.9234 35.056 30.8434 34.7947 30.8008 34.624L30.0328 34.656V34H33.3448V34.48H33.2808C32.8328 34.512 32.5874 34.6827 32.5448 34.992C32.5021 35.2907 32.6248 35.7493 32.9128 36.368L34.7848 40.384C35.0301 39.7013 35.2648 39.0293 35.4888 38.368C35.7128 37.696 35.9368 37.0293 36.1608 36.368C36.2461 36.1333 36.3314 35.8933 36.4168 35.648C36.5128 35.392 36.6034 35.168 36.6888 34.976C36.7848 34.7733 36.8701 34.6453 36.9448 34.592L35.8408 34.656V34H38.3528V34.48C37.9581 34.6293 37.6594 34.88 37.4568 35.232C37.2648 35.5733 37.0674 36.016 36.8648 36.56L34.8648 42.144C34.5448 43.04 34.2514 43.7973 33.9848 44.416C33.7181 45.0453 33.4248 45.52 33.1048 45.84C32.7848 46.1707 32.3848 46.336 31.9048 46.336ZM39.1259 41.52C39.4565 41.52 39.6859 41.44 39.8139 41.28C39.9419 41.1093 40.0165 40.88 40.0379 40.592C40.0592 40.2933 40.0699 39.952 40.0699 39.568V35.92C40.0699 35.7493 40.0699 35.5787 40.0699 35.408C40.0805 35.2373 40.1019 35.0613 40.1339 34.88C39.9419 34.8907 39.7499 34.9013 39.5579 34.912C39.3765 34.912 39.1899 34.9173 38.9979 34.928V34.272H39.4939C39.9525 34.272 40.2672 34.2293 40.4379 34.144C40.6192 34.048 40.7685 33.9467 40.8859 33.84H41.3499C41.3712 34.0107 41.3872 34.224 41.3979 34.48C41.4085 34.7253 41.4192 35.04 41.4299 35.424C41.5899 35.1573 41.8085 34.896 42.0859 34.64C42.3632 34.384 42.6725 34.1707 43.0139 34C43.3659 33.8293 43.7339 33.744 44.1179 33.744C44.4165 33.744 44.6779 33.824 44.9019 33.984C45.1259 34.144 45.2379 34.4 45.2379 34.752C45.2379 34.8373 45.2112 34.944 45.1579 35.072C45.1045 35.1893 45.0192 35.296 44.9019 35.392C44.7845 35.4773 44.6299 35.52 44.4379 35.52C44.2032 35.5093 44.0165 35.4187 43.8779 35.248C43.7392 35.0667 43.6859 34.8587 43.7179 34.624C43.4512 34.6133 43.1739 34.6827 42.8859 34.832C42.6085 34.9813 42.3472 35.1893 42.1019 35.456C41.8565 35.712 41.6379 36.016 41.4459 36.368L41.4619 40.304C41.4619 40.5173 41.4565 40.7093 41.4459 40.88C41.4459 41.04 41.4299 41.2107 41.3979 41.392C41.5685 41.3813 41.7339 41.376 41.8939 41.376C42.0645 41.3653 42.2352 41.3547 42.4059 41.344V42H39.1259V41.52ZM46.0478 41.52C46.3784 41.52 46.6078 41.44 46.7358 41.28C46.8638 41.1093 46.9384 40.88 46.9598 40.592C46.9811 40.2933 46.9918 39.952 46.9918 39.568V35.92C46.9918 35.7493 46.9971 35.5893 47.0078 35.44C47.0184 35.28 47.0344 35.0933 47.0558 34.88C46.8638 34.8907 46.6718 34.9013 46.4798 34.912C46.2984 34.9227 46.1118 34.9333 45.9198 34.944V34.272C46.3891 34.272 46.7518 34.2507 47.0078 34.208C47.2638 34.1653 47.4558 34.112 47.5838 34.048C47.7224 33.984 47.8291 33.9147 47.9038 33.84H48.3678V40.304C48.3678 40.5173 48.3624 40.7093 48.3518 40.88C48.3518 41.04 48.3358 41.2107 48.3038 41.392C48.4744 41.3813 48.6398 41.376 48.7998 41.376C48.9704 41.3653 49.1411 41.3547 49.3118 41.344V42H46.0478V41.52ZM47.5998 32.256C47.3758 32.256 47.1784 32.1653 47.0078 31.984C46.8371 31.8027 46.7518 31.5787 46.7518 31.312C46.7518 31.0453 46.8371 30.8213 47.0078 30.64C47.1891 30.448 47.3918 30.352 47.6158 30.352C47.8611 30.352 48.0638 30.448 48.2238 30.64C48.3944 30.8213 48.4798 31.0453 48.4798 31.312C48.4798 31.5787 48.3891 31.8027 48.2078 31.984C48.0371 32.1653 47.8344 32.256 47.5998 32.256ZM54.4038 46.336C53.4438 46.336 52.6704 46.2293 52.0838 46.016C51.4971 45.8027 51.0704 45.5307 50.8038 45.2C50.5371 44.8693 50.4038 44.528 50.4038 44.176C50.4038 43.8453 50.4784 43.552 50.6278 43.296C50.7878 43.0507 50.9798 42.8373 51.2038 42.656C51.4384 42.4747 51.6624 42.3413 51.8758 42.256C51.5344 42.1387 51.2624 41.984 51.0598 41.792C50.8678 41.5893 50.7718 41.3227 50.7718 40.992C50.7718 40.6187 50.9211 40.272 51.2198 39.952C51.5184 39.6213 51.9024 39.4187 52.3718 39.344C51.8811 39.1093 51.4864 38.784 51.1878 38.368C50.8998 37.952 50.7558 37.4667 50.7558 36.912C50.7558 36.272 50.9211 35.7173 51.2518 35.248C51.5824 34.768 52.0038 34.4 52.5158 34.144C53.0384 33.8773 53.5771 33.744 54.1318 33.744C54.4838 33.744 54.8358 33.7973 55.1878 33.904C55.5398 34 55.8651 34.144 56.1638 34.336C56.2704 34.0373 56.4198 33.7707 56.6118 33.536C56.8144 33.3013 57.0438 33.12 57.2998 32.992C57.5558 32.8533 57.8224 32.784 58.0998 32.784C58.3771 32.784 58.5851 32.8587 58.7238 33.008C58.8731 33.1467 58.9478 33.3387 58.9478 33.584C58.9478 33.6587 58.9264 33.7493 58.8837 33.856C58.8411 33.9627 58.7664 34.0533 58.6597 34.128C58.5638 34.2027 58.4304 34.24 58.2598 34.24C58.0784 34.24 57.9291 34.1867 57.8118 34.08C57.6944 33.9733 57.6198 33.84 57.5878 33.68C57.3211 33.7227 57.1131 33.8507 56.9638 34.064C56.8144 34.2667 56.7131 34.4907 56.6598 34.736C56.9158 34.9707 57.1184 35.2533 57.2678 35.584C57.4278 35.9147 57.5078 36.2667 57.5078 36.64C57.5078 37.2373 57.3478 37.7707 57.0278 38.24C56.7184 38.7093 56.3078 39.0773 55.7958 39.344C55.2838 39.6 54.7291 39.728 54.1318 39.728C53.9291 39.728 53.7531 39.7173 53.6038 39.696C53.4544 39.664 53.2731 39.648 53.0598 39.648C52.6651 39.648 52.3451 39.744 52.0998 39.936C51.8544 40.128 51.7691 40.3573 51.8438 40.624C51.9291 40.88 52.1904 41.0453 52.6278 41.12C53.0651 41.184 53.6518 41.232 54.3878 41.264C55.2091 41.296 55.9131 41.392 56.4998 41.552C57.0864 41.712 57.5344 41.9573 57.8438 42.288C58.1638 42.6293 58.3238 43.088 58.3238 43.664C58.3238 44.0907 58.2064 44.4693 57.9718 44.8C57.7478 45.1413 57.4438 45.424 57.0598 45.648C56.6864 45.872 56.2651 46.0427 55.7958 46.16C55.3371 46.2773 54.8731 46.336 54.4038 46.336ZM54.3878 45.712C55.3051 45.712 56.0198 45.5413 56.5318 45.2C57.0438 44.8587 57.2998 44.4587 57.2998 44C57.2998 43.6053 57.1664 43.3013 56.8998 43.088C56.6331 42.8853 56.2704 42.7413 55.8118 42.656C55.3531 42.5813 54.8251 42.5387 54.2278 42.528C53.9398 42.5173 53.6571 42.5013 53.3798 42.48C53.1024 42.4693 52.8358 42.4427 52.5798 42.4C52.2918 42.592 52.0678 42.8267 51.9078 43.104C51.7478 43.3813 51.6678 43.6747 51.6678 43.984C51.6678 44.5067 51.9131 44.9227 52.4038 45.232C52.9051 45.552 53.5664 45.712 54.3878 45.712ZM54.1798 39.152C54.5744 39.152 54.8998 39.056 55.1558 38.864C55.4224 38.672 55.6198 38.4107 55.7478 38.08C55.8864 37.7493 55.9558 37.376 55.9558 36.96C55.9558 36.4907 55.8864 36.0533 55.7478 35.648C55.6091 35.2427 55.4011 34.9173 55.1238 34.672C54.8571 34.4267 54.5158 34.304 54.0998 34.304C53.5238 34.304 53.0758 34.5227 52.7558 34.96C52.4464 35.3867 52.2918 35.92 52.2918 36.56C52.2918 37.072 52.3664 37.5253 52.5158 37.92C52.6651 38.304 52.8784 38.608 53.1558 38.832C53.4438 39.0453 53.7851 39.152 54.1798 39.152ZM64.9181 41.52C65.2488 41.52 65.4781 41.44 65.6061 41.28C65.7341 41.1093 65.8088 40.88 65.8301 40.592C65.8515 40.2933 65.8621 39.952 65.8621 39.568V37.328C65.8621 36.4107 65.7128 35.7227 65.4141 35.264C65.1261 34.8053 64.6675 34.5813 64.0381 34.592C63.6435 34.6027 63.2541 34.6987 62.8701 34.88C62.4968 35.0613 62.1928 35.296 61.9581 35.584V40.304C61.9581 40.5173 61.9528 40.7093 61.9421 40.88C61.9315 41.04 61.9101 41.2107 61.8781 41.392C62.0488 41.3813 62.2141 41.376 62.3741 41.376C62.5448 41.3653 62.7155 41.3547 62.8861 41.344V42H59.6221V41.52C59.9528 41.52 60.1821 41.44 60.3101 41.28C60.4381 41.1093 60.5128 40.88 60.5341 40.592C60.5661 40.2933 60.5821 39.952 60.5821 39.568V32C60.5821 31.8293 60.5821 31.6693 60.5821 31.52C60.5928 31.36 60.6088 31.1733 60.6301 30.96C60.4381 30.9707 60.2461 30.9813 60.0541 30.992C59.8728 31.0027 59.6861 31.0133 59.4941 31.024V30.352C59.9635 30.352 60.3261 30.3307 60.5821 30.288C60.8488 30.2453 61.0461 30.192 61.1741 30.128C61.3128 30.064 61.4195 29.9947 61.4941 29.92H61.9581V34.8C62.1928 34.5973 62.4541 34.4213 62.7421 34.272C63.0408 34.112 63.3448 33.984 63.6541 33.888C63.9741 33.792 64.2835 33.744 64.5821 33.744C65.5101 33.744 66.1768 34.0373 66.5821 34.624C66.9981 35.2 67.2115 36.1013 67.2221 37.328L67.2381 40.304C67.2381 40.5173 67.2328 40.7093 67.2221 40.88C67.2221 41.04 67.2061 41.2107 67.1741 41.392C67.3448 41.3813 67.5101 41.376 67.6701 41.376C67.8408 41.3653 68.0115 41.3547 68.1821 41.344V42H64.9181V41.52ZM72.2276 42.256C71.9823 42.256 71.7316 42.2187 71.4756 42.144C71.2196 42.08 70.9796 41.9467 70.7556 41.744C70.5423 41.5413 70.3716 41.248 70.2436 40.864C70.1156 40.4693 70.0516 39.952 70.0516 39.312L70.0836 34.672L68.8516 34.688V34C69.129 33.9893 69.4116 33.888 69.6996 33.696C69.9876 33.4933 70.2436 33.2213 70.4676 32.88C70.7023 32.5387 70.8623 32.1653 70.9476 31.76H71.4916V34H74.1796V34.624L71.4916 34.656L71.4596 39.104C71.4596 39.584 71.497 39.9947 71.5716 40.336C71.657 40.6667 71.7903 40.9173 71.9716 41.088C72.153 41.2587 72.3876 41.344 72.6756 41.344C72.9743 41.344 73.2516 41.2587 73.5076 41.088C73.7743 40.9173 74.009 40.6827 74.2116 40.384L74.6436 40.736C74.409 41.088 74.1743 41.3653 73.9396 41.568C73.7156 41.7707 73.497 41.92 73.2836 42.016C73.0703 42.1227 72.873 42.1867 72.6916 42.208C72.5103 42.24 72.3556 42.256 72.2276 42.256ZM85.9143 42.8C84.9649 42.8 84.1009 42.64 83.3223 42.32C82.5543 42.0107 81.8929 41.5733 81.3383 41.008C80.7836 40.432 80.3569 39.7547 80.0583 38.976C79.7596 38.1973 79.6103 37.3493 79.6103 36.432C79.6103 35.5467 79.7649 34.72 80.0743 33.952C80.3943 33.1733 80.8369 32.4907 81.4023 31.904C81.9676 31.3067 82.6343 30.8427 83.4023 30.512C84.1809 30.1707 85.0289 30 85.9463 30C86.8743 30 87.7223 30.1707 88.4903 30.512C89.2689 30.8427 89.9356 31.3067 90.4903 31.904C91.0556 32.4907 91.4929 33.1733 91.8023 33.952C92.1116 34.72 92.2663 35.5467 92.2663 36.432C92.2663 37.3067 92.1009 38.128 91.7703 38.896C91.4503 39.664 90.9969 40.3413 90.4103 40.928C89.8343 41.5147 89.1623 41.9733 88.3943 42.304C87.6263 42.6347 86.7996 42.8 85.9143 42.8ZM85.9623 42C86.7623 42 87.4823 41.8507 88.1223 41.552C88.7623 41.2533 89.3116 40.8427 89.7703 40.32C90.2396 39.7973 90.5969 39.2053 90.8423 38.544C91.0876 37.872 91.2103 37.168 91.2103 36.432C91.2103 35.696 91.0823 34.992 90.8263 34.32C90.5809 33.6373 90.2236 33.0293 89.7543 32.496C89.2849 31.9627 88.7249 31.5467 88.0743 31.248C87.4236 30.9387 86.7036 30.784 85.9143 30.784C85.1356 30.784 84.4209 30.9387 83.7703 31.248C83.1303 31.5467 82.5809 31.9627 82.1223 32.496C81.6636 33.0293 81.3063 33.6373 81.0503 34.32C80.8049 34.992 80.6823 35.696 80.6823 36.432C80.6823 37.168 80.7996 37.872 81.0343 38.544C81.2796 39.2053 81.6316 39.7973 82.0903 40.32C82.5489 40.8427 83.1036 41.2533 83.7543 41.552C84.4049 41.8507 85.1409 42 85.9623 42ZM86.0103 40.368C85.2743 40.368 84.6129 40.1973 84.0263 39.856C83.4503 39.504 82.9916 39.0347 82.6503 38.448C82.3089 37.8507 82.1383 37.1893 82.1383 36.464C82.1383 35.9947 82.2183 35.52 82.3783 35.04C82.5489 34.56 82.7996 34.1227 83.1302 33.728C83.4609 33.3333 83.8716 33.0187 84.3623 32.784C84.8529 32.5387 85.4183 32.416 86.0583 32.416C86.4529 32.416 86.8316 32.4747 87.1943 32.592C87.5569 32.7093 87.8769 32.8693 88.1543 33.072L88.0903 32.496H88.8903V35.184H88.2503C88.1649 34.4907 87.9249 34 87.5303 33.712C87.1463 33.424 86.6769 33.28 86.1223 33.28C85.7169 33.28 85.3223 33.392 84.9383 33.616C84.5649 33.84 84.2556 34.176 84.0103 34.624C83.7649 35.0613 83.6423 35.6107 83.6423 36.272C83.6423 36.8587 83.7596 37.3867 83.9943 37.856C84.2396 38.3253 84.5756 38.6933 85.0023 38.96C85.4289 39.2267 85.9196 39.36 86.4743 39.36C86.8263 39.36 87.2209 39.2533 87.6583 39.04C88.1063 38.8267 88.4796 38.5387 88.7783 38.176L89.2583 38.736C88.9489 39.1627 88.5969 39.4987 88.2023 39.744C87.8183 39.9787 87.4343 40.144 87.0503 40.24C86.6663 40.3253 86.3196 40.368 86.0103 40.368ZM97.8766 42C97.8766 41.4347 97.962 40.9333 98.1326 40.496C98.314 40.0587 98.554 39.6587 98.8526 39.296C99.1513 38.9227 99.4873 38.5653 99.8606 38.224C100.245 37.872 100.634 37.504 101.029 37.12C101.722 36.4587 102.223 35.8453 102.533 35.28C102.842 34.7147 102.997 34.1707 102.997 33.648C102.997 33.2427 102.938 32.8533 102.821 32.48C102.714 32.096 102.517 31.7813 102.229 31.536C101.941 31.2907 101.541 31.168 101.029 31.168C100.591 31.168 100.202 31.28 99.8606 31.504C99.5193 31.7173 99.29 31.984 99.1726 32.304C99.2793 32.4107 99.354 32.528 99.3966 32.656C99.4393 32.7733 99.4606 32.8907 99.4606 33.008C99.4606 33.104 99.434 33.2107 99.3806 33.328C99.338 33.4453 99.258 33.5467 99.1406 33.632C99.0233 33.7173 98.8686 33.76 98.6766 33.76C98.442 33.7493 98.2606 33.6587 98.1326 33.488C98.0046 33.3173 97.9406 33.1147 97.9406 32.88C97.9406 32.656 98.01 32.4107 98.1486 32.144C98.2873 31.8667 98.4953 31.6107 98.7726 31.376C99.0606 31.1307 99.4126 30.9333 99.8286 30.784C100.245 30.624 100.73 30.544 101.285 30.544C101.711 30.544 102.122 30.5973 102.517 30.704C102.922 30.8 103.285 30.96 103.605 31.184C103.925 31.408 104.175 31.7067 104.357 32.08C104.549 32.4427 104.645 32.896 104.645 33.44C104.645 33.7067 104.586 33.9947 104.469 34.304C104.362 34.6133 104.181 34.9493 103.925 35.312C103.679 35.664 103.359 36.0427 102.965 36.448C102.57 36.8427 102.085 37.2747 101.509 37.744C100.783 38.3413 100.186 38.9067 99.7166 39.44C99.258 39.9627 98.9913 40.4107 98.9166 40.784L101.749 40.864C102.271 40.8747 102.73 40.8747 103.125 40.864C103.53 40.8533 103.845 40.7733 104.069 40.624C104.303 40.464 104.421 40.176 104.421 39.76H104.901L104.805 42H97.8766ZM110.71 42.256C109.9 42.256 109.228 42.0853 108.694 41.744C108.161 41.392 107.745 40.9333 107.446 40.368C107.148 39.792 106.934 39.1627 106.806 38.48C106.689 37.7973 106.63 37.12 106.63 36.448C106.63 35.776 106.705 35.0933 106.854 34.4C107.014 33.7067 107.26 33.072 107.59 32.496C107.921 31.9093 108.348 31.44 108.87 31.088C109.393 30.7253 110.028 30.544 110.774 30.544C111.553 30.544 112.198 30.72 112.71 31.072C113.233 31.424 113.644 31.888 113.942 32.464C114.252 33.0293 114.47 33.6533 114.598 34.336C114.726 35.0187 114.79 35.696 114.79 36.368C114.79 37.0293 114.716 37.7067 114.566 38.4C114.417 39.0933 114.182 39.7333 113.862 40.32C113.542 40.896 113.121 41.3653 112.598 41.728C112.086 42.08 111.457 42.256 110.71 42.256ZM110.806 41.632C111.265 41.632 111.644 41.488 111.942 41.2C112.241 40.912 112.476 40.528 112.646 40.048C112.828 39.568 112.956 39.04 113.03 38.464C113.105 37.8773 113.142 37.2907 113.142 36.704C113.142 36.0533 113.105 35.4027 113.03 34.752C112.956 34.1013 112.828 33.504 112.646 32.96C112.465 32.416 112.22 31.9787 111.91 31.648C111.601 31.3173 111.212 31.152 110.742 31.152C110.284 31.152 109.894 31.296 109.574 31.584C109.265 31.872 109.014 32.256 108.822 32.736C108.63 33.216 108.492 33.7493 108.406 34.336C108.321 34.9227 108.278 35.5147 108.278 36.112C108.278 36.56 108.3 37.0347 108.342 37.536C108.385 38.0373 108.46 38.5333 108.566 39.024C108.684 39.504 108.838 39.9413 109.03 40.336C109.222 40.7307 109.462 41.0453 109.75 41.28C110.038 41.5147 110.39 41.632 110.806 41.632ZM116.299 42C116.299 41.4347 116.384 40.9333 116.555 40.496C116.736 40.0587 116.976 39.6587 117.275 39.296C117.573 38.9227 117.909 38.5653 118.283 38.224C118.667 37.872 119.056 37.504 119.451 37.12C120.144 36.4587 120.645 35.8453 120.955 35.28C121.264 34.7147 121.419 34.1707 121.419 33.648C121.419 33.2427 121.36 32.8533 121.243 32.48C121.136 32.096 120.939 31.7813 120.651 31.536C120.363 31.2907 119.963 31.168 119.451 31.168C119.013 31.168 118.624 31.28 118.283 31.504C117.941 31.7173 117.712 31.984 117.595 32.304C117.701 32.4107 117.776 32.528 117.819 32.656C117.861 32.7733 117.883 32.8907 117.883 33.008C117.883 33.104 117.856 33.2107 117.803 33.328C117.76 33.4453 117.68 33.5467 117.562 33.632C117.445 33.7173 117.291 33.76 117.099 33.76C116.864 33.7493 116.683 33.6587 116.555 33.488C116.427 33.3173 116.363 33.1147 116.363 32.88C116.363 32.656 116.432 32.4107 116.571 32.144C116.709 31.8667 116.917 31.6107 117.195 31.376C117.483 31.1307 117.835 30.9333 118.251 30.784C118.667 30.624 119.152 30.544 119.707 30.544C120.133 30.544 120.544 30.5973 120.939 30.704C121.344 30.8 121.707 30.96 122.027 31.184C122.347 31.408 122.597 31.7067 122.779 32.08C122.971 32.4427 123.067 32.896 123.067 33.44C123.067 33.7067 123.008 33.9947 122.891 34.304C122.784 34.6133 122.603 34.9493 122.347 35.312C122.101 35.664 121.781 36.0427 121.387 36.448C120.992 36.8427 120.507 37.2747 119.931 37.744C119.205 38.3413 118.608 38.9067 118.139 39.44C117.68 39.9627 117.413 40.4107 117.339 40.784L120.171 40.864C120.693 40.8747 121.152 40.8747 121.547 40.864C121.952 40.8533 122.267 40.7733 122.491 40.624C122.725 40.464 122.843 40.176 122.843 39.76H123.323L123.227 42H116.299ZM128.002 42.256C127.234 42.256 126.599 42.144 126.098 41.92C125.597 41.6853 125.223 41.3973 124.978 41.056C124.743 40.7147 124.626 40.3893 124.626 40.08C124.626 39.8347 124.69 39.632 124.818 39.472C124.946 39.3013 125.127 39.2107 125.362 39.2C125.554 39.1893 125.703 39.2267 125.81 39.312C125.927 39.3867 126.007 39.4827 126.05 39.6C126.093 39.7173 126.114 39.824 126.114 39.92C126.114 40.0267 126.098 40.1333 126.066 40.24C126.034 40.3467 125.991 40.4533 125.938 40.56C126.045 40.9227 126.285 41.184 126.658 41.344C127.042 41.504 127.453 41.584 127.89 41.584C128.647 41.584 129.25 41.376 129.698 40.96C130.157 40.544 130.386 39.9413 130.386 39.152C130.386 38.6827 130.311 38.24 130.162 37.824C130.013 37.3973 129.735 37.0507 129.33 36.784C128.925 36.5173 128.333 36.3947 127.554 36.416C127.469 36.416 127.378 36.4213 127.282 36.432C127.186 36.432 127.079 36.4373 126.962 36.448V35.728C127.079 35.728 127.191 35.728 127.298 35.728C127.405 35.728 127.511 35.728 127.618 35.728C128.183 35.728 128.626 35.6 128.946 35.344C129.266 35.088 129.495 34.784 129.634 34.432C129.773 34.08 129.842 33.7547 129.842 33.456C129.842 33.0187 129.783 32.6293 129.666 32.288C129.559 31.936 129.367 31.664 129.09 31.472C128.813 31.2693 128.429 31.168 127.938 31.168C127.458 31.168 127.047 31.296 126.706 31.552C126.365 31.7973 126.151 32.0533 126.066 32.32C126.162 32.4267 126.226 32.5333 126.258 32.64C126.301 32.7467 126.322 32.8587 126.322 32.976C126.322 33.0613 126.295 33.1627 126.242 33.28C126.199 33.3867 126.125 33.4773 126.018 33.552C125.911 33.6267 125.767 33.664 125.586 33.664C125.362 33.664 125.191 33.584 125.074 33.424C124.957 33.264 124.898 33.072 124.898 32.848C124.898 32.5493 125.015 32.224 125.25 31.872C125.485 31.5093 125.842 31.2 126.322 30.944C126.813 30.6773 127.426 30.544 128.162 30.544C128.738 30.544 129.271 30.6347 129.762 30.816C130.253 30.9973 130.647 31.296 130.946 31.712C131.245 32.1173 131.394 32.656 131.394 33.328C131.394 33.6587 131.309 33.9947 131.138 34.336C130.978 34.6667 130.706 34.976 130.322 35.264C129.949 35.552 129.431 35.7973 128.77 36C129.783 36.1067 130.578 36.432 131.154 36.976C131.741 37.52 132.034 38.208 132.034 39.04C132.034 39.7653 131.842 40.368 131.458 40.848C131.085 41.3173 130.589 41.6693 129.97 41.904C129.362 42.1387 128.706 42.256 128.002 42.256ZM143.223 42.256C142.157 42.256 141.213 42.032 140.391 41.584C139.57 41.136 138.93 40.4907 138.471 39.648C138.013 38.8053 137.783 37.8027 137.783 36.64C137.783 35.8827 137.895 35.1467 138.119 34.432C138.354 33.7067 138.701 33.0507 139.159 32.464C139.629 31.8773 140.21 31.4133 140.903 31.072C141.607 30.72 142.423 30.544 143.351 30.544C143.735 30.544 144.125 30.5813 144.519 30.656C144.914 30.72 145.293 30.8213 145.655 30.96C146.029 31.088 146.365 31.2427 146.663 31.424L146.599 30.656H147.479V34.32H146.903C146.861 33.648 146.679 33.0827 146.359 32.624C146.05 32.1547 145.645 31.7973 145.143 31.552C144.642 31.3067 144.082 31.184 143.463 31.184C142.898 31.184 142.365 31.312 141.863 31.568C141.373 31.8133 140.935 32.1653 140.551 32.624C140.178 33.072 139.885 33.6053 139.671 34.224C139.458 34.8427 139.351 35.5253 139.351 36.272C139.351 37.2747 139.533 38.1707 139.895 38.96C140.258 39.7493 140.759 40.368 141.399 40.816C142.05 41.264 142.797 41.488 143.639 41.488C143.927 41.488 144.226 41.4613 144.535 41.408C144.855 41.3547 145.17 41.2693 145.479 41.152C145.799 41.024 146.098 40.8693 146.375 40.688V38.736C146.375 38.48 146.375 38.224 146.375 37.968C146.375 37.7013 146.375 37.44 146.375 37.184C146.194 37.1947 146.007 37.2053 145.815 37.216C145.623 37.2267 145.437 37.2373 145.255 37.248V36.544H148.871V37.072C148.573 37.072 148.343 37.152 148.183 37.312C148.023 37.4613 147.911 37.648 147.847 37.872C147.783 38.0853 147.746 38.2987 147.735 38.512C147.725 38.7147 147.719 38.8693 147.719 38.976V41.424H147.287C147.117 41.424 146.882 41.456 146.583 41.52C146.285 41.584 145.943 41.6907 145.559 41.84C145.229 41.968 144.845 42.0693 144.407 42.144C143.97 42.2187 143.575 42.256 143.223 42.256ZM153.875 42.256C153.128 42.256 152.451 42.0853 151.843 41.744C151.235 41.392 150.75 40.912 150.387 40.304C150.035 39.6853 149.859 38.9813 149.859 38.192C149.859 37.3493 150.035 36.592 150.387 35.92C150.739 35.248 151.219 34.72 151.827 34.336C152.435 33.9413 153.118 33.744 153.875 33.744C154.622 33.744 155.299 33.9253 155.907 34.288C156.515 34.64 157 35.12 157.363 35.728C157.726 36.336 157.907 37.0293 157.907 37.808C157.907 38.6293 157.726 39.3813 157.363 40.064C157.011 40.736 156.531 41.2693 155.923 41.664C155.315 42.0587 154.632 42.256 153.875 42.256ZM154.003 41.616C154.568 41.616 155.016 41.456 155.347 41.136C155.678 40.816 155.912 40.4 156.051 39.888C156.2 39.376 156.275 38.8373 156.275 38.272C156.275 37.792 156.227 37.3227 156.131 36.864C156.046 36.3947 155.907 35.9733 155.715 35.6C155.523 35.216 155.272 34.912 154.963 34.688C154.664 34.464 154.302 34.352 153.875 34.352C153.32 34.352 152.867 34.512 152.515 34.832C152.163 35.152 151.902 35.568 151.731 36.08C151.571 36.592 151.491 37.1413 151.491 37.728C151.491 38.3893 151.582 39.0187 151.763 39.616C151.944 40.2027 152.222 40.6827 152.595 41.056C152.968 41.4293 153.438 41.616 154.003 41.616ZM159.107 41.52C159.437 41.52 159.667 41.44 159.795 41.28C159.923 41.1093 159.997 40.88 160.019 40.592C160.04 40.2933 160.051 39.952 160.051 39.568V32C160.051 31.8293 160.051 31.6693 160.051 31.52C160.061 31.36 160.077 31.1733 160.099 30.96C159.907 30.9707 159.715 30.9813 159.523 30.992C159.341 31.0027 159.155 31.0133 158.963 31.024V30.352C159.432 30.352 159.795 30.3307 160.051 30.288C160.317 30.2453 160.515 30.192 160.643 30.128C160.781 30.064 160.888 29.9947 160.963 29.92H161.427L161.443 40.304C161.443 40.5173 161.437 40.7093 161.427 40.88C161.416 41.04 161.395 41.2107 161.363 41.392C161.533 41.3813 161.699 41.376 161.859 41.376C162.029 41.3653 162.2 41.3547 162.371 41.344V42H159.107V41.52ZM167.05 42.256C166.399 42.256 165.813 42.096 165.29 41.776C164.767 41.4453 164.351 40.976 164.042 40.368C163.743 39.76 163.594 39.0453 163.594 38.224C163.594 37.3493 163.77 36.576 164.122 35.904C164.474 35.232 164.959 34.704 165.578 34.32C166.207 33.936 166.917 33.744 167.706 33.744C168.058 33.744 168.405 33.792 168.746 33.888C169.098 33.9733 169.375 34.0747 169.578 34.192V32C169.578 31.8293 169.578 31.6693 169.578 31.52C169.589 31.36 169.605 31.1733 169.626 30.96C169.434 30.9707 169.242 30.9813 169.05 30.992C168.869 31.0027 168.682 31.0133 168.49 31.024V30.352C168.959 30.352 169.322 30.3307 169.578 30.288C169.834 30.2453 170.026 30.192 170.154 30.128C170.293 30.064 170.399 29.9947 170.474 29.92H170.938V40.304C170.938 40.4747 170.933 40.6453 170.922 40.816C170.911 40.9867 170.895 41.1787 170.874 41.392C171.066 41.3813 171.253 41.3707 171.434 41.36C171.626 41.3493 171.818 41.3387 172.01 41.328V42H169.722C169.69 41.84 169.663 41.696 169.642 41.568C169.631 41.4293 169.621 41.296 169.61 41.168C169.311 41.4987 168.943 41.7653 168.506 41.968C168.069 42.16 167.583 42.256 167.05 42.256ZM167.626 41.472C167.978 41.472 168.33 41.3707 168.682 41.168C169.045 40.9653 169.343 40.7147 169.578 40.416C169.567 40.288 169.562 40.1547 169.562 40.016C169.562 39.8667 169.562 39.7067 169.562 39.536L169.578 34.928C169.322 34.736 169.039 34.5973 168.73 34.512C168.431 34.416 168.122 34.368 167.802 34.368C167.269 34.368 166.805 34.5227 166.41 34.832C166.015 35.1413 165.717 35.5733 165.514 36.128C165.311 36.6827 165.221 37.3333 165.242 38.08C165.263 38.7307 165.365 39.312 165.546 39.824C165.738 40.336 166.005 40.7413 166.346 41.04C166.698 41.328 167.125 41.472 167.626 41.472ZM177.06 42.256C176.324 42.256 175.658 42.0853 175.06 41.744C174.474 41.392 174.01 40.9013 173.668 40.272C173.327 39.632 173.156 38.88 173.156 38.016C173.156 37.2693 173.322 36.5707 173.652 35.92C173.994 35.2693 174.468 34.7467 175.076 34.352C175.684 33.9467 176.388 33.744 177.188 33.744C177.636 33.744 178.052 33.8187 178.436 33.968C178.831 34.1067 179.178 34.3253 179.476 34.624C179.775 34.912 180.01 35.28 180.18 35.728C180.351 36.1653 180.436 36.6827 180.436 37.28L174.804 37.376C174.804 38.1867 174.89 38.9013 175.06 39.52C175.242 40.128 175.53 40.6027 175.924 40.944C176.319 41.2747 176.826 41.44 177.444 41.44C177.775 41.44 178.111 41.3813 178.452 41.264C178.804 41.1467 179.13 40.9867 179.428 40.784C179.727 40.5813 179.967 40.3573 180.148 40.112L180.532 40.432C180.244 40.88 179.898 41.2373 179.492 41.504C179.087 41.7707 178.671 41.9627 178.244 42.08C177.818 42.1973 177.423 42.256 177.06 42.256ZM174.852 36.704H178.932C178.932 36.32 178.874 35.952 178.756 35.6C178.65 35.2373 178.468 34.944 178.212 34.72C177.956 34.4853 177.62 34.368 177.204 34.368C176.586 34.368 176.068 34.5547 175.652 34.928C175.247 35.2907 174.98 35.8827 174.852 36.704ZM181.86 42V41.52C182.191 41.52 182.42 41.44 182.548 41.28C182.676 41.1093 182.751 40.88 182.772 40.592C182.794 40.2933 182.804 39.952 182.804 39.568L182.82 35.92C182.82 35.7493 182.82 35.5787 182.82 35.408C182.831 35.2373 182.852 35.0613 182.884 34.88C182.692 34.8907 182.5 34.9013 182.308 34.912C182.127 34.9227 181.94 34.9333 181.748 34.944V34.272C182.218 34.272 182.57 34.2507 182.804 34.208C183.05 34.1653 183.231 34.112 183.348 34.048C183.466 33.984 183.562 33.9147 183.636 33.84H184.1C184.111 33.9147 184.116 34 184.116 34.096C184.127 34.192 184.138 34.2987 184.148 34.416C184.159 34.5333 184.164 34.6667 184.164 34.816C184.399 34.6133 184.655 34.432 184.932 34.272C185.22 34.112 185.519 33.984 185.828 33.888C186.148 33.792 186.463 33.744 186.772 33.744C187.7 33.744 188.378 34.0373 188.804 34.624C189.231 35.2 189.444 36.1013 189.444 37.328V40.304C189.444 40.5173 189.439 40.7093 189.428 40.88C189.428 41.04 189.412 41.2107 189.38 41.392C189.551 41.3813 189.716 41.376 189.876 41.376C190.047 41.3653 190.218 41.3547 190.388 41.344V42H187.124V41.52C187.455 41.52 187.684 41.44 187.812 41.28C187.94 41.1093 188.015 40.88 188.036 40.592C188.058 40.2933 188.068 39.952 188.068 39.568V37.328C188.058 36.4107 187.903 35.7173 187.604 35.248C187.316 34.7787 186.858 34.5493 186.228 34.56C185.844 34.5707 185.466 34.672 185.092 34.864C184.73 35.056 184.426 35.3013 184.18 35.6C184.191 35.6853 184.196 35.7813 184.196 35.888C184.196 35.9947 184.196 36.1067 184.196 36.224L184.18 40.304C184.18 40.5173 184.175 40.7093 184.164 40.88C184.164 41.04 184.148 41.2107 184.116 41.392C184.287 41.3813 184.452 41.376 184.612 41.376C184.783 41.3653 184.954 41.3547 185.124 41.344V42H181.86ZM195.958 42V41.472C196.363 41.4507 196.641 41.36 196.79 41.2C196.939 41.0293 197.019 40.8 197.03 40.512C197.051 40.2133 197.062 39.8773 197.062 39.504V32.592C197.062 32.3787 197.067 32.176 197.078 31.984C197.089 31.7813 197.099 31.6 197.11 31.44C196.918 31.4507 196.726 31.4613 196.534 31.472C196.342 31.4827 196.15 31.4933 195.958 31.504V30.8H199.558V31.328C199.163 31.3387 198.886 31.4293 198.726 31.6C198.577 31.7707 198.491 32 198.47 32.288C198.459 32.576 198.454 32.912 198.454 33.296V35.952H204.182V32.592C204.182 32.3787 204.187 32.176 204.198 31.984C204.209 31.7813 204.219 31.6 204.23 31.44C204.038 31.4507 203.846 31.4613 203.654 31.472C203.462 31.4827 203.27 31.4933 203.078 31.504V30.8H206.678V31.328C206.283 31.3387 206.006 31.4293 205.846 31.6C205.697 31.7707 205.611 32 205.59 32.288C205.579 32.576 205.574 32.912 205.574 33.296V40.096C205.574 40.384 205.569 40.6347 205.558 40.848C205.558 41.0507 205.547 41.2213 205.526 41.36C205.718 41.3493 205.91 41.3387 206.102 41.328C206.294 41.3173 206.486 41.3067 206.678 41.296V42H203.078V41.472C203.483 41.4507 203.761 41.36 203.91 41.2C204.059 41.0293 204.139 40.8 204.15 40.512C204.171 40.2133 204.182 39.8773 204.182 39.504V36.592L198.454 36.656V40.096C198.454 40.384 198.449 40.6347 198.438 40.848C198.438 41.0507 198.427 41.2213 198.406 41.36C198.598 41.3493 198.79 41.3387 198.982 41.328C199.174 41.3173 199.366 41.3067 199.558 41.296V42H195.958ZM208.157 41.52C208.488 41.52 208.717 41.44 208.845 41.28C208.973 41.1093 209.048 40.88 209.069 40.592C209.09 40.2933 209.101 39.952 209.101 39.568V35.92C209.101 35.7493 209.106 35.5893 209.117 35.44C209.128 35.28 209.144 35.0933 209.165 34.88C208.973 34.8907 208.781 34.9013 208.589 34.912C208.408 34.9227 208.221 34.9333 208.029 34.944V34.272C208.498 34.272 208.861 34.2507 209.117 34.208C209.373 34.1653 209.565 34.112 209.693 34.048C209.832 33.984 209.938 33.9147 210.013 33.84H210.477V40.304C210.477 40.5173 210.472 40.7093 210.461 40.88C210.461 41.04 210.445 41.2107 210.413 41.392C210.584 41.3813 210.749 41.376 210.909 41.376C211.08 41.3653 211.25 41.3547 211.421 41.344V42H208.157V41.52ZM209.709 32.256C209.485 32.256 209.288 32.1653 209.117 31.984C208.946 31.8027 208.861 31.5787 208.861 31.312C208.861 31.0453 208.946 30.8213 209.117 30.64C209.298 30.448 209.501 30.352 209.725 30.352C209.97 30.352 210.173 30.448 210.333 30.64C210.504 30.8213 210.589 31.0453 210.589 31.312C210.589 31.5787 210.498 31.8027 210.317 31.984C210.146 32.1653 209.944 32.256 209.709 32.256ZM215.697 42.048L213.409 36.832C213.238 36.4267 213.105 36.08 213.009 35.792C212.913 35.504 212.844 35.264 212.801 35.072C212.769 34.88 212.748 34.7253 212.737 34.608L212.049 34.656V34H214.993V34.48C214.673 34.48 214.465 34.5653 214.369 34.736C214.284 34.896 214.273 35.1147 214.337 35.392C214.401 35.6587 214.497 35.9467 214.625 36.256L215.857 39.072C215.942 39.2533 216.022 39.4453 216.097 39.648C216.182 39.84 216.262 40.0427 216.337 40.256H216.353C216.406 40.096 216.465 39.9253 216.529 39.744C216.604 39.5627 216.668 39.3867 216.721 39.216L218.001 35.712C218.086 35.456 218.177 35.232 218.273 35.04C218.369 34.848 218.438 34.704 218.481 34.608L217.457 34.656V34H219.985V34.48C219.75 34.48 219.553 34.56 219.393 34.72C219.233 34.88 219.078 35.12 218.929 35.44C218.79 35.76 218.625 36.16 218.433 36.64L216.337 42.048H215.697ZM224.529 42.256C223.793 42.256 223.126 42.0853 222.529 41.744C221.942 41.392 221.478 40.9013 221.137 40.272C220.796 39.632 220.625 38.88 220.625 38.016C220.625 37.2693 220.79 36.5707 221.121 35.92C221.462 35.2693 221.937 34.7467 222.545 34.352C223.153 33.9467 223.857 33.744 224.657 33.744C225.105 33.744 225.521 33.8187 225.905 33.968C226.3 34.1067 226.646 34.3253 226.945 34.624C227.244 34.912 227.478 35.28 227.649 35.728C227.82 36.1653 227.905 36.6827 227.905 37.28L222.273 37.376C222.273 38.1867 222.358 38.9013 222.529 39.52C222.71 40.128 222.998 40.6027 223.393 40.944C223.788 41.2747 224.294 41.44 224.913 41.44C225.244 41.44 225.58 41.3813 225.921 41.264C226.273 41.1467 226.598 40.9867 226.897 40.784C227.196 40.5813 227.436 40.3573 227.617 40.112L228.001 40.432C227.713 40.88 227.366 41.2373 226.961 41.504C226.556 41.7707 226.14 41.9627 225.713 42.08C225.286 42.1973 224.892 42.256 224.529 42.256ZM222.321 36.704H226.401C226.401 36.32 226.342 35.952 226.225 35.6C226.118 35.2373 225.937 34.944 225.681 34.72C225.425 34.4853 225.089 34.368 224.673 34.368C224.054 34.368 223.537 34.5547 223.121 34.928C222.716 35.2907 222.449 35.8827 222.321 36.704ZM233.708 42V41.472C234.113 41.4507 234.391 41.36 234.54 41.2C234.689 41.0293 234.769 40.8 234.78 40.512C234.801 40.2133 234.812 39.8773 234.812 39.504V32.592C234.812 32.3787 234.817 32.176 234.828 31.984C234.839 31.7813 234.849 31.6 234.86 31.44C234.668 31.4507 234.476 31.4613 234.284 31.472C234.092 31.4827 233.9 31.4933 233.708 31.504V30.8H237.308V31.328C236.913 31.3387 236.636 31.4293 236.476 31.6C236.327 31.7707 236.241 32 236.22 32.288C236.209 32.576 236.204 32.912 236.204 33.296V35.952H241.932V32.592C241.932 32.3787 241.937 32.176 241.948 31.984C241.959 31.7813 241.969 31.6 241.98 31.44C241.788 31.4507 241.596 31.4613 241.404 31.472C241.212 31.4827 241.02 31.4933 240.828 31.504V30.8H244.428V31.328C244.033 31.3387 243.756 31.4293 243.596 31.6C243.447 31.7707 243.361 32 243.34 32.288C243.329 32.576 243.324 32.912 243.324 33.296V40.096C243.324 40.384 243.319 40.6347 243.308 40.848C243.308 41.0507 243.297 41.2213 243.276 41.36C243.468 41.3493 243.66 41.3387 243.852 41.328C244.044 41.3173 244.236 41.3067 244.428 41.296V42H240.828V41.472C241.233 41.4507 241.511 41.36 241.66 41.2C241.809 41.0293 241.889 40.8 241.9 40.512C241.921 40.2133 241.932 39.8773 241.932 39.504V36.592L236.204 36.656V40.096C236.204 40.384 236.199 40.6347 236.188 40.848C236.188 41.0507 236.177 41.2213 236.156 41.36C236.348 41.3493 236.54 41.3387 236.732 41.328C236.924 41.3173 237.116 41.3067 237.308 41.296V42H233.708ZM249.625 42.256C248.878 42.256 248.201 42.0853 247.593 41.744C246.985 41.392 246.5 40.912 246.137 40.304C245.785 39.6853 245.609 38.9813 245.609 38.192C245.609 37.3493 245.785 36.592 246.137 35.92C246.489 35.248 246.969 34.72 247.577 34.336C248.185 33.9413 248.868 33.744 249.625 33.744C250.372 33.744 251.049 33.9253 251.657 34.288C252.265 34.64 252.75 35.12 253.113 35.728C253.476 36.336 253.657 37.0293 253.657 37.808C253.657 38.6293 253.476 39.3813 253.113 40.064C252.761 40.736 252.281 41.2693 251.673 41.664C251.065 42.0587 250.382 42.256 249.625 42.256ZM249.753 41.616C250.318 41.616 250.766 41.456 251.097 41.136C251.428 40.816 251.662 40.4 251.801 39.888C251.95 39.376 252.025 38.8373 252.025 38.272C252.025 37.792 251.977 37.3227 251.881 36.864C251.796 36.3947 251.657 35.9733 251.465 35.6C251.273 35.216 251.022 34.912 250.713 34.688C250.414 34.464 250.052 34.352 249.625 34.352C249.07 34.352 248.617 34.512 248.265 34.832C247.913 35.152 247.652 35.568 247.481 36.08C247.321 36.592 247.241 37.1413 247.241 37.728C247.241 38.3893 247.332 39.0187 247.513 39.616C247.694 40.2027 247.972 40.6827 248.345 41.056C248.718 41.4293 249.188 41.616 249.753 41.616ZM255.017 42V41.52C255.347 41.52 255.577 41.44 255.705 41.28C255.833 41.1093 255.907 40.88 255.929 40.592C255.95 40.2933 255.961 39.952 255.961 39.568L255.977 35.92C255.977 35.7493 255.977 35.5787 255.977 35.408C255.987 35.2373 256.009 35.0613 256.041 34.88C255.849 34.8907 255.657 34.9013 255.465 34.912C255.283 34.9227 255.097 34.9333 254.905 34.944V34.272C255.374 34.272 255.726 34.2507 255.961 34.208C256.206 34.1653 256.387 34.112 256.505 34.048C256.622 33.984 256.718 33.9147 256.793 33.84H257.257C257.267 33.9147 257.273 34 257.273 34.096C257.283 34.192 257.294 34.2987 257.305 34.416C257.315 34.5333 257.321 34.6667 257.321 34.816C257.555 34.6133 257.811 34.432 258.089 34.272C258.377 34.112 258.675 33.984 258.985 33.888C259.305 33.792 259.619 33.744 259.929 33.744C260.857 33.744 261.534 34.0373 261.961 34.624C262.387 35.2 262.601 36.1013 262.601 37.328V40.304C262.601 40.5173 262.595 40.7093 262.585 40.88C262.585 41.04 262.569 41.2107 262.536 41.392C262.707 41.3813 262.873 41.376 263.033 41.376C263.203 41.3653 263.374 41.3547 263.545 41.344V42H260.281V41.52C260.611 41.52 260.841 41.44 260.969 41.28C261.097 41.1093 261.171 40.88 261.193 40.592C261.214 40.2933 261.225 39.952 261.225 39.568V37.328C261.214 36.4107 261.059 35.7173 260.761 35.248C260.473 34.7787 260.014 34.5493 259.385 34.56C259.001 34.5707 258.622 34.672 258.249 34.864C257.886 35.056 257.582 35.3013 257.337 35.6C257.347 35.6853 257.353 35.7813 257.353 35.888C257.353 35.9947 257.353 36.1067 257.353 36.224L257.337 40.304C257.337 40.5173 257.331 40.7093 257.321 40.88C257.321 41.04 257.305 41.2107 257.273 41.392C257.443 41.3813 257.609 41.376 257.769 41.376C257.939 41.3653 258.11 41.3547 258.281 41.344V42H255.017ZM268.607 42.256C267.871 42.256 267.205 42.0853 266.607 41.744C266.021 41.392 265.557 40.9013 265.215 40.272C264.874 39.632 264.703 38.88 264.703 38.016C264.703 37.2693 264.869 36.5707 265.199 35.92C265.541 35.2693 266.015 34.7467 266.623 34.352C267.231 33.9467 267.935 33.744 268.735 33.744C269.183 33.744 269.599 33.8187 269.983 33.968C270.378 34.1067 270.725 34.3253 271.023 34.624C271.322 34.912 271.557 35.28 271.727 35.728C271.898 36.1653 271.983 36.6827 271.983 37.28L266.351 37.376C266.351 38.1867 266.437 38.9013 266.607 39.52C266.789 40.128 267.077 40.6027 267.471 40.944C267.866 41.2747 268.373 41.44 268.991 41.44C269.322 41.44 269.658 41.3813 269.999 41.264C270.351 41.1467 270.677 40.9867 270.975 40.784C271.274 40.5813 271.514 40.3573 271.695 40.112L272.079 40.432C271.791 40.88 271.445 41.2373 271.039 41.504C270.634 41.7707 270.218 41.9627 269.791 42.08C269.365 42.1973 268.97 42.256 268.607 42.256ZM266.399 36.704H270.479C270.479 36.32 270.421 35.952 270.303 35.6C270.197 35.2373 270.015 34.944 269.759 34.72C269.503 34.4853 269.167 34.368 268.751 34.368C268.133 34.368 267.615 34.5547 267.199 34.928C266.794 35.2907 266.527 35.8827 266.399 36.704ZM274.561 46.336C274.23 46.336 273.948 46.256 273.713 46.096C273.478 45.936 273.361 45.6907 273.361 45.36C273.361 45.168 273.425 44.992 273.553 44.832C273.681 44.672 273.846 44.592 274.049 44.592C274.305 44.5813 274.476 44.6613 274.561 44.832C274.657 45.0027 274.705 45.152 274.705 45.28C274.705 45.312 274.705 45.344 274.705 45.376C274.705 45.4187 274.7 45.4613 274.689 45.504C274.721 45.5253 274.78 45.536 274.865 45.536C274.993 45.536 275.132 45.4827 275.281 45.376C275.43 45.2693 275.564 45.1147 275.681 44.912C275.82 44.6773 275.98 44.3253 276.161 43.856C276.353 43.3867 276.566 42.8267 276.801 42.176L274.305 36.832C274.028 36.2347 273.825 35.76 273.697 35.408C273.58 35.056 273.5 34.7947 273.457 34.624L272.689 34.656V34H276.001V34.48H275.937C275.489 34.512 275.244 34.6827 275.201 34.992C275.158 35.2907 275.281 35.7493 275.569 36.368L277.441 40.384C277.686 39.7013 277.921 39.0293 278.145 38.368C278.369 37.696 278.593 37.0293 278.817 36.368C278.902 36.1333 278.988 35.8933 279.073 35.648C279.169 35.392 279.26 35.168 279.345 34.976C279.441 34.7733 279.526 34.6453 279.601 34.592L278.497 34.656V34H281.009V34.48C280.614 34.6293 280.316 34.88 280.113 35.232C279.921 35.5733 279.724 36.016 279.521 36.56L277.521 42.144C277.201 43.04 276.908 43.7973 276.641 44.416C276.374 45.0453 276.081 45.52 275.761 45.84C275.441 46.1707 275.041 46.336 274.561 46.336ZM282.436 42.256C282.191 42.256 281.972 42.16 281.78 41.968C281.599 41.7653 281.508 41.52 281.508 41.232C281.508 40.944 281.604 40.6987 281.796 40.496C281.988 40.2933 282.207 40.192 282.452 40.192C282.719 40.192 282.938 40.2933 283.108 40.496C283.29 40.6987 283.38 40.944 283.38 41.232C283.38 41.52 283.284 41.7653 283.092 41.968C282.9 42.16 282.682 42.256 282.436 42.256ZM288.529 42V41.472C288.849 41.472 289.094 41.3867 289.265 41.216C289.436 41.0453 289.574 40.8107 289.681 40.512C289.798 40.2133 289.932 39.8667 290.081 39.472L293.377 30.496H293.761L297.329 39.6C297.414 39.824 297.51 40.112 297.617 40.464C297.724 40.816 297.766 41.1147 297.745 41.36C297.926 41.3493 298.108 41.3387 298.289 41.328C298.47 41.3173 298.652 41.3067 298.833 41.296V42H295.169V41.472C295.574 41.4613 295.841 41.3707 295.969 41.2C296.097 41.0293 296.145 40.8267 296.113 40.592C296.081 40.3573 296.028 40.144 295.953 39.952L295.393 38.448L291.233 38.544L290.673 40.256C290.598 40.512 290.529 40.7147 290.465 40.864C290.412 41.0133 290.348 41.1787 290.273 41.36C290.486 41.3493 290.694 41.3387 290.897 41.328C291.11 41.3173 291.318 41.3067 291.521 41.296V42H288.529ZM291.473 37.856H295.169L294.033 34.8C293.916 34.4693 293.793 34.144 293.665 33.824C293.548 33.4933 293.43 33.1627 293.313 32.832H293.281C293.174 33.1307 293.062 33.4293 292.945 33.728C292.838 34.0267 292.726 34.3307 292.609 34.64L291.473 37.856ZM299.185 41.52C299.515 41.52 299.745 41.44 299.873 41.28C300.001 41.1093 300.075 40.88 300.097 40.592C300.118 40.2933 300.129 39.952 300.129 39.568V32C300.129 31.8293 300.129 31.6693 300.129 31.52C300.139 31.36 300.155 31.1733 300.177 30.96C299.985 30.9707 299.793 30.9813 299.601 30.992C299.419 31.0027 299.233 31.0133 299.041 31.024V30.352C299.51 30.352 299.873 30.3307 300.129 30.288C300.395 30.2453 300.593 30.192 300.721 30.128C300.859 30.064 300.966 29.9947 301.041 29.92H301.505L301.521 40.304C301.521 40.5173 301.515 40.7093 301.505 40.88C301.494 41.04 301.473 41.2107 301.441 41.392C301.611 41.3813 301.777 41.376 301.937 41.376C302.107 41.3653 302.278 41.3547 302.449 41.344V42H299.185V41.52ZM303.544 41.52C303.875 41.52 304.104 41.44 304.232 41.28C304.36 41.1093 304.435 40.88 304.456 40.592C304.477 40.2933 304.488 39.952 304.488 39.568V32C304.488 31.8293 304.488 31.6693 304.488 31.52C304.499 31.36 304.515 31.1733 304.536 30.96C304.344 30.9707 304.152 30.9813 303.96 30.992C303.779 31.0027 303.592 31.0133 303.4 31.024V30.352C303.869 30.352 304.232 30.3307 304.488 30.288C304.755 30.2453 304.952 30.192 305.08 30.128C305.219 30.064 305.325 29.9947 305.4 29.92H305.864L305.88 40.304C305.88 40.5173 305.875 40.7093 305.864 40.88C305.853 41.04 305.832 41.2107 305.8 41.392C305.971 41.3813 306.136 41.376 306.296 41.376C306.467 41.3653 306.637 41.3547 306.808 41.344V42H303.544V41.52ZM312.443 42V41.472C312.848 41.4507 313.125 41.36 313.275 41.2C313.424 41.0293 313.504 40.8 313.515 40.512C313.536 40.2133 313.547 39.8773 313.547 39.504V32.592C313.547 32.3787 313.552 32.176 313.562 31.984C313.573 31.7813 313.584 31.6 313.595 31.44C313.403 31.4507 313.211 31.4613 313.019 31.472C312.827 31.4827 312.635 31.4933 312.443 31.504V30.8C313.04 30.7893 313.643 30.7787 314.251 30.768C314.869 30.7573 315.488 30.7627 316.107 30.784C317.141 30.7947 317.973 30.9173 318.603 31.152C319.243 31.376 319.712 31.7013 320.01 32.128C320.309 32.544 320.459 33.0507 320.459 33.648C320.469 34.064 320.389 34.4907 320.219 34.928C320.059 35.3547 319.76 35.7387 319.323 36.08C318.896 36.4213 318.277 36.6773 317.467 36.848C317.68 36.9973 317.867 37.1893 318.027 37.424C318.187 37.6587 318.368 37.9307 318.571 38.24L319.659 39.952C319.84 40.24 320.016 40.5013 320.187 40.736C320.357 40.96 320.555 41.1413 320.779 41.28C321.003 41.408 321.28 41.472 321.611 41.472V42H319.595C319.285 41.7227 319.024 41.4453 318.811 41.168C318.608 40.8907 318.395 40.576 318.171 40.224L317.099 38.512C316.96 38.288 316.8 38.032 316.619 37.744C316.448 37.4453 316.251 37.1947 316.027 36.992C315.856 37.0027 315.675 37.008 315.483 37.008C315.301 37.008 315.12 37.0027 314.939 36.992V40.096C314.939 40.384 314.933 40.6347 314.923 40.848C314.923 41.0507 314.912 41.2213 314.891 41.36C315.019 41.3493 315.147 41.344 315.275 41.344C315.403 41.3333 315.531 41.3227 315.659 41.312C315.787 41.3013 315.915 41.296 316.043 41.296V42H312.443ZM315.931 36.4C316.517 36.3787 317.029 36.2827 317.467 36.112C317.915 35.9413 318.267 35.6693 318.523 35.296C318.779 34.9227 318.907 34.432 318.907 33.824C318.907 33.4187 318.848 33.0667 318.731 32.768C318.624 32.4587 318.453 32.2027 318.219 32C317.984 31.7973 317.685 31.648 317.323 31.552C316.96 31.4453 316.533 31.392 316.043 31.392C315.648 31.392 315.371 31.472 315.211 31.632C315.061 31.792 314.976 32.016 314.955 32.304C314.944 32.5813 314.939 32.912 314.939 33.296V36.368C315.109 36.3787 315.269 36.3893 315.419 36.4C315.579 36.4107 315.749 36.4107 315.931 36.4ZM322.313 41.52C322.644 41.52 322.873 41.44 323.001 41.28C323.129 41.1093 323.204 40.88 323.225 40.592C323.247 40.2933 323.257 39.952 323.257 39.568V35.92C323.257 35.7493 323.263 35.5893 323.273 35.44C323.284 35.28 323.3 35.0933 323.321 34.88C323.129 34.8907 322.937 34.9013 322.745 34.912C322.564 34.9227 322.377 34.9333 322.185 34.944V34.272C322.655 34.272 323.017 34.2507 323.273 34.208C323.529 34.1653 323.721 34.112 323.849 34.048C323.988 33.984 324.095 33.9147 324.169 33.84H324.633V40.304C324.633 40.5173 324.628 40.7093 324.617 40.88C324.617 41.04 324.601 41.2107 324.569 41.392C324.74 41.3813 324.905 41.376 325.065 41.376C325.236 41.3653 325.407 41.3547 325.577 41.344V42H322.313V41.52ZM323.865 32.256C323.641 32.256 323.444 32.1653 323.273 31.984C323.103 31.8027 323.017 31.5787 323.017 31.312C323.017 31.0453 323.103 30.8213 323.273 30.64C323.455 30.448 323.657 30.352 323.881 30.352C324.127 30.352 324.329 30.448 324.489 30.64C324.66 30.8213 324.745 31.0453 324.745 31.312C324.745 31.5787 324.655 31.8027 324.473 31.984C324.303 32.1653 324.1 32.256 323.865 32.256ZM330.669 46.336C329.709 46.336 328.936 46.2293 328.349 46.016C327.763 45.8027 327.336 45.5307 327.069 45.2C326.803 44.8693 326.669 44.528 326.669 44.176C326.669 43.8453 326.744 43.552 326.893 43.296C327.053 43.0507 327.245 42.8373 327.469 42.656C327.704 42.4747 327.928 42.3413 328.141 42.256C327.8 42.1387 327.528 41.984 327.325 41.792C327.133 41.5893 327.037 41.3227 327.037 40.992C327.037 40.6187 327.187 40.272 327.485 39.952C327.784 39.6213 328.168 39.4187 328.637 39.344C328.147 39.1093 327.752 38.784 327.453 38.368C327.165 37.952 327.021 37.4667 327.021 36.912C327.021 36.272 327.187 35.7173 327.517 35.248C327.848 34.768 328.269 34.4 328.781 34.144C329.304 33.8773 329.843 33.744 330.397 33.744C330.749 33.744 331.101 33.7973 331.453 33.904C331.805 34 332.131 34.144 332.429 34.336C332.536 34.0373 332.685 33.7707 332.877 33.536C333.08 33.3013 333.309 33.12 333.565 32.992C333.821 32.8533 334.088 32.784 334.365 32.784C334.643 32.784 334.851 32.8587 334.989 33.008C335.139 33.1467 335.213 33.3387 335.213 33.584C335.213 33.6587 335.192 33.7493 335.149 33.856C335.107 33.9627 335.032 34.0533 334.925 34.128C334.829 34.2027 334.696 34.24 334.525 34.24C334.344 34.24 334.195 34.1867 334.077 34.08C333.96 33.9733 333.885 33.84 333.853 33.68C333.587 33.7227 333.379 33.8507 333.229 34.064C333.08 34.2667 332.979 34.4907 332.925 34.736C333.181 34.9707 333.384 35.2533 333.533 35.584C333.693 35.9147 333.773 36.2667 333.773 36.64C333.773 37.2373 333.613 37.7707 333.293 38.24C332.984 38.7093 332.573 39.0773 332.061 39.344C331.549 39.6 330.995 39.728 330.397 39.728C330.195 39.728 330.019 39.7173 329.869 39.696C329.72 39.664 329.539 39.648 329.325 39.648C328.931 39.648 328.611 39.744 328.365 39.936C328.12 40.128 328.035 40.3573 328.109 40.624C328.195 40.88 328.456 41.0453 328.893 41.12C329.331 41.184 329.917 41.232 330.653 41.264C331.475 41.296 332.179 41.392 332.765 41.552C333.352 41.712 333.8 41.9573 334.109 42.288C334.429 42.6293 334.589 43.088 334.589 43.664C334.589 44.0907 334.472 44.4693 334.237 44.8C334.013 45.1413 333.709 45.424 333.325 45.648C332.952 45.872 332.531 46.0427 332.061 46.16C331.603 46.2773 331.139 46.336 330.669 46.336ZM330.653 45.712C331.571 45.712 332.285 45.5413 332.797 45.2C333.309 44.8587 333.565 44.4587 333.565 44C333.565 43.6053 333.432 43.3013 333.165 43.088C332.899 42.8853 332.536 42.7413 332.077 42.656C331.619 42.5813 331.091 42.5387 330.493 42.528C330.205 42.5173 329.923 42.5013 329.645 42.48C329.368 42.4693 329.101 42.4427 328.845 42.4C328.557 42.592 328.333 42.8267 328.173 43.104C328.013 43.3813 327.933 43.6747 327.933 43.984C327.933 44.5067 328.179 44.9227 328.669 45.232C329.171 45.552 329.832 45.712 330.653 45.712ZM330.445 39.152C330.84 39.152 331.165 39.056 331.421 38.864C331.688 38.672 331.885 38.4107 332.013 38.08C332.152 37.7493 332.221 37.376 332.221 36.96C332.221 36.4907 332.152 36.0533 332.013 35.648C331.875 35.2427 331.667 34.9173 331.389 34.672C331.123 34.4267 330.781 34.304 330.365 34.304C329.789 34.304 329.341 34.5227 329.021 34.96C328.712 35.3867 328.557 35.92 328.557 36.56C328.557 37.072 328.632 37.5253 328.781 37.92C328.931 38.304 329.144 38.608 329.421 38.832C329.709 39.0453 330.051 39.152 330.445 39.152ZM341.184 41.52C341.514 41.52 341.744 41.44 341.872 41.28C342 41.1093 342.074 40.88 342.096 40.592C342.117 40.2933 342.128 39.952 342.128 39.568V37.328C342.128 36.4107 341.978 35.7227 341.68 35.264C341.392 34.8053 340.933 34.5813 340.304 34.592C339.909 34.6027 339.52 34.6987 339.136 34.88C338.762 35.0613 338.458 35.296 338.224 35.584V40.304C338.224 40.5173 338.218 40.7093 338.208 40.88C338.197 41.04 338.176 41.2107 338.144 41.392C338.314 41.3813 338.48 41.376 338.64 41.376C338.81 41.3653 338.981 41.3547 339.152 41.344V42H335.888V41.52C336.218 41.52 336.448 41.44 336.576 41.28C336.704 41.1093 336.778 40.88 336.8 40.592C336.832 40.2933 336.848 39.952 336.848 39.568V32C336.848 31.8293 336.848 31.6693 336.848 31.52C336.858 31.36 336.874 31.1733 336.896 30.96C336.704 30.9707 336.512 30.9813 336.32 30.992C336.138 31.0027 335.952 31.0133 335.76 31.024V30.352C336.229 30.352 336.592 30.3307 336.848 30.288C337.114 30.2453 337.312 30.192 337.44 30.128C337.578 30.064 337.685 29.9947 337.76 29.92H338.224V34.8C338.458 34.5973 338.72 34.4213 339.008 34.272C339.306 34.112 339.61 33.984 339.92 33.888C340.24 33.792 340.549 33.744 340.848 33.744C341.776 33.744 342.442 34.0373 342.848 34.624C343.264 35.2 343.477 36.1013 343.488 37.328L343.504 40.304C343.504 40.5173 343.498 40.7093 343.488 40.88C343.488 41.04 343.472 41.2107 343.44 41.392C343.61 41.3813 343.776 41.376 343.936 41.376C344.106 41.3653 344.277 41.3547 344.448 41.344V42H341.184V41.52ZM348.493 42.256C348.248 42.256 347.997 42.2187 347.741 42.144C347.485 42.08 347.245 41.9467 347.021 41.744C346.808 41.5413 346.637 41.248 346.509 40.864C346.381 40.4693 346.317 39.952 346.317 39.312L346.349 34.672L345.117 34.688V34C345.395 33.9893 345.677 33.888 345.965 33.696C346.253 33.4933 346.509 33.2213 346.733 32.88C346.968 32.5387 347.128 32.1653 347.213 31.76H347.757V34H350.445V34.624L347.757 34.656L347.725 39.104C347.725 39.584 347.763 39.9947 347.837 40.336C347.923 40.6667 348.056 40.9173 348.237 41.088C348.419 41.2587 348.653 41.344 348.941 41.344C349.24 41.344 349.517 41.2587 349.773 41.088C350.04 40.9173 350.275 40.6827 350.477 40.384L350.909 40.736C350.675 41.088 350.44 41.3653 350.205 41.568C349.981 41.7707 349.763 41.92 349.549 42.016C349.336 42.1227 349.139 42.1867 348.957 42.208C348.776 42.24 348.621 42.256 348.493 42.256ZM354.953 42.256C354.419 42.256 353.945 42.1813 353.529 42.032C353.113 41.8933 352.771 41.7333 352.505 41.552L352.569 42.112H351.897L351.801 39.36H352.297C352.318 39.7973 352.441 40.192 352.665 40.544C352.889 40.8853 353.177 41.152 353.529 41.344C353.881 41.536 354.259 41.632 354.665 41.632C354.942 41.632 355.214 41.5893 355.481 41.504C355.747 41.408 355.971 41.2693 356.153 41.088C356.334 40.896 356.425 40.656 356.425 40.368C356.425 40.0693 356.334 39.824 356.153 39.632C355.982 39.4293 355.753 39.2533 355.465 39.104C355.177 38.9547 354.867 38.816 354.537 38.688C354.217 38.56 353.897 38.4267 353.577 38.288C353.257 38.1493 352.958 37.984 352.681 37.792C352.414 37.6 352.201 37.3653 352.041 37.088C351.881 36.8107 351.801 36.4693 351.801 36.064C351.801 35.84 351.843 35.5947 351.929 35.328C352.014 35.0613 352.158 34.8107 352.361 34.576C352.563 34.3307 352.841 34.1333 353.193 33.984C353.545 33.824 353.993 33.744 354.537 33.744C354.825 33.744 355.145 33.792 355.497 33.888C355.849 33.984 356.19 34.1653 356.521 34.432L356.489 33.824H357.161V36.624H356.649C356.627 36.2507 356.542 35.8933 356.393 35.552C356.243 35.2 356.025 34.912 355.737 34.688C355.449 34.4533 355.075 34.336 354.617 34.336C354.126 34.336 353.742 34.4587 353.465 34.704C353.187 34.9493 353.049 35.232 353.049 35.552C353.049 35.8827 353.15 36.16 353.353 36.384C353.566 36.5973 353.838 36.784 354.169 36.944C354.499 37.104 354.851 37.2587 355.225 37.408C355.63 37.5787 356.025 37.7653 356.409 37.968C356.793 38.1707 357.107 38.4267 357.353 38.736C357.598 39.0347 357.721 39.424 357.721 39.904C357.721 40.4373 357.582 40.88 357.305 41.232C357.038 41.584 356.691 41.84 356.265 42C355.849 42.1707 355.411 42.256 354.953 42.256ZM363.458 42V41.472C363.863 41.4507 364.141 41.36 364.29 41.2C364.439 41.0293 364.519 40.8 364.53 40.512C364.551 40.2133 364.562 39.8773 364.562 39.504V32.592C364.562 32.3787 364.567 32.176 364.578 31.984C364.589 31.7813 364.599 31.6 364.61 31.44C364.418 31.4507 364.226 31.4613 364.034 31.472C363.842 31.4827 363.65 31.4933 363.458 31.504V30.8C364.055 30.7893 364.658 30.7787 365.266 30.768C365.885 30.7573 366.503 30.7627 367.122 30.784C368.157 30.7947 368.989 30.9173 369.618 31.152C370.258 31.376 370.727 31.7013 371.026 32.128C371.325 32.544 371.474 33.0507 371.474 33.648C371.485 34.064 371.405 34.4907 371.234 34.928C371.074 35.3547 370.775 35.7387 370.338 36.08C369.911 36.4213 369.293 36.6773 368.482 36.848C368.695 36.9973 368.882 37.1893 369.042 37.424C369.202 37.6587 369.383 37.9307 369.586 38.24L370.674 39.952C370.855 40.24 371.031 40.5013 371.202 40.736C371.373 40.96 371.57 41.1413 371.794 41.28C372.018 41.408 372.295 41.472 372.626 41.472V42H370.61C370.301 41.7227 370.039 41.4453 369.826 41.168C369.623 40.8907 369.41 40.576 369.186 40.224L368.114 38.512C367.975 38.288 367.815 38.032 367.634 37.744C367.463 37.4453 367.266 37.1947 367.042 36.992C366.871 37.0027 366.69 37.008 366.498 37.008C366.317 37.008 366.135 37.0027 365.954 36.992V40.096C365.954 40.384 365.949 40.6347 365.938 40.848C365.938 41.0507 365.927 41.2213 365.906 41.36C366.034 41.3493 366.162 41.344 366.29 41.344C366.418 41.3333 366.546 41.3227 366.674 41.312C366.802 41.3013 366.93 41.296 367.058 41.296V42H363.458ZM366.946 36.4C367.533 36.3787 368.045 36.2827 368.482 36.112C368.93 35.9413 369.282 35.6693 369.538 35.296C369.794 34.9227 369.922 34.432 369.922 33.824C369.922 33.4187 369.863 33.0667 369.746 32.768C369.639 32.4587 369.469 32.2027 369.234 32C368.999 31.7973 368.701 31.648 368.338 31.552C367.975 31.4453 367.549 31.392 367.058 31.392C366.663 31.392 366.386 31.472 366.226 31.632C366.077 31.792 365.991 32.016 365.97 32.304C365.959 32.5813 365.954 32.912 365.954 33.296V36.368C366.125 36.3787 366.285 36.3893 366.434 36.4C366.594 36.4107 366.765 36.4107 366.946 36.4ZM377.092 42.256C376.356 42.256 375.689 42.0853 375.092 41.744C374.505 41.392 374.041 40.9013 373.7 40.272C373.358 39.632 373.188 38.88 373.188 38.016C373.188 37.2693 373.353 36.5707 373.684 35.92C374.025 35.2693 374.5 34.7467 375.108 34.352C375.716 33.9467 376.42 33.744 377.22 33.744C377.668 33.744 378.084 33.8187 378.468 33.968C378.862 34.1067 379.209 34.3253 379.508 34.624C379.806 34.912 380.041 35.28 380.212 35.728C380.382 36.1653 380.468 36.6827 380.468 37.28L374.836 37.376C374.836 38.1867 374.921 38.9013 375.092 39.52C375.273 40.128 375.561 40.6027 375.956 40.944C376.35 41.2747 376.857 41.44 377.476 41.44C377.806 41.44 378.142 41.3813 378.484 41.264C378.836 41.1467 379.161 40.9867 379.46 40.784C379.758 40.5813 379.998 40.3573 380.18 40.112L380.564 40.432C380.276 40.88 379.929 41.2373 379.524 41.504C379.118 41.7707 378.702 41.9627 378.276 42.08C377.849 42.1973 377.454 42.256 377.092 42.256ZM374.884 36.704H378.964C378.964 36.32 378.905 35.952 378.788 35.6C378.681 35.2373 378.5 34.944 378.244 34.72C377.988 34.4853 377.652 34.368 377.236 34.368C376.617 34.368 376.1 34.5547 375.684 34.928C375.278 35.2907 375.012 35.8827 374.884 36.704ZM385.172 42.256C384.638 42.256 384.164 42.1813 383.748 42.032C383.332 41.8933 382.99 41.7333 382.724 41.552L382.788 42.112H382.116L382.02 39.36H382.516C382.537 39.7973 382.66 40.192 382.884 40.544C383.108 40.8853 383.396 41.152 383.748 41.344C384.1 41.536 384.478 41.632 384.884 41.632C385.161 41.632 385.433 41.5893 385.7 41.504C385.966 41.408 386.19 41.2693 386.372 41.088C386.553 40.896 386.644 40.656 386.644 40.368C386.644 40.0693 386.553 39.824 386.372 39.632C386.201 39.4293 385.972 39.2533 385.684 39.104C385.396 38.9547 385.086 38.816 384.756 38.688C384.436 38.56 384.116 38.4267 383.796 38.288C383.476 38.1493 383.177 37.984 382.9 37.792C382.633 37.6 382.42 37.3653 382.26 37.088C382.1 36.8107 382.02 36.4693 382.02 36.064C382.02 35.84 382.062 35.5947 382.148 35.328C382.233 35.0613 382.377 34.8107 382.58 34.576C382.782 34.3307 383.06 34.1333 383.412 33.984C383.764 33.824 384.212 33.744 384.756 33.744C385.044 33.744 385.364 33.792 385.716 33.888C386.068 33.984 386.409 34.1653 386.74 34.432L386.708 33.824H387.38V36.624H386.868C386.846 36.2507 386.761 35.8933 386.612 35.552C386.462 35.2 386.244 34.912 385.956 34.688C385.668 34.4533 385.294 34.336 384.836 34.336C384.345 34.336 383.961 34.4587 383.684 34.704C383.406 34.9493 383.268 35.232 383.268 35.552C383.268 35.8827 383.369 36.16 383.572 36.384C383.785 36.5973 384.057 36.784 384.388 36.944C384.718 37.104 385.07 37.2587 385.444 37.408C385.849 37.5787 386.244 37.7653 386.628 37.968C387.012 38.1707 387.326 38.4267 387.572 38.736C387.817 39.0347 387.94 39.424 387.94 39.904C387.94 40.4373 387.801 40.88 387.524 41.232C387.257 41.584 386.91 41.84 386.484 42C386.068 42.1707 385.63 42.256 385.172 42.256ZM393.17 42.256C392.434 42.256 391.767 42.0853 391.17 41.744C390.583 41.392 390.119 40.9013 389.778 40.272C389.436 39.632 389.266 38.88 389.266 38.016C389.266 37.2693 389.431 36.5707 389.762 35.92C390.103 35.2693 390.578 34.7467 391.186 34.352C391.794 33.9467 392.498 33.744 393.298 33.744C393.746 33.744 394.162 33.8187 394.546 33.968C394.94 34.1067 395.287 34.3253 395.586 34.624C395.884 34.912 396.119 35.28 396.29 35.728C396.46 36.1653 396.546 36.6827 396.546 37.28L390.914 37.376C390.914 38.1867 390.999 38.9013 391.17 39.52C391.351 40.128 391.639 40.6027 392.034 40.944C392.428 41.2747 392.935 41.44 393.554 41.44C393.884 41.44 394.22 41.3813 394.562 41.264C394.914 41.1467 395.239 40.9867 395.538 40.784C395.836 40.5813 396.076 40.3573 396.258 40.112L396.642 40.432C396.354 40.88 396.007 41.2373 395.602 41.504C395.196 41.7707 394.78 41.9627 394.354 42.08C393.927 42.1973 393.532 42.256 393.17 42.256ZM390.962 36.704H395.042C395.042 36.32 394.983 35.952 394.866 35.6C394.759 35.2373 394.578 34.944 394.322 34.72C394.066 34.4853 393.73 34.368 393.314 34.368C392.695 34.368 392.178 34.5547 391.762 34.928C391.356 35.2907 391.09 35.8827 390.962 36.704ZM397.97 41.52C398.3 41.52 398.53 41.44 398.658 41.28C398.786 41.1093 398.86 40.88 398.882 40.592C398.903 40.2933 398.914 39.952 398.914 39.568V35.92C398.914 35.7493 398.914 35.5787 398.914 35.408C398.924 35.2373 398.946 35.0613 398.978 34.88C398.786 34.8907 398.594 34.9013 398.402 34.912C398.22 34.912 398.034 34.9173 397.842 34.928V34.272H398.338C398.796 34.272 399.111 34.2293 399.282 34.144C399.463 34.048 399.612 33.9467 399.73 33.84H400.194C400.215 34.0107 400.231 34.224 400.242 34.48C400.252 34.7253 400.263 35.04 400.274 35.424C400.434 35.1573 400.652 34.896 400.93 34.64C401.207 34.384 401.516 34.1707 401.858 34C402.21 33.8293 402.578 33.744 402.962 33.744C403.26 33.744 403.522 33.824 403.746 33.984C403.97 34.144 404.082 34.4 404.082 34.752C404.082 34.8373 404.055 34.944 404.002 35.072C403.948 35.1893 403.863 35.296 403.746 35.392C403.628 35.4773 403.474 35.52 403.282 35.52C403.047 35.5093 402.86 35.4187 402.722 35.248C402.583 35.0667 402.53 34.8587 402.562 34.624C402.295 34.6133 402.018 34.6827 401.73 34.832C401.452 34.9813 401.191 35.1893 400.946 35.456C400.7 35.712 400.482 36.016 400.29 36.368L400.306 40.304C400.306 40.5173 400.3 40.7093 400.29 40.88C400.29 41.04 400.274 41.2107 400.242 41.392C400.412 41.3813 400.578 41.376 400.738 41.376C400.908 41.3653 401.079 41.3547 401.25 41.344V42H397.97V41.52ZM408.041 42.048L405.753 36.832C405.582 36.4267 405.449 36.08 405.353 35.792C405.257 35.504 405.188 35.264 405.145 35.072C405.113 34.88 405.092 34.7253 405.081 34.608L404.393 34.656V34H407.337V34.48C407.017 34.48 406.809 34.5653 406.713 34.736C406.628 34.896 406.617 35.1147 406.681 35.392C406.745 35.6587 406.841 35.9467 406.969 36.256L408.201 39.072C408.286 39.2533 408.366 39.4453 408.441 39.648C408.526 39.84 408.606 40.0427 408.681 40.256H408.697C408.75 40.096 408.809 39.9253 408.873 39.744C408.948 39.5627 409.012 39.3867 409.065 39.216L410.345 35.712C410.43 35.456 410.521 35.232 410.617 35.04C410.713 34.848 410.782 34.704 410.825 34.608L409.801 34.656V34H412.329V34.48C412.094 34.48 411.897 34.56 411.737 34.72C411.577 34.88 411.422 35.12 411.273 35.44C411.134 35.76 410.969 36.16 410.777 36.64L408.681 42.048H408.041ZM416.873 42.256C416.137 42.256 415.47 42.0853 414.873 41.744C414.286 41.392 413.822 40.9013 413.481 40.272C413.14 39.632 412.969 38.88 412.969 38.016C412.969 37.2693 413.134 36.5707 413.465 35.92C413.806 35.2693 414.281 34.7467 414.889 34.352C415.497 33.9467 416.201 33.744 417.001 33.744C417.449 33.744 417.865 33.8187 418.249 33.968C418.644 34.1067 418.99 34.3253 419.289 34.624C419.588 34.912 419.822 35.28 419.993 35.728C420.164 36.1653 420.249 36.6827 420.249 37.28L414.617 37.376C414.617 38.1867 414.702 38.9013 414.873 39.52C415.054 40.128 415.342 40.6027 415.737 40.944C416.132 41.2747 416.638 41.44 417.257 41.44C417.588 41.44 417.924 41.3813 418.265 41.264C418.617 41.1467 418.942 40.9867 419.241 40.784C419.54 40.5813 419.78 40.3573 419.961 40.112L420.345 40.432C420.057 40.88 419.71 41.2373 419.305 41.504C418.9 41.7707 418.484 41.9627 418.057 42.08C417.63 42.1973 417.236 42.256 416.873 42.256ZM414.665 36.704H418.745C418.745 36.32 418.686 35.952 418.569 35.6C418.462 35.2373 418.281 34.944 418.025 34.72C417.769 34.4853 417.433 34.368 417.017 34.368C416.398 34.368 415.881 34.5547 415.465 34.928C415.06 35.2907 414.793 35.8827 414.665 36.704ZM425.019 42.256C424.368 42.256 423.781 42.096 423.259 41.776C422.736 41.4453 422.32 40.976 422.011 40.368C421.712 39.76 421.563 39.0453 421.563 38.224C421.563 37.3493 421.739 36.576 422.091 35.904C422.443 35.232 422.928 34.704 423.547 34.32C424.176 33.936 424.885 33.744 425.675 33.744C426.027 33.744 426.373 33.792 426.715 33.888C427.067 33.9733 427.344 34.0747 427.547 34.192V32C427.547 31.8293 427.547 31.6693 427.547 31.52C427.557 31.36 427.573 31.1733 427.595 30.96C427.403 30.9707 427.211 30.9813 427.019 30.992C426.837 31.0027 426.651 31.0133 426.459 31.024V30.352C426.928 30.352 427.291 30.3307 427.547 30.288C427.803 30.2453 427.995 30.192 428.123 30.128C428.261 30.064 428.368 29.9947 428.443 29.92H428.907V40.304C428.907 40.4747 428.901 40.6453 428.891 40.816C428.88 40.9867 428.864 41.1787 428.843 41.392C429.035 41.3813 429.221 41.3707 429.403 41.36C429.595 41.3493 429.787 41.3387 429.979 41.328V42H427.691C427.659 41.84 427.632 41.696 427.611 41.568C427.6 41.4293 427.589 41.296 427.579 41.168C427.28 41.4987 426.912 41.7653 426.475 41.968C426.037 42.16 425.552 42.256 425.019 42.256ZM425.595 41.472C425.947 41.472 426.299 41.3707 426.651 41.168C427.013 40.9653 427.312 40.7147 427.547 40.416C427.536 40.288 427.531 40.1547 427.531 40.016C427.531 39.8667 427.531 39.7067 427.531 39.536L427.547 34.928C427.291 34.736 427.008 34.5973 426.699 34.512C426.4 34.416 426.091 34.368 425.771 34.368C425.237 34.368 424.773 34.5227 424.379 34.832C423.984 35.1413 423.685 35.5733 423.483 36.128C423.28 36.6827 423.189 37.3333 423.211 38.08C423.232 38.7307 423.333 39.312 423.515 39.824C423.707 40.336 423.973 40.7413 424.315 41.04C424.667 41.328 425.093 41.472 425.595 41.472ZM432.405 42.256C432.16 42.256 431.941 42.16 431.749 41.968C431.568 41.7653 431.477 41.52 431.477 41.232C431.477 40.944 431.573 40.6987 431.765 40.496C431.957 40.2933 432.176 40.192 432.421 40.192C432.688 40.192 432.906 40.2933 433.077 40.496C433.258 40.6987 433.349 40.944 433.349 41.232C433.349 41.52 433.253 41.7653 433.061 41.968C432.869 42.16 432.65 42.256 432.405 42.256Z" fill="#FFFBBD" fill-opacity="0.6"/>
</svg>
