<svg width="604" height="269" viewBox="0 0 604 269" fill="none" xmlns="http://www.w3.org/2000/svg">
<g filter="url(#filter0_b_0_1472)">
<g opacity="0.36" filter="url(#filter1_ii_0_1472)">
<path d="M488.013 220.29L488.013 252.194L460.906 268.14L433.8 252.194L433.8 220.29L460.906 204.344L488.013 220.29Z" fill="#FFE195" fill-opacity="0.46"/>
<path d="M460.906 267.452L434.382 251.85L434.382 220.646L460.906 205.033L487.43 220.646L487.43 251.85L460.906 267.452ZM460.906 268.829L488.595 252.539L488.595 219.946L460.906 203.655L433.217 219.946L433.217 252.539L460.906 268.829Z" fill="#1D1D1B"/>
<path d="M430.305 220.29L430.305 252.194L403.21 268.14L376.103 252.194L376.103 220.29L403.21 204.344L430.305 220.29Z" fill="#FFE195" fill-opacity="0.46"/>
<path d="M403.198 267.452L376.674 251.85L376.674 220.646L403.198 205.021L429.722 220.646L429.722 251.85L403.198 267.452ZM403.198 268.829L430.887 252.539L430.887 219.946L403.198 203.655L375.509 219.946L375.509 252.539L403.198 268.829Z" fill="#1D1D1B"/>
<path d="M372.609 220.29L372.609 252.194L345.502 268.14L318.395 252.194L318.395 220.29L345.502 204.344L372.609 220.29Z" fill="#FFE195" fill-opacity="0.46"/>
<path d="M345.49 267.452L318.966 251.85L318.966 220.646L345.49 205.033L372.015 220.646L372.015 251.85L345.49 267.452ZM345.49 268.829L373.179 252.539L373.179 219.946L345.49 203.655L317.801 219.946L317.801 252.539L345.49 268.829Z" fill="#1D1D1B"/>
<path d="M314.901 220.29L314.901 252.194L287.794 268.14L260.687 252.194L260.687 220.29L287.794 204.344L314.901 220.29Z" fill="#FFE195" fill-opacity="0.46"/>
<path d="M287.794 267.452L261.269 251.85L261.269 220.646L287.794 205.033L314.306 220.646L314.306 251.85L287.794 267.452ZM287.794 268.829L315.471 252.539L315.471 219.946L287.794 203.655L260.104 219.946L260.104 252.539L287.794 268.829Z" fill="#1D1D1B"/>
<path d="M257.192 220.29L257.192 252.194L230.086 268.14L202.979 252.194L202.979 220.29L230.086 204.344L257.192 220.29Z" fill="#FFE195" fill-opacity="0.46"/>
<path d="M230.086 267.452L203.562 251.85L203.562 220.646L230.086 205.033L256.61 220.646L256.61 251.85L230.086 267.452ZM230.086 268.829L257.775 252.539L257.775 219.946L230.086 203.655L202.397 219.946L202.397 252.539L230.086 268.829Z" fill="#1D1D1B"/>
<path d="M199.485 220.29L199.485 252.194L172.378 268.14L145.283 252.194L145.283 220.29L172.378 204.344L199.485 220.29Z" fill="#FFE195" fill-opacity="0.46"/>
<path d="M172.378 267.452L145.877 251.85L145.877 220.646L172.401 205.033L198.902 220.646L198.902 251.85L172.378 267.452ZM172.378 268.829L200.067 252.539L200.067 219.946L172.378 203.655L144.712 219.946L144.712 252.539L172.401 268.829L172.378 268.829Z" fill="#1D1D1B"/>
<path d="M141.788 220.29L141.788 252.194L114.681 268.14L87.5745 252.194L87.5745 220.29L114.681 204.344L141.788 220.29Z" fill="#FFE195" fill-opacity="0.46"/>
<path d="M114.67 267.452L88.1455 251.85L88.1455 220.646L114.67 205.033L141.217 220.646L141.217 251.85L114.693 267.452M114.693 268.829L142.382 252.539L142.382 219.946L114.693 203.655L87.0039 219.946L87.0039 252.539L114.693 268.829Z" fill="#1D1D1B"/>
<path d="M574.575 169.353L574.575 201.257L547.469 217.203L520.362 201.257L520.362 169.353L547.469 153.395L574.575 169.353Z" fill="#FFE195" fill-opacity="0.46"/>
<path d="M547.469 216.514L520.968 200.913L520.968 169.697L547.492 154.083L574.004 169.697L574.004 200.913L547.492 216.514M547.492 217.892L575.146 201.649L575.146 169.056L547.469 152.765L519.803 169.008L519.803 201.649L547.492 217.939L547.492 217.892Z" fill="#1D1D1B"/>
<path d="M516.867 169.353L516.867 201.257L489.76 217.203L462.654 201.257L462.654 169.353L489.76 153.395L516.867 169.353Z" fill="#FFE195" fill-opacity="0.46"/>
<path d="M489.76 216.514L463.236 200.913L463.236 169.697L489.76 154.083L516.308 169.697L516.308 200.913L489.784 216.514M489.784 217.892L517.473 201.649L517.473 169.056L489.784 152.765L462.095 169.056L462.095 201.649L489.784 217.939L489.784 217.892Z" fill="#1D1D1B"/>
<path d="M459.159 169.353L459.159 201.257L432.052 217.203L404.957 201.257L404.957 169.353L432.052 153.395L459.159 169.353Z" fill="#FFE195" fill-opacity="0.46"/>
<path d="M432.052 216.514L405.528 200.913L405.528 169.697L432.052 154.083L458.577 169.697L458.577 200.913L432.052 216.514ZM432.052 217.892L459.741 201.649L459.741 169.056L432.052 152.765L404.363 169.056L404.363 201.649L432.052 217.939L432.052 217.892Z" fill="#1D1D1B"/>
<path d="M374.344 216.514L347.82 200.913L347.82 169.697L374.344 154.083L400.868 169.697L400.868 200.913L374.344 216.514ZM374.344 217.892L402.033 201.649L402.033 169.056L374.344 152.765L346.655 169.056L346.655 201.649L374.344 217.939L374.344 217.892Z" fill="#1D1D1B"/>
<path d="M343.755 169.353L343.755 201.257L316.648 217.203L289.541 201.257L289.541 169.353L316.648 153.395L343.755 169.353Z" fill="#FFE195" fill-opacity="0.46"/>
<path d="M316.636 216.514L290.124 200.913L290.124 169.697L316.636 154.083L343.161 169.697L343.161 200.913L316.636 216.514ZM316.636 217.892L344.326 201.649L344.326 169.056L316.636 152.765L288.959 169.056L288.959 201.649L316.636 217.939L316.636 217.892Z" fill="#1D1D1B"/>
<path d="M286.047 169.353L286.047 201.257L258.94 217.203L231.833 201.257L231.833 169.353L258.94 153.395L286.047 169.353Z" fill="#FFE195" fill-opacity="0.46"/>
<path d="M258.94 216.514L232.415 200.913L232.415 169.697L258.94 154.083L285.464 169.697L285.464 200.913L258.94 216.514ZM258.94 217.892L286.629 201.649L286.629 169.056L258.94 152.765L231.251 169.056L231.251 201.649L258.94 217.939L258.94 217.892Z" fill="#1D1D1B"/>
<path d="M201.231 216.514L174.707 200.913L174.707 169.697L201.231 154.083L227.756 169.697L227.756 200.913L201.231 216.514ZM201.231 217.892L228.921 201.649L228.921 169.056L201.231 152.765L173.542 169.056L173.542 201.649L201.231 217.939L201.231 217.892Z" fill="#1D1D1B"/>
<path d="M170.631 169.352L170.631 201.257L143.536 217.203L116.429 201.257L116.429 169.352L143.536 153.394L170.631 169.352Z" fill="#FFE195" fill-opacity="0.46"/>
<path d="M143.547 216.514L117.023 200.912L117.023 169.697L143.547 154.083L170.071 169.697L170.071 200.912L143.547 216.514ZM143.547 217.892L171.213 201.649L171.213 169.056L143.547 152.718L115.858 169.008L115.858 201.649L143.547 217.892Z" fill="#1D1D1B"/>
<path d="M112.934 169.352L112.934 201.257L85.8274 217.203L58.7207 201.257L58.7207 169.352L85.8274 153.394L112.934 169.352Z" fill="#FFE195" fill-opacity="0.46"/>
<path d="M85.8155 216.514L59.2912 200.913L59.2912 169.697L85.8155 154.083L112.34 169.697L112.34 200.913L85.8155 216.514ZM85.8155 217.892L113.505 201.649L113.505 169.056L85.8155 152.765L58.1263 169.056L58.1263 201.649L85.8155 217.939L85.8155 217.892Z" fill="#1D1D1B"/>
<path d="M55.2257 169.352L55.2257 201.257L28.1189 217.203L1.01216 201.257L1.01217 169.352L28.1189 153.394L55.2257 169.352Z" fill="#FFE195" fill-opacity="0.46"/>
<path d="M28.1191 216.514L1.59482 200.913L1.59483 169.697L28.1191 154.083L54.6317 169.697L54.6317 200.913L28.1191 216.514ZM28.1191 217.892L55.7966 201.649L55.7966 169.056L28.1191 152.765L0.429947 169.056L0.429945 201.649L28.1191 217.939L28.1191 217.892Z" fill="#1D1D1B"/>
<path d="M603.429 118.463L603.429 150.367L576.323 166.313L549.216 150.367L549.216 118.463L576.323 102.504L603.429 118.463Z" fill="#FFE195" fill-opacity="0.46"/>
<path d="M576.311 165.624L549.798 150.023L549.798 118.807L576.311 103.193L602.835 118.807L602.835 150.023L576.311 165.624ZM576.311 167.002L604 150.711L604 118.118L576.311 101.828L548.633 118.118L548.633 150.711L576.311 167.002Z" fill="#1D1D1B"/>
<path d="M545.721 118.463L545.721 150.367L518.615 166.313L491.508 150.367L491.508 118.463L518.615 102.504L545.721 118.463Z" fill="#FFE195" fill-opacity="0.46"/>
<path d="M518.638 165.624L492.113 150.023L492.113 118.807L518.638 103.193L545.162 118.807L545.162 150.023L518.638 165.624ZM518.638 167.002L546.303 150.711L546.303 118.118L518.638 101.828L490.948 118.118L490.948 150.711L518.638 167.002Z" fill="#1D1D1B"/>
<path d="M488.013 118.463L488.013 150.367L460.906 166.313L433.8 150.367L433.8 118.463L460.906 102.504L488.013 118.463Z" fill="#FFE195" fill-opacity="0.46"/>
<path d="M460.906 165.624L434.382 150.023L434.382 118.807L460.906 103.193L487.43 118.807L487.43 150.023L460.906 165.624ZM460.906 167.002L488.595 150.711L488.595 118.118L460.906 101.828L433.217 118.118L433.217 150.711L460.906 167.002Z" fill="#1D1D1B"/>
<path d="M430.305 118.463L430.305 150.367L403.21 166.313L376.103 150.367L376.103 118.463L403.21 102.504L430.305 118.463Z" fill="#FFE195" fill-opacity="0.46"/>
<path d="M403.198 165.624L376.674 150.023L376.674 118.807L403.198 103.193L429.722 118.807L429.722 150.023L403.198 165.624ZM403.198 167.002L430.887 150.711L430.887 118.118L403.198 101.828L375.509 118.118L375.509 150.711L403.198 167.002Z" fill="#1D1D1B"/>
<path d="M372.609 118.463L372.609 150.367L345.502 166.313L318.395 150.367L318.395 118.463L345.502 102.504L372.609 118.463Z" fill="#FFE195" fill-opacity="0.46"/>
<path d="M345.49 165.624L318.966 150.023L318.966 118.807L345.49 103.193L372.015 118.807L372.015 150.023L345.49 165.624ZM345.49 167.002L373.179 150.711L373.179 118.118L345.49 101.828L317.801 118.118L317.801 150.711L345.49 167.002Z" fill="#1D1D1B"/>
<path d="M287.794 165.624L261.269 150.023L261.269 118.807L287.794 103.193L314.306 118.807L314.306 150.023L287.794 165.624ZM287.794 167.002L315.471 150.711L315.471 118.118L287.794 101.828L260.104 118.118L260.104 150.711L287.794 167.002Z" fill="#1D1D1B"/>
<path d="M257.192 118.463L257.192 150.367L230.086 166.313L202.979 150.367L202.979 118.463L230.086 102.504L257.192 118.463Z" fill="#FFE195" fill-opacity="0.46"/>
<path d="M230.086 165.624L203.562 150.023L203.562 118.807L230.086 103.193L256.61 118.807L256.61 150.023L230.086 165.624ZM230.086 167.002L257.775 150.711L257.775 118.118L230.086 101.828L202.397 118.118L202.397 150.711L230.086 167.002Z" fill="#1D1D1B"/>
<path d="M199.485 118.463L199.485 150.367L172.378 166.313L145.283 150.367L145.283 118.463L172.378 102.504L199.485 118.463Z" fill="#FFE195" fill-opacity="0.46"/>
<path d="M172.378 165.624L145.877 150.023L145.877 118.807L172.401 103.193L198.925 118.807L198.925 150.023L172.401 165.624M172.401 167.002L200.067 150.711L200.067 118.118L172.378 101.828L144.712 118.118L144.712 150.711L172.401 167.002Z" fill="#1D1D1B"/>
<path d="M141.788 118.463L141.788 150.367L114.681 166.313L87.5746 150.367L87.5746 118.463L114.681 102.504L141.788 118.463Z" fill="#FFE195" fill-opacity="0.46"/>
<path d="M114.67 165.624L88.1455 150.023L88.1455 118.807L114.67 103.193L141.217 118.807L141.217 150.023L114.693 165.624M114.693 167.002L142.382 150.711L142.382 118.118L114.693 101.828L87.0039 118.118L87.0039 150.711L114.693 167.002Z" fill="#1D1D1B"/>
<path d="M84.6315 118.256L84.6315 150.16L57.5248 166.106L30.4181 150.16L30.4181 118.256L57.5248 102.298L84.6315 118.256Z" fill="#FFE195" fill-opacity="0.46"/>
<path d="M56.9616 165.624L30.4489 150.023L30.4489 118.807L56.9616 103.193L83.4859 118.807L83.4859 150.023L56.9616 165.624ZM56.9616 167.002L84.6508 150.711L84.6508 118.118L56.9616 101.828L29.2841 118.118L29.2841 150.711L56.9616 167.002Z" fill="#1D1D1B"/>
<path d="M574.575 67.5251L574.575 99.4293L547.469 115.375L520.362 99.4293L520.362 67.5251L547.469 51.567L574.575 67.5251Z" fill="#FFE195" fill-opacity="0.46"/>
<path d="M547.468 114.687L520.967 99.0848L520.967 67.8692L547.492 52.2555L574.004 67.8573L574.004 99.0848L547.492 114.687M547.492 116.064L575.169 99.7616L575.169 67.1805L547.468 50.8544L519.802 67.1805L519.802 99.7616L547.492 116.064Z" fill="#1D1D1B"/>
<path d="M516.867 67.5251L516.867 99.4293L489.76 115.375L462.654 99.4293L462.654 67.5251L489.76 51.567L516.867 67.5251Z" fill="#FFE195" fill-opacity="0.46"/>
<path d="M489.76 114.687L463.236 99.0848L463.236 67.8692L489.76 52.2555L516.308 67.8573L516.308 99.0848L489.784 114.687M489.784 116.064L517.473 99.7616L517.473 67.1805L489.76 50.8544L462.071 67.1568L462.071 99.7616L489.76 116.064L489.784 116.064Z" fill="#1D1D1B"/>
<path d="M459.159 67.5251L459.159 99.4293L432.052 115.375L404.957 99.4293L404.957 67.5251L432.052 51.567L459.159 67.5251Z" fill="#FFE195" fill-opacity="0.46"/>
<path d="M432.052 114.687L405.528 99.0848L405.528 67.8573L432.052 52.2555L458.577 67.8573L458.577 99.0848L432.052 114.687ZM432.052 116.064L459.741 99.7616L459.741 67.1805L432.052 50.8544L404.363 67.1568L404.363 99.7616L432.052 116.064Z" fill="#1D1D1B"/>
<path d="M343.755 67.5251L343.755 99.4293L316.648 115.375L289.541 99.4293L289.541 67.5251L316.648 51.567L343.755 67.5251Z" fill="#FFE195" fill-opacity="0.46"/>
<path d="M316.636 114.687L290.124 99.0848L290.124 67.8573L316.636 52.2555L343.161 67.8573L343.161 99.0848L316.636 114.687ZM316.636 116.064L344.326 99.7616L344.326 67.1805L316.636 50.8544L288.959 67.1568L288.959 99.7616L316.636 116.064Z" fill="#1D1D1B"/>
<path d="M286.047 67.5251L286.047 99.4293L258.94 115.375L231.833 99.4293L231.833 67.5251L258.94 51.567L286.047 67.5251Z" fill="#FFE195" fill-opacity="0.46"/>
<path d="M258.94 114.686L232.415 99.0845L232.415 67.869L258.94 52.2553L285.464 67.8571L285.464 99.0845L258.94 114.686ZM258.94 116.064L286.629 99.7613L286.629 67.1803L258.94 50.8541L231.251 67.1565L231.251 99.7613L258.94 116.064Z" fill="#1D1D1B"/>
<path d="M201.231 114.687L174.707 99.0848L174.707 67.8692L201.231 52.2555L227.756 67.8573L227.756 99.0848L201.231 114.687ZM201.231 116.064L228.921 99.7616L228.921 67.1805L201.231 50.8544L173.542 67.1568L173.542 99.7616L201.231 116.064Z" fill="#1D1D1B"/>
<path d="M170.631 67.5251L170.631 99.4293L143.536 115.375L116.429 99.4293L116.429 67.5251L143.536 51.567L170.631 67.5251Z" fill="#FFE195" fill-opacity="0.46"/>
<path d="M143.547 114.686L117.023 99.0845L117.023 67.8571L143.547 52.2553L170.071 67.8571L170.071 99.0845L143.547 114.686ZM143.547 116.064L171.236 99.7613L171.236 67.1803L143.547 50.8541L115.858 67.1565L115.858 99.7613L143.547 116.064Z" fill="#1D1D1B"/>
<path d="M112.934 67.5251L112.934 99.4293L85.8274 115.375L58.7206 99.4293L58.7206 67.5251L85.8274 51.567L112.934 67.5251Z" fill="#FFE195" fill-opacity="0.46"/>
<path d="M85.8155 114.687L59.2912 99.0848L59.2912 67.8573L85.8155 52.2555L112.34 67.8573L112.34 99.0848L85.8155 114.687ZM85.8155 116.064L113.505 99.7616L113.505 67.1805L85.8155 50.8544L58.1263 67.1568L58.1263 99.7616L85.8155 116.064Z" fill="#1D1D1B"/>
<path d="M545.721 16.6349L545.721 48.5392L518.615 64.4853L491.508 48.5392L491.508 16.6349L518.615 0.676855L545.721 16.6349Z" fill="#FFE195" fill-opacity="0.46"/>
<path d="M518.638 63.7965L492.113 48.1946L492.113 16.979L518.638 1.36526L545.162 16.979L545.162 48.1947L518.638 63.7965ZM518.638 65.1738L546.327 48.8714L546.327 16.2904L518.638 -8.6344e-05L490.948 16.2904L490.948 48.8714L518.638 65.1738Z" fill="#1D1D1B"/>
<path d="M430.305 16.6349L430.305 48.5392L403.21 64.4853L376.103 48.5392L376.103 16.6349L403.21 0.676855L430.305 16.6349Z" fill="#FFE195" fill-opacity="0.46"/>
<path d="M403.198 63.7965L376.674 48.1946L376.674 16.979L403.198 1.36526L429.722 16.979L429.722 48.1947L403.198 63.7965ZM403.198 65.1738L430.887 48.8714L430.887 16.2904L403.198 -8.6344e-05L375.509 16.2904L375.509 48.8714L403.198 65.1738Z" fill="#1D1D1B"/>
<path d="M287.793 63.7965L261.269 48.1946L261.269 16.979L287.794 1.36526L314.306 16.979L314.306 48.1947L287.793 63.7965ZM287.793 65.1738L315.471 48.8714L315.471 16.2904L287.794 -8.6343e-05L260.104 16.2904L260.104 48.8714L287.793 65.1738Z" fill="#1D1D1B"/>
<path d="M199.485 16.6349L199.485 48.5392L172.378 64.4853L145.283 48.5392L145.283 16.6349L172.378 0.676855L199.485 16.6349Z" fill="#FFE195" fill-opacity="0.46"/>
<path d="M172.378 63.7965L145.877 48.1946L145.877 16.979L172.401 1.36526L198.925 16.979L198.925 48.1947L172.401 63.7965M172.401 65.1738L200.09 48.8714L200.09 16.2904L172.401 -8.6344e-05L144.712 16.2904L144.712 48.8714L172.401 65.1738Z" fill="#1D1D1B"/>
</g>
</g>
<defs>
<filter id="filter0_b_0_1472" x="-5.62478" y="-6.05471" width="615.679" height="280.939" filterUnits="userSpaceOnUse" color-interpolation-filters="sRGB">
<feFlood flood-opacity="0" result="BackgroundImageFix"/>
<feGaussianBlur in="BackgroundImageFix" stdDeviation="3.02736"/>
<feComposite in2="SourceAlpha" operator="in" result="effect1_backgroundBlur_0_1472"/>
<feBlend mode="normal" in="SourceGraphic" in2="effect1_backgroundBlur_0_1472" result="shape"/>
</filter>
<filter id="filter1_ii_0_1472" x="0.429947" y="-1.08838" width="603.57" height="271.006" filterUnits="userSpaceOnUse" color-interpolation-filters="sRGB">
<feFlood flood-opacity="0" result="BackgroundImageFix"/>
<feBlend mode="normal" in="SourceGraphic" in2="BackgroundImageFix" result="shape"/>
<feColorMatrix in="SourceAlpha" type="matrix" values="0 0 0 0 0 0 0 0 0 0 0 0 0 0 0 0 0 0 127 0" result="hardAlpha"/>
<feOffset dy="2.17676"/>
<feGaussianBlur stdDeviation="0.544189"/>
<feComposite in2="hardAlpha" operator="arithmetic" k2="-1" k3="1"/>
<feColorMatrix type="matrix" values="0 0 0 0 1 0 0 0 0 1 0 0 0 0 1 0 0 0 0.2 0"/>
<feBlend mode="normal" in2="shape" result="effect1_innerShadow_0_1472"/>
<feColorMatrix in="SourceAlpha" type="matrix" values="0 0 0 0 0 0 0 0 0 0 0 0 0 0 0 0 0 0 127 0" result="hardAlpha"/>
<feOffset dy="-3.26513"/>
<feGaussianBlur stdDeviation="0.544189"/>
<feComposite in2="hardAlpha" operator="arithmetic" k2="-1" k3="1"/>
<feColorMatrix type="matrix" values="0 0 0 0 0 0 0 0 0 0 0 0 0 0 0 0 0 0 0.2 0"/>
<feBlend mode="normal" in2="effect1_innerShadow_0_1472" result="effect2_innerShadow_0_1472"/>
</filter>
</defs>
</svg>
