<svg width="644" height="54" viewBox="0 0 644 54" fill="none" xmlns="http://www.w3.org/2000/svg">
<rect x="0.5" y="0.5" width="643" height="53" rx="11.5" fill="#221D13"/>
<rect x="0.5" y="0.5" width="643" height="53" rx="11.5" stroke="url(#paint0_radial_0_372)"/>
<g clip-path="url(#clip0_0_372)">
<path d="M24 18C22.2098 18 20.4929 18.7112 19.227 19.977C17.9611 21.2429 17.25 22.9598 17.25 24.75V28.3515L15.804 31.9725C15.7587 32.0862 15.7419 32.2093 15.7551 32.331C15.7684 32.4527 15.8112 32.5693 15.8798 32.6706C15.9485 32.772 16.0409 32.855 16.149 32.9124C16.2571 32.9698 16.3776 32.9999 16.5 33H21C21 34.662 22.338 36 24 36C25.662 36 27 34.662 27 33H31.5C31.6224 32.9999 31.7429 32.9698 31.851 32.9124C31.9591 32.855 32.0515 32.772 32.1202 32.6706C32.1888 32.5693 32.2316 32.4527 32.2448 32.331C32.258 32.2093 32.2413 32.0862 32.196 31.9725L30.75 28.35V24.75C30.75 22.9598 30.0388 21.2429 28.773 19.977C27.5071 18.7112 25.7902 18 24 18ZM25.5 33C25.5 33.834 24.834 34.5 24 34.5C23.166 34.5 22.5 33.834 22.5 33H25.5ZM18.75 24.75C18.75 23.3576 19.3031 22.0223 20.2877 21.0377C21.2722 20.0531 22.6076 19.5 24 19.5C25.3924 19.5 26.7277 20.0531 27.7123 21.0377C28.6969 22.0223 29.25 23.3576 29.25 24.75V28.497C29.2502 28.5921 29.2686 28.6863 29.304 28.7745L30.393 31.5H17.607L18.696 28.7745C18.7314 28.6863 18.7497 28.5921 18.75 28.497V24.75Z" fill="url(#paint1_linear_0_372)" fill-opacity="0.876812"/>
</g>
<path d="M52.515 34.5V33.807C53.047 33.779 53.404 33.653 53.586 33.429C53.782 33.205 53.887 32.904 53.901 32.526C53.929 32.134 53.943 31.7 53.943 31.224L53.964 28.83L50.31 23.055C49.96 22.495 49.694 22.026 49.512 21.648C49.344 21.27 49.232 20.948 49.176 20.682C48.952 20.696 48.735 20.703 48.525 20.703C48.315 20.703 48.098 20.71 47.874 20.724V19.8H53.292V20.493C52.648 20.493 52.2 20.591 51.948 20.787C51.696 20.983 51.598 21.256 51.654 21.606C51.724 21.942 51.899 22.334 52.179 22.782L53.859 25.428C53.985 25.624 54.118 25.827 54.258 26.037C54.398 26.247 54.538 26.464 54.678 26.688C54.832 26.898 54.993 27.122 55.161 27.36H55.203C55.357 27.052 55.511 26.758 55.665 26.478C55.819 26.184 55.966 25.904 56.106 25.638L57.891 22.257C57.961 22.117 58.045 21.956 58.143 21.774C58.255 21.578 58.374 21.382 58.5 21.186C58.626 20.976 58.759 20.801 58.899 20.661C58.633 20.675 58.36 20.689 58.08 20.703C57.8 20.703 57.52 20.71 57.24 20.724V19.8H61.524V20.493C60.838 20.535 60.271 20.773 59.823 21.207C59.389 21.641 58.927 22.306 58.437 23.202C57.961 24.098 57.499 24.959 57.051 25.785C56.617 26.611 56.197 27.416 55.791 28.2C55.791 28.452 55.784 28.788 55.77 29.208C55.77 29.628 55.77 30.055 55.77 30.489C55.77 30.909 55.77 31.266 55.77 31.56C55.77 31.854 55.77 32.001 55.77 32.001C55.77 32.379 55.763 32.708 55.749 32.988C55.749 33.254 55.735 33.478 55.707 33.66C56.001 33.646 56.288 33.632 56.568 33.618C56.862 33.604 57.156 33.59 57.45 33.576V34.5H52.515ZM65.965 34.836C64.985 34.836 64.096 34.612 63.298 34.164C62.5 33.702 61.863 33.072 61.387 32.274C60.925 31.462 60.694 30.538 60.694 29.502C60.694 28.396 60.925 27.402 61.387 26.52C61.849 25.638 62.479 24.945 63.277 24.441C64.075 23.923 64.971 23.664 65.965 23.664C66.945 23.664 67.834 23.902 68.632 24.378C69.43 24.84 70.067 25.47 70.543 26.268C71.019 27.066 71.257 27.976 71.257 28.998C71.257 30.076 71.019 31.063 70.543 31.959C70.081 32.841 69.451 33.541 68.653 34.059C67.855 34.577 66.959 34.836 65.965 34.836ZM66.133 33.996C66.875 33.996 67.463 33.786 67.897 33.366C68.331 32.946 68.639 32.4 68.821 31.728C69.017 31.056 69.115 30.349 69.115 29.607C69.115 28.977 69.052 28.361 68.926 27.759C68.814 27.143 68.632 26.59 68.38 26.1C68.128 25.596 67.799 25.197 67.393 24.903C67.001 24.609 66.525 24.462 65.965 24.462C65.237 24.462 64.642 24.672 64.18 25.092C63.718 25.512 63.375 26.058 63.151 26.73C62.941 27.402 62.836 28.123 62.836 28.893C62.836 29.761 62.955 30.587 63.193 31.371C63.431 32.141 63.795 32.771 64.285 33.261C64.775 33.751 65.391 33.996 66.133 33.996ZM77.4722 34.836C76.7162 34.836 76.0792 34.696 75.5612 34.416C75.0572 34.136 74.6722 33.66 74.4062 32.988C74.1542 32.316 74.0282 31.406 74.0282 30.258V26.52C74.0282 26.296 74.0282 26.072 74.0282 25.848C74.0422 25.624 74.0702 25.393 74.1122 25.155C73.8742 25.169 73.6292 25.183 73.3772 25.197C73.1392 25.197 72.9012 25.204 72.6632 25.218V24.357H73.3142C73.9162 24.357 74.3502 24.301 74.6162 24.189C74.8962 24.063 75.1132 23.93 75.2672 23.79H75.8762V30.195C75.8762 31.399 76.0442 32.302 76.3802 32.904C76.7302 33.492 77.3182 33.779 78.1442 33.765C78.6762 33.751 79.1802 33.59 79.6562 33.282C80.1462 32.96 80.5382 32.582 80.8322 32.148V26.751C80.8322 26.415 80.8392 26.128 80.8532 25.89C80.8672 25.638 80.8952 25.393 80.9372 25.155C80.6852 25.169 80.4332 25.183 80.1812 25.197C79.9292 25.197 79.6772 25.204 79.4252 25.218V24.357H80.0762C80.6782 24.357 81.1122 24.301 81.3782 24.189C81.6582 24.063 81.8752 23.93 82.0292 23.79H82.6382L82.6172 31.728C82.6172 31.952 82.6102 32.267 82.5962 32.673C82.5822 33.079 82.5612 33.422 82.5332 33.702C82.7852 33.688 83.0372 33.674 83.2892 33.66C83.5412 33.646 83.7932 33.632 84.0452 33.618V34.5H81.0422C81.0002 34.262 80.9652 34.038 80.9372 33.828C80.9232 33.618 80.9092 33.422 80.8952 33.24C80.4612 33.674 79.9362 34.052 79.3202 34.374C78.7042 34.682 78.0882 34.836 77.4722 34.836ZM85.5715 33.87C86.0055 33.87 86.3065 33.765 86.4745 33.555C86.6425 33.331 86.7405 33.03 86.7685 32.652C86.7965 32.26 86.8105 31.812 86.8105 31.308V26.52C86.8105 26.296 86.8105 26.072 86.8105 25.848C86.8245 25.624 86.8525 25.393 86.8945 25.155C86.6425 25.169 86.3905 25.183 86.1385 25.197C85.9005 25.197 85.6555 25.204 85.4035 25.218V24.357H86.0545C86.6565 24.357 87.0695 24.301 87.2935 24.189C87.5315 24.063 87.7275 23.93 87.8815 23.79H88.4905C88.5185 24.014 88.5395 24.294 88.5535 24.63C88.5675 24.952 88.5815 25.365 88.5955 25.869C88.8055 25.519 89.0925 25.176 89.4565 24.84C89.8205 24.504 90.2265 24.224 90.6745 24C91.1365 23.776 91.6195 23.664 92.1235 23.664C92.5155 23.664 92.8585 23.769 93.1525 23.979C93.4465 24.189 93.5935 24.525 93.5935 24.987C93.5935 25.099 93.5585 25.239 93.4885 25.407C93.4185 25.561 93.3065 25.701 93.1525 25.827C92.9985 25.939 92.7955 25.995 92.5435 25.995C92.2355 25.981 91.9905 25.862 91.8085 25.638C91.6265 25.4 91.5565 25.127 91.5985 24.819C91.2485 24.805 90.8845 24.896 90.5065 25.092C90.1425 25.288 89.7995 25.561 89.4775 25.911C89.1555 26.247 88.8685 26.646 88.6165 27.108L88.6375 32.274C88.6375 32.554 88.6305 32.806 88.6165 33.03C88.6165 33.24 88.5955 33.464 88.5535 33.702C88.7775 33.688 88.9945 33.681 89.2045 33.681C89.4285 33.667 89.6525 33.653 89.8765 33.639V34.5H85.5715V33.87ZM107.712 29.061C107.712 28.445 107.628 28.004 107.46 27.738C107.292 27.472 107.026 27.311 106.662 27.255C106.298 27.199 105.815 27.185 105.213 27.213L103.68 27.276V32.085C103.68 32.463 103.673 32.785 103.659 33.051C103.659 33.317 103.645 33.541 103.617 33.723L107.628 33.66C108.244 33.646 108.776 33.548 109.224 33.366C109.672 33.17 110.022 32.834 110.274 32.358C110.526 31.882 110.652 31.231 110.652 30.405H111.366L111.24 34.5H100.404V33.807C100.936 33.779 101.3 33.66 101.496 33.45C101.692 33.226 101.797 32.925 101.811 32.547C101.839 32.155 101.853 31.714 101.853 31.224V22.152C101.853 21.872 101.86 21.606 101.874 21.354C101.888 21.088 101.902 20.85 101.916 20.64C101.664 20.654 101.412 20.668 101.16 20.682C100.908 20.696 100.656 20.71 100.404 20.724V19.8H110.505L110.61 23.475H109.917C109.917 22.649 109.791 22.026 109.539 21.606C109.287 21.172 108.944 20.885 108.51 20.745C108.09 20.591 107.614 20.521 107.082 20.535L105.276 20.577C104.758 20.591 104.387 20.689 104.163 20.871C103.939 21.053 103.799 21.326 103.743 21.69C103.701 22.04 103.68 22.502 103.68 23.076V26.436L107.628 26.457L107.481 24.651H108.405V29.061H107.712ZM113.237 34.5V33.87C113.671 33.87 113.972 33.765 114.14 33.555C114.308 33.331 114.406 33.03 114.434 32.652C114.462 32.26 114.476 31.812 114.476 31.308V26.52C114.476 26.296 114.476 26.072 114.476 25.848C114.49 25.624 114.518 25.393 114.56 25.155C114.308 25.169 114.056 25.183 113.804 25.197C113.566 25.211 113.321 25.225 113.069 25.239V24.357C113.685 24.357 114.147 24.329 114.455 24.273C114.777 24.217 115.015 24.147 115.169 24.063C115.323 23.979 115.449 23.888 115.547 23.79H116.156C116.184 23.93 116.198 24.091 116.198 24.273C116.212 24.455 116.226 24.665 116.24 24.903C116.66 24.539 117.143 24.245 117.689 24.021C118.235 23.783 118.781 23.664 119.327 23.664C120.027 23.664 120.615 23.79 121.091 24.042C121.567 24.294 121.938 24.637 122.204 25.071C122.68 24.679 123.226 24.35 123.842 24.084C124.472 23.804 125.088 23.664 125.69 23.664C126.908 23.664 127.804 24.035 128.378 24.777C128.952 25.505 129.225 26.702 129.197 28.368L129.176 32.274C129.176 32.554 129.169 32.806 129.155 33.03C129.155 33.24 129.134 33.464 129.092 33.702C129.316 33.688 129.533 33.681 129.743 33.681C129.967 33.667 130.191 33.653 130.415 33.639V34.5H126.131V33.87C126.565 33.87 126.866 33.765 127.034 33.555C127.202 33.331 127.3 33.03 127.328 32.652C127.356 32.26 127.37 31.812 127.37 31.308V28.368C127.37 27.164 127.174 26.261 126.782 25.659C126.404 25.057 125.802 24.763 124.976 24.777C124.542 24.777 124.108 24.875 123.674 25.071C123.24 25.267 122.862 25.512 122.54 25.806C122.61 26.03 122.659 26.275 122.687 26.541C122.729 26.793 122.75 27.059 122.75 27.339C122.736 28.151 122.729 28.97 122.729 29.796C122.729 30.622 122.722 31.448 122.708 32.274C122.708 32.554 122.701 32.806 122.687 33.03C122.687 33.24 122.666 33.464 122.624 33.702C122.848 33.688 123.065 33.681 123.275 33.681C123.499 33.667 123.723 33.653 123.947 33.639V34.5H119.663V33.87C120.097 33.87 120.391 33.765 120.545 33.555C120.713 33.331 120.811 33.03 120.839 32.652C120.881 32.26 120.902 31.812 120.902 31.308L120.923 28.368C120.937 27.164 120.762 26.254 120.398 25.638C120.034 25.022 119.439 24.721 118.613 24.735C118.179 24.735 117.752 24.833 117.332 25.029C116.912 25.211 116.555 25.449 116.261 25.743C116.261 25.911 116.261 26.093 116.261 26.289C116.275 26.471 116.282 26.667 116.282 26.877V32.274C116.282 32.554 116.275 32.806 116.261 33.03C116.261 33.24 116.24 33.464 116.198 33.702C116.422 33.688 116.639 33.681 116.849 33.681C117.073 33.667 117.297 33.653 117.521 33.639V34.5H113.237ZM138.385 34.5C138.343 34.262 138.315 34.052 138.301 33.87C138.287 33.688 138.266 33.499 138.238 33.303C137.762 33.779 137.244 34.157 136.684 34.437C136.138 34.703 135.557 34.836 134.941 34.836C133.877 34.836 133.086 34.598 132.568 34.122C132.05 33.632 131.791 33.037 131.791 32.337C131.791 31.693 131.987 31.14 132.379 30.678C132.785 30.202 133.303 29.817 133.933 29.523C134.577 29.215 135.27 28.991 136.012 28.851C136.768 28.697 137.496 28.627 138.196 28.641V27.339C138.196 26.849 138.154 26.387 138.07 25.953C137.986 25.519 137.804 25.162 137.524 24.882C137.244 24.602 136.796 24.455 136.18 24.441C135.774 24.427 135.354 24.504 134.92 24.672C134.5 24.84 134.192 25.127 133.996 25.533C134.108 25.645 134.178 25.778 134.206 25.932C134.248 26.072 134.269 26.205 134.269 26.331C134.269 26.499 134.199 26.695 134.059 26.919C133.919 27.129 133.674 27.227 133.324 27.213C133.03 27.213 132.806 27.115 132.652 26.919C132.498 26.709 132.421 26.464 132.421 26.184C132.421 25.708 132.596 25.281 132.946 24.903C133.31 24.525 133.807 24.224 134.437 24C135.067 23.776 135.781 23.664 136.579 23.664C137.755 23.664 138.623 23.979 139.183 24.609C139.743 25.225 140.016 26.205 140.002 27.549C140.002 28.067 140.002 28.592 140.002 29.124C140.002 29.642 139.995 30.167 139.981 30.699C139.981 31.217 139.981 31.742 139.981 32.274C139.981 32.498 139.974 32.722 139.96 32.946C139.946 33.17 139.925 33.422 139.897 33.702C140.149 33.688 140.394 33.674 140.632 33.66C140.884 33.646 141.136 33.632 141.388 33.618V34.5H138.385ZM138.196 29.355C137.72 29.369 137.216 29.432 136.684 29.544C136.166 29.642 135.683 29.796 135.235 30.006C134.801 30.216 134.444 30.496 134.164 30.846C133.898 31.182 133.772 31.595 133.786 32.085C133.814 32.603 133.982 32.995 134.29 33.261C134.612 33.513 134.99 33.639 135.424 33.639C135.998 33.639 136.495 33.534 136.915 33.324C137.349 33.1 137.776 32.792 138.196 32.4C138.182 32.246 138.175 32.078 138.175 31.896C138.175 31.714 138.175 31.525 138.175 31.329C138.175 31.259 138.175 31.035 138.175 30.657C138.189 30.279 138.196 29.845 138.196 29.355ZM142.829 33.87C143.263 33.87 143.564 33.765 143.732 33.555C143.9 33.331 143.998 33.03 144.026 32.652C144.054 32.26 144.068 31.812 144.068 31.308V26.52C144.068 26.296 144.075 26.086 144.089 25.89C144.103 25.68 144.124 25.435 144.152 25.155C143.9 25.169 143.648 25.183 143.396 25.197C143.158 25.211 142.913 25.225 142.661 25.239V24.357C143.277 24.357 143.753 24.329 144.089 24.273C144.425 24.217 144.677 24.147 144.845 24.063C145.027 23.979 145.167 23.888 145.265 23.79H145.874V32.274C145.874 32.554 145.867 32.806 145.853 33.03C145.853 33.24 145.832 33.464 145.79 33.702C146.014 33.688 146.231 33.681 146.441 33.681C146.665 33.667 146.889 33.653 147.113 33.639V34.5H142.829V33.87ZM144.866 21.711C144.572 21.711 144.313 21.592 144.089 21.354C143.865 21.116 143.753 20.822 143.753 20.472C143.753 20.122 143.865 19.828 144.089 19.59C144.327 19.338 144.593 19.212 144.887 19.212C145.209 19.212 145.475 19.338 145.685 19.59C145.909 19.828 146.021 20.122 146.021 20.472C146.021 20.822 145.902 21.116 145.664 21.354C145.44 21.592 145.174 21.711 144.866 21.711ZM148.526 33.87C148.96 33.87 149.261 33.765 149.429 33.555C149.597 33.331 149.695 33.03 149.723 32.652C149.751 32.26 149.765 31.812 149.765 31.308V21.375C149.765 21.151 149.765 20.941 149.765 20.745C149.779 20.535 149.8 20.29 149.828 20.01C149.576 20.024 149.324 20.038 149.072 20.052C148.834 20.066 148.589 20.08 148.337 20.094V19.212C148.953 19.212 149.429 19.184 149.765 19.128C150.115 19.072 150.374 19.002 150.542 18.918C150.724 18.834 150.864 18.743 150.962 18.645H151.571L151.592 32.274C151.592 32.554 151.585 32.806 151.571 33.03C151.557 33.24 151.529 33.464 151.487 33.702C151.711 33.688 151.928 33.681 152.138 33.681C152.362 33.667 152.586 33.653 152.81 33.639V34.5H148.526V33.87ZM158.924 34.5V33.807C159.344 33.807 159.666 33.695 159.89 33.471C160.114 33.247 160.296 32.939 160.436 32.547C160.59 32.155 160.765 31.7 160.961 31.182L165.287 19.401H165.791L170.474 31.35C170.586 31.644 170.712 32.022 170.852 32.484C170.992 32.946 171.048 33.338 171.02 33.66C171.258 33.646 171.496 33.632 171.734 33.618C171.972 33.604 172.21 33.59 172.448 33.576V34.5H167.639V33.807C168.171 33.793 168.521 33.674 168.689 33.45C168.857 33.226 168.92 32.96 168.878 32.652C168.836 32.344 168.766 32.064 168.668 31.812L167.933 29.838L162.473 29.964L161.738 32.211C161.64 32.547 161.549 32.813 161.465 33.009C161.395 33.205 161.311 33.422 161.213 33.66C161.493 33.646 161.766 33.632 162.032 33.618C162.312 33.604 162.585 33.59 162.851 33.576V34.5H158.924ZM162.788 29.061H167.639L166.148 25.05C165.994 24.616 165.833 24.189 165.665 23.769C165.511 23.335 165.357 22.901 165.203 22.467H165.161C165.021 22.859 164.874 23.251 164.72 23.643C164.58 24.035 164.433 24.434 164.279 24.84L162.788 29.061ZM177.613 34.836C176.759 34.836 175.989 34.626 175.303 34.206C174.617 33.772 174.071 33.156 173.665 32.358C173.273 31.56 173.077 30.622 173.077 29.544C173.077 28.396 173.308 27.381 173.77 26.499C174.232 25.617 174.869 24.924 175.681 24.42C176.507 23.916 177.438 23.664 178.474 23.664C178.936 23.664 179.391 23.727 179.839 23.853C180.301 23.965 180.665 24.098 180.931 24.252V21.375C180.931 21.151 180.931 20.941 180.931 20.745C180.945 20.535 180.966 20.29 180.994 20.01C180.742 20.024 180.49 20.038 180.238 20.052C180 20.066 179.755 20.08 179.503 20.094V19.212C180.119 19.212 180.595 19.184 180.931 19.128C181.267 19.072 181.519 19.002 181.687 18.918C181.869 18.834 182.009 18.743 182.107 18.645H182.716V32.274C182.716 32.498 182.709 32.722 182.695 32.946C182.681 33.17 182.66 33.422 182.632 33.702C182.884 33.688 183.129 33.674 183.367 33.66C183.619 33.646 183.871 33.632 184.123 33.618V34.5H181.12C181.078 34.29 181.043 34.101 181.015 33.933C181.001 33.751 180.987 33.576 180.973 33.408C180.581 33.842 180.098 34.192 179.524 34.458C178.95 34.71 178.313 34.836 177.613 34.836ZM178.369 33.807C178.831 33.807 179.293 33.674 179.755 33.408C180.231 33.142 180.623 32.813 180.931 32.421C180.917 32.253 180.91 32.078 180.91 31.896C180.91 31.7 180.91 31.49 180.91 31.266L180.931 25.218C180.595 24.966 180.224 24.784 179.818 24.672C179.426 24.546 179.02 24.483 178.6 24.483C177.9 24.483 177.291 24.686 176.773 25.092C176.255 25.498 175.863 26.065 175.597 26.793C175.331 27.521 175.212 28.375 175.24 29.355C175.268 30.209 175.401 30.972 175.639 31.644C175.891 32.316 176.241 32.848 176.689 33.24C177.151 33.618 177.711 33.807 178.369 33.807ZM190.164 34.836C189.31 34.836 188.54 34.626 187.854 34.206C187.168 33.772 186.622 33.156 186.216 32.358C185.824 31.56 185.628 30.622 185.628 29.544C185.628 28.396 185.859 27.381 186.321 26.499C186.783 25.617 187.42 24.924 188.232 24.42C189.058 23.916 189.989 23.664 191.025 23.664C191.487 23.664 191.942 23.727 192.39 23.853C192.852 23.965 193.216 24.098 193.482 24.252V21.375C193.482 21.151 193.482 20.941 193.482 20.745C193.496 20.535 193.517 20.29 193.545 20.01C193.293 20.024 193.041 20.038 192.789 20.052C192.551 20.066 192.306 20.08 192.054 20.094V19.212C192.67 19.212 193.146 19.184 193.482 19.128C193.818 19.072 194.07 19.002 194.238 18.918C194.42 18.834 194.56 18.743 194.658 18.645H195.267V32.274C195.267 32.498 195.26 32.722 195.246 32.946C195.232 33.17 195.211 33.422 195.183 33.702C195.435 33.688 195.68 33.674 195.918 33.66C196.17 33.646 196.422 33.632 196.674 33.618V34.5H193.671C193.629 34.29 193.594 34.101 193.566 33.933C193.552 33.751 193.538 33.576 193.524 33.408C193.132 33.842 192.649 34.192 192.075 34.458C191.501 34.71 190.864 34.836 190.164 34.836ZM190.92 33.807C191.382 33.807 191.844 33.674 192.306 33.408C192.782 33.142 193.174 32.813 193.482 32.421C193.468 32.253 193.461 32.078 193.461 31.896C193.461 31.7 193.461 31.49 193.461 31.266L193.482 25.218C193.146 24.966 192.775 24.784 192.369 24.672C191.977 24.546 191.571 24.483 191.151 24.483C190.451 24.483 189.842 24.686 189.324 25.092C188.806 25.498 188.414 26.065 188.148 26.793C187.882 27.521 187.763 28.375 187.791 29.355C187.819 30.209 187.952 30.972 188.19 31.644C188.442 32.316 188.792 32.848 189.24 33.24C189.702 33.618 190.262 33.807 190.92 33.807ZM198.221 33.87C198.655 33.87 198.956 33.765 199.124 33.555C199.292 33.331 199.39 33.03 199.418 32.652C199.446 32.26 199.46 31.812 199.46 31.308V26.52C199.46 26.296 199.46 26.072 199.46 25.848C199.474 25.624 199.502 25.393 199.544 25.155C199.292 25.169 199.04 25.183 198.788 25.197C198.55 25.197 198.305 25.204 198.053 25.218V24.357H198.704C199.306 24.357 199.719 24.301 199.943 24.189C200.181 24.063 200.377 23.93 200.531 23.79H201.14C201.168 24.014 201.189 24.294 201.203 24.63C201.217 24.952 201.231 25.365 201.245 25.869C201.455 25.519 201.742 25.176 202.106 24.84C202.47 24.504 202.876 24.224 203.324 24C203.786 23.776 204.269 23.664 204.773 23.664C205.165 23.664 205.508 23.769 205.802 23.979C206.096 24.189 206.243 24.525 206.243 24.987C206.243 25.099 206.208 25.239 206.138 25.407C206.068 25.561 205.956 25.701 205.802 25.827C205.648 25.939 205.445 25.995 205.193 25.995C204.885 25.981 204.64 25.862 204.458 25.638C204.276 25.4 204.206 25.127 204.248 24.819C203.898 24.805 203.534 24.896 203.156 25.092C202.792 25.288 202.449 25.561 202.127 25.911C201.805 26.247 201.518 26.646 201.266 27.108L201.287 32.274C201.287 32.554 201.28 32.806 201.266 33.03C201.266 33.24 201.245 33.464 201.203 33.702C201.427 33.688 201.644 33.681 201.854 33.681C202.078 33.667 202.302 33.653 202.526 33.639V34.5H198.221V33.87ZM212.244 34.836C211.278 34.836 210.403 34.612 209.619 34.164C208.849 33.702 208.24 33.058 207.792 32.232C207.344 31.392 207.12 30.405 207.12 29.271C207.12 28.291 207.337 27.374 207.771 26.52C208.219 25.666 208.842 24.98 209.64 24.462C210.438 23.93 211.362 23.664 212.412 23.664C213 23.664 213.546 23.762 214.05 23.958C214.568 24.14 215.023 24.427 215.415 24.819C215.807 25.197 216.115 25.68 216.339 26.268C216.563 26.842 216.675 27.521 216.675 28.305L209.283 28.431C209.283 29.495 209.395 30.433 209.619 31.245C209.857 32.043 210.235 32.666 210.753 33.114C211.271 33.548 211.936 33.765 212.748 33.765C213.182 33.765 213.623 33.688 214.071 33.534C214.533 33.38 214.96 33.17 215.352 32.904C215.744 32.638 216.059 32.344 216.297 32.022L216.801 32.442C216.423 33.03 215.968 33.499 215.436 33.849C214.904 34.199 214.358 34.451 213.798 34.605C213.238 34.759 212.72 34.836 212.244 34.836ZM209.346 27.549H214.701C214.701 27.045 214.624 26.562 214.47 26.1C214.33 25.624 214.092 25.239 213.756 24.945C213.42 24.637 212.979 24.483 212.433 24.483C211.621 24.483 210.942 24.728 210.396 25.218C209.864 25.694 209.514 26.471 209.346 27.549ZM222.849 34.836C222.149 34.836 221.526 34.738 220.98 34.542C220.434 34.36 219.986 34.15 219.636 33.912L219.72 34.647H218.838L218.712 31.035H219.363C219.391 31.609 219.552 32.127 219.846 32.589C220.14 33.037 220.518 33.387 220.98 33.639C221.442 33.891 221.939 34.017 222.471 34.017C222.835 34.017 223.192 33.961 223.542 33.849C223.892 33.723 224.186 33.541 224.424 33.303C224.662 33.051 224.781 32.736 224.781 32.358C224.781 31.966 224.662 31.644 224.424 31.392C224.2 31.126 223.899 30.895 223.521 30.699C223.143 30.503 222.737 30.321 222.303 30.153C221.883 29.985 221.463 29.81 221.043 29.628C220.623 29.446 220.231 29.229 219.867 28.977C219.517 28.725 219.237 28.417 219.027 28.053C218.817 27.689 218.712 27.241 218.712 26.709C218.712 26.415 218.768 26.093 218.88 25.743C218.992 25.393 219.181 25.064 219.447 24.756C219.713 24.434 220.077 24.175 220.539 23.979C221.001 23.769 221.589 23.664 222.303 23.664C222.681 23.664 223.101 23.727 223.563 23.853C224.025 23.979 224.473 24.217 224.907 24.567L224.865 23.769H225.747V27.444H225.075C225.047 26.954 224.935 26.485 224.739 26.037C224.543 25.575 224.256 25.197 223.878 24.903C223.5 24.595 223.01 24.441 222.408 24.441C221.764 24.441 221.26 24.602 220.896 24.924C220.532 25.246 220.35 25.617 220.35 26.037C220.35 26.471 220.483 26.835 220.749 27.129C221.029 27.409 221.386 27.654 221.82 27.864C222.254 28.074 222.716 28.277 223.206 28.473C223.738 28.697 224.256 28.942 224.76 29.208C225.264 29.474 225.677 29.81 225.999 30.216C226.321 30.608 226.482 31.119 226.482 31.749C226.482 32.449 226.3 33.03 225.936 33.492C225.586 33.954 225.131 34.29 224.571 34.5C224.025 34.724 223.451 34.836 222.849 34.836ZM232.57 34.836C231.87 34.836 231.247 34.738 230.701 34.542C230.155 34.36 229.707 34.15 229.357 33.912L229.441 34.647H228.559L228.433 31.035H229.084C229.112 31.609 229.273 32.127 229.567 32.589C229.861 33.037 230.239 33.387 230.701 33.639C231.163 33.891 231.66 34.017 232.192 34.017C232.556 34.017 232.913 33.961 233.263 33.849C233.613 33.723 233.907 33.541 234.145 33.303C234.383 33.051 234.502 32.736 234.502 32.358C234.502 31.966 234.383 31.644 234.145 31.392C233.921 31.126 233.62 30.895 233.242 30.699C232.864 30.503 232.458 30.321 232.024 30.153C231.604 29.985 231.184 29.81 230.764 29.628C230.344 29.446 229.952 29.229 229.588 28.977C229.238 28.725 228.958 28.417 228.748 28.053C228.538 27.689 228.433 27.241 228.433 26.709C228.433 26.415 228.489 26.093 228.601 25.743C228.713 25.393 228.902 25.064 229.168 24.756C229.434 24.434 229.798 24.175 230.26 23.979C230.722 23.769 231.31 23.664 232.024 23.664C232.402 23.664 232.822 23.727 233.284 23.853C233.746 23.979 234.194 24.217 234.628 24.567L234.586 23.769H235.468V27.444H234.796C234.768 26.954 234.656 26.485 234.46 26.037C234.264 25.575 233.977 25.197 233.599 24.903C233.221 24.595 232.731 24.441 232.129 24.441C231.485 24.441 230.981 24.602 230.617 24.924C230.253 25.246 230.071 25.617 230.071 26.037C230.071 26.471 230.204 26.835 230.47 27.129C230.75 27.409 231.107 27.654 231.541 27.864C231.975 28.074 232.437 28.277 232.927 28.473C233.459 28.697 233.977 28.942 234.481 29.208C234.985 29.474 235.398 29.81 235.72 30.216C236.042 30.608 236.203 31.119 236.203 31.749C236.203 32.449 236.021 33.03 235.657 33.492C235.307 33.954 234.852 34.29 234.292 34.5C233.746 34.724 233.172 34.836 232.57 34.836Z" fill="#FFF9C0" fill-opacity="0.53"/>
<defs>
<radialGradient id="paint0_radial_0_372" cx="0" cy="0" r="1" gradientUnits="userSpaceOnUse" gradientTransform="translate(8.58668 0.960001) rotate(6.97916) scale(227.803 78.4852)">
<stop stop-color="#FFE195"/>
<stop offset="0.177083" stop-color="#F2BB5A" stop-opacity="0.876812"/>
<stop offset="0.359375" stop-color="#BF7A00" stop-opacity="0.75"/>
<stop offset="1" stop-color="#BF7A00" stop-opacity="0"/>
<stop offset="1" stop-color="#0F1218" stop-opacity="0"/>
</radialGradient>
<linearGradient id="paint1_linear_0_372" x1="24" y1="18" x2="24" y2="36" gradientUnits="userSpaceOnUse">
<stop stop-color="#FFBA41"/>
<stop offset="1" stop-color="#FFFBBD"/>
</linearGradient>
<clipPath id="clip0_0_372">
<rect width="24" height="24" fill="white" transform="translate(12 15)"/>
</clipPath>
</defs>
</svg>
