<svg width="135" height="135" viewBox="0 0 135 135" fill="none" xmlns="http://www.w3.org/2000/svg">
<path d="M25.5239 82.87V108.046C25.5239 108.417 25.6713 108.773 25.9335 109.035C26.1958 109.297 26.5517 109.445 26.9226 109.445H68.8329C69.2038 109.445 69.5597 109.297 69.822 109.035C70.0842 108.773 70.2316 108.417 70.2316 108.046V82.87C70.2285 80.2744 69.1957 77.7854 67.3606 75.9504C65.5249 74.1147 63.0365 73.0825 60.4409 73.0793H35.3146C32.719 73.0825 30.2306 74.1146 28.3949 75.9504C26.5599 77.7854 25.5271 80.2744 25.5239 82.87ZM36.7132 106.647V84.2686H59.0918V106.647H36.7132ZM35.3146 75.8767H60.4409C62.2949 75.8792 64.0725 76.6166 65.3831 77.9272C66.6943 79.2384 67.4317 81.0161 67.4343 82.87V106.647H61.8895V84.2686C61.8895 83.5269 61.5948 82.815 61.0703 82.2905C60.5458 81.766 59.8339 81.4713 59.0922 81.4713H36.7136C35.9718 81.4713 35.2606 81.766 34.7354 82.2905C34.211 82.815 33.9162 83.5269 33.9162 84.2686V106.647H28.3216V82.87C28.3241 81.0161 29.0615 79.2384 30.3727 77.9272C31.6834 76.6166 33.461 75.8792 35.3149 75.8767H35.3146Z" fill="url(#paint0_linear_0_1327)" fill-opacity="0.876812"/>
<path d="M41.0122 52.0995C42.4733 52.0596 43.8413 51.3765 44.7512 50.2325C45.2644 49.6549 45.2132 48.7708 44.6363 48.2576C44.0593 47.7437 43.1752 47.7949 42.6614 48.3719C42.2755 48.9038 41.6779 49.2435 41.0236 49.3022C40.3086 49.2185 39.6461 48.8876 39.149 48.3662C38.632 47.7993 37.7547 47.7549 37.1827 48.267C36.6114 48.779 36.559 49.6556 37.0654 50.2326C38.0825 51.3522 39.5018 52.0233 41.0122 52.0995Z" fill="url(#paint1_linear_0_1327)" fill-opacity="0.876812"/>
<path d="M40.8843 54.8968C39.3851 54.8968 38.0002 55.6967 37.2503 56.9948C36.501 58.2929 36.501 59.8927 37.2503 61.1908C38.0002 62.4889 39.3851 63.2888 40.8843 63.2888H40.933C42.4322 63.28 43.8128 62.4721 44.5545 61.1695C45.2969 59.867 45.2875 58.2673 44.5301 56.9735C43.7734 55.6798 42.3835 54.888 40.8843 54.8968ZM40.933 60.4915H40.8843C40.1025 60.4777 39.4781 59.8371 39.485 59.0553C39.4919 58.2742 40.1269 57.6442 40.9086 57.6442C41.6904 57.6442 42.326 58.2742 42.3323 59.0553C42.3391 59.8371 41.7147 60.4777 40.933 60.4915Z" fill="url(#paint2_linear_0_1327)" fill-opacity="0.876812"/>
<path d="M54.9988 52.0995C56.4599 52.0596 57.8279 51.3765 58.7378 50.2325C59.251 49.6549 59.1998 48.7708 58.6229 48.2576C58.0459 47.7437 57.1618 47.7949 56.648 48.3719C56.2621 48.9038 55.6646 49.2435 55.0102 49.3022H54.9977C54.284 49.2267 53.6228 48.8939 53.1358 48.3662C52.6188 47.7993 51.7415 47.7549 51.1695 48.267C50.5982 48.779 50.5458 49.6556 51.0521 50.2326C52.0693 51.3522 53.4884 52.0233 54.9988 52.0995Z" fill="url(#paint3_linear_0_1327)" fill-opacity="0.876812"/>
<path d="M54.8965 54.8967C53.3973 54.8967 52.0124 55.6966 51.2632 56.9947C50.5133 58.2929 50.5133 59.8926 51.2632 61.1907C52.0124 62.4889 53.3974 63.2887 54.8965 63.2887H54.9202C56.4194 63.2844 57.8024 62.4807 58.5486 61.1807C59.2941 59.88 59.2897 58.2802 58.5367 56.9847C57.7831 55.6884 56.3955 54.8923 54.8965 54.8967ZM54.9202 60.4914H54.8965C54.1197 60.4852 53.4941 59.8514 53.4972 59.074C53.5003 58.2972 54.1316 57.6691 54.9083 57.6691C55.6857 57.6691 56.3164 58.2972 56.3195 59.074C56.3232 59.8514 55.6976 60.4851 54.9202 60.4914Z" fill="url(#paint4_linear_0_1327)" fill-opacity="0.876812"/>
<path d="M30.7835 44.406L31.1195 45.3445L31.1188 68.882C31.1188 69.2529 31.2662 69.6088 31.5284 69.871C31.7907 70.1333 32.1466 70.2807 32.5175 70.2807H63.2881C63.659 70.2807 64.0149 70.1333 64.2771 69.871C64.5394 69.6088 64.6867 69.2529 64.6867 68.882V45.3477L65.0195 44.4092V44.4086C65.89 41.9628 65.7532 39.2709 64.6387 36.9258C63.5247 34.5806 61.5242 32.7741 59.0784 31.9038L57.1871 31.2307C57.2289 30.0025 57.0391 28.7773 56.6276 27.6197L56.208 26.4546C55.9495 25.7265 55.1496 25.3469 54.4222 25.6054L47.8959 27.9268L41.3727 25.6054C41.0231 25.4805 40.6384 25.4999 40.3031 25.6591C39.9678 25.8177 39.71 26.1036 39.5851 26.4527L39.1655 27.6191V27.6197C38.7559 28.778 38.566 30.0024 38.606 31.2306L36.7166 31.9031V31.9037C34.2746 32.7785 32.2789 34.5855 31.1669 36.929C30.0548 39.2725 29.9168 41.961 30.7835 44.4062L30.7835 44.406ZM33.9162 67.4848V46.094L47.9028 41.1162L61.8895 46.094V67.4848H33.9162ZM56.2469 35.1045C56.4117 34.7511 56.5566 34.3889 56.6789 34.0193L58.1419 34.5394C59.8628 35.152 61.2752 36.4133 62.0781 38.0541C62.8805 39.6945 63.0098 41.5839 62.4372 43.3186L51.9223 39.5772C53.8155 38.6012 55.3352 37.0294 56.2469 35.1045ZM41.7594 28.7113L43.73 29.4106L41.4447 30.2242C41.4934 29.7097 41.5989 29.2027 41.7594 28.7113ZM54.0451 28.7113C54.6177 30.4459 54.4884 32.3353 53.6861 33.9757C52.8831 35.6167 51.4708 36.8779 49.7499 37.4904L33.3671 43.3186C32.797 41.5834 32.9282 39.6945 33.7318 38.0542C34.5354 36.4138 35.9477 35.1526 37.668 34.5395L54.0451 28.7113Z" fill="url(#paint5_linear_0_1327)" fill-opacity="0.876812"/>
<path d="M108.02 47.9036H92.5843C92.4363 47.1037 92.0079 46.3825 91.3767 45.8698C90.7448 45.3572 89.9512 45.0868 89.1382 45.1062C88.3883 45.1031 87.6552 45.3316 87.0402 45.7606C86.4145 45.3585 85.6858 45.1449 84.9422 45.1449C84.1985 45.1449 83.4699 45.3585 82.8442 45.7606C82.2292 45.3316 81.4961 45.1031 80.7462 45.1062C80.0756 45.0968 79.4162 45.2798 78.8461 45.6332C78.276 45.9866 77.819 46.4961 77.5292 47.1005C77.2102 47.0138 76.8811 46.97 76.5502 46.9707C75.6541 46.9419 74.7831 47.2691 74.1282 47.881C73.4725 48.493 73.0867 49.339 73.0536 50.2351V53.964C73.0867 54.8601 73.4725 55.706 74.1282 56.3181C74.7832 56.93 75.6542 57.2572 76.5502 57.2285C76.8811 57.2291 77.2102 57.1854 77.5292 57.0986C77.819 57.703 78.276 58.2125 78.8461 58.566C79.4162 58.9194 80.0755 59.1023 80.7462 59.093C81.4961 59.0961 82.2292 58.8675 82.8442 58.4386C83.4699 58.8407 84.1985 59.0542 84.9422 59.0542C85.6858 59.0542 86.4145 58.8407 87.0402 58.4386C87.6552 58.8675 88.3883 59.0961 89.1382 59.093C89.9511 59.1123 90.7448 58.8419 91.3767 58.3293C92.0079 57.8167 92.4363 57.0955 92.5843 56.2956H108.02C108.391 56.2956 108.747 56.1482 109.009 55.886C109.271 55.6237 109.419 55.2678 109.419 54.8969V49.3023C109.419 48.9314 109.271 48.5755 109.009 48.3132C108.747 48.051 108.391 47.9036 108.02 47.9036ZM89.8375 55.8298C89.8375 56.0495 89.5384 56.2956 89.1381 56.2956C88.7379 56.2956 88.4388 56.0495 88.4388 55.8298C88.4388 55.0574 87.8125 54.4311 87.0401 54.4311C86.2678 54.4311 85.6415 55.0574 85.6415 55.8298C85.6415 56.0495 85.3424 56.2956 84.9421 56.2956C84.5419 56.2956 84.2428 56.0495 84.2428 55.8298C84.2428 55.0574 83.6165 54.4311 82.8441 54.4311C82.0718 54.4311 81.4455 55.0574 81.4455 55.8298C81.4455 56.0495 81.1464 56.2956 80.7462 56.2956C80.3459 56.2956 80.0468 56.0495 80.0468 55.8298V53.964C80.0468 53.1916 79.4205 52.5654 78.6482 52.5654C77.8758 52.5654 77.2495 53.1916 77.2495 53.964C77.2495 54.1851 76.9504 54.4311 76.5502 54.4311C76.1499 54.4311 75.8508 54.1851 75.8508 53.964V50.2351C75.8508 50.0141 76.1499 49.768 76.5502 49.768C76.9504 49.768 77.2495 50.0141 77.2495 50.2351C77.2495 51.0075 77.8758 51.6338 78.6482 51.6338C79.4205 51.6338 80.0468 51.0075 80.0468 50.2351V48.3694C80.0468 48.1496 80.3459 47.9036 80.7462 47.9036C81.1464 47.9036 81.4455 48.1496 81.4455 48.3694C81.4455 49.1417 82.0718 49.768 82.8441 49.768C83.6165 49.768 84.2428 49.1417 84.2428 48.3694C84.2428 48.1496 84.5419 47.9036 84.9421 47.9036C85.3424 47.9036 85.6415 48.1496 85.6415 48.3694C85.6415 49.1417 86.2678 49.768 87.0401 49.768C87.8125 49.768 88.4388 49.1417 88.4388 48.3694C88.4388 48.1496 88.7379 47.9036 89.1381 47.9036C89.5384 47.9036 89.8375 48.1496 89.8375 48.3694V55.8298ZM106.621 53.4982H92.6348V50.7009H106.621V53.4982Z" fill="url(#paint6_linear_0_1327)" fill-opacity="0.876812"/>
<path d="M73.0535 75.8767V91.262C73.0566 93.8576 74.0888 96.3465 75.9245 98.1816C77.7596 100.017 80.2485 101.049 82.8441 101.053H96.8308C99.4264 101.049 101.915 100.017 103.75 98.1816C105.586 96.3465 106.618 93.8576 106.621 91.262V75.8767C106.621 75.1349 106.327 74.4231 105.802 73.8986C105.278 73.3741 104.566 73.0793 103.824 73.0793H75.8508C75.109 73.0793 74.3972 73.3741 73.8727 73.8986C73.3482 74.4231 73.0535 75.1349 73.0535 75.8767ZM103.824 91.262C103.822 93.1159 103.084 94.8935 101.774 96.2048C100.462 97.5154 98.6847 98.2527 96.8308 98.2553H82.8441C80.9902 98.2528 79.2126 97.5154 77.9013 96.2048C76.5907 94.8935 75.8534 93.1159 75.8508 91.262V75.8767H103.824V91.262Z" fill="url(#paint7_linear_0_1327)" fill-opacity="0.876812"/>
<path d="M78.6482 61.8901H81.4455V64.6875H78.6482V61.8901Z" fill="url(#paint8_linear_0_1327)" fill-opacity="0.876812"/>
<path d="M84.2428 67.4849H87.0401V70.2822H84.2428V67.4849Z" fill="url(#paint9_linear_0_1327)" fill-opacity="0.876812"/>
<path d="M85.6415 61.8901H88.4388V64.6875H85.6415V61.8901Z" fill="url(#paint10_linear_0_1327)" fill-opacity="0.876812"/>
<path d="M91.2361 67.4849H94.0335V70.2822H91.2361V67.4849Z" fill="url(#paint11_linear_0_1327)" fill-opacity="0.876812"/>
<path d="M81.4455 94.0594H84.2428C84.5656 94.0563 84.8859 93.997 85.1882 93.8833C85.9768 94.8742 87.1725 95.4537 88.4388 95.4581H94.0335C94.8983 95.4543 95.7406 95.184 96.4455 94.6832C97.1505 94.1824 97.6837 93.4762 97.9722 92.6608H99.6281C100.4 92.6608 101.027 92.0345 101.027 91.2621C101.027 90.4897 100.4 89.8635 99.6281 89.8635H97.9722C97.5489 88.679 96.6166 87.7468 95.4321 87.3233V85.6675C95.4321 84.1683 94.6322 82.7834 93.3341 82.0335C92.036 81.2842 90.4362 81.2842 89.1381 82.0335C87.84 82.7834 87.0401 84.1683 87.0401 85.6675V87.3233C86.9689 87.3483 86.9002 87.3627 86.8247 87.3908C86.6124 86.8806 86.254 86.4448 85.7944 86.1382C85.3355 85.8316 84.7954 85.6674 84.2428 85.6674H84.131C83.6178 82.3962 81.3337 81.4714 80.0468 81.4714C79.2969 81.4739 78.6868 82.0759 78.675 82.8252C78.6612 83.5857 79.2488 84.2219 80.0074 84.2688C80.1922 84.28 80.9503 84.4242 81.2831 85.6843C80.5725 85.7255 79.9044 86.0358 79.4148 86.5528C78.9253 87.0692 78.6512 87.7529 78.648 88.4648V91.2621C78.648 92.0039 78.9427 92.7157 79.4672 93.2402C79.9917 93.7647 80.7037 94.0594 81.4455 94.0594ZM87.0401 91.2621C87.0401 90.4897 87.6664 89.8634 88.4388 89.8634H89.8374V92.6607H88.4388C87.6664 92.6607 87.0401 92.0345 87.0401 91.2621ZM94.0334 92.6607H92.6348V89.8634H94.0334C94.8058 89.8634 95.4321 90.4897 95.4321 91.2621C95.4321 92.0345 94.8058 92.6607 94.0334 92.6607ZM89.8374 85.6674C89.8374 84.895 90.4637 84.2688 91.2361 84.2688C92.0085 84.2688 92.6348 84.895 92.6348 85.6674V87.0661H89.8374V85.6674ZM84.2428 91.2483V91.2621H81.4455V88.4647H84.2428V91.2483Z" fill="url(#paint12_linear_0_1327)" fill-opacity="0.876812"/>
<defs>
<linearGradient id="paint0_linear_0_1327" x1="47.8778" y1="73.0793" x2="47.8778" y2="109.445" gradientUnits="userSpaceOnUse">
<stop stop-color="#FFBA41"/>
<stop offset="1" stop-color="#FFFBBD"/>
</linearGradient>
<linearGradient id="paint1_linear_0_1327" x1="40.9112" y1="47.9033" x2="40.9112" y2="52.0996" gradientUnits="userSpaceOnUse">
<stop stop-color="#FFBA41"/>
<stop offset="1" stop-color="#FFFBBD"/>
</linearGradient>
<linearGradient id="paint2_linear_0_1327" x1="40.8966" y1="54.8967" x2="40.8966" y2="63.2888" gradientUnits="userSpaceOnUse">
<stop stop-color="#FFBA41"/>
<stop offset="1" stop-color="#FFFBBD"/>
</linearGradient>
<linearGradient id="paint3_linear_0_1327" x1="54.8979" y1="47.9033" x2="54.8979" y2="52.0996" gradientUnits="userSpaceOnUse">
<stop stop-color="#FFBA41"/>
<stop offset="1" stop-color="#FFFBBD"/>
</linearGradient>
<linearGradient id="paint4_linear_0_1327" x1="54.9027" y1="54.8967" x2="54.9027" y2="63.2887" gradientUnits="userSpaceOnUse">
<stop stop-color="#FFBA41"/>
<stop offset="1" stop-color="#FFFBBD"/>
</linearGradient>
<linearGradient id="paint5_linear_0_1327" x1="47.9032" y1="25.5239" x2="47.9032" y2="70.2807" gradientUnits="userSpaceOnUse">
<stop stop-color="#FFBA41"/>
<stop offset="1" stop-color="#FFFBBD"/>
</linearGradient>
<linearGradient id="paint6_linear_0_1327" x1="91.2361" y1="45.1052" x2="91.2361" y2="59.0939" gradientUnits="userSpaceOnUse">
<stop stop-color="#FFBA41"/>
<stop offset="1" stop-color="#FFFBBD"/>
</linearGradient>
<linearGradient id="paint7_linear_0_1327" x1="89.8375" y1="73.0793" x2="89.8375" y2="101.053" gradientUnits="userSpaceOnUse">
<stop stop-color="#FFBA41"/>
<stop offset="1" stop-color="#FFFBBD"/>
</linearGradient>
<linearGradient id="paint8_linear_0_1327" x1="80.0468" y1="61.8901" x2="80.0468" y2="64.6875" gradientUnits="userSpaceOnUse">
<stop stop-color="#FFBA41"/>
<stop offset="1" stop-color="#FFFBBD"/>
</linearGradient>
<linearGradient id="paint9_linear_0_1327" x1="85.6415" y1="67.4849" x2="85.6415" y2="70.2822" gradientUnits="userSpaceOnUse">
<stop stop-color="#FFBA41"/>
<stop offset="1" stop-color="#FFFBBD"/>
</linearGradient>
<linearGradient id="paint10_linear_0_1327" x1="87.0401" y1="61.8901" x2="87.0401" y2="64.6875" gradientUnits="userSpaceOnUse">
<stop stop-color="#FFBA41"/>
<stop offset="1" stop-color="#FFFBBD"/>
</linearGradient>
<linearGradient id="paint11_linear_0_1327" x1="92.6348" y1="67.4849" x2="92.6348" y2="70.2822" gradientUnits="userSpaceOnUse">
<stop stop-color="#FFBA41"/>
<stop offset="1" stop-color="#FFFBBD"/>
</linearGradient>
<linearGradient id="paint12_linear_0_1327" x1="89.8374" y1="81.4714" x2="89.8374" y2="95.4581" gradientUnits="userSpaceOnUse">
<stop stop-color="#FFBA41"/>
<stop offset="1" stop-color="#FFFBBD"/>
</linearGradient>
</defs>
</svg>
