<svg width="135" height="135" viewBox="0 0 135 135" fill="none" xmlns="http://www.w3.org/2000/svg">
<path d="M58.8645 29.6682L52.3076 41.1359C47.8868 41.1178 43.4324 41.0972 39.0252 41.0804C38.7773 41.1378 38.5575 41.3045 38.437 41.5281L30.8149 54.7024C30.6606 54.9503 30.6388 55.2756 30.7587 55.5416L36.6992 68.0165L30.2542 79.0365C30.0975 79.3069 30.0975 79.6609 30.2542 79.9313L37.8764 93.1056C38.0193 93.3553 38.2897 93.5283 38.5769 93.5533L52.5599 94.7278L58.8644 105.72C59.0149 106.004 59.3277 106.193 59.6493 106.196H74.8928C75.1794 106.196 75.4604 106.041 75.6215 105.805L83.2991 94.7285L96.8893 93.6377C97.1765 93.6127 97.4469 93.4397 97.5899 93.19L105.212 80.0157C105.369 79.7453 105.369 79.3913 105.212 79.1209L98.7389 68.0165L104.708 55.4573C104.827 55.1913 104.806 54.866 104.651 54.6181L97.0292 41.4438C96.8712 41.171 96.5603 40.9936 96.2443 40.9961L83.579 41.0804L75.621 29.5845C75.4537 29.3585 75.1746 29.2186 74.8923 29.2211H59.6488C59.2954 29.1612 59.0681 29.5002 58.8639 29.6682L58.8645 29.6682ZM60.1533 31.0107H74.4439L81.7857 41.6117C81.6396 41.7485 79.2307 46.2623 77.9188 48.4927C74.0494 50.4282 69.5655 53.3785 66.5984 56.4083C65.7717 55.235 64.9101 54.5045 63.8243 53.8907L64.8333 50.1149L63.1238 49.6391L62.0592 53.5548C61.5877 53.5735 61.1013 53.6821 60.6299 53.8907L53.7646 42.1707L60.1533 31.0107ZM95.74 42.7863L102.886 55.1214L97.2255 67.0094L80.384 66.8695C79.8383 66.3812 79.2676 65.9741 78.6469 65.6669C76.9904 64.8783 75.3458 64.9014 73.7153 65.1355C73.2283 64.5748 72.7331 64.0316 72.1743 63.4296C73.2901 63.3023 74.3847 63.1724 75.6491 63.0662C77.5047 62.9101 79.1663 62.8127 80.3289 62.1434C82.1315 61.1044 83.9061 59.0689 86.0454 57.8363C86.1684 57.7689 86.2745 57.6721 86.3538 57.5566C88.1153 54.8772 88.5442 52.0781 87.755 49.9207C86.9657 47.7634 84.7709 46.3778 82.0667 46.76C81.6296 46.8555 81.1681 47.0628 80.7779 47.2077L83.3279 42.8725C87.4659 42.845 91.6043 42.815 95.7417 42.7882L95.74 42.7863ZM39.7248 42.8706L52.1104 42.9261L59.1718 54.9815C59.05 55.1251 58.9614 55.2731 58.8633 55.4292L54.8839 54.3665L54.4356 56.1005L58.2464 57.1358C58.1477 58.3914 58.5748 59.7496 59.0313 60.7441C54.854 61.7944 50.47 64.0036 46.5338 66.646C46.4907 66.6342 42.7542 66.6217 37.9869 66.5904L32.5789 55.2063L39.7248 42.8706ZM86.0725 50.5344C86.6038 51.9862 86.3378 54.1822 84.8674 56.4644C82.527 57.8925 80.6589 59.8968 79.4313 60.6042C79.051 60.8233 77.329 61.1218 75.5082 61.2754C74.0158 61.4009 72.4124 61.4989 71.0531 61.695C70.7808 60.6179 70.4243 59.6801 69.8479 58.8977C69.3846 58.2689 68.7646 57.7894 68.0265 57.4153C71.8147 53.7045 78.617 49.8121 82.4015 48.5207C83.9744 48.2628 85.6159 49.3536 86.0725 50.5344ZM66.2338 58.6179C67.1567 58.8533 67.8555 59.444 68.3918 59.9604C68.7146 60.3981 68.9581 60.9888 69.1767 61.7224C67.9066 61.7886 66.5823 62.3081 65.3659 63.0093C64.1414 63.7148 63.0307 64.624 62.3394 65.6942C61.8124 65.1304 61.4377 64.5996 61.2186 64.1001C60.8801 63.018 60.9295 62.3562 61.1624 61.4426C61.5495 60.4667 62.3587 59.6018 63.1237 59.1492C64.2382 58.5778 65.1323 58.4275 66.2338 58.6179ZM59.1724 62.4779C59.1343 63.3127 59.248 64.1064 59.5646 64.8275C59.9585 65.7254 60.5805 66.5302 61.386 67.317C60.5986 68.3672 59.8843 69.5879 59.2006 70.7012C58.3489 72.0874 57.4511 73.2794 57.0708 73.4986C56.5606 73.7927 55.17 74.1123 53.6803 74.4495C52.2585 74.7717 50.7162 75.1489 49.4211 75.8482C46.9579 76.3177 45.0709 75.6041 44.153 74.5338C43.247 73.4767 43.1215 72.0798 44.2929 70.5058C48.7643 67.0079 54.229 63.7979 59.1724 62.4779ZM38.549 68.3798L44.0693 68.4072C43.6466 68.7032 43.2994 69.0098 42.9485 69.302C41.2651 71.4488 41.3662 74.0244 42.8086 75.7071C44.251 77.3898 46.8304 78.1897 49.8419 77.581C49.9393 77.5685 50.0342 77.5398 50.1222 77.4967C51.105 76.9304 52.6087 76.5133 54.0735 76.1823C55.5377 75.8508 56.937 75.6297 57.9685 75.0359C59.1305 74.3659 59.8736 73.066 60.7426 71.6516C61.304 70.7388 61.8353 69.9533 62.3961 69.134C62.6315 69.8927 62.8613 70.577 63.0967 71.2602C61.8722 72.5864 61.1291 74.1462 61.023 75.8195C60.9936 76.2797 61.0211 76.7449 61.0792 77.2181L51.888 92.8538L39.1945 91.791L32.0489 79.4841L38.5502 68.3797L38.549 68.3798ZM76.519 68.6595L79.6855 68.687C80.2518 69.2839 80.7963 70.007 81.3108 70.8967C81.515 71.3544 82.1475 71.5586 82.5808 71.3063C83.0148 71.0547 83.1496 70.4047 82.8518 70.0013C82.5827 69.5361 82.3023 69.0934 82.0114 68.6869L97.115 68.7987L103.42 79.5671L96.2739 91.8741L83.5523 92.9087L77.2478 82.1678C78.3904 77.8938 78.8643 74.8797 77.9764 71.9026C77.5756 70.7861 77.0748 69.7021 76.5191 68.6581L76.519 68.6595ZM75.2303 70.1418C75.6711 70.9205 76.0201 71.6741 76.2393 72.4072C76.4404 73.0809 76.5396 73.7703 76.5759 74.5052C75.1348 74.208 73.4851 74.3803 72.3167 75.0365C71.1054 75.7346 70.2344 76.9167 69.7386 78.449C69.1223 78.0525 68.5653 77.6166 68.0851 77.1065C67.5606 76.5483 67.0798 75.8933 66.6277 75.1202C67.1223 73.5699 68.4217 72.1006 70.0744 71.1484C71.8383 70.2423 73.4574 69.9227 75.2301 70.1412L75.2303 70.1418ZM64.5542 74.8967C65.1412 76.276 65.8861 77.3569 66.7958 78.3366C68.827 80.4982 71.5175 81.5767 75.4825 82.6718C77.5949 86.3283 79.7578 89.9861 81.8996 93.6363L74.4179 104.405H60.1827L53.7657 93.2161L61.7237 79.6785C61.9791 80.3241 62.2925 80.9722 62.6765 81.6366C62.8807 82.0943 63.5132 82.2985 63.9465 82.0462C64.3805 81.794 64.5154 81.1446 64.2175 80.7412C63.5594 79.6029 63.1554 78.5489 62.9569 77.5805C63.4888 76.6858 64.0227 75.7885 64.5541 74.8962L64.5542 74.8967Z" fill="url(#paint0_linear_0_1372)" fill-opacity="0.876812"/>
<defs>
<linearGradient id="paint0_linear_0_1372" x1="67.7331" y1="29.2141" x2="67.7331" y2="106.196" gradientUnits="userSpaceOnUse">
<stop stop-color="#FFBA41"/>
<stop offset="1" stop-color="#FFFBBD"/>
</linearGradient>
</defs>
</svg>
