<svg width="135" height="135" viewBox="0 0 135 135" fill="none" xmlns="http://www.w3.org/2000/svg">
<path d="M65.0079 54.9059L61.939 50.0829C61.4057 49.2456 60.4954 48.7461 59.5026 48.7461H40.8756C39.8828 48.7461 38.9725 49.2462 38.4392 50.0836L35.3703 54.9065C30.8971 61.9354 28.5325 70.0552 28.5325 78.3864C28.5325 85.6826 30.3789 92.925 33.873 99.3296L36.9613 104.991C37.467 105.92 38.4386 106.496 39.4956 106.496H60.8816C61.9387 106.496 62.9102 105.92 63.4166 104.991L66.5049 99.3296C69.9983 92.9245 71.8453 85.682 71.8453 78.3864C71.8453 70.0544 69.4807 61.935 65.0076 54.9049L65.0079 54.9059ZM63.9701 97.9479L60.8825 103.609H39.495L36.4067 97.9473C33.1442 91.9648 31.4196 85.2014 31.4196 78.3868C31.4196 70.6048 33.6281 63.0208 37.806 56.4557L40.8749 51.6328H59.5035L62.5724 56.4557C66.7503 63.0213 68.9588 70.6048 68.9588 78.3868C68.9582 85.2015 67.2336 91.965 63.9704 97.9489L63.9701 97.9479Z" fill="url(#paint0_linear_0_1344)" fill-opacity="0.876812"/>
<path d="M51.6319 97.8345H54.5197V100.722H51.6319V97.8345Z" fill="url(#paint1_linear_0_1344)" fill-opacity="0.876812"/>
<path d="M57.4072 97.8345H60.295V100.722H57.4072V97.8345Z" fill="url(#paint2_linear_0_1344)" fill-opacity="0.876812"/>
<path d="M56.3058 66.0711C56.9939 65.3013 57.4085 64.2866 57.4085 63.1833C57.4085 60.7951 55.4654 58.8518 53.077 58.8518C51.9686 58.8518 50.9564 59.2708 50.1892 59.9583C49.4224 59.2708 48.4102 58.8518 47.3014 58.8518C44.9131 58.8518 42.9698 60.7949 42.9698 63.1833C42.9698 64.2873 43.3832 65.302 44.07 66.0711H34.3082V68.8391C34.3082 73.7219 37.249 78.0165 41.7161 79.7998C42.3049 82.9886 44.2436 85.8439 47.0678 87.538L48.7462 88.5451V94.9465H51.634V88.5451L53.3117 87.538C56.1359 85.8439 58.0747 82.9886 58.6634 79.7998C63.1304 78.0165 66.0714 73.7213 66.0714 68.8391V66.0711H56.3058ZM55.9649 77.7518C55.9649 78.7003 55.8025 79.6307 55.5003 80.5085H44.8793C44.5771 79.6313 44.4147 78.7008 44.4147 77.7518C44.4147 77.7081 44.4166 77.6644 44.4172 77.6207H55.9625C55.9631 77.665 55.9649 77.7081 55.9649 77.7518ZM44.9666 74.7334C45.1933 74.1359 45.4867 73.562 45.8464 73.0226L46.6313 71.8456H53.7488L54.5337 73.0226C54.8933 73.5621 55.1874 74.1359 55.4134 74.7334H44.9666ZM50.1898 66.0711C51.782 66.0711 53.0776 67.3668 53.0776 68.9589H47.3024C47.3018 67.3661 48.5976 66.0711 50.1898 66.0711ZM53.0769 61.7396C53.873 61.7396 54.5205 62.3871 54.5205 63.1832C54.5205 63.7202 54.2258 64.1941 53.7831 64.4426C53.1618 63.9469 52.4369 63.576 51.6452 63.3693C51.6377 63.3081 51.6333 63.2463 51.6333 63.1832C51.6333 62.3871 52.2808 61.7396 53.0769 61.7396ZM47.3018 61.7396C48.0979 61.7396 48.7454 62.3871 48.7454 63.1832C48.7454 63.2457 48.741 63.3081 48.7329 63.3693C47.9418 63.5754 47.2169 63.9469 46.595 64.4426C46.1529 64.1947 45.8582 63.7215 45.8582 63.1832C45.8582 62.3871 46.5057 61.7396 47.3018 61.7396ZM37.1964 68.9583H44.4145V69.9648L43.4435 71.421C42.4164 72.9614 41.7864 74.709 41.5922 76.5335C38.9341 74.98 37.2383 72.1415 37.1964 68.9583ZM51.8256 85.0629L50.1898 86.0445L48.5539 85.0629C47.799 84.6102 47.1315 84.0439 46.5614 83.397H53.8188C53.2487 84.0432 52.5806 84.6096 51.8256 85.0629ZM58.7871 76.5343C58.5923 74.7104 57.9629 72.9626 56.9358 71.4217L55.9649 69.9656V68.9591H63.1829C63.1411 72.1423 61.4446 74.9807 58.7871 76.5343Z" fill="url(#paint3_linear_0_1344)" fill-opacity="0.876812"/>
<path d="M93.5023 32.864C93.5023 33.6614 92.8554 34.3076 92.058 34.3076C91.2607 34.3076 90.6144 33.6614 90.6144 32.864C90.6144 32.0667 91.2607 31.4204 92.058 31.4204C92.8554 31.4204 93.5023 32.0667 93.5023 32.864Z" fill="url(#paint4_linear_0_1344)" fill-opacity="0.876812"/>
<path d="M89.6275 88.0358C89.9772 86.9875 90.9538 86.2838 92.0583 86.2838C93.1629 86.2838 94.14 86.9881 94.4891 88.0358L95.0199 89.6281L97.7592 88.7146L97.2284 87.1223C96.486 84.8933 94.4079 83.396 92.0583 83.396C89.7087 83.396 87.6307 84.8933 86.8882 87.1223L86.3575 88.7146L89.0968 89.6281L89.6275 88.0358Z" fill="url(#paint5_linear_0_1344)" fill-opacity="0.876812"/>
<path d="M107.94 103.608C107.144 103.608 106.496 102.961 106.496 102.164C106.496 100.159 105.125 98.468 103.272 97.9773C103.492 97.0963 103.608 96.1816 103.608 95.2494V94.9459C103.608 89.9526 102.58 85.1071 100.552 80.544L97.8549 74.476L100.511 37.2892C100.65 35.3442 100.721 33.3693 100.721 31.4191C100.721 26.6424 96.8347 22.7562 92.058 22.7562C87.2813 22.7562 83.3951 26.6424 83.3951 31.4191C83.3951 33.3691 83.4656 35.3442 83.6049 37.2898L86.2611 74.4767L83.5643 80.544C81.5361 85.1065 80.5079 89.9518 80.5079 94.9453V95.2025C80.5079 96.101 80.6146 96.9827 80.8188 97.8338H73.4452C76.1869 91.7003 77.6206 85.0254 77.6206 78.2829C77.6206 68.0969 74.4542 58.3595 68.4631 50.121L66.0704 46.8304V42.9691C67.6626 42.9691 68.9581 41.6735 68.9581 40.0813L68.9575 25.6439C68.9575 24.0517 67.6619 22.7561 66.0697 22.7561H34.3065C32.7143 22.7561 31.4187 24.0517 31.4187 25.6439V40.0819C31.4187 41.6742 32.7143 42.9697 34.3065 42.9697V46.8316L31.9137 50.1216C25.9227 58.3581 22.7563 68.0964 22.7563 78.2819C22.7563 86.6002 24.9379 94.8149 29.0646 102.037L33.6652 110.088C34.4345 111.434 35.8756 112.27 37.4259 112.27H62.9503C64.5007 112.27 65.9418 111.434 66.711 110.088L69.7855 104.707C70.5735 105.789 71.8498 106.495 73.2884 106.495H76.1762C76.9723 106.495 77.6198 107.143 77.6198 107.939C77.6198 110.327 79.5629 112.27 81.9514 112.27H107.939C110.328 112.27 112.271 110.327 112.271 107.939C112.27 105.55 110.327 103.607 107.939 103.607L107.94 103.608ZM83.3951 94.9452C83.3951 90.3584 84.3398 85.9076 86.2023 81.7159L89.192 74.9892L86.4845 37.0847C86.3502 35.2071 86.2822 33.3014 86.2822 31.42C86.2822 28.2355 88.8728 25.6449 92.0573 25.6449C95.2418 25.6449 97.8324 28.2355 97.8324 31.42C97.8324 33.3019 97.7643 35.2076 97.6301 37.0847L94.9226 74.9908L97.9122 81.7175C99.7754 85.9092 100.72 90.3598 100.72 94.9468V95.2502C100.72 98.0289 99.342 100.598 97.0773 102.147C95.5931 101.228 93.8617 100.722 92.0572 100.722C90.2645 100.722 88.5438 101.222 87.0656 102.13C84.7835 100.575 83.3948 97.9964 83.3948 95.2033L83.3951 94.9452ZM66.0693 40.0824H34.3061V37.1953H66.0709L66.0715 40.0831C66.0715 40.0825 66.0709 40.0825 66.0696 40.0825L66.0693 40.0824ZM46.2706 34.3073C46.8007 32.5971 48.3774 31.4195 50.1862 31.4195C51.9951 31.4195 53.5724 32.5965 54.1018 34.3073H46.2706ZM66.0693 25.6451L66.0705 34.308H57.0903L56.9704 33.8284C56.1905 30.7095 53.4014 28.5322 50.1875 28.5322C46.9736 28.5322 44.1844 30.7095 43.4052 33.8278L43.2853 34.3073H34.3057V25.6451H66.0693ZM64.2029 108.657C63.9463 109.106 63.4661 109.384 62.9491 109.384H37.4247C36.9077 109.384 36.4275 109.105 36.1709 108.657L31.5703 100.606C27.6921 93.8192 25.6429 86.1004 25.6429 78.2848C25.6429 68.7133 28.6188 59.5635 34.2484 51.8221L37.1931 47.7722V42.9718H63.1811V47.7729L66.1258 51.8221C71.7554 59.5622 74.7307 68.7132 74.7307 78.2848C74.7307 86.1016 72.6808 93.82 68.8026 100.607L64.2029 108.657ZM107.939 109.384H81.9507C81.1546 109.384 80.5071 108.737 80.5071 107.941C80.5071 105.552 78.564 103.609 76.1756 103.609H73.2878C72.4917 103.609 71.8442 102.962 71.8442 102.166C71.8442 101.369 72.4917 100.722 73.2878 100.722H81.9507C82.6694 102.001 83.6366 103.138 84.8099 104.061C84.5645 104.348 84.3341 104.65 84.1218 104.969L83.6366 105.696L86.0393 107.298L86.5245 106.57C87.7602 104.716 89.8288 103.609 92.0566 103.609C94.285 103.609 96.3531 104.716 97.5894 106.57L98.0746 107.298L100.477 105.696L99.9921 104.969C99.7854 104.658 99.5612 104.365 99.3233 104.084C100.5 103.157 101.469 102.011 102.186 100.723C102.972 100.736 103.607 101.378 103.607 102.166C103.607 104.555 105.55 106.498 107.938 106.498C108.734 106.498 109.382 107.145 109.382 107.941C109.382 108.737 108.734 109.384 107.938 109.384L107.939 109.384Z" fill="url(#paint6_linear_0_1344)" fill-opacity="0.876812"/>
<defs>
<linearGradient id="paint0_linear_0_1344" x1="50.1889" y1="48.7461" x2="50.1889" y2="106.496" gradientUnits="userSpaceOnUse">
<stop stop-color="#FFBA41"/>
<stop offset="1" stop-color="#FFFBBD"/>
</linearGradient>
<linearGradient id="paint1_linear_0_1344" x1="53.0758" y1="97.8345" x2="53.0758" y2="100.722" gradientUnits="userSpaceOnUse">
<stop stop-color="#FFBA41"/>
<stop offset="1" stop-color="#FFFBBD"/>
</linearGradient>
<linearGradient id="paint2_linear_0_1344" x1="58.8511" y1="97.8345" x2="58.8511" y2="100.722" gradientUnits="userSpaceOnUse">
<stop stop-color="#FFBA41"/>
<stop offset="1" stop-color="#FFFBBD"/>
</linearGradient>
<linearGradient id="paint3_linear_0_1344" x1="50.1898" y1="58.8518" x2="50.1898" y2="94.9465" gradientUnits="userSpaceOnUse">
<stop stop-color="#FFBA41"/>
<stop offset="1" stop-color="#FFFBBD"/>
</linearGradient>
<linearGradient id="paint4_linear_0_1344" x1="92.0583" y1="31.4204" x2="92.0583" y2="34.3076" gradientUnits="userSpaceOnUse">
<stop stop-color="#FFBA41"/>
<stop offset="1" stop-color="#FFFBBD"/>
</linearGradient>
<linearGradient id="paint5_linear_0_1344" x1="92.0583" y1="83.396" x2="92.0583" y2="89.6281" gradientUnits="userSpaceOnUse">
<stop stop-color="#FFBA41"/>
<stop offset="1" stop-color="#FFFBBD"/>
</linearGradient>
<linearGradient id="paint6_linear_0_1344" x1="67.5136" y1="22.7561" x2="67.5136" y2="112.27" gradientUnits="userSpaceOnUse">
<stop stop-color="#FFBA41"/>
<stop offset="1" stop-color="#FFFBBD"/>
</linearGradient>
</defs>
</svg>
