<svg width="135" height="135" viewBox="0 0 135 135" fill="none" xmlns="http://www.w3.org/2000/svg">
<path d="M66.0851 53.4971H74.4771C79.1051 53.4971 82.8691 49.7332 82.8691 45.1051C82.8691 42.9846 82.0717 41.0503 80.7711 39.5723C81.732 38.9179 82.9715 38.3135 84.4707 38.0969C85.2512 37.982 86.0567 37.9838 86.8721 38.0981L87.2592 35.3289C86.1778 35.1766 85.1013 35.1778 84.0692 35.3289C82.5294 35.5512 81.2076 36.0769 80.1192 36.6857C80.3683 35.9908 80.7111 35.3526 81.1657 34.7908C82.3352 33.329 83.865 32.7028 84.6735 32.4592L83.8649 29.7805C82.4969 30.1932 80.5419 31.0936 78.9853 33.0393C78.0356 34.2169 77.4218 35.5962 77.1127 37.1429C76.4346 36.9175 75.7165 36.782 74.9741 36.7389L75.626 34.792C75.7902 34.2868 75.8757 33.7605 75.8757 33.2304C75.8757 30.5241 73.6673 28.3213 70.9523 28.3213C69.5761 28.3213 68.3341 28.8945 67.4419 29.8111C66.5496 28.8945 65.3076 28.3213 63.9308 28.3213C61.2171 28.3213 59.0074 30.5241 59.0074 33.2304C59.0074 33.7605 59.0929 34.2862 59.2621 34.7926L60.5909 38.7776C59.1547 40.0264 58.15 41.7511 57.8204 43.7079H54.8957V46.5052H57.8191C58.4891 50.4664 61.9352 53.4973 66.085 53.4973L66.0851 53.4971ZM74.4771 39.5105C77.5623 39.5105 80.0717 42.0199 80.0717 45.1051C80.0717 48.1903 77.5623 50.6998 74.4771 50.6998H72.2143C71.746 48.4245 71.5793 46.1147 71.7597 43.8169C71.8746 42.3777 72.125 40.9577 72.5065 39.5105H74.4771ZM68.8406 33.2302C68.8406 32.0651 69.7872 31.1185 70.9523 31.1185C72.1243 31.1185 73.0784 32.0651 73.0784 33.2302C73.0784 33.4613 73.0422 33.6892 72.9692 33.9058L72.0294 36.7131H68.8406L68.8406 33.2302ZM66.8306 39.5105H69.6224C69.2996 40.8754 69.0798 42.2266 68.9705 43.5971C68.7832 45.9692 68.9243 48.35 69.3583 50.6998H66.5304C66.0633 48.4394 65.8985 46.1316 66.0815 43.8182C66.1957 42.3789 66.4473 40.9596 66.8306 39.5105ZM63.9309 31.1185C65.0947 31.1185 66.0426 32.0651 66.0426 33.2302V36.7157C64.9855 36.7213 63.9751 36.928 63.0435 37.292L61.9165 33.9071C61.8422 33.6873 61.806 33.4594 61.806 33.2302C61.8053 32.0651 62.7588 31.1185 63.9309 31.1185ZM63.8428 39.9874C63.5787 41.1975 63.3882 42.4045 63.2915 43.5971C63.121 45.7675 63.2147 47.9342 63.5556 50.0684C61.7448 49.1399 60.4904 47.2754 60.4904 45.1049C60.4904 42.8183 61.8721 40.8529 63.8428 39.9874Z" fill="url(#paint0_linear_0_1307)" fill-opacity="0.876812"/>
<path d="M74.4771 42.3079H77.2744V45.1052H74.4771V42.3079Z" fill="url(#paint1_linear_0_1307)" fill-opacity="0.876812"/>
<path d="M109.444 84.1974C109.444 82.8031 108.752 81.5049 107.595 80.7244C106.438 79.9439 104.975 79.7915 103.694 80.3117L100.76 81.4837L104.139 79.2333C105.268 78.4778 105.963 77.2178 106 75.8609C106.038 74.5016 105.414 73.2009 104.323 72.378L99.5047 68.7752C98.4138 67.9497 96.9828 67.7093 95.6877 68.1333C94.3827 68.5585 93.3673 69.5975 92.9715 70.915L91.2613 76.6014V71.3576C91.2613 69.9982 90.6276 68.7633 89.523 67.9658C88.4309 67.1784 87.0211 66.963 85.7441 67.387L80.8193 69.0235C79.485 69.468 78.4697 70.5464 78.1032 71.9076C77.7354 73.2669 78.0695 74.7075 78.9955 75.7607L83.2095 80.5735C83.1927 80.5948 83.1771 80.6154 83.1621 80.6379L78.785 77.3573C77.6411 76.4988 76.1512 76.2833 74.8045 76.7854C73.462 77.2849 72.4785 78.4176 72.1751 79.8094L71.1542 84.38C70.8552 85.7088 71.2017 87.0555 72.1096 88.0765C72.9082 88.9775 74.0565 89.4864 75.241 89.4864C75.3834 89.4864 75.5232 89.4795 75.6662 89.4639L79.3446 89.0961L76.5836 90.0177C75.2536 90.4598 74.2364 91.5313 73.8662 92.8793C73.4928 94.2293 73.8187 95.6698 74.7322 96.7281L77.7955 100.312C78.5985 101.248 79.7674 101.779 80.9843 101.779C81.1242 101.779 81.2628 101.772 81.4027 101.758C82.7676 101.62 83.9834 100.822 84.6533 99.6191L86.4479 96.3884L85.5332 99.4442C85.1292 100.783 85.4183 102.228 86.3093 103.31C87.1123 104.287 88.2999 104.842 89.5443 104.842C89.6829 104.842 89.8197 104.835 89.9595 104.82L95.9083 104.232C97.2719 104.093 98.4452 103.335 99.1295 102.153C99.812 100.97 99.8831 99.5735 99.3199 98.3179L96.9465 93.0923C101.039 97.8759 103.907 103.567 105.282 109.745L108.014 109.137C106.673 103.113 104.007 97.5213 100.239 92.6983L103.814 93.9965C104.282 94.1701 104.77 94.2537 105.255 94.2537C106.099 94.2537 106.934 93.999 107.644 93.5038C108.771 92.7215 109.444 91.4333 109.444 90.0583L109.444 84.1974ZM81.0932 73.9173C80.781 73.5633 80.6748 73.0975 80.7997 72.6373C80.9239 72.1771 81.2517 71.8262 81.7007 71.6763L86.6254 70.0398C87.0531 69.8956 87.5133 69.9655 87.8842 70.234C88.2532 70.4987 88.463 70.909 88.463 71.3579V77.4003C87.2923 77.5976 86.2026 78.0322 85.2487 78.6634L81.0932 73.9173ZM75.3812 86.6814C74.9391 86.7264 74.5001 86.5597 74.1979 86.2187C73.897 85.8803 73.7808 85.4339 73.8807 84.9924L74.9029 80.4118C75.0053 79.9416 75.325 79.5751 75.777 79.4078C76.236 79.2398 76.7168 79.3085 77.1045 79.5964L81.8518 83.1562C81.6052 83.9485 81.4697 84.792 81.4697 85.6662C81.4697 85.8017 81.4834 85.9347 81.4909 86.069L75.3812 86.6814ZM82.2065 98.2585C81.9786 98.6669 81.5827 98.9285 81.12 98.9747C80.6755 99.0153 80.219 98.8461 79.9174 98.492L76.8528 94.9073C76.5406 94.5464 76.4345 94.0781 76.5606 93.6235C76.6868 93.169 77.0152 92.8218 77.4654 92.6726L83.2042 90.7551C83.7862 91.5162 84.4924 92.1749 85.2966 92.6994L82.2065 98.2585ZM84.2671 85.6662C84.2671 82.581 86.7765 80.0716 89.8617 80.0716C92.9469 80.0716 95.4564 82.581 95.4564 85.6662C95.4564 88.7514 92.9469 91.2609 89.8617 91.2609C86.7765 91.2609 84.2671 88.7514 84.2671 85.6662ZM96.704 100.755C96.4761 101.151 96.0815 101.404 95.6256 101.45L89.6812 102.038C89.2167 102.082 88.7696 101.9 88.4674 101.534C88.1664 101.169 88.0728 100.702 88.2089 100.251L90.0646 94.0489C91.4308 94.0164 92.7195 93.663 93.851 93.0486L96.7689 99.4713C96.9556 99.8909 96.9331 100.358 96.704 100.755ZM96.7027 80.8221C95.9266 79.7281 94.8969 78.8302 93.6981 78.2108L95.6493 71.7183C95.7836 71.2737 96.112 70.9353 96.5528 70.791C96.9837 70.6499 97.4464 70.7255 97.8216 71.009L102.641 74.613C103.012 74.8915 103.215 75.318 103.202 75.7807C103.188 76.2409 102.962 76.6523 102.583 76.9052L96.7027 80.8221ZM106.646 90.0575C106.646 90.5234 106.426 90.9442 106.044 91.2114C105.667 91.4743 105.205 91.533 104.774 91.3725L97.6468 88.7825C98.0339 87.8166 98.2537 86.7677 98.2537 85.6655C98.2537 85.6093 98.2468 85.555 98.2456 85.5007L104.737 82.9064C105.172 82.7303 105.642 82.7821 106.031 83.0437C106.422 83.306 106.646 83.7268 106.646 84.197L106.646 90.0575Z" fill="url(#paint2_linear_0_1307)" fill-opacity="0.876812"/>
<path d="M27.3241 93.5069C28.036 94.002 28.8708 94.258 29.7143 94.258C30.1982 94.258 30.6834 94.1744 31.148 94.002L34.7327 92.6983C30.9632 97.5225 28.2976 103.114 26.9545 109.14L29.6863 109.748C31.0569 103.59 33.9128 97.9171 38.0164 93.1098L35.6469 98.3255C35.0862 99.5762 35.1561 100.97 35.8398 102.154C36.5223 103.336 37.6974 104.094 39.0649 104.234L45.0093 104.821C45.1491 104.835 45.2865 104.842 45.4245 104.842C46.6708 104.842 47.8566 104.287 48.6595 103.311C49.5505 102.228 49.8402 100.783 49.4369 99.4476L48.5221 96.3898L50.3167 99.6205C50.9867 100.821 52.2024 101.619 53.5661 101.756C53.706 101.77 53.8446 101.777 53.9845 101.777C55.2014 101.777 56.3703 101.246 57.1745 100.309L60.2348 96.732C61.1508 95.6692 61.4767 94.2268 61.1033 92.8788C60.7312 91.5308 59.7159 90.4605 58.3872 90.0184L55.6236 89.0955L59.2995 89.4633C59.4418 89.4789 59.5836 89.4858 59.7259 89.4858C60.9148 89.4858 62.0618 88.9769 62.8604 88.0759C63.767 87.0562 64.1136 85.7082 63.8157 84.382L62.7961 79.8151C62.4895 78.4177 61.5067 77.2851 60.1636 76.7843C58.8192 76.2823 57.3312 76.4964 56.183 77.3575L51.8098 80.6375C51.7942 80.6163 51.7773 80.5944 51.7623 80.5732L55.9751 75.7615C56.9023 74.7069 57.2351 73.2664 56.8686 71.9071C56.5008 70.5459 55.4868 69.4675 54.1512 69.023L49.2278 67.3865C47.9533 66.9625 46.5409 67.1779 45.4471 67.9653C44.3406 68.7645 43.7068 69.9997 43.7068 71.3588V76.6026L41.9979 70.9156C41.602 69.5993 40.5855 68.5604 39.2818 68.135C37.9824 67.7111 36.5544 67.9521 35.4704 68.7726L30.6393 72.3842C29.5541 73.204 28.9284 74.5047 28.9678 75.864C29.0052 77.2209 29.7008 78.4809 30.8322 79.2389L34.2084 81.4866L31.2812 80.3171C29.9918 79.7939 28.5288 79.9462 27.3749 80.7267C26.2154 81.506 25.5242 82.8041 25.5242 84.1985V90.0591C25.5242 91.434 26.1967 92.7222 27.3244 93.5076L27.3241 93.5069ZM46.4994 101.534C46.1972 101.902 45.7526 102.082 45.2856 102.038L39.3456 101.45C38.8867 101.402 38.4927 101.149 38.2642 100.753C38.035 100.357 38.0113 99.8889 38.1967 99.4749L41.1171 93.0467C42.2486 93.6605 43.5368 94.0145 44.9036 94.047L46.7612 100.252C46.8942 100.702 46.8005 101.169 46.4996 101.534L46.4994 101.534ZM57.8597 79.5952C58.2487 79.3043 58.727 79.2374 59.1872 79.4048C59.6393 79.574 59.959 79.9393 60.0626 80.4163L61.0835 84.9926C61.1828 85.4315 61.0667 85.878 60.7663 86.2164C60.4641 86.5561 60.0389 86.7284 59.5787 86.6778L53.4751 86.0665C53.4832 85.9342 53.497 85.8012 53.497 85.6657C53.497 84.7915 53.3615 83.948 53.1123 83.155L57.8597 79.5952ZM51.7624 90.754L57.5025 92.6715C57.9514 92.8214 58.2817 93.1679 58.406 93.6225C58.5321 94.0783 58.4253 94.5472 58.1106 94.9106L55.0504 98.4898C54.7457 98.8451 54.2892 99.0199 53.8459 98.9749C53.3832 98.9287 52.9873 98.6671 52.7607 98.2619L49.6711 92.6977C50.476 92.1739 51.1811 91.5132 51.7624 90.754ZM46.5037 71.3581C46.5037 70.9092 46.7135 70.4996 47.0813 70.2348C47.4503 69.9676 47.9124 69.8977 48.3413 70.0407L53.2648 71.6772C53.7137 71.827 54.0422 72.1767 54.1671 72.6381C54.2913 73.0971 54.1852 73.5641 53.8717 73.9194L49.7176 78.6637C48.7635 78.0343 47.6739 77.5991 46.5032 77.4005L46.5037 71.3581ZM45.1051 80.0717C48.1903 80.0717 50.6997 82.5812 50.6997 85.6664C50.6997 88.7516 48.1903 91.261 45.1051 91.261C42.0198 91.261 39.5104 88.7516 39.5104 85.6664C39.5104 82.5812 42.0198 80.0717 45.1051 80.0717ZM32.3854 76.9091C32.0033 76.6519 31.7753 76.2404 31.7629 75.7821C31.7504 75.3194 31.9545 74.8923 32.318 74.617L37.1501 71.0041C37.5167 70.7256 37.9793 70.6501 38.4114 70.7918C38.8523 70.936 39.1819 71.2745 39.3149 71.719L41.2662 78.2116C40.0673 78.831 39.0382 79.7307 38.2615 80.8228L32.3854 76.9091ZM28.3211 84.1979C28.3211 83.7277 28.5446 83.3068 28.9368 83.044C29.3239 82.7823 29.7972 82.7318 30.2362 82.9097L36.7218 85.5016C36.7199 85.556 36.7131 85.6103 36.7131 85.6665C36.7131 86.7698 36.9328 87.8207 37.3212 88.7867L30.1855 91.3754C29.7559 91.5346 29.2976 91.4722 28.9223 91.2118C28.5408 90.9452 28.321 90.5256 28.321 90.0586L28.3211 84.1979Z" fill="url(#paint3_linear_0_1307)" fill-opacity="0.876812"/>
<path d="M25.5239 25.5239H28.3213V28.3213H25.5239V25.5239Z" fill="url(#paint4_linear_0_1307)" fill-opacity="0.876812"/>
<path d="M31.1186 32.5171H33.9159V35.3144H31.1186V32.5171Z" fill="url(#paint5_linear_0_1307)" fill-opacity="0.876812"/>
<path d="M28.3212 54.8958H31.1185V57.6931H28.3212V54.8958Z" fill="url(#paint6_linear_0_1307)" fill-opacity="0.876812"/>
<path d="M32.5172 45.1052H35.3145V47.9025H32.5172V45.1052Z" fill="url(#paint7_linear_0_1307)" fill-opacity="0.876812"/>
<path d="M43.7065 31.1187H46.5039V33.916H43.7065V31.1187Z" fill="url(#paint8_linear_0_1307)" fill-opacity="0.876812"/>
<path d="M49.3012 38.1118H52.0985V40.9091H49.3012V38.1118Z" fill="url(#paint9_linear_0_1307)" fill-opacity="0.876812"/>
<path d="M98.2544 32.5171H101.052V35.3144H98.2544V32.5171Z" fill="url(#paint10_linear_0_1307)" fill-opacity="0.876812"/>
<path d="M89.8624 25.5239H92.6597V28.3213H89.8624V25.5239Z" fill="url(#paint11_linear_0_1307)" fill-opacity="0.876812"/>
<path d="M103.849 45.1052H106.646V47.9025H103.849V45.1052Z" fill="url(#paint12_linear_0_1307)" fill-opacity="0.876812"/>
<path d="M106.646 64.6865H109.444V67.4838H106.646V64.6865Z" fill="url(#paint13_linear_0_1307)" fill-opacity="0.876812"/>
<path d="M42.3079 64.6864C42.6656 64.6864 43.024 64.549 43.2969 64.2767L47.4929 60.0808L45.5154 58.1033L43.7066 59.9115V56.2943C43.7066 52.438 46.8436 49.301 50.6999 49.301V46.5037C45.3025 46.5037 40.9093 50.8958 40.9093 56.2943V59.9115L39.1011 58.1033L37.1236 60.0808L41.3196 64.2767C41.5918 64.549 41.9502 64.6864 42.308 64.6864H42.3079Z" fill="url(#paint14_linear_0_1307)" fill-opacity="0.876812"/>
<path d="M87.0651 49.3012C90.9214 49.3012 94.0584 52.4382 94.0584 56.2945V59.9117L92.2502 58.1035L90.2727 60.081L94.4687 64.277C94.7409 64.5492 95.0994 64.6866 95.4571 64.6866C95.8149 64.6866 96.1733 64.5492 96.4462 64.277L100.642 60.081L98.6647 58.1035L96.8559 59.9117V56.2945C96.8559 50.896 92.4626 46.5039 87.0652 46.5039L87.0651 49.3012Z" fill="url(#paint15_linear_0_1307)" fill-opacity="0.876812"/>
<defs>
<linearGradient id="paint0_linear_0_1307" x1="71.0775" y1="28.3213" x2="71.0775" y2="53.4973" gradientUnits="userSpaceOnUse">
<stop stop-color="#FFBA41"/>
<stop offset="1" stop-color="#FFFBBD"/>
</linearGradient>
<linearGradient id="paint1_linear_0_1307" x1="75.8757" y1="42.3079" x2="75.8757" y2="45.1052" gradientUnits="userSpaceOnUse">
<stop stop-color="#FFBA41"/>
<stop offset="1" stop-color="#FFFBBD"/>
</linearGradient>
<linearGradient id="paint2_linear_0_1307" x1="90.2465" y1="67.1736" x2="90.2465" y2="109.745" gradientUnits="userSpaceOnUse">
<stop stop-color="#FFBA41"/>
<stop offset="1" stop-color="#FFFBBD"/>
</linearGradient>
<linearGradient id="paint3_linear_0_1307" x1="44.7221" y1="67.1731" x2="44.7221" y2="109.748" gradientUnits="userSpaceOnUse">
<stop stop-color="#FFBA41"/>
<stop offset="1" stop-color="#FFFBBD"/>
</linearGradient>
<linearGradient id="paint4_linear_0_1307" x1="26.9226" y1="25.5239" x2="26.9226" y2="28.3213" gradientUnits="userSpaceOnUse">
<stop stop-color="#FFBA41"/>
<stop offset="1" stop-color="#FFFBBD"/>
</linearGradient>
<linearGradient id="paint5_linear_0_1307" x1="32.5172" y1="32.5171" x2="32.5172" y2="35.3144" gradientUnits="userSpaceOnUse">
<stop stop-color="#FFBA41"/>
<stop offset="1" stop-color="#FFFBBD"/>
</linearGradient>
<linearGradient id="paint6_linear_0_1307" x1="29.7199" y1="54.8958" x2="29.7199" y2="57.6931" gradientUnits="userSpaceOnUse">
<stop stop-color="#FFBA41"/>
<stop offset="1" stop-color="#FFFBBD"/>
</linearGradient>
<linearGradient id="paint7_linear_0_1307" x1="33.9159" y1="45.1052" x2="33.9159" y2="47.9025" gradientUnits="userSpaceOnUse">
<stop stop-color="#FFBA41"/>
<stop offset="1" stop-color="#FFFBBD"/>
</linearGradient>
<linearGradient id="paint8_linear_0_1307" x1="45.1052" y1="31.1187" x2="45.1052" y2="33.916" gradientUnits="userSpaceOnUse">
<stop stop-color="#FFBA41"/>
<stop offset="1" stop-color="#FFFBBD"/>
</linearGradient>
<linearGradient id="paint9_linear_0_1307" x1="50.6998" y1="38.1118" x2="50.6998" y2="40.9091" gradientUnits="userSpaceOnUse">
<stop stop-color="#FFBA41"/>
<stop offset="1" stop-color="#FFFBBD"/>
</linearGradient>
<linearGradient id="paint10_linear_0_1307" x1="99.653" y1="32.5171" x2="99.653" y2="35.3144" gradientUnits="userSpaceOnUse">
<stop stop-color="#FFBA41"/>
<stop offset="1" stop-color="#FFFBBD"/>
</linearGradient>
<linearGradient id="paint11_linear_0_1307" x1="91.2611" y1="25.5239" x2="91.2611" y2="28.3213" gradientUnits="userSpaceOnUse">
<stop stop-color="#FFBA41"/>
<stop offset="1" stop-color="#FFFBBD"/>
</linearGradient>
<linearGradient id="paint12_linear_0_1307" x1="105.248" y1="45.1052" x2="105.248" y2="47.9025" gradientUnits="userSpaceOnUse">
<stop stop-color="#FFBA41"/>
<stop offset="1" stop-color="#FFFBBD"/>
</linearGradient>
<linearGradient id="paint13_linear_0_1307" x1="108.045" y1="64.6865" x2="108.045" y2="67.4838" gradientUnits="userSpaceOnUse">
<stop stop-color="#FFBA41"/>
<stop offset="1" stop-color="#FFFBBD"/>
</linearGradient>
<linearGradient id="paint14_linear_0_1307" x1="43.9118" y1="46.5037" x2="43.9118" y2="64.6864" gradientUnits="userSpaceOnUse">
<stop stop-color="#FFBA41"/>
<stop offset="1" stop-color="#FFFBBD"/>
</linearGradient>
<linearGradient id="paint15_linear_0_1307" x1="93.8536" y1="46.5039" x2="93.8536" y2="64.6866" gradientUnits="userSpaceOnUse">
<stop stop-color="#FFBA41"/>
<stop offset="1" stop-color="#FFFBBD"/>
</linearGradient>
</defs>
</svg>
