<svg width="135" height="135" viewBox="0 0 135 135" fill="none" xmlns="http://www.w3.org/2000/svg">
<path d="M106.076 46.376L95.7093 30.6261C93.1692 26.7917 86.9515 27.7594 86.2135 32.9489C86.0923 32.8277 85.1851 30.977 82.7662 30.4811C79.5125 29.7918 76.2099 32.3562 76.5609 36.1183C71.6738 33.3846 66.7991 39.118 69.6781 43.5093L69.8229 43.7273C65.0325 42.2512 61.3916 47.6104 63.9561 51.5297L64.9239 52.9814L61.7182 55.0981C60.6535 55.8 60.3632 57.2273 61.0525 58.2794L61.1612 58.4368C30.3762 79.3144 29.1662 78.0932 28.4037 81.8192C27.4721 86.4036 32.5404 89.7304 36.3512 87.2141L66.8708 67.1213C69.0605 69.4558 69.7499 68.0529 73.3665 65.815C73.9834 66.5406 74.7695 68.9239 77.6243 69.5046C78.6646 69.7225 79.7049 69.6133 80.6726 69.2024C80.9873 75.1298 79.8016 77.6455 82.1724 80.0164C85.3419 83.2221 90.8579 80.9355 90.8579 76.4235C91.0758 70.8589 90.3015 69.3346 91.7164 67.9198C93.5428 66.0934 96.7484 67.3634 96.7484 70.0128C96.8208 70.5573 96.3251 72.892 98.2364 74.7788C101.382 77.9601 106.922 75.7585 106.922 71.1859C106.668 48.9528 107.539 48.5772 106.076 46.3761L106.076 46.376ZM35.6859 86.1972C32.7949 88.1447 28.8512 85.5802 29.5892 82.0723C30.1943 79.1813 30.2423 80.7298 61.8272 59.4395L66.2062 66.105L35.6859 86.1972ZM77.8664 68.3183C75.0235 67.7257 75.5074 66.2016 64.9712 50.8629C63.0962 48.0325 65.4551 44.0526 69.1085 44.7662C71.9514 45.3588 71.5281 46.9798 82.0037 62.2215C83.9025 65.1486 81.4105 69.0193 77.8664 68.3183ZM92.2127 63.1406C91.7893 65.3061 89.6601 66.6848 87.5071 66.237C84.6524 65.6445 85.3779 64.4469 72.6407 45.8054C71.3219 43.4345 69.6285 42.3094 70.1125 39.8298C70.8381 36.3338 75.4107 35.4753 77.3706 38.4505C91.4752 60.5877 92.8057 60.273 92.2127 63.1406ZM99.906 58.0724C99.1923 61.5441 94.6198 62.4394 92.6479 59.4635L78.3741 37.7739C76.4265 34.8105 79.0878 30.891 82.5114 31.6653C84.9671 32.1736 85.3543 34.2054 87.0114 36.3464V36.3583C99.0593 55.3625 100.487 55.2538 99.906 58.0719V58.0724ZM98.3818 51.4312L88.0154 35.6813C86.7453 33.7582 87.459 31.278 89.1524 30.1653C91.0031 28.9433 93.4833 29.4516 94.6927 31.2905C105.193 47.6332 105.713 47.1372 105.713 49.2173C105.531 53.5233 100.39 54.491 98.3817 51.4309L98.3818 51.4312Z" fill="url(#paint0_linear_0_1366)" fill-opacity="0.876812"/>
<path d="M94.7909 90.6377C90.1822 82.872 90.4725 82.6541 89.8314 82.6541H81.3152C76.9119 75.2513 77.1779 74.9727 76.5247 74.9727C67.5851 75.0813 67.4646 74.7067 67.138 75.2749L62.8802 82.6541C54.2435 82.7627 54.1829 82.3999 53.8682 82.9563C49.4405 90.8431 49.1021 90.6738 49.4287 91.2421L53.8682 98.9354C53.9768 99.1171 54.1704 99.2376 54.3883 99.2376H62.8802C67.2229 106.556 67.005 106.919 67.6581 106.919C76.6214 106.798 76.7063 107.185 77.0449 106.617L81.3152 99.2377C90.0125 99.1165 90.0125 99.4918 90.3515 98.9355C94.7179 91.1455 95.1175 91.194 94.7909 90.6377ZM68.0086 76.1821H76.1739L80.2624 83.2585L76.1857 90.3349H68.0328L63.9443 83.2342L68.0086 76.1821ZM89.4792 98.0284H81.3139L77.2253 90.9395L81.3139 83.863H89.4792L93.5678 90.9395L89.4792 98.0284Z" fill="url(#paint1_linear_0_1366)" fill-opacity="0.876812"/>
<defs>
<linearGradient id="paint0_linear_0_1366" x1="67.6221" y1="28.2915" x2="67.6221" y2="88.0796" gradientUnits="userSpaceOnUse">
<stop stop-color="#FFBA41"/>
<stop offset="1" stop-color="#FFFBBD"/>
</linearGradient>
<linearGradient id="paint1_linear_0_1366" x1="72.1077" y1="74.9504" x2="72.1077" y2="106.937" gradientUnits="userSpaceOnUse">
<stop stop-color="#FFBA41"/>
<stop offset="1" stop-color="#FFFBBD"/>
</linearGradient>
</defs>
</svg>
