<svg width="275" height="112" viewBox="0 0 275 112" fill="none" xmlns="http://www.w3.org/2000/svg">
<path d="M10.188 16.432C10.032 15.436 9.696 14.686 9.18 14.182C8.676 13.678 8.004 13.42 7.164 13.408C6.54 13.408 5.994 13.552 5.526 13.84C5.058 14.128 4.668 14.512 4.356 14.992C4.056 15.472 3.828 16.018 3.672 16.63C3.528 17.242 3.456 17.872 3.456 18.52C3.456 19.552 3.6 20.47 3.888 21.274C4.188 22.066 4.62 22.69 5.184 23.146C5.748 23.602 6.432 23.83 7.236 23.83C7.992 23.83 8.742 23.638 9.486 23.254C10.23 22.858 10.854 22.312 11.358 21.616L12.222 22.408C11.634 23.212 11.016 23.824 10.368 24.244C9.72 24.652 9.084 24.928 8.46 25.072C7.848 25.216 7.296 25.288 6.804 25.288C5.88 25.288 5.04 25.126 4.284 24.802C3.528 24.466 2.874 24.01 2.322 23.434C1.782 22.846 1.362 22.168 1.062 21.4C0.774 20.62 0.63 19.78 0.63 18.88C0.63 18.064 0.762 17.254 1.026 16.45C1.29 15.646 1.68 14.92 2.196 14.272C2.724 13.612 3.384 13.09 4.176 12.706C4.968 12.31 5.886 12.112 6.93 12.112C7.398 12.112 7.908 12.19 8.46 12.346C9.024 12.49 9.552 12.706 10.044 12.994L9.972 12.238H11.358V16.432H10.188ZM17.5406 25.288C16.6766 25.288 15.8966 25.102 15.2006 24.73C14.5046 24.358 13.9526 23.83 13.5446 23.146C13.1486 22.45 12.9506 21.634 12.9506 20.698C12.9506 19.702 13.1546 18.832 13.5626 18.088C13.9826 17.332 14.5346 16.75 15.2186 16.342C15.9146 15.922 16.6706 15.712 17.4866 15.712C18.3506 15.712 19.1246 15.898 19.8086 16.27C20.4926 16.642 21.0326 17.176 21.4286 17.872C21.8246 18.556 22.0226 19.378 22.0226 20.338C22.0226 21.346 21.8306 22.222 21.4466 22.966C21.0626 23.71 20.5346 24.286 19.8626 24.694C19.1906 25.09 18.4166 25.288 17.5406 25.288ZM17.6126 24.01C18.0926 23.998 18.4526 23.83 18.6926 23.506C18.9446 23.182 19.1186 22.774 19.2146 22.282C19.3106 21.79 19.3586 21.292 19.3586 20.788C19.3586 20.344 19.3226 19.894 19.2506 19.438C19.1906 18.982 19.0886 18.568 18.9446 18.196C18.8006 17.824 18.6026 17.524 18.3506 17.296C18.1106 17.068 17.8106 16.96 17.4506 16.972C16.9826 16.984 16.6106 17.152 16.3346 17.476C16.0706 17.8 15.8786 18.208 15.7586 18.7C15.6506 19.18 15.5966 19.684 15.5966 20.212C15.5966 20.824 15.6626 21.424 15.7946 22.012C15.9266 22.6 16.1366 23.086 16.4246 23.47C16.7246 23.842 17.1206 24.022 17.6126 24.01ZM22.9676 23.83C23.3036 23.83 23.5436 23.764 23.6876 23.632C23.8436 23.5 23.9396 23.314 23.9756 23.074C24.0116 22.822 24.0296 22.54 24.0296 22.228V14.83C24.0296 14.614 24.0356 14.368 24.0476 14.092C24.0596 13.804 24.0776 13.528 24.1016 13.264C23.9096 13.276 23.6816 13.288 23.4176 13.3C23.1656 13.3 22.9736 13.306 22.8416 13.318V11.95C23.4056 11.95 23.8736 11.92 24.2456 11.86C24.6296 11.8 24.9296 11.728 25.1456 11.644C25.3736 11.56 25.5296 11.482 25.6136 11.41H26.5856V22.102C26.5856 22.27 26.5796 22.51 26.5676 22.822C26.5556 23.122 26.5376 23.41 26.5136 23.686C26.7176 23.662 26.9336 23.65 27.1616 23.65C27.3896 23.638 27.5636 23.632 27.6836 23.632V25H22.9676V23.83ZM33.273 25.288C32.409 25.288 31.629 25.102 30.933 24.73C30.237 24.358 29.685 23.83 29.277 23.146C28.881 22.45 28.683 21.634 28.683 20.698C28.683 19.702 28.887 18.832 29.295 18.088C29.715 17.332 30.267 16.75 30.951 16.342C31.647 15.922 32.403 15.712 33.219 15.712C34.083 15.712 34.857 15.898 35.541 16.27C36.225 16.642 36.765 17.176 37.161 17.872C37.557 18.556 37.755 19.378 37.755 20.338C37.755 21.346 37.563 22.222 37.179 22.966C36.795 23.71 36.267 24.286 35.595 24.694C34.923 25.09 34.149 25.288 33.273 25.288ZM33.345 24.01C33.825 23.998 34.185 23.83 34.425 23.506C34.677 23.182 34.851 22.774 34.947 22.282C35.043 21.79 35.091 21.292 35.091 20.788C35.091 20.344 35.055 19.894 34.983 19.438C34.923 18.982 34.821 18.568 34.677 18.196C34.533 17.824 34.335 17.524 34.083 17.296C33.843 17.068 33.543 16.96 33.183 16.972C32.715 16.984 32.343 17.152 32.067 17.476C31.803 17.8 31.611 18.208 31.491 18.7C31.383 19.18 31.329 19.684 31.329 20.212C31.329 20.824 31.395 21.424 31.527 22.012C31.659 22.6 31.869 23.086 32.157 23.47C32.457 23.842 32.853 24.022 33.345 24.01ZM39.0583 23.83C39.3943 23.83 39.6343 23.764 39.7783 23.632C39.9223 23.5 40.0123 23.314 40.0483 23.074C40.0963 22.822 40.1203 22.54 40.1203 22.228V19.204C40.1203 18.988 40.1263 18.748 40.1383 18.484C40.1503 18.208 40.1683 17.938 40.1923 17.674C40.0003 17.686 39.7723 17.698 39.5083 17.71C39.2563 17.71 39.0643 17.716 38.9323 17.728V16.36H39.6523C40.1203 16.36 40.5463 16.3 40.9303 16.18C41.3263 16.06 41.5843 15.94 41.7043 15.82H42.5863C42.6103 15.94 42.6283 16.168 42.6403 16.504C42.6523 16.828 42.6583 17.116 42.6583 17.368C42.9823 16.972 43.2883 16.654 43.5763 16.414C43.8643 16.174 44.1463 16 44.4223 15.892C44.7103 15.772 44.9983 15.712 45.2863 15.712C45.7063 15.712 46.0723 15.832 46.3843 16.072C46.6963 16.3 46.8523 16.678 46.8523 17.206C46.8523 17.386 46.8103 17.578 46.7263 17.782C46.6423 17.974 46.5103 18.136 46.3303 18.268C46.1503 18.4 45.9043 18.466 45.5923 18.466C45.3523 18.466 45.1063 18.394 44.8543 18.25C44.6023 18.106 44.4583 17.83 44.4223 17.422C44.1823 17.422 43.9423 17.524 43.7023 17.728C43.4623 17.92 43.2463 18.154 43.0543 18.43C42.8743 18.694 42.7483 18.94 42.6763 19.168V22.102C42.6763 22.27 42.6703 22.51 42.6583 22.822C42.6463 23.122 42.6283 23.41 42.6043 23.686C42.7963 23.662 43.0063 23.65 43.2343 23.65C43.4743 23.638 43.6543 23.632 43.7743 23.632V25H39.0583V23.83ZM53.9293 25.288C53.5453 25.288 53.2273 25.15 52.9753 24.874C52.7353 24.598 52.6153 24.268 52.6153 23.884C52.6153 23.5 52.7473 23.17 53.0113 22.894C53.2753 22.618 53.5813 22.48 53.9293 22.48C54.3013 22.48 54.6073 22.618 54.8473 22.894C55.0993 23.17 55.2253 23.5 55.2253 23.884C55.2253 24.268 55.1053 24.598 54.8653 24.874C54.6373 25.15 54.3253 25.288 53.9293 25.288ZM53.9293 18.034C53.5453 18.034 53.2273 17.896 52.9753 17.62C52.7353 17.344 52.6153 17.014 52.6153 16.63C52.6153 16.246 52.7473 15.916 53.0113 15.64C53.2753 15.364 53.5813 15.226 53.9293 15.226C54.3013 15.226 54.6073 15.364 54.8473 15.64C55.0993 15.916 55.2253 16.246 55.2253 16.63C55.2253 17.014 55.1053 17.344 54.8653 17.62C54.6373 17.896 54.3253 18.034 53.9293 18.034Z" fill="#FFBA41"/>
<path d="M61.946 25V24.19C62.306 24.19 62.582 24.094 62.774 23.902C62.966 23.71 63.128 23.452 63.26 23.128C63.392 22.792 63.536 22.42 63.692 22.012L67.328 12.058H68.048L71.99 22.156C72.086 22.384 72.194 22.696 72.314 23.092C72.434 23.476 72.488 23.806 72.476 24.082C72.68 24.058 72.878 24.046 73.07 24.046C73.274 24.034 73.466 24.022 73.646 24.01V25H69.272V24.208C69.692 24.196 69.968 24.106 70.1 23.938C70.244 23.758 70.298 23.542 70.262 23.29C70.238 23.038 70.178 22.786 70.082 22.534L69.542 21.076L65.132 21.184L64.61 22.75C64.538 22.99 64.46 23.218 64.376 23.434C64.292 23.65 64.208 23.86 64.124 24.064C64.34 24.04 64.568 24.028 64.808 24.028C65.06 24.016 65.282 24.004 65.474 23.992V25H61.946ZM65.456 20.212H69.236L68.102 17.17C67.958 16.774 67.82 16.384 67.688 16C67.556 15.604 67.436 15.226 67.328 14.866H67.31C67.214 15.166 67.106 15.496 66.986 15.856C66.866 16.216 66.728 16.606 66.572 17.026L65.456 20.212ZM74.2525 25V24.244C74.6125 24.244 74.8645 24.16 75.0085 23.992C75.1525 23.824 75.2365 23.59 75.2605 23.29C75.2965 22.99 75.3145 22.642 75.3145 22.246V18.502C75.3145 18.31 75.3145 18.106 75.3145 17.89C75.3265 17.662 75.3505 17.44 75.3865 17.224C75.1825 17.236 74.9665 17.248 74.7385 17.26C74.5105 17.26 74.3005 17.266 74.1085 17.278V16.324C74.6485 16.324 75.0685 16.3 75.3685 16.252C75.6805 16.192 75.9145 16.126 76.0705 16.054C76.2385 15.982 76.3645 15.904 76.4485 15.82H77.0965C77.1205 15.94 77.1325 16.084 77.1325 16.252C77.1445 16.408 77.1565 16.576 77.1685 16.756C77.5405 16.444 77.9605 16.192 78.4285 16C78.9085 15.808 79.3705 15.712 79.8145 15.712C80.4025 15.712 80.8885 15.82 81.2725 16.036C81.6685 16.24 81.9805 16.534 82.2085 16.918C82.6285 16.57 83.1025 16.282 83.6305 16.054C84.1585 15.826 84.6745 15.712 85.1785 15.712C86.1985 15.712 86.9545 16.018 87.4465 16.63C87.9385 17.23 88.1785 18.238 88.1665 19.654L88.1485 22.768C88.1485 22.984 88.1425 23.206 88.1305 23.434C88.1305 23.65 88.1125 23.872 88.0765 24.1C88.2685 24.088 88.4665 24.082 88.6705 24.082C88.8745 24.07 89.0605 24.058 89.2285 24.046V25H85.2685V24.244C85.6045 24.244 85.8385 24.16 85.9705 23.992C86.1145 23.824 86.1985 23.59 86.2225 23.29C86.2585 22.99 86.2765 22.642 86.2765 22.246V19.654C86.2645 18.706 86.1085 18.01 85.8085 17.566C85.5085 17.122 85.0525 16.9 84.4405 16.9C84.0925 16.9 83.7505 16.978 83.4145 17.134C83.0785 17.278 82.7785 17.464 82.5145 17.692C82.5745 17.896 82.6165 18.124 82.6405 18.376C82.6765 18.616 82.6945 18.868 82.6945 19.132C82.6825 19.732 82.6765 20.338 82.6765 20.95C82.6765 21.55 82.6765 22.156 82.6765 22.768C82.6765 22.984 82.6705 23.206 82.6585 23.434C82.6465 23.65 82.6285 23.872 82.6045 24.1C82.7965 24.088 82.9885 24.082 83.1805 24.082C83.3845 24.07 83.5705 24.058 83.7385 24.046V25H79.7425V24.244C80.1025 24.244 80.3485 24.16 80.4805 23.992C80.6245 23.824 80.7085 23.59 80.7325 23.29C80.7685 22.99 80.7865 22.642 80.7865 22.246V19.636C80.7985 18.688 80.6605 17.992 80.3725 17.548C80.0965 17.092 79.6525 16.87 79.0405 16.882C78.6925 16.882 78.3565 16.96 78.0325 17.116C77.7085 17.26 77.4265 17.446 77.1865 17.674C77.1865 17.818 77.1865 17.968 77.1865 18.124C77.1985 18.28 77.2045 18.448 77.2045 18.628V22.768C77.2045 22.984 77.1985 23.206 77.1865 23.434C77.1745 23.65 77.1565 23.872 77.1325 24.1C77.3245 24.088 77.5165 24.082 77.7085 24.082C77.9005 24.07 78.0805 24.058 78.2485 24.046V25H74.2525ZM91.0343 14.11C91.0343 13.906 91.0343 13.702 91.0343 13.498C91.0463 13.282 91.0643 13.054 91.0883 12.814C90.8723 12.826 90.6503 12.838 90.4223 12.85C90.2063 12.85 90.0023 12.856 89.8103 12.868V11.914C90.3503 11.914 90.7823 11.89 91.1063 11.842C91.4303 11.782 91.6763 11.716 91.8443 11.644C92.0243 11.572 92.1563 11.494 92.2403 11.41H92.9063V16.738C93.2663 16.402 93.6683 16.15 94.1123 15.982C94.5683 15.802 95.0423 15.712 95.5343 15.712C96.2783 15.712 96.9443 15.898 97.5323 16.27C98.1323 16.642 98.6003 17.17 98.9363 17.854C99.2843 18.538 99.4583 19.348 99.4583 20.284C99.4583 21.28 99.2483 22.156 98.8283 22.912C98.4203 23.668 97.8743 24.256 97.1903 24.676C96.5063 25.084 95.7383 25.288 94.8863 25.288C94.5023 25.288 94.0643 25.216 93.5723 25.072C93.0923 24.928 92.6543 24.634 92.2583 24.19L91.7903 25H90.9983L91.0343 14.11ZM92.9063 22.21C92.9063 22.774 92.9963 23.212 93.1763 23.524C93.3563 23.824 93.5843 24.04 93.8603 24.172C94.1483 24.292 94.4483 24.352 94.7603 24.352C95.3243 24.364 95.7983 24.208 96.1823 23.884C96.5663 23.56 96.8543 23.122 97.0463 22.57C97.2503 22.006 97.3523 21.37 97.3523 20.662C97.3523 19.942 97.2623 19.294 97.0823 18.718C96.9023 18.142 96.6263 17.686 96.2543 17.35C95.8823 17.002 95.4143 16.834 94.8503 16.846C94.4783 16.846 94.1183 16.93 93.7703 17.098C93.4343 17.266 93.1463 17.494 92.9063 17.782V22.21ZM105.256 25.288C104.416 25.288 103.66 25.096 102.988 24.712C102.328 24.316 101.806 23.764 101.422 23.056C101.038 22.336 100.846 21.49 100.846 20.518C100.846 19.678 101.032 18.892 101.404 18.16C101.788 17.428 102.322 16.84 103.006 16.396C103.69 15.94 104.482 15.712 105.382 15.712C105.886 15.712 106.36 15.79 106.804 15.946C107.26 16.102 107.662 16.348 108.01 16.684C108.37 17.008 108.652 17.434 108.856 17.962C109.06 18.478 109.162 19.108 109.162 19.852L102.97 19.96C102.97 20.776 103.06 21.502 103.24 22.138C103.432 22.774 103.738 23.266 104.158 23.614C104.578 23.962 105.124 24.136 105.796 24.136C106.12 24.136 106.462 24.082 106.822 23.974C107.194 23.854 107.542 23.686 107.866 23.47C108.202 23.254 108.484 22.996 108.712 22.696L109.27 23.182C108.91 23.722 108.496 24.148 108.028 24.46C107.56 24.76 107.08 24.97 106.588 25.09C106.108 25.222 105.664 25.288 105.256 25.288ZM103.042 19.024H107.2C107.2 18.568 107.134 18.16 107.002 17.8C106.882 17.428 106.69 17.134 106.426 16.918C106.162 16.702 105.826 16.594 105.418 16.594C104.782 16.594 104.26 16.798 103.852 17.206C103.444 17.602 103.174 18.208 103.042 19.024ZM110.674 24.244C111.034 24.244 111.286 24.16 111.43 23.992C111.574 23.824 111.658 23.59 111.682 23.29C111.718 22.99 111.736 22.642 111.736 22.246V18.502C111.736 18.31 111.736 18.106 111.736 17.89C111.748 17.662 111.772 17.44 111.808 17.224C111.604 17.236 111.388 17.248 111.16 17.26C110.932 17.26 110.722 17.266 110.53 17.278V16.324H111.142C111.646 16.324 112.03 16.27 112.294 16.162C112.558 16.054 112.75 15.94 112.87 15.82H113.518C113.542 15.988 113.56 16.222 113.572 16.522C113.584 16.822 113.596 17.158 113.608 17.53C113.836 17.194 114.1 16.894 114.4 16.63C114.7 16.354 115.024 16.132 115.372 15.964C115.732 15.796 116.104 15.712 116.488 15.712C116.86 15.712 117.178 15.814 117.442 16.018C117.718 16.21 117.856 16.528 117.856 16.972C117.856 17.092 117.82 17.23 117.748 17.386C117.688 17.542 117.58 17.68 117.424 17.8C117.28 17.908 117.082 17.962 116.83 17.962C116.578 17.95 116.356 17.854 116.164 17.674C115.984 17.494 115.9 17.248 115.912 16.936C115.624 16.936 115.336 17.026 115.048 17.206C114.76 17.374 114.49 17.602 114.238 17.89C113.998 18.178 113.794 18.49 113.626 18.826V22.768C113.626 22.984 113.62 23.206 113.608 23.434C113.608 23.65 113.59 23.872 113.554 24.1C113.746 24.088 113.944 24.082 114.148 24.082C114.352 24.07 114.538 24.058 114.706 24.046V25H110.674V24.244Z" fill="#FFF9C0"/>
<path d="M0.9 63V61.812C1.176 61.8 1.404 61.764 1.584 61.704C1.776 61.644 1.92 61.506 2.016 61.29C2.124 61.074 2.178 60.726 2.178 60.246V53.352C2.178 53.028 2.184 52.716 2.196 52.416C2.22 52.116 2.238 51.888 2.25 51.732C2.058 51.744 1.818 51.756 1.53 51.768C1.242 51.768 1.032 51.774 0.9 51.786V50.4C1.752 50.388 2.604 50.382 3.456 50.382C4.308 50.382 5.16 50.376 6.012 50.364C7.068 50.352 7.986 50.472 8.766 50.724C9.546 50.976 10.146 51.384 10.566 51.948C10.986 52.512 11.184 53.274 11.16 54.234C11.148 54.738 11.022 55.218 10.782 55.674C10.554 56.13 10.206 56.532 9.738 56.88C9.282 57.228 8.7 57.504 7.992 57.708C8.22 57.804 8.442 57.96 8.658 58.176C8.886 58.392 9.078 58.62 9.234 58.86L10.08 60.12C10.344 60.528 10.578 60.852 10.782 61.092C10.986 61.332 11.19 61.512 11.394 61.632C11.598 61.74 11.832 61.8 12.096 61.812V63H9.126C8.91 62.844 8.694 62.622 8.478 62.334C8.274 62.034 8.052 61.692 7.812 61.308L6.48 59.148C6.324 58.908 6.186 58.704 6.066 58.536C5.958 58.368 5.844 58.224 5.724 58.104C5.532 58.104 5.37 58.104 5.238 58.104C5.106 58.104 4.956 58.104 4.788 58.104V60.03C4.788 60.366 4.782 60.684 4.77 60.984C4.758 61.284 4.74 61.512 4.716 61.668C4.848 61.656 5.016 61.65 5.22 61.65C5.424 61.638 5.622 61.632 5.814 61.632C6.018 61.62 6.162 61.614 6.246 61.614V63H0.9ZM5.652 56.808C6.324 56.808 6.864 56.712 7.272 56.52C7.68 56.316 7.974 56.016 8.154 55.62C8.346 55.212 8.442 54.702 8.442 54.09C8.442 53.514 8.352 53.064 8.172 52.74C7.992 52.404 7.764 52.158 7.488 52.002C7.224 51.834 6.954 51.732 6.678 51.696C6.402 51.648 6.174 51.624 5.994 51.624C5.742 51.624 5.526 51.654 5.346 51.714C5.166 51.774 5.028 51.906 4.932 52.11C4.836 52.314 4.788 52.626 4.788 53.046V56.736C4.92 56.748 5.058 56.766 5.202 56.79C5.346 56.802 5.496 56.808 5.652 56.808ZM17.3438 63.288C16.4678 63.288 15.6938 63.096 15.0218 62.712C14.3498 62.316 13.8278 61.764 13.4558 61.056C13.0838 60.336 12.8978 59.49 12.8978 58.518C12.8978 57.678 13.0838 56.892 13.4558 56.16C13.8278 55.428 14.3498 54.84 15.0218 54.396C15.7058 53.94 16.4978 53.712 17.3978 53.712C17.9018 53.712 18.3938 53.784 18.8738 53.928C19.3538 54.06 19.7858 54.294 20.1698 54.63C20.5658 54.966 20.8778 55.422 21.1058 55.998C21.3458 56.574 21.4598 57.294 21.4478 58.158L15.5438 58.266C15.5438 58.914 15.6218 59.496 15.7778 60.012C15.9458 60.528 16.2158 60.936 16.5878 61.236C16.9598 61.536 17.4578 61.686 18.0818 61.686C18.3218 61.686 18.5918 61.644 18.8918 61.56C19.2038 61.476 19.5158 61.338 19.8278 61.146C20.1518 60.942 20.4518 60.672 20.7278 60.336L21.5378 61.092C21.1058 61.704 20.6438 62.172 20.1518 62.496C19.6598 62.808 19.1678 63.018 18.6758 63.126C18.1958 63.234 17.7518 63.288 17.3438 63.288ZM15.6518 57.006H18.9638C18.9518 56.502 18.8798 56.106 18.7478 55.818C18.6278 55.518 18.4598 55.302 18.2438 55.17C18.0278 55.038 17.7758 54.972 17.4878 54.972C16.9598 54.972 16.5458 55.164 16.2458 55.548C15.9458 55.92 15.7478 56.406 15.6518 57.006ZM22.7634 61.83C23.0994 61.83 23.3394 61.764 23.4834 61.632C23.6274 61.5 23.7174 61.314 23.7534 61.074C23.8014 60.822 23.8254 60.54 23.8254 60.228V57.24C23.8254 57.024 23.8314 56.778 23.8434 56.502C23.8554 56.214 23.8734 55.938 23.8974 55.674C23.7054 55.686 23.4774 55.698 23.2134 55.71C22.9614 55.71 22.7694 55.716 22.6374 55.728V54.36C23.1894 54.36 23.6574 54.33 24.0414 54.27C24.4254 54.21 24.7254 54.138 24.9414 54.054C25.1694 53.97 25.3254 53.892 25.4094 53.82H26.3814V60.102C26.3814 60.27 26.3754 60.51 26.3634 60.822C26.3514 61.122 26.3334 61.41 26.3094 61.686C26.5014 61.662 26.7114 61.65 26.9394 61.65C27.1794 61.638 27.3594 61.632 27.4794 61.632V63H22.7634V61.83ZM25.0134 52.398C24.6054 52.398 24.2694 52.254 24.0054 51.966C23.7414 51.678 23.6094 51.33 23.6094 50.922C23.6094 50.514 23.7474 50.166 24.0234 49.878C24.2994 49.59 24.6234 49.446 24.9954 49.446C25.3794 49.446 25.6974 49.59 25.9494 49.878C26.2134 50.166 26.3454 50.514 26.3454 50.922C26.3454 51.33 26.2254 51.678 25.9854 51.966C25.7454 52.254 25.4214 52.398 25.0134 52.398ZM32.5221 67.878C31.4901 67.878 30.6741 67.764 30.0741 67.536C29.4741 67.32 29.0481 67.032 28.7961 66.672C28.5441 66.312 28.4181 65.928 28.4181 65.52C28.4181 65.268 28.4721 65.016 28.5801 64.764C28.6881 64.512 28.8621 64.266 29.1021 64.026C29.3541 63.798 29.6961 63.606 30.1281 63.45C29.6361 63.318 29.2881 63.108 29.0841 62.82C28.8921 62.52 28.7961 62.202 28.7961 61.866C28.7961 61.554 28.9221 61.206 29.1741 60.822C29.4261 60.426 29.8821 60.126 30.5421 59.922C30.0381 59.718 29.6241 59.4 29.3001 58.968C28.9761 58.536 28.8021 58.014 28.7781 57.402C28.7541 56.682 28.9341 56.046 29.3181 55.494C29.7021 54.93 30.2061 54.492 30.8301 54.18C31.4541 53.868 32.1081 53.712 32.7921 53.712C33.1041 53.712 33.4641 53.754 33.8721 53.838C34.2801 53.922 34.6341 54.066 34.9341 54.27C35.0661 53.898 35.2341 53.55 35.4381 53.226C35.6541 52.89 35.9121 52.62 36.2121 52.416C36.5121 52.2 36.8481 52.092 37.2201 52.092C37.6281 52.092 37.9341 52.2 38.1381 52.416C38.3541 52.62 38.4621 52.896 38.4621 53.244C38.4621 53.388 38.4261 53.55 38.3541 53.73C38.2941 53.898 38.1801 54.042 38.0121 54.162C37.8561 54.282 37.6341 54.342 37.3461 54.342C37.1661 54.342 36.9861 54.276 36.8061 54.144C36.6261 54 36.5181 53.832 36.4821 53.64C36.3261 53.688 36.1701 53.844 36.0141 54.108C35.8581 54.372 35.7681 54.606 35.7441 54.81C36.0921 55.11 36.3561 55.458 36.5361 55.854C36.7161 56.25 36.8061 56.676 36.8061 57.132C36.8061 57.828 36.6081 58.446 36.2121 58.986C35.8281 59.514 35.3241 59.934 34.7001 60.246C34.0881 60.546 33.4281 60.696 32.7201 60.696C32.5641 60.696 32.3901 60.69 32.1981 60.678C32.0061 60.654 31.8201 60.642 31.6401 60.642C31.3761 60.642 31.1541 60.69 30.9741 60.786C30.7941 60.882 30.7041 61.014 30.7041 61.182C30.7041 61.41 30.8781 61.566 31.2261 61.65C31.5741 61.734 32.1681 61.8 33.0081 61.848C33.9321 61.896 34.7361 62.016 35.4201 62.208C36.1161 62.388 36.6561 62.676 37.0401 63.072C37.4241 63.468 37.6161 64.014 37.6161 64.71C37.6161 65.226 37.4661 65.676 37.1661 66.06C36.8661 66.456 36.4641 66.786 35.9601 67.05C35.4681 67.326 34.9221 67.53 34.3221 67.662C33.7221 67.806 33.1221 67.878 32.5221 67.878ZM33.0441 66.636C33.8961 66.636 34.5381 66.48 34.9701 66.168C35.4141 65.856 35.6361 65.532 35.6361 65.196C35.6361 64.944 35.5401 64.734 35.3481 64.566C35.1561 64.41 34.8681 64.284 34.4841 64.188C34.1121 64.092 33.6321 64.032 33.0441 64.008C32.7801 63.984 32.4741 63.966 32.1261 63.954C31.7781 63.942 31.4721 63.912 31.2081 63.864C31.0281 64.008 30.8901 64.188 30.7941 64.404C30.6981 64.62 30.6441 64.83 30.6321 65.034C30.6081 65.514 30.8121 65.898 31.2441 66.186C31.6881 66.486 32.2881 66.636 33.0441 66.636ZM32.7921 59.49C33.1161 59.49 33.3861 59.388 33.6021 59.184C33.8301 58.98 33.9981 58.722 34.1061 58.41C34.2261 58.098 34.2861 57.78 34.2861 57.456C34.2861 57.036 34.2321 56.634 34.1241 56.25C34.0161 55.854 33.8481 55.536 33.6201 55.296C33.4041 55.044 33.1221 54.918 32.7741 54.918C32.2941 54.918 31.9221 55.134 31.6581 55.566C31.3941 55.998 31.2621 56.49 31.2621 57.042C31.2621 57.462 31.3221 57.864 31.4421 58.248C31.5621 58.62 31.7361 58.92 31.9641 59.148C32.1921 59.376 32.4681 59.49 32.7921 59.49ZM42.9585 63.288C42.0945 63.288 41.3145 63.102 40.6185 62.73C39.9225 62.358 39.3705 61.83 38.9625 61.146C38.5665 60.45 38.3685 59.634 38.3685 58.698C38.3685 57.702 38.5725 56.832 38.9805 56.088C39.4005 55.332 39.9525 54.75 40.6365 54.342C41.3325 53.922 42.0885 53.712 42.9045 53.712C43.7685 53.712 44.5425 53.898 45.2265 54.27C45.9105 54.642 46.4505 55.176 46.8465 55.872C47.2425 56.556 47.4405 57.378 47.4405 58.338C47.4405 59.346 47.2485 60.222 46.8645 60.966C46.4805 61.71 45.9525 62.286 45.2805 62.694C44.6085 63.09 43.8345 63.288 42.9585 63.288ZM43.0305 62.01C43.5105 61.998 43.8705 61.83 44.1105 61.506C44.3625 61.182 44.5365 60.774 44.6325 60.282C44.7285 59.79 44.7765 59.292 44.7765 58.788C44.7765 58.344 44.7405 57.894 44.6685 57.438C44.6085 56.982 44.5065 56.568 44.3625 56.196C44.2185 55.824 44.0205 55.524 43.7685 55.296C43.5285 55.068 43.2285 54.96 42.8685 54.972C42.4005 54.984 42.0285 55.152 41.7525 55.476C41.4885 55.8 41.2965 56.208 41.1765 56.7C41.0685 57.18 41.0145 57.684 41.0145 58.212C41.0145 58.824 41.0805 59.424 41.2125 60.012C41.3445 60.6 41.5545 61.086 41.8425 61.47C42.1425 61.842 42.5385 62.022 43.0305 62.01ZM48.7439 63V61.83C49.0799 61.83 49.3199 61.764 49.4639 61.632C49.6079 61.5 49.6979 61.314 49.7339 61.074C49.7819 60.822 49.8059 60.54 49.8059 60.228V57.204C49.8059 56.988 49.8119 56.748 49.8239 56.484C49.8359 56.208 49.8539 55.938 49.8779 55.674C49.6859 55.686 49.4579 55.698 49.1939 55.71C48.9419 55.71 48.7499 55.716 48.6179 55.728V54.36C49.1699 54.36 49.6379 54.33 50.0219 54.27C50.4059 54.21 50.7059 54.138 50.9219 54.054C51.1499 53.97 51.3059 53.892 51.3899 53.82H52.2719C52.2959 53.976 52.3079 54.09 52.3079 54.162C52.3079 54.234 52.3079 54.306 52.3079 54.378C52.3199 54.438 52.3439 54.552 52.3799 54.72C52.6199 54.528 52.8959 54.36 53.2079 54.216C53.5199 54.06 53.8319 53.94 54.1439 53.856C54.4559 53.76 54.7319 53.712 54.9719 53.712C56.0759 53.712 56.8559 54.03 57.3119 54.666C57.7799 55.29 58.0139 56.298 58.0139 57.69V60.102C58.0139 60.27 58.0079 60.51 57.9959 60.822C57.9839 61.122 57.9659 61.41 57.9419 61.686C58.1459 61.662 58.3619 61.65 58.5899 61.65C58.8179 61.638 58.9919 61.632 59.1119 61.632V63H54.3959V61.83C54.7319 61.83 54.9719 61.764 55.1159 61.632C55.2719 61.5 55.3679 61.314 55.4039 61.074C55.4519 60.822 55.4759 60.54 55.4759 60.228L55.4579 57.672C55.4579 56.892 55.3439 56.316 55.1159 55.944C54.8999 55.56 54.5279 55.368 53.9999 55.368C53.6999 55.368 53.3999 55.434 53.0999 55.566C52.8119 55.698 52.5659 55.854 52.3619 56.034C52.3619 56.202 52.3619 56.376 52.3619 56.556C52.3619 56.724 52.3619 56.892 52.3619 57.06V60.102C52.3619 60.27 52.3559 60.51 52.3439 60.822C52.3319 61.122 52.3139 61.41 52.2899 61.686C52.4819 61.662 52.6919 61.65 52.9199 61.65C53.1599 61.638 53.3399 61.632 53.4599 61.632V63H48.7439ZM66.4097 63.288C66.0257 63.288 65.7077 63.15 65.4557 62.874C65.2157 62.598 65.0957 62.268 65.0957 61.884C65.0957 61.5 65.2277 61.17 65.4917 60.894C65.7557 60.618 66.0617 60.48 66.4097 60.48C66.7817 60.48 67.0877 60.618 67.3277 60.894C67.5797 61.17 67.7057 61.5 67.7057 61.884C67.7057 62.268 67.5857 62.598 67.3457 62.874C67.1177 63.15 66.8057 63.288 66.4097 63.288ZM66.4097 56.034C66.0257 56.034 65.7077 55.896 65.4557 55.62C65.2157 55.344 65.0957 55.014 65.0957 54.63C65.0957 54.246 65.2277 53.916 65.4917 53.64C65.7557 53.364 66.0617 53.226 66.4097 53.226C66.7817 53.226 67.0877 53.364 67.3277 53.64C67.5797 53.916 67.7057 54.246 67.7057 54.63C67.7057 55.014 67.5857 55.344 67.3457 55.62C67.1177 55.896 66.8057 56.034 66.4097 56.034Z" fill="#FFBA41"/>
<path d="M74.954 63V62.208C75.35 62.184 75.632 62.1 75.8 61.956C75.98 61.812 76.094 61.596 76.142 61.308C76.19 61.02 76.214 60.654 76.214 60.21V52.722C76.214 52.458 76.22 52.206 76.232 51.966C76.244 51.714 76.256 51.498 76.268 51.318C76.064 51.33 75.842 51.342 75.602 51.354C75.362 51.366 75.146 51.378 74.954 51.39V50.4H83.522L83.63 53.658H82.838C82.838 52.974 82.724 52.452 82.496 52.092C82.268 51.732 81.974 51.492 81.614 51.372C81.254 51.252 80.864 51.198 80.444 51.21L79.364 51.246C78.98 51.246 78.698 51.324 78.518 51.48C78.35 51.636 78.242 51.858 78.194 52.146C78.146 52.434 78.122 52.8 78.122 53.244V56.34L80.84 56.358L80.732 54.792H81.722V58.788H80.93C80.93 58.26 80.852 57.882 80.696 57.654C80.552 57.426 80.33 57.288 80.03 57.24C79.73 57.192 79.358 57.174 78.914 57.186L78.122 57.222V60.588C78.122 60.912 78.116 61.206 78.104 61.47C78.104 61.722 78.092 61.926 78.068 62.082C78.248 62.07 78.44 62.064 78.644 62.064C78.86 62.052 79.07 62.04 79.274 62.028C79.478 62.016 79.664 62.01 79.832 62.01V63H74.954ZM88.8001 63.288C87.9481 63.288 87.1801 63.096 86.4961 62.712C85.8121 62.328 85.2661 61.794 84.8581 61.11C84.4621 60.414 84.2641 59.616 84.2641 58.716C84.2641 57.744 84.4621 56.886 84.8581 56.142C85.2661 55.386 85.8121 54.792 86.4961 54.36C87.1801 53.928 87.9421 53.712 88.7821 53.712C89.6341 53.712 90.4021 53.91 91.0861 54.306C91.7701 54.69 92.3101 55.23 92.7061 55.926C93.1141 56.61 93.3181 57.402 93.3181 58.302C93.3181 59.25 93.1201 60.102 92.7241 60.858C92.3281 61.614 91.7881 62.208 91.1041 62.64C90.4321 63.072 89.6641 63.288 88.8001 63.288ZM88.9261 62.388C89.5021 62.376 89.9521 62.196 90.2761 61.848C90.6121 61.5 90.8521 61.056 90.9961 60.516C91.1401 59.964 91.2121 59.394 91.2121 58.806C91.2121 58.29 91.1641 57.786 91.0681 57.294C90.9841 56.79 90.8461 56.334 90.6541 55.926C90.4621 55.518 90.2101 55.194 89.8981 54.954C89.5861 54.702 89.2081 54.582 88.7641 54.594C88.2001 54.594 87.7381 54.768 87.3781 55.116C87.0301 55.464 86.7721 55.914 86.6041 56.466C86.4481 57.006 86.3701 57.582 86.3701 58.194C86.3701 58.902 86.4601 59.574 86.6401 60.21C86.8201 60.846 87.0961 61.368 87.4681 61.776C87.8521 62.184 88.3381 62.388 88.9261 62.388ZM94.7779 62.244C95.1379 62.244 95.3899 62.16 95.5339 61.992C95.6779 61.824 95.7619 61.59 95.7859 61.29C95.8219 60.99 95.8399 60.642 95.8399 60.246V56.502C95.8399 56.31 95.8399 56.106 95.8399 55.89C95.8519 55.662 95.8759 55.44 95.9119 55.224C95.7079 55.236 95.4919 55.248 95.2639 55.26C95.0359 55.26 94.8259 55.266 94.6339 55.278V54.324H95.2459C95.7499 54.324 96.1339 54.27 96.3979 54.162C96.6619 54.054 96.8539 53.94 96.9739 53.82H97.6219C97.6459 53.988 97.6639 54.222 97.6759 54.522C97.6879 54.822 97.6999 55.158 97.7119 55.53C97.9399 55.194 98.2039 54.894 98.5039 54.63C98.8039 54.354 99.1279 54.132 99.4759 53.964C99.8359 53.796 100.208 53.712 100.592 53.712C100.964 53.712 101.282 53.814 101.546 54.018C101.822 54.21 101.96 54.528 101.96 54.972C101.96 55.092 101.924 55.23 101.852 55.386C101.792 55.542 101.684 55.68 101.528 55.8C101.384 55.908 101.186 55.962 100.934 55.962C100.682 55.95 100.46 55.854 100.268 55.674C100.088 55.494 100.004 55.248 100.016 54.936C99.7279 54.936 99.4399 55.026 99.1519 55.206C98.8639 55.374 98.5939 55.602 98.3419 55.89C98.1019 56.178 97.8979 56.49 97.7299 56.826V60.768C97.7299 60.984 97.7239 61.206 97.7119 61.434C97.7119 61.65 97.6939 61.872 97.6579 62.1C97.8499 62.088 98.0479 62.082 98.2519 62.082C98.4559 62.07 98.6419 62.058 98.8099 62.046V63H94.7779V62.244ZM107.061 63.288C106.221 63.288 105.465 63.096 104.793 62.712C104.133 62.316 103.611 61.764 103.227 61.056C102.843 60.336 102.651 59.49 102.651 58.518C102.651 57.678 102.837 56.892 103.209 56.16C103.593 55.428 104.127 54.84 104.811 54.396C105.495 53.94 106.287 53.712 107.187 53.712C107.691 53.712 108.165 53.79 108.609 53.946C109.065 54.102 109.467 54.348 109.815 54.684C110.175 55.008 110.457 55.434 110.661 55.962C110.865 56.478 110.967 57.108 110.967 57.852L104.775 57.96C104.775 58.776 104.865 59.502 105.045 60.138C105.237 60.774 105.543 61.266 105.963 61.614C106.383 61.962 106.929 62.136 107.601 62.136C107.925 62.136 108.267 62.082 108.627 61.974C108.999 61.854 109.347 61.686 109.671 61.47C110.007 61.254 110.289 60.996 110.517 60.696L111.075 61.182C110.715 61.722 110.301 62.148 109.833 62.46C109.365 62.76 108.885 62.97 108.393 63.09C107.913 63.222 107.469 63.288 107.061 63.288ZM104.847 57.024H109.005C109.005 56.568 108.939 56.16 108.807 55.8C108.687 55.428 108.495 55.134 108.231 54.918C107.967 54.702 107.631 54.594 107.223 54.594C106.587 54.594 106.065 54.798 105.657 55.206C105.249 55.602 104.979 56.208 104.847 57.024ZM116.313 63.288C115.749 63.288 115.227 63.21 114.747 63.054C114.267 62.91 113.883 62.736 113.595 62.532L113.649 63.126H112.695L112.605 60.03H113.361C113.385 60.474 113.523 60.876 113.775 61.236C114.027 61.596 114.351 61.878 114.747 62.082C115.155 62.286 115.593 62.388 116.061 62.388C116.337 62.388 116.607 62.346 116.871 62.262C117.135 62.166 117.357 62.028 117.537 61.848C117.717 61.656 117.807 61.422 117.807 61.146C117.807 60.846 117.711 60.6 117.519 60.408C117.339 60.204 117.087 60.024 116.763 59.868C116.451 59.712 116.091 59.556 115.683 59.4C115.323 59.256 114.957 59.106 114.585 58.95C114.225 58.794 113.889 58.608 113.577 58.392C113.265 58.176 113.019 57.912 112.839 57.6C112.659 57.276 112.569 56.88 112.569 56.412C112.569 56.136 112.623 55.842 112.731 55.53C112.839 55.206 113.013 54.912 113.253 54.648C113.493 54.372 113.817 54.15 114.225 53.982C114.633 53.802 115.137 53.712 115.737 53.712C116.061 53.712 116.421 53.766 116.817 53.874C117.225 53.982 117.603 54.168 117.951 54.432L117.933 53.802H118.887V56.97H118.113C118.077 56.55 117.963 56.16 117.771 55.8C117.591 55.44 117.333 55.146 116.997 54.918C116.661 54.69 116.253 54.576 115.773 54.576C115.305 54.576 114.921 54.696 114.621 54.936C114.333 55.164 114.189 55.452 114.189 55.8C114.189 56.148 114.297 56.43 114.513 56.646C114.741 56.862 115.035 57.048 115.395 57.204C115.755 57.36 116.145 57.516 116.565 57.672C117.069 57.876 117.543 58.098 117.987 58.338C118.431 58.578 118.791 58.878 119.067 59.238C119.343 59.598 119.481 60.054 119.481 60.606C119.481 61.206 119.325 61.71 119.013 62.118C118.713 62.514 118.323 62.808 117.843 63C117.363 63.192 116.853 63.288 116.313 63.288ZM124.372 63.288C124.072 63.288 123.772 63.246 123.472 63.162C123.172 63.09 122.89 62.94 122.626 62.712C122.374 62.472 122.176 62.13 122.032 61.686C121.888 61.242 121.816 60.654 121.816 59.922L121.852 55.008H120.52V54C120.844 53.988 121.174 53.868 121.51 53.64C121.846 53.412 122.14 53.106 122.392 52.722C122.644 52.338 122.818 51.924 122.914 51.48H123.76V54H126.532V54.936L123.76 54.972L123.724 59.778C123.724 60.234 123.76 60.636 123.832 60.984C123.916 61.32 124.048 61.584 124.228 61.776C124.42 61.956 124.678 62.046 125.002 62.046C125.278 62.046 125.56 61.962 125.848 61.794C126.148 61.626 126.43 61.35 126.694 60.966L127.306 61.506C127.018 61.926 126.73 62.256 126.442 62.496C126.154 62.736 125.878 62.91 125.614 63.018C125.35 63.138 125.11 63.21 124.894 63.234C124.678 63.27 124.504 63.288 124.372 63.288ZM131.971 63V62.19C132.331 62.19 132.607 62.094 132.799 61.902C132.991 61.71 133.153 61.452 133.285 61.128C133.417 60.792 133.561 60.42 133.717 60.012L137.353 50.058H138.073L142.015 60.156C142.111 60.384 142.219 60.696 142.339 61.092C142.459 61.476 142.513 61.806 142.501 62.082C142.705 62.058 142.903 62.046 143.095 62.046C143.299 62.034 143.491 62.022 143.671 62.01V63H139.297V62.208C139.717 62.196 139.993 62.106 140.125 61.938C140.269 61.758 140.323 61.542 140.287 61.29C140.263 61.038 140.203 60.786 140.107 60.534L139.567 59.076L135.157 59.184L134.635 60.75C134.563 60.99 134.485 61.218 134.401 61.434C134.317 61.65 134.233 61.86 134.149 62.064C134.365 62.04 134.593 62.028 134.833 62.028C135.085 62.016 135.307 62.004 135.499 61.992V63H131.971ZM135.481 58.212H139.261L138.127 55.17C137.983 54.774 137.845 54.384 137.713 54C137.581 53.604 137.461 53.226 137.353 52.866H137.335C137.239 53.166 137.131 53.496 137.011 53.856C136.891 54.216 136.753 54.606 136.597 55.026L135.481 58.212ZM144.278 62.244C144.638 62.244 144.89 62.16 145.034 61.992C145.178 61.824 145.262 61.59 145.286 61.29C145.322 60.99 145.34 60.642 145.34 60.246V56.502C145.34 56.31 145.34 56.106 145.34 55.89C145.352 55.662 145.376 55.44 145.412 55.224C145.208 55.236 144.992 55.248 144.764 55.26C144.536 55.26 144.326 55.266 144.134 55.278V54.324H144.746C145.25 54.324 145.634 54.27 145.898 54.162C146.162 54.054 146.354 53.94 146.474 53.82H147.122C147.146 53.988 147.164 54.222 147.176 54.522C147.188 54.822 147.2 55.158 147.212 55.53C147.44 55.194 147.704 54.894 148.004 54.63C148.304 54.354 148.628 54.132 148.976 53.964C149.336 53.796 149.708 53.712 150.092 53.712C150.464 53.712 150.782 53.814 151.046 54.018C151.322 54.21 151.46 54.528 151.46 54.972C151.46 55.092 151.424 55.23 151.352 55.386C151.292 55.542 151.184 55.68 151.028 55.8C150.884 55.908 150.686 55.962 150.434 55.962C150.182 55.95 149.96 55.854 149.768 55.674C149.588 55.494 149.504 55.248 149.516 54.936C149.228 54.936 148.94 55.026 148.652 55.206C148.364 55.374 148.094 55.602 147.842 55.89C147.602 56.178 147.398 56.49 147.23 56.826V60.768C147.23 60.984 147.224 61.206 147.212 61.434C147.212 61.65 147.194 61.872 147.158 62.1C147.35 62.088 147.548 62.082 147.752 62.082C147.956 62.07 148.142 62.058 148.31 62.046V63H144.278V62.244ZM156.561 63.288C155.721 63.288 154.965 63.096 154.293 62.712C153.633 62.316 153.111 61.764 152.727 61.056C152.343 60.336 152.151 59.49 152.151 58.518C152.151 57.678 152.337 56.892 152.709 56.16C153.093 55.428 153.627 54.84 154.311 54.396C154.995 53.94 155.787 53.712 156.687 53.712C157.191 53.712 157.665 53.79 158.109 53.946C158.565 54.102 158.967 54.348 159.315 54.684C159.675 55.008 159.957 55.434 160.161 55.962C160.365 56.478 160.467 57.108 160.467 57.852L154.275 57.96C154.275 58.776 154.365 59.502 154.545 60.138C154.737 60.774 155.043 61.266 155.463 61.614C155.883 61.962 156.429 62.136 157.101 62.136C157.425 62.136 157.767 62.082 158.127 61.974C158.499 61.854 158.847 61.686 159.171 61.47C159.507 61.254 159.789 60.996 160.017 60.696L160.575 61.182C160.215 61.722 159.801 62.148 159.333 62.46C158.865 62.76 158.385 62.97 157.893 63.09C157.413 63.222 156.969 63.288 156.561 63.288ZM154.347 57.024H158.505C158.505 56.568 158.439 56.16 158.307 55.8C158.187 55.428 157.995 55.134 157.731 54.918C157.467 54.702 157.131 54.594 156.723 54.594C156.087 54.594 155.565 54.798 155.157 55.206C154.749 55.602 154.479 56.208 154.347 57.024ZM167.272 63C167.248 62.808 167.23 62.64 167.218 62.496C167.206 62.352 167.188 62.202 167.164 62.046C166.756 62.454 166.318 62.766 165.85 62.982C165.382 63.186 164.896 63.288 164.392 63.288C163.528 63.288 162.874 63.078 162.43 62.658C161.998 62.226 161.781 61.692 161.781 61.056C161.781 60.504 161.944 60.024 162.268 59.616C162.592 59.208 163.018 58.878 163.546 58.626C164.074 58.362 164.65 58.17 165.274 58.05C165.898 57.918 166.51 57.852 167.11 57.852V56.79C167.11 56.406 167.074 56.052 167.002 55.728C166.93 55.392 166.78 55.122 166.552 54.918C166.336 54.702 165.994 54.594 165.526 54.594C165.214 54.582 164.902 54.642 164.59 54.774C164.278 54.894 164.038 55.098 163.87 55.386C163.966 55.482 164.026 55.596 164.05 55.728C164.086 55.848 164.104 55.962 164.104 56.07C164.104 56.238 164.032 56.43 163.888 56.646C163.744 56.85 163.498 56.946 163.15 56.934C162.862 56.934 162.64 56.838 162.484 56.646C162.34 56.442 162.268 56.208 162.268 55.944C162.268 55.512 162.424 55.128 162.736 54.792C163.06 54.456 163.498 54.192 164.05 54C164.602 53.808 165.22 53.712 165.904 53.712C166.936 53.712 167.704 53.982 168.208 54.522C168.724 55.062 168.982 55.914 168.982 57.078C168.982 57.51 168.982 57.924 168.982 58.32C168.982 58.716 168.976 59.112 168.964 59.508C168.964 59.904 168.964 60.324 168.964 60.768C168.964 60.948 168.958 61.152 168.946 61.38C168.934 61.608 168.916 61.848 168.892 62.1C169.096 62.088 169.306 62.076 169.522 62.064C169.738 62.052 169.942 62.046 170.134 62.046V63H167.272ZM167.11 58.68C166.726 58.704 166.33 58.758 165.922 58.842C165.526 58.926 165.166 59.052 164.842 59.22C164.518 59.388 164.254 59.604 164.05 59.868C163.858 60.132 163.762 60.45 163.762 60.822C163.786 61.23 163.918 61.53 164.158 61.722C164.41 61.914 164.704 62.01 165.04 62.01C165.46 62.01 165.832 61.932 166.156 61.776C166.48 61.608 166.798 61.38 167.11 61.092C167.098 60.96 167.092 60.828 167.092 60.696C167.092 60.552 167.092 60.402 167.092 60.246C167.092 60.138 167.092 59.94 167.092 59.652C167.104 59.352 167.11 59.028 167.11 58.68ZM175.129 63.288C174.565 63.288 174.043 63.21 173.563 63.054C173.083 62.91 172.699 62.736 172.411 62.532L172.465 63.126H171.511L171.421 60.03H172.177C172.201 60.474 172.339 60.876 172.591 61.236C172.843 61.596 173.167 61.878 173.563 62.082C173.971 62.286 174.409 62.388 174.877 62.388C175.153 62.388 175.423 62.346 175.687 62.262C175.951 62.166 176.173 62.028 176.353 61.848C176.533 61.656 176.623 61.422 176.623 61.146C176.623 60.846 176.527 60.6 176.335 60.408C176.155 60.204 175.903 60.024 175.579 59.868C175.267 59.712 174.907 59.556 174.499 59.4C174.139 59.256 173.773 59.106 173.401 58.95C173.041 58.794 172.705 58.608 172.393 58.392C172.081 58.176 171.835 57.912 171.655 57.6C171.475 57.276 171.385 56.88 171.385 56.412C171.385 56.136 171.439 55.842 171.547 55.53C171.655 55.206 171.829 54.912 172.069 54.648C172.309 54.372 172.633 54.15 173.041 53.982C173.449 53.802 173.953 53.712 174.553 53.712C174.877 53.712 175.237 53.766 175.633 53.874C176.041 53.982 176.419 54.168 176.767 54.432L176.749 53.802H177.703V56.97H176.929C176.893 56.55 176.779 56.16 176.587 55.8C176.407 55.44 176.149 55.146 175.813 54.918C175.477 54.69 175.069 54.576 174.589 54.576C174.121 54.576 173.737 54.696 173.437 54.936C173.149 55.164 173.005 55.452 173.005 55.8C173.005 56.148 173.113 56.43 173.329 56.646C173.557 56.862 173.851 57.048 174.211 57.204C174.571 57.36 174.961 57.516 175.381 57.672C175.885 57.876 176.359 58.098 176.803 58.338C177.247 58.578 177.607 58.878 177.883 59.238C178.159 59.598 178.297 60.054 178.297 60.606C178.297 61.206 178.141 61.71 177.829 62.118C177.529 62.514 177.139 62.808 176.659 63C176.179 63.192 175.669 63.288 175.129 63.288ZM190.833 63.288C189.693 63.288 188.715 63.096 187.899 62.712C187.095 62.328 186.441 61.818 185.937 61.182C185.433 60.534 185.061 59.82 184.821 59.04C184.581 58.26 184.461 57.48 184.461 56.7C184.461 55.944 184.587 55.182 184.839 54.414C185.103 53.634 185.493 52.92 186.009 52.272C186.537 51.624 187.191 51.102 187.971 50.706C188.763 50.31 189.687 50.112 190.743 50.112C191.847 50.112 192.795 50.31 193.587 50.706C194.391 51.102 195.051 51.63 195.567 52.29C196.083 52.938 196.467 53.646 196.719 54.414C196.983 55.182 197.115 55.944 197.115 56.7C197.115 57.444 196.983 58.206 196.719 58.986C196.467 59.754 196.077 60.468 195.549 61.128C195.033 61.776 194.385 62.298 193.605 62.694C192.825 63.09 191.901 63.288 190.833 63.288ZM190.923 62.352C191.619 62.352 192.219 62.196 192.723 61.884C193.239 61.572 193.659 61.158 193.983 60.642C194.319 60.114 194.565 59.538 194.721 58.914C194.877 58.278 194.955 57.648 194.955 57.024C194.955 56.256 194.865 55.518 194.685 54.81C194.505 54.09 194.229 53.448 193.857 52.884C193.497 52.308 193.047 51.858 192.507 51.534C191.967 51.198 191.343 51.03 190.635 51.03C189.939 51.03 189.333 51.192 188.817 51.516C188.301 51.84 187.881 52.266 187.557 52.794C187.233 53.31 186.987 53.886 186.819 54.522C186.663 55.146 186.585 55.776 186.585 56.412C186.585 57.036 186.669 57.696 186.837 58.392C187.005 59.088 187.263 59.736 187.611 60.336C187.959 60.936 188.403 61.422 188.943 61.794C189.495 62.166 190.155 62.352 190.923 62.352ZM199.763 53.568C199.763 52.2 200.027 51.156 200.555 50.436C201.095 49.716 201.941 49.356 203.093 49.356C203.453 49.356 203.789 49.416 204.101 49.536C204.413 49.644 204.665 49.806 204.857 50.022C205.049 50.226 205.145 50.472 205.145 50.76C205.145 51.024 205.067 51.246 204.911 51.426C204.767 51.606 204.557 51.702 204.281 51.714C203.969 51.726 203.741 51.636 203.597 51.444C203.465 51.252 203.399 51.06 203.399 50.868C203.399 50.808 203.399 50.742 203.399 50.67C203.411 50.598 203.435 50.526 203.471 50.454C203.387 50.358 203.279 50.292 203.147 50.256C203.027 50.22 202.913 50.202 202.805 50.202C202.493 50.202 202.253 50.292 202.085 50.472C201.917 50.652 201.797 50.88 201.725 51.156C201.653 51.432 201.617 51.714 201.617 52.002V54H203.921V54.936L201.635 54.99L201.653 60.75C201.653 60.966 201.647 61.188 201.635 61.416C201.623 61.644 201.605 61.872 201.581 62.1C201.773 62.088 201.971 62.082 202.175 62.082C202.391 62.07 202.583 62.058 202.751 62.046V63H198.701V62.244C199.061 62.244 199.313 62.16 199.457 61.992C199.601 61.824 199.685 61.59 199.709 61.29C199.745 60.99 199.763 60.642 199.763 60.246V55.008L198.341 55.044V54H199.763V53.568ZM214.224 51.192C213.84 51.204 213.558 51.288 213.378 51.444C213.198 51.588 213.084 51.804 213.036 52.092C212.988 52.368 212.964 52.734 212.964 53.19V60.588C212.964 60.912 212.958 61.206 212.946 61.47C212.946 61.722 212.934 61.926 212.91 62.082C213.114 62.058 213.336 62.046 213.576 62.046C213.828 62.034 214.044 62.022 214.224 62.01V63H209.796V62.208C210.192 62.184 210.474 62.1 210.642 61.956C210.822 61.812 210.936 61.596 210.984 61.308C211.032 61.02 211.056 60.654 211.056 60.21V52.722C211.056 52.458 211.062 52.206 211.074 51.966C211.086 51.714 211.098 51.498 211.11 51.318C210.906 51.33 210.684 51.342 210.444 51.354C210.204 51.366 209.988 51.378 209.796 51.39V50.4H214.224V51.192ZM215.786 63V62.244C216.146 62.244 216.398 62.16 216.542 61.992C216.686 61.824 216.77 61.59 216.794 61.29C216.83 60.99 216.848 60.642 216.848 60.246L216.866 56.502C216.866 56.31 216.866 56.106 216.866 55.89C216.878 55.662 216.902 55.44 216.938 55.224C216.722 55.236 216.5 55.248 216.272 55.26C216.056 55.26 215.852 55.266 215.66 55.278V54.324C216.2 54.324 216.62 54.3 216.92 54.252C217.232 54.192 217.466 54.126 217.622 54.054C217.79 53.982 217.916 53.904 218 53.82H218.648C218.66 53.928 218.666 54.03 218.666 54.126C218.678 54.222 218.684 54.324 218.684 54.432C218.696 54.54 218.708 54.678 218.72 54.846C218.984 54.63 219.272 54.438 219.584 54.27C219.896 54.102 220.22 53.97 220.556 53.874C220.904 53.766 221.234 53.712 221.546 53.712C222.614 53.712 223.382 54.036 223.85 54.684C224.33 55.332 224.57 56.346 224.57 57.726V60.768C224.57 60.984 224.564 61.206 224.552 61.434C224.54 61.65 224.522 61.872 224.498 62.1C224.69 62.088 224.882 62.082 225.074 62.082C225.278 62.07 225.464 62.058 225.632 62.046V63H221.618V62.244C221.978 62.244 222.23 62.16 222.374 61.992C222.518 61.824 222.602 61.59 222.626 61.29C222.662 60.99 222.68 60.642 222.68 60.246V57.726C222.668 56.778 222.512 56.064 222.212 55.584C221.924 55.104 221.456 54.87 220.808 54.882C220.424 54.882 220.046 54.978 219.674 55.17C219.302 55.362 218.99 55.596 218.738 55.872C218.738 55.992 218.738 56.124 218.738 56.268C218.738 56.4 218.738 56.538 218.738 56.682V60.768C218.738 60.984 218.732 61.206 218.72 61.434C218.708 61.65 218.69 61.872 218.666 62.1C218.858 62.088 219.05 62.082 219.242 62.082C219.446 62.07 219.632 62.058 219.8 62.046V63H215.786ZM230.621 63.288C229.889 63.288 229.235 63.108 228.659 62.748C228.095 62.376 227.645 61.848 227.309 61.164C226.985 60.48 226.823 59.676 226.823 58.752C226.823 57.768 227.015 56.898 227.399 56.142C227.783 55.386 228.323 54.792 229.019 54.36C229.715 53.928 230.507 53.712 231.395 53.712C231.767 53.712 232.121 53.76 232.457 53.856C232.805 53.94 233.093 54.042 233.321 54.162V52.11C233.321 51.93 233.327 51.732 233.339 51.516C233.351 51.288 233.369 51.054 233.393 50.814C233.177 50.826 232.955 50.838 232.727 50.85C232.499 50.862 232.295 50.868 232.115 50.868V49.914C232.655 49.914 233.081 49.89 233.393 49.842C233.717 49.782 233.963 49.716 234.131 49.644C234.311 49.572 234.443 49.494 234.527 49.41H235.193V60.768C235.193 60.948 235.187 61.152 235.175 61.38C235.163 61.608 235.145 61.848 235.121 62.1C235.337 62.088 235.553 62.076 235.769 62.064C235.985 62.052 236.183 62.046 236.363 62.046V63H233.501C233.477 62.832 233.453 62.676 233.429 62.532C233.417 62.388 233.405 62.244 233.393 62.1C233.033 62.484 232.619 62.778 232.151 62.982C231.683 63.186 231.173 63.288 230.621 63.288ZM231.359 62.154C231.731 62.154 232.091 62.052 232.439 61.848C232.799 61.644 233.093 61.386 233.321 61.074C233.321 60.918 233.321 60.756 233.321 60.588C233.321 60.42 233.321 60.24 233.321 60.048V55.152C233.093 54.984 232.823 54.858 232.511 54.774C232.211 54.678 231.899 54.63 231.575 54.63C230.987 54.63 230.489 54.804 230.081 55.152C229.685 55.488 229.391 55.95 229.199 56.538C229.007 57.126 228.917 57.798 228.929 58.554C228.953 59.202 229.055 59.802 229.235 60.354C229.415 60.906 229.679 61.344 230.027 61.668C230.387 61.992 230.831 62.154 231.359 62.154ZM237.635 62.244C237.995 62.244 238.247 62.16 238.391 61.992C238.535 61.824 238.619 61.59 238.643 61.29C238.679 60.99 238.697 60.642 238.697 60.246V56.52C238.697 56.316 238.703 56.112 238.715 55.908C238.727 55.692 238.745 55.464 238.769 55.224C238.565 55.236 238.349 55.248 238.121 55.26C237.893 55.26 237.683 55.266 237.491 55.278V54.324C238.031 54.324 238.457 54.3 238.769 54.252C239.093 54.192 239.339 54.126 239.507 54.054C239.687 53.982 239.819 53.904 239.903 53.82H240.587V60.768C240.587 60.984 240.581 61.206 240.569 61.434C240.557 61.65 240.539 61.872 240.515 62.1C240.707 62.088 240.899 62.082 241.091 62.082C241.295 62.07 241.481 62.058 241.649 62.046V63H237.635V62.244ZM239.561 52.164C239.249 52.164 238.985 52.05 238.769 51.822C238.553 51.582 238.445 51.294 238.445 50.958C238.445 50.622 238.559 50.34 238.787 50.112C239.015 49.872 239.273 49.752 239.561 49.752C239.873 49.752 240.131 49.872 240.335 50.112C240.551 50.34 240.659 50.622 240.659 50.958C240.659 51.294 240.551 51.582 240.335 51.822C240.131 52.05 239.873 52.164 239.561 52.164ZM248.272 63C248.248 62.808 248.23 62.64 248.218 62.496C248.206 62.352 248.188 62.202 248.164 62.046C247.756 62.454 247.318 62.766 246.85 62.982C246.382 63.186 245.896 63.288 245.392 63.288C244.528 63.288 243.874 63.078 243.43 62.658C242.998 62.226 242.781 61.692 242.781 61.056C242.781 60.504 242.944 60.024 243.268 59.616C243.592 59.208 244.018 58.878 244.546 58.626C245.074 58.362 245.65 58.17 246.274 58.05C246.898 57.918 247.51 57.852 248.11 57.852V56.79C248.11 56.406 248.074 56.052 248.002 55.728C247.93 55.392 247.78 55.122 247.552 54.918C247.336 54.702 246.994 54.594 246.526 54.594C246.214 54.582 245.902 54.642 245.59 54.774C245.278 54.894 245.038 55.098 244.87 55.386C244.966 55.482 245.026 55.596 245.05 55.728C245.086 55.848 245.104 55.962 245.104 56.07C245.104 56.238 245.032 56.43 244.888 56.646C244.744 56.85 244.498 56.946 244.15 56.934C243.862 56.934 243.64 56.838 243.484 56.646C243.34 56.442 243.268 56.208 243.268 55.944C243.268 55.512 243.424 55.128 243.736 54.792C244.06 54.456 244.498 54.192 245.05 54C245.602 53.808 246.22 53.712 246.904 53.712C247.936 53.712 248.704 53.982 249.208 54.522C249.724 55.062 249.982 55.914 249.982 57.078C249.982 57.51 249.982 57.924 249.982 58.32C249.982 58.716 249.976 59.112 249.964 59.508C249.964 59.904 249.964 60.324 249.964 60.768C249.964 60.948 249.958 61.152 249.946 61.38C249.934 61.608 249.916 61.848 249.892 62.1C250.096 62.088 250.306 62.076 250.522 62.064C250.738 62.052 250.942 62.046 251.134 62.046V63H248.272ZM248.11 58.68C247.726 58.704 247.33 58.758 246.922 58.842C246.526 58.926 246.166 59.052 245.842 59.22C245.518 59.388 245.254 59.604 245.05 59.868C244.858 60.132 244.762 60.45 244.762 60.822C244.786 61.23 244.918 61.53 245.158 61.722C245.41 61.914 245.704 62.01 246.04 62.01C246.46 62.01 246.832 61.932 247.156 61.776C247.48 61.608 247.798 61.38 248.11 61.092C248.098 60.96 248.092 60.828 248.092 60.696C248.092 60.552 248.092 60.402 248.092 60.246C248.092 60.138 248.092 59.94 248.092 59.652C248.104 59.352 248.11 59.028 248.11 58.68Z" fill="#FFF9C0"/>
<path d="M0.9 99.812C1.176 99.8 1.404 99.764 1.584 99.704C1.776 99.644 1.92 99.506 2.016 99.29C2.124 99.074 2.178 98.726 2.178 98.246V91.352C2.178 91.028 2.184 90.716 2.196 90.416C2.22 90.116 2.238 89.888 2.25 89.732C2.058 89.744 1.818 89.756 1.53 89.768C1.242 89.768 1.032 89.774 0.9 89.786V88.4C1.752 88.388 2.604 88.382 3.456 88.382C4.308 88.382 5.16 88.376 6.012 88.364C7.068 88.352 7.986 88.49 8.766 88.778C9.558 89.066 10.164 89.51 10.584 90.11C11.016 90.71 11.22 91.49 11.196 92.45C11.184 92.93 11.07 93.404 10.854 93.872C10.638 94.328 10.32 94.748 9.9 95.132C9.48 95.504 8.952 95.81 8.316 96.05C7.68 96.29 6.936 96.422 6.084 96.446C5.82 96.458 5.586 96.464 5.382 96.464C5.19 96.464 4.992 96.458 4.788 96.446V98.03C4.788 98.366 4.782 98.684 4.77 98.984C4.758 99.284 4.74 99.512 4.716 99.668C4.848 99.656 5.016 99.65 5.22 99.65C5.424 99.638 5.622 99.632 5.814 99.632C6.018 99.62 6.162 99.614 6.246 99.614V101H0.9V99.812ZM4.788 95.096C4.92 95.108 5.052 95.12 5.184 95.132C5.316 95.144 5.454 95.15 5.598 95.15C6.258 95.15 6.792 95.042 7.2 94.826C7.62 94.598 7.926 94.274 8.118 93.854C8.31 93.422 8.406 92.9 8.406 92.288C8.406 91.688 8.322 91.208 8.154 90.848C7.998 90.488 7.794 90.224 7.542 90.056C7.29 89.876 7.026 89.762 6.75 89.714C6.474 89.654 6.222 89.624 5.994 89.624C5.742 89.624 5.526 89.654 5.346 89.714C5.166 89.774 5.028 89.906 4.932 90.11C4.836 90.314 4.788 90.626 4.788 91.046V95.096ZM12.2341 99.83C12.5701 99.83 12.8101 99.764 12.9541 99.632C13.0981 99.5 13.1881 99.314 13.2241 99.074C13.2721 98.822 13.2961 98.54 13.2961 98.228V95.204C13.2961 94.988 13.3021 94.748 13.3141 94.484C13.3261 94.208 13.3441 93.938 13.3681 93.674C13.1761 93.686 12.9481 93.698 12.6841 93.71C12.4321 93.71 12.2401 93.716 12.1081 93.728V92.36H12.8281C13.2961 92.36 13.7221 92.3 14.1061 92.18C14.5021 92.06 14.7601 91.94 14.8801 91.82H15.7621C15.7861 91.94 15.8041 92.168 15.8161 92.504C15.8281 92.828 15.8341 93.116 15.8341 93.368C16.1581 92.972 16.4641 92.654 16.7521 92.414C17.0401 92.174 17.3221 92 17.5981 91.892C17.8861 91.772 18.1741 91.712 18.4621 91.712C18.8821 91.712 19.2481 91.832 19.5601 92.072C19.8721 92.3 20.0281 92.678 20.0281 93.206C20.0281 93.386 19.9861 93.578 19.9021 93.782C19.8181 93.974 19.6861 94.136 19.5061 94.268C19.3261 94.4 19.0801 94.466 18.7681 94.466C18.5281 94.466 18.2821 94.394 18.0301 94.25C17.7781 94.106 17.6341 93.83 17.5981 93.422C17.3581 93.422 17.1181 93.524 16.8781 93.728C16.6381 93.92 16.4221 94.154 16.2301 94.43C16.0501 94.694 15.9241 94.94 15.8521 95.168V98.102C15.8521 98.27 15.8461 98.51 15.8341 98.822C15.8221 99.122 15.8041 99.41 15.7801 99.686C15.9721 99.662 16.1821 99.65 16.4101 99.65C16.6501 99.638 16.8301 99.632 16.9501 99.632V101H12.2341V99.83ZM20.8825 99.83C21.2185 99.83 21.4585 99.764 21.6025 99.632C21.7465 99.5 21.8365 99.314 21.8725 99.074C21.9205 98.822 21.9445 98.54 21.9445 98.228V95.24C21.9445 95.024 21.9505 94.778 21.9625 94.502C21.9745 94.214 21.9925 93.938 22.0165 93.674C21.8245 93.686 21.5965 93.698 21.3325 93.71C21.0805 93.71 20.8885 93.716 20.7565 93.728V92.36C21.3085 92.36 21.7765 92.33 22.1605 92.27C22.5445 92.21 22.8445 92.138 23.0605 92.054C23.2885 91.97 23.4445 91.892 23.5285 91.82H24.5005V98.102C24.5005 98.27 24.4945 98.51 24.4825 98.822C24.4705 99.122 24.4525 99.41 24.4285 99.686C24.6205 99.662 24.8305 99.65 25.0585 99.65C25.2985 99.638 25.4785 99.632 25.5985 99.632V101H20.8825V99.83ZM23.1325 90.398C22.7245 90.398 22.3885 90.254 22.1245 89.966C21.8605 89.678 21.7285 89.33 21.7285 88.922C21.7285 88.514 21.8665 88.166 22.1425 87.878C22.4185 87.59 22.7425 87.446 23.1145 87.446C23.4985 87.446 23.8165 87.59 24.0685 87.878C24.3325 88.166 24.4645 88.514 24.4645 88.922C24.4645 89.33 24.3445 89.678 24.1045 89.966C23.8645 90.254 23.5405 90.398 23.1325 90.398ZM31.0192 101.288C30.2152 101.288 29.4772 101.108 28.8052 100.748C28.1332 100.388 27.5932 99.866 27.1852 99.182C26.7892 98.498 26.5912 97.67 26.5912 96.698C26.5912 96.014 26.7052 95.372 26.9332 94.772C27.1612 94.172 27.4792 93.644 27.8872 93.188C28.3072 92.732 28.7992 92.372 29.3632 92.108C29.9392 91.844 30.5752 91.712 31.2712 91.712C32.0392 91.712 32.6752 91.832 33.1792 92.072C33.6952 92.3 34.0792 92.606 34.3312 92.99C34.5952 93.362 34.7272 93.758 34.7272 94.178C34.7272 94.526 34.6192 94.838 34.4032 95.114C34.1992 95.378 33.9052 95.516 33.5212 95.528C33.0652 95.54 32.7472 95.414 32.5672 95.15C32.3872 94.874 32.2972 94.61 32.2972 94.358C32.2972 94.25 32.3152 94.124 32.3512 93.98C32.3872 93.824 32.4412 93.686 32.5132 93.566C32.4292 93.386 32.3032 93.254 32.1352 93.17C31.9672 93.086 31.7932 93.032 31.6132 93.008C31.4452 92.972 31.3072 92.96 31.1992 92.972C30.6232 93.008 30.1492 93.296 29.7772 93.836C29.4052 94.376 29.2192 95.156 29.2192 96.176C29.2192 96.776 29.2912 97.34 29.4352 97.868C29.5912 98.384 29.8432 98.81 30.1912 99.146C30.5392 99.482 31.0072 99.662 31.5952 99.686C32.0992 99.698 32.5912 99.578 33.0712 99.326C33.5512 99.074 33.9592 98.732 34.2952 98.3L35.1232 99.11C34.6912 99.71 34.2412 100.166 33.7732 100.478C33.3052 100.79 32.8372 101 32.3692 101.108C31.9132 101.228 31.4632 101.288 31.0192 101.288ZM40.3536 101.288C39.4776 101.288 38.7036 101.096 38.0316 100.712C37.3596 100.316 36.8376 99.764 36.4656 99.056C36.0936 98.336 35.9076 97.49 35.9076 96.518C35.9076 95.678 36.0936 94.892 36.4656 94.16C36.8376 93.428 37.3596 92.84 38.0316 92.396C38.7156 91.94 39.5076 91.712 40.4076 91.712C40.9116 91.712 41.4036 91.784 41.8836 91.928C42.3636 92.06 42.7956 92.294 43.1796 92.63C43.5756 92.966 43.8876 93.422 44.1156 93.998C44.3556 94.574 44.4696 95.294 44.4576 96.158L38.5536 96.266C38.5536 96.914 38.6316 97.496 38.7876 98.012C38.9556 98.528 39.2256 98.936 39.5976 99.236C39.9696 99.536 40.4676 99.686 41.0916 99.686C41.3316 99.686 41.6016 99.644 41.9016 99.56C42.2136 99.476 42.5256 99.338 42.8376 99.146C43.1616 98.942 43.4616 98.672 43.7376 98.336L44.5476 99.092C44.1156 99.704 43.6536 100.172 43.1616 100.496C42.6696 100.808 42.1776 101.018 41.6856 101.126C41.2056 101.234 40.7616 101.288 40.3536 101.288ZM38.6616 95.006H41.9736C41.9616 94.502 41.8896 94.106 41.7576 93.818C41.6376 93.518 41.4696 93.302 41.2536 93.17C41.0376 93.038 40.7856 92.972 40.4976 92.972C39.9696 92.972 39.5556 93.164 39.2556 93.548C38.9556 93.92 38.7576 94.406 38.6616 95.006ZM51.9957 101.288C51.6117 101.288 51.2937 101.15 51.0417 100.874C50.8017 100.598 50.6817 100.268 50.6817 99.884C50.6817 99.5 50.8137 99.17 51.0777 98.894C51.3417 98.618 51.6477 98.48 51.9957 98.48C52.3677 98.48 52.6737 98.618 52.9137 98.894C53.1657 99.17 53.2917 99.5 53.2917 99.884C53.2917 100.268 53.1717 100.598 52.9317 100.874C52.7037 101.15 52.3917 101.288 51.9957 101.288ZM51.9957 94.034C51.6117 94.034 51.2937 93.896 51.0417 93.62C50.8017 93.344 50.6817 93.014 50.6817 92.63C50.6817 92.246 50.8137 91.916 51.0777 91.64C51.3417 91.364 51.6477 91.226 51.9957 91.226C52.3677 91.226 52.6737 91.364 52.9137 91.64C53.1657 91.916 53.2917 92.246 53.2917 92.63C53.2917 93.014 53.1717 93.344 52.9317 93.62C52.7037 93.896 52.3917 94.034 51.9957 94.034Z" fill="#FFBA41"/>
<path d="M64.518 103.754L64.5 101.27C64.104 101.234 63.684 101.144 63.24 101C62.808 100.856 62.424 100.682 62.088 100.478L62.16 101.216H61.044V97.274H61.854C61.95 98.342 62.286 99.128 62.862 99.632C63.45 100.136 64.2 100.388 65.112 100.388C65.796 100.388 66.342 100.19 66.75 99.794C67.17 99.398 67.38 98.894 67.38 98.282C67.38 97.79 67.236 97.382 66.948 97.058C66.672 96.722 66.312 96.428 65.868 96.176C65.424 95.924 64.95 95.678 64.446 95.438C63.846 95.15 63.276 94.832 62.736 94.484C62.196 94.124 61.752 93.698 61.404 93.206C61.068 92.702 60.9 92.084 60.9 91.352C60.9 91.04 60.954 90.704 61.062 90.344C61.182 89.984 61.374 89.636 61.638 89.3C61.902 88.964 62.256 88.688 62.7 88.472C63.156 88.256 63.714 88.136 64.374 88.112V85.988H65.58L65.562 88.166C65.886 88.214 66.198 88.298 66.498 88.418C66.798 88.526 67.092 88.688 67.38 88.904L67.308 88.148H68.388V92.162H67.542C67.482 91.562 67.35 91.022 67.146 90.542C66.954 90.062 66.66 89.684 66.264 89.408C65.868 89.132 65.34 88.994 64.68 88.994C64.236 88.994 63.864 89.084 63.564 89.264C63.264 89.444 63.036 89.684 62.88 89.984C62.724 90.272 62.646 90.59 62.646 90.938C62.646 91.358 62.76 91.724 62.988 92.036C63.216 92.348 63.528 92.636 63.924 92.9C64.332 93.152 64.806 93.41 65.346 93.674C65.802 93.902 66.252 94.142 66.696 94.394C67.152 94.646 67.566 94.928 67.938 95.24C68.322 95.552 68.622 95.924 68.838 96.356C69.066 96.776 69.18 97.274 69.18 97.85C69.18 98.426 69.048 98.96 68.784 99.452C68.532 99.944 68.148 100.352 67.632 100.676C67.116 101 66.468 101.198 65.688 101.27V103.754H64.518ZM70.6709 101C70.6709 100.364 70.7609 99.8 70.9409 99.308C71.1329 98.816 71.3849 98.366 71.6969 97.958C72.0089 97.55 72.3629 97.16 72.7589 96.788C73.1549 96.416 73.5569 96.032 73.9649 95.636C74.7809 94.868 75.3629 94.166 75.7109 93.53C76.0709 92.882 76.2509 92.252 76.2509 91.64C76.2509 91.208 76.1909 90.794 76.0709 90.398C75.9509 89.99 75.7409 89.654 75.4409 89.39C75.1409 89.126 74.7269 89 74.1989 89.012C73.7549 89.012 73.3589 89.12 73.0109 89.336C72.6749 89.54 72.4409 89.798 72.3089 90.11C72.4409 90.23 72.5309 90.368 72.5789 90.524C72.6269 90.68 72.6509 90.824 72.6509 90.956C72.6509 91.064 72.6149 91.196 72.5429 91.352C72.4829 91.496 72.3809 91.622 72.2369 91.73C72.0929 91.838 71.9009 91.892 71.6609 91.892C71.3609 91.88 71.1269 91.772 70.9589 91.568C70.8029 91.352 70.7249 91.094 70.7249 90.794C70.7249 90.542 70.8029 90.26 70.9589 89.948C71.1149 89.636 71.3549 89.342 71.6789 89.066C72.0029 88.79 72.3989 88.562 72.8669 88.382C73.3469 88.202 73.9049 88.112 74.5409 88.112C75.0209 88.112 75.4889 88.172 75.9449 88.292C76.4009 88.4 76.8149 88.586 77.1869 88.85C77.5589 89.102 77.8529 89.438 78.0689 89.858C78.2849 90.278 78.3929 90.8 78.3929 91.424C78.3929 91.724 78.3329 92.048 78.2129 92.396C78.0929 92.732 77.8889 93.098 77.6009 93.494C77.3249 93.89 76.9529 94.322 76.4849 94.79C76.0169 95.258 75.4289 95.78 74.7209 96.356C73.9649 96.98 73.3589 97.568 72.9029 98.12C72.4469 98.66 72.1829 99.11 72.1109 99.47L75.4049 99.56C75.8969 99.572 76.3229 99.566 76.6829 99.542C77.0549 99.518 77.3429 99.422 77.5469 99.254C77.7629 99.074 77.8709 98.768 77.8709 98.336H78.6089L78.4829 101H70.6709ZM85.1633 101.288C84.2513 101.288 83.4893 101.096 82.8773 100.712C82.2653 100.316 81.7853 99.8 81.4373 99.164C81.0893 98.516 80.8373 97.808 80.6813 97.04C80.5373 96.272 80.4653 95.51 80.4653 94.754C80.4653 93.998 80.5553 93.23 80.7353 92.45C80.9273 91.67 81.2153 90.956 81.5993 90.308C81.9833 89.648 82.4753 89.12 83.0753 88.724C83.6753 88.316 84.3953 88.112 85.2353 88.112C86.1113 88.112 86.8433 88.31 87.4313 88.706C88.0313 89.102 88.5113 89.624 88.8713 90.272C89.2313 90.908 89.4893 91.61 89.6453 92.378C89.8013 93.146 89.8793 93.908 89.8793 94.664C89.8793 95.408 89.7893 96.17 89.6093 96.95C89.4293 97.73 89.1473 98.45 88.7633 99.11C88.3913 99.758 87.9053 100.286 87.3053 100.694C86.7173 101.09 86.0033 101.288 85.1633 101.288ZM85.2713 100.388C85.7633 100.388 86.1653 100.238 86.4773 99.938C86.7893 99.638 87.0353 99.23 87.2153 98.714C87.4073 98.198 87.5393 97.622 87.6113 96.986C87.6833 96.35 87.7193 95.702 87.7193 95.042C87.7193 94.31 87.6833 93.59 87.6113 92.882C87.5393 92.162 87.4073 91.508 87.2153 90.92C87.0353 90.332 86.7833 89.864 86.4593 89.516C86.1353 89.168 85.7153 88.994 85.1993 88.994C84.7193 88.994 84.3113 89.144 83.9753 89.444C83.6393 89.744 83.3693 90.152 83.1653 90.668C82.9733 91.184 82.8293 91.766 82.7333 92.414C82.6493 93.05 82.6073 93.704 82.6073 94.376C82.6073 94.88 82.6253 95.408 82.6613 95.96C82.7093 96.512 82.7873 97.052 82.8953 97.58C83.0153 98.108 83.1713 98.582 83.3633 99.002C83.5673 99.422 83.8253 99.758 84.1373 100.01C84.4493 100.262 84.8273 100.388 85.2713 100.388ZM96.4309 101.288C95.5189 101.288 94.7569 101.096 94.1449 100.712C93.5329 100.316 93.0529 99.8 92.7049 99.164C92.3569 98.516 92.1049 97.808 91.9489 97.04C91.8049 96.272 91.7329 95.51 91.7329 94.754C91.7329 93.998 91.8229 93.23 92.0029 92.45C92.1949 91.67 92.4829 90.956 92.8669 90.308C93.2509 89.648 93.7429 89.12 94.3429 88.724C94.9429 88.316 95.6629 88.112 96.5029 88.112C97.3789 88.112 98.1109 88.31 98.6989 88.706C99.2989 89.102 99.7789 89.624 100.139 90.272C100.499 90.908 100.757 91.61 100.913 92.378C101.069 93.146 101.147 93.908 101.147 94.664C101.147 95.408 101.057 96.17 100.877 96.95C100.697 97.73 100.415 98.45 100.031 99.11C99.6589 99.758 99.1729 100.286 98.5729 100.694C97.9849 101.09 97.2709 101.288 96.4309 101.288ZM96.5389 100.388C97.0309 100.388 97.4329 100.238 97.7449 99.938C98.0569 99.638 98.3029 99.23 98.4829 98.714C98.6749 98.198 98.8069 97.622 98.8789 96.986C98.9509 96.35 98.9869 95.702 98.9869 95.042C98.9869 94.31 98.9509 93.59 98.8789 92.882C98.8069 92.162 98.6749 91.508 98.4829 90.92C98.3029 90.332 98.0509 89.864 97.7269 89.516C97.4029 89.168 96.9829 88.994 96.4669 88.994C95.9869 88.994 95.5789 89.144 95.2429 89.444C94.9069 89.744 94.6369 90.152 94.4329 90.668C94.2409 91.184 94.0969 91.766 94.0009 92.414C93.9169 93.05 93.8749 93.704 93.8749 94.376C93.8749 94.88 93.8929 95.408 93.9289 95.96C93.9769 96.512 94.0549 97.052 94.1629 97.58C94.2829 98.108 94.4389 98.582 94.6309 99.002C94.8349 99.422 95.0929 99.758 95.4049 100.01C95.7169 100.262 96.0949 100.388 96.5389 100.388Z" fill="#FFF9C0"/>
</svg>
