<svg width="530" height="65" viewBox="0 0 530 65" fill="none" xmlns="http://www.w3.org/2000/svg">
<path d="M39.99 39V38.406C40.446 38.382 40.758 38.28 40.926 38.1C41.094 37.908 41.184 37.65 41.196 37.326C41.22 36.99 41.232 36.612 41.232 36.192V28.416C41.232 28.176 41.238 27.948 41.25 27.732C41.262 27.504 41.274 27.3 41.286 27.12C41.07 27.132 40.854 27.144 40.638 27.156C40.422 27.168 40.206 27.18 39.99 27.192V26.4H44.04V26.994C43.596 27.006 43.284 27.108 43.104 27.3C42.936 27.492 42.84 27.75 42.816 28.074C42.804 28.398 42.798 28.776 42.798 29.208V32.196H49.242V28.416C49.242 28.176 49.248 27.948 49.26 27.732C49.272 27.504 49.284 27.3 49.296 27.12C49.08 27.132 48.864 27.144 48.648 27.156C48.432 27.168 48.216 27.18 48 27.192V26.4H52.05V26.994C51.606 27.006 51.294 27.108 51.114 27.3C50.946 27.492 50.85 27.75 50.826 28.074C50.814 28.398 50.808 28.776 50.808 29.208V36.858C50.808 37.182 50.802 37.464 50.79 37.704C50.79 37.932 50.778 38.124 50.754 38.28C50.97 38.268 51.186 38.256 51.402 38.244C51.618 38.232 51.834 38.22 52.05 38.208V39H48V38.406C48.456 38.382 48.768 38.28 48.936 38.1C49.104 37.908 49.194 37.65 49.206 37.326C49.23 36.99 49.242 36.612 49.242 36.192V32.916L42.798 32.988V36.858C42.798 37.182 42.792 37.464 42.78 37.704C42.78 37.932 42.768 38.124 42.744 38.28C42.96 38.268 43.176 38.256 43.392 38.244C43.608 38.232 43.824 38.22 44.04 38.208V39H39.99ZM57.8966 39.288C57.0566 39.288 56.2946 39.096 55.6106 38.712C54.9266 38.316 54.3806 37.776 53.9726 37.092C53.5766 36.396 53.3786 35.604 53.3786 34.716C53.3786 33.768 53.5766 32.916 53.9726 32.16C54.3686 31.404 54.9086 30.81 55.5926 30.378C56.2766 29.934 57.0446 29.712 57.8966 29.712C58.7366 29.712 59.4986 29.916 60.1826 30.324C60.8666 30.72 61.4126 31.26 61.8206 31.944C62.2286 32.628 62.4326 33.408 62.4326 34.284C62.4326 35.208 62.2286 36.054 61.8206 36.822C61.4246 37.578 60.8846 38.178 60.2006 38.622C59.5166 39.066 58.7486 39.288 57.8966 39.288ZM58.0406 38.568C58.6766 38.568 59.1806 38.388 59.5526 38.028C59.9246 37.668 60.1886 37.2 60.3446 36.624C60.5126 36.048 60.5966 35.442 60.5966 34.806C60.5966 34.266 60.5426 33.738 60.4346 33.222C60.3386 32.694 60.1826 32.22 59.9666 31.8C59.7506 31.368 59.4686 31.026 59.1206 30.774C58.7846 30.522 58.3766 30.396 57.8966 30.396C57.2726 30.396 56.7626 30.576 56.3666 30.936C55.9706 31.296 55.6766 31.764 55.4846 32.34C55.3046 32.916 55.2146 33.534 55.2146 34.194C55.2146 34.938 55.3166 35.646 55.5206 36.318C55.7246 36.978 56.0366 37.518 56.4566 37.938C56.8766 38.358 57.4046 38.568 58.0406 38.568ZM63.9619 39V38.46C64.3339 38.46 64.5919 38.37 64.7359 38.19C64.8799 37.998 64.9639 37.74 64.9879 37.416C65.0119 37.08 65.0239 36.696 65.0239 36.264V32.16C65.0239 31.968 65.0239 31.776 65.0239 31.584C65.0359 31.392 65.0599 31.194 65.0959 30.99C64.8799 31.002 64.6639 31.014 64.4479 31.026C64.2439 31.038 64.0339 31.05 63.8179 31.062V30.306C64.3459 30.306 64.7419 30.282 65.0059 30.234C65.2819 30.186 65.4859 30.126 65.6179 30.054C65.7499 29.982 65.8579 29.904 65.9419 29.82H66.4639C66.4879 29.94 66.4999 30.078 66.4999 30.234C66.5119 30.39 66.5239 30.57 66.5359 30.774C66.8959 30.462 67.3099 30.21 67.7779 30.018C68.2459 29.814 68.7139 29.712 69.1819 29.712C69.7819 29.712 70.2859 29.82 70.6939 30.036C71.1019 30.252 71.4199 30.546 71.6479 30.918C72.0559 30.582 72.5239 30.3 73.0519 30.072C73.5919 29.832 74.1199 29.712 74.6359 29.712C75.6799 29.712 76.4479 30.03 76.9399 30.666C77.4319 31.29 77.6659 32.316 77.6419 33.744L77.6239 37.092C77.6239 37.332 77.6179 37.548 77.6059 37.74C77.6059 37.92 77.5879 38.112 77.5519 38.316C77.7439 38.304 77.9299 38.298 78.1099 38.298C78.3019 38.286 78.4939 38.274 78.6859 38.262V39H75.0139V38.46C75.3859 38.46 75.6439 38.37 75.7879 38.19C75.9319 37.998 76.0159 37.74 76.0399 37.416C76.0639 37.08 76.0759 36.696 76.0759 36.264V33.744C76.0759 32.712 75.9079 31.938 75.5719 31.422C75.2479 30.906 74.7319 30.654 74.0239 30.666C73.6519 30.666 73.2799 30.75 72.9079 30.918C72.5359 31.086 72.2119 31.296 71.9359 31.548C71.9959 31.74 72.0379 31.95 72.0619 32.178C72.0979 32.394 72.1159 32.622 72.1159 32.862C72.1039 33.558 72.0979 34.26 72.0979 34.968C72.0979 35.676 72.0919 36.384 72.0799 37.092C72.0799 37.332 72.0739 37.548 72.0619 37.74C72.0619 37.92 72.0439 38.112 72.0079 38.316C72.1999 38.304 72.3859 38.298 72.5659 38.298C72.7579 38.286 72.9499 38.274 73.1419 38.262V39H69.4699V38.46C69.8419 38.46 70.0939 38.37 70.2259 38.19C70.3699 37.998 70.4539 37.74 70.4779 37.416C70.5139 37.08 70.5319 36.696 70.5319 36.264L70.5499 33.744C70.5619 32.712 70.4119 31.932 70.0999 31.404C69.7879 30.876 69.2779 30.618 68.5699 30.63C68.1979 30.63 67.8319 30.714 67.4719 30.882C67.1119 31.038 66.8059 31.242 66.5539 31.494C66.5539 31.638 66.5539 31.794 66.5539 31.962C66.5659 32.118 66.5719 32.286 66.5719 32.466V37.092C66.5719 37.332 66.5659 37.548 66.5539 37.74C66.5539 37.92 66.5359 38.112 66.4999 38.316C66.6919 38.304 66.8779 38.298 67.0579 38.298C67.2499 38.286 67.4419 38.274 67.6339 38.262V39H63.9619ZM84.4019 39.288C83.5739 39.288 82.8239 39.096 82.1519 38.712C81.4919 38.316 80.9699 37.764 80.5859 37.056C80.2019 36.336 80.0099 35.49 80.0099 34.518C80.0099 33.678 80.1959 32.892 80.5679 32.16C80.9519 31.428 81.4859 30.84 82.1699 30.396C82.8539 29.94 83.6459 29.712 84.5459 29.712C85.0499 29.712 85.5179 29.796 85.9499 29.964C86.3939 30.12 86.7839 30.366 87.1199 30.702C87.4559 31.026 87.7199 31.44 87.9119 31.944C88.1039 32.436 88.1999 33.018 88.1999 33.69L81.8639 33.798C81.8639 34.71 81.9599 35.514 82.1519 36.21C82.3559 36.894 82.6799 37.428 83.1239 37.812C83.5679 38.184 84.1379 38.37 84.8339 38.37C85.2059 38.37 85.5839 38.304 85.9679 38.172C86.3639 38.04 86.7299 37.86 87.0659 37.632C87.4019 37.404 87.6719 37.152 87.8759 36.876L88.3079 37.236C87.9839 37.74 87.5939 38.142 87.1379 38.442C86.6819 38.742 86.2139 38.958 85.7339 39.09C85.2539 39.222 84.8099 39.288 84.4019 39.288ZM81.9179 33.042H86.5079C86.5079 32.61 86.4419 32.196 86.3099 31.8C86.1899 31.392 85.9859 31.062 85.6979 30.81C85.4099 30.546 85.0319 30.414 84.5639 30.414C83.8679 30.414 83.2859 30.624 82.8179 31.044C82.3619 31.452 82.0619 32.118 81.9179 33.042Z" fill="#FFC24B"/>
<path d="M42.4 48.0577C42.4619 48.022 42.5381 48.022 42.6 48.0577L44.1321 48.9423C44.1939 48.978 44.2321 49.044 44.2321 49.1155V50.8845C44.2321 50.956 44.1939 51.022 44.1321 51.0577L42.6 51.9423C42.5381 51.978 42.4619 51.978 42.4 51.9423L40.8679 51.0577C40.8061 51.022 40.7679 50.956 40.7679 50.8845V49.1155C40.7679 49.044 40.8061 48.978 40.8679 48.9423L42.4 48.0577Z" fill="url(#paint0_linear_0_1555)"/>
<path d="M47.5 50L88.5 50" stroke="url(#paint1_linear_0_1555)" stroke-linecap="round"/>
<path d="M119.892 39V38.406C120.252 38.406 120.528 38.31 120.72 38.118C120.912 37.926 121.068 37.662 121.188 37.326C121.32 36.99 121.47 36.6 121.638 36.156L125.346 26.058H125.778L129.792 36.3C129.888 36.552 129.996 36.876 130.116 37.272C130.236 37.668 130.284 38.004 130.26 38.28C130.464 38.268 130.668 38.256 130.872 38.244C131.076 38.232 131.28 38.22 131.484 38.208V39H127.362V38.406C127.818 38.394 128.118 38.292 128.262 38.1C128.406 37.908 128.46 37.68 128.424 37.416C128.388 37.152 128.328 36.912 128.244 36.696L127.614 35.004L122.934 35.112L122.304 37.038C122.22 37.326 122.142 37.554 122.07 37.722C122.01 37.89 121.938 38.076 121.854 38.28C122.094 38.268 122.328 38.256 122.556 38.244C122.796 38.232 123.03 38.22 123.258 38.208V39H119.892ZM123.204 34.338H127.362L126.084 30.9C125.952 30.528 125.814 30.162 125.67 29.802C125.538 29.43 125.406 29.058 125.274 28.686H125.238C125.118 29.022 124.992 29.358 124.86 29.694C124.74 30.03 124.614 30.372 124.482 30.72L123.204 34.338ZM132.636 27.75C132.636 27.558 132.636 27.378 132.636 27.21C132.648 27.03 132.666 26.82 132.69 26.58C132.474 26.592 132.258 26.604 132.042 26.616C131.838 26.628 131.628 26.64 131.412 26.652V25.896C131.94 25.896 132.348 25.872 132.636 25.824C132.936 25.776 133.158 25.716 133.302 25.644C133.458 25.572 133.578 25.494 133.662 25.41H134.184V30.774C134.52 30.438 134.916 30.18 135.372 30C135.84 29.808 136.35 29.712 136.902 29.712C137.67 29.712 138.36 29.898 138.972 30.27C139.596 30.642 140.088 31.17 140.448 31.854C140.808 32.538 140.988 33.348 140.988 34.284C140.988 35.304 140.766 36.192 140.322 36.948C139.878 37.692 139.302 38.268 138.594 38.676C137.886 39.084 137.124 39.288 136.308 39.288C135.9 39.288 135.45 39.21 134.958 39.054C134.478 38.91 134.046 38.622 133.662 38.19L133.23 39H132.6L132.636 27.75ZM134.184 36.174C134.184 36.81 134.286 37.302 134.49 37.65C134.694 37.986 134.958 38.22 135.282 38.352C135.606 38.484 135.948 38.55 136.308 38.55C136.884 38.55 137.382 38.388 137.802 38.064C138.222 37.74 138.546 37.296 138.774 36.732C139.014 36.156 139.134 35.49 139.134 34.734C139.134 33.918 139.032 33.204 138.828 32.592C138.624 31.968 138.318 31.482 137.91 31.134C137.502 30.774 136.986 30.594 136.362 30.594C135.966 30.594 135.57 30.69 135.174 30.882C134.79 31.062 134.46 31.308 134.184 31.62V36.174ZM147 39.288C146.16 39.288 145.398 39.096 144.714 38.712C144.03 38.316 143.484 37.776 143.076 37.092C142.68 36.396 142.482 35.604 142.482 34.716C142.482 33.768 142.68 32.916 143.076 32.16C143.472 31.404 144.012 30.81 144.696 30.378C145.38 29.934 146.148 29.712 147 29.712C147.84 29.712 148.602 29.916 149.286 30.324C149.97 30.72 150.516 31.26 150.924 31.944C151.332 32.628 151.536 33.408 151.536 34.284C151.536 35.208 151.332 36.054 150.924 36.822C150.528 37.578 149.988 38.178 149.304 38.622C148.62 39.066 147.852 39.288 147 39.288ZM147.144 38.568C147.78 38.568 148.284 38.388 148.656 38.028C149.028 37.668 149.292 37.2 149.448 36.624C149.616 36.048 149.7 35.442 149.7 34.806C149.7 34.266 149.646 33.738 149.538 33.222C149.442 32.694 149.286 32.22 149.07 31.8C148.854 31.368 148.572 31.026 148.224 30.774C147.888 30.522 147.48 30.396 147 30.396C146.376 30.396 145.866 30.576 145.47 30.936C145.074 31.296 144.78 31.764 144.588 32.34C144.408 32.916 144.318 33.534 144.318 34.194C144.318 34.938 144.42 35.646 144.624 36.318C144.828 36.978 145.14 37.518 145.56 37.938C145.98 38.358 146.508 38.568 147.144 38.568ZM156.863 39.288C156.215 39.288 155.669 39.168 155.225 38.928C154.793 38.688 154.463 38.28 154.235 37.704C154.019 37.128 153.911 36.348 153.911 35.364V32.16C153.911 31.968 153.911 31.776 153.911 31.584C153.923 31.392 153.947 31.194 153.983 30.99C153.779 31.002 153.569 31.014 153.353 31.026C153.149 31.026 152.945 31.032 152.741 31.044V30.306H153.299C153.815 30.306 154.187 30.258 154.415 30.162C154.655 30.054 154.841 29.94 154.973 29.82H155.495V35.31C155.495 36.342 155.639 37.116 155.927 37.632C156.227 38.136 156.731 38.382 157.439 38.37C157.895 38.358 158.327 38.22 158.735 37.956C159.155 37.68 159.491 37.356 159.743 36.984V32.358C159.743 32.07 159.749 31.824 159.761 31.62C159.773 31.404 159.797 31.194 159.833 30.99C159.617 31.002 159.401 31.014 159.185 31.026C158.969 31.026 158.753 31.032 158.537 31.044V30.306H159.095C159.611 30.306 159.983 30.258 160.211 30.162C160.451 30.054 160.637 29.94 160.769 29.82H161.291L161.273 36.624C161.273 36.816 161.267 37.086 161.255 37.434C161.243 37.782 161.225 38.076 161.201 38.316C161.417 38.304 161.633 38.292 161.849 38.28C162.065 38.268 162.281 38.256 162.497 38.244V39H159.923C159.887 38.796 159.857 38.604 159.833 38.424C159.821 38.244 159.809 38.076 159.797 37.92C159.425 38.292 158.975 38.616 158.447 38.892C157.919 39.156 157.391 39.288 156.863 39.288ZM167.19 39.288C166.914 39.288 166.632 39.246 166.344 39.162C166.056 39.09 165.786 38.94 165.534 38.712C165.294 38.484 165.102 38.154 164.958 37.722C164.814 37.278 164.742 36.696 164.742 35.976L164.778 30.756L163.392 30.774V30C163.704 29.988 164.022 29.874 164.346 29.658C164.67 29.43 164.958 29.124 165.21 28.74C165.474 28.356 165.654 27.936 165.75 27.48H166.362V30H169.386V30.702L166.362 30.738L166.326 35.742C166.326 36.282 166.368 36.744 166.452 37.128C166.548 37.5 166.698 37.782 166.902 37.974C167.106 38.166 167.37 38.262 167.694 38.262C168.03 38.262 168.342 38.166 168.63 37.974C168.93 37.782 169.194 37.518 169.422 37.182L169.908 37.578C169.644 37.974 169.38 38.286 169.116 38.514C168.864 38.742 168.618 38.91 168.378 39.018C168.138 39.138 167.916 39.21 167.712 39.234C167.508 39.27 167.334 39.288 167.19 39.288ZM179.293 26.994C178.897 26.994 178.609 27.078 178.429 27.246C178.261 27.414 178.159 27.612 178.123 27.84C178.087 28.056 178.069 28.248 178.069 28.416V32.952C178.069 33.624 178.111 34.278 178.195 34.914C178.291 35.538 178.465 36.102 178.717 36.606C178.969 37.11 179.341 37.512 179.833 37.812C180.337 38.112 180.991 38.262 181.795 38.262C182.659 38.262 183.361 38.058 183.901 37.65C184.453 37.242 184.855 36.678 185.107 35.958C185.371 35.238 185.509 34.41 185.521 33.474L185.575 28.416C185.575 28.176 185.581 27.948 185.593 27.732C185.605 27.504 185.617 27.3 185.629 27.12C185.413 27.132 185.197 27.144 184.981 27.156C184.777 27.168 184.567 27.18 184.351 27.192V26.4H187.699V26.994C187.243 27.006 186.925 27.108 186.745 27.3C186.577 27.492 186.481 27.75 186.457 28.074C186.445 28.398 186.439 28.776 186.439 29.208L186.403 33.384C186.403 34.164 186.319 34.908 186.151 35.616C185.983 36.324 185.707 36.954 185.323 37.506C184.951 38.058 184.453 38.496 183.829 38.82C183.217 39.132 182.461 39.288 181.561 39.288C180.601 39.288 179.791 39.162 179.131 38.91C178.483 38.658 177.961 38.268 177.565 37.74C177.181 37.212 176.905 36.546 176.737 35.742C176.569 34.938 176.485 33.978 176.485 32.862V29.208C176.485 28.896 176.491 28.53 176.503 28.11C176.527 27.678 176.545 27.348 176.557 27.12C176.341 27.132 176.125 27.144 175.909 27.156C175.693 27.156 175.477 27.162 175.261 27.174V26.4H179.293V26.994ZM192.597 39.288C191.997 39.288 191.463 39.204 190.995 39.036C190.527 38.88 190.143 38.7 189.843 38.496L189.915 39.126H189.159L189.051 36.03H189.609C189.633 36.522 189.771 36.966 190.023 37.362C190.275 37.746 190.599 38.046 190.995 38.262C191.391 38.478 191.817 38.586 192.273 38.586C192.585 38.586 192.891 38.538 193.191 38.442C193.491 38.334 193.743 38.178 193.947 37.974C194.151 37.758 194.253 37.488 194.253 37.164C194.253 36.828 194.151 36.552 193.947 36.336C193.755 36.108 193.497 35.91 193.173 35.742C192.849 35.574 192.501 35.418 192.129 35.274C191.769 35.13 191.409 34.98 191.049 34.824C190.689 34.668 190.353 34.482 190.041 34.266C189.741 34.05 189.501 33.786 189.321 33.474C189.141 33.162 189.051 32.778 189.051 32.322C189.051 32.07 189.099 31.794 189.195 31.494C189.291 31.194 189.453 30.912 189.681 30.648C189.909 30.372 190.221 30.15 190.617 29.982C191.013 29.802 191.517 29.712 192.129 29.712C192.453 29.712 192.813 29.766 193.209 29.874C193.605 29.982 193.989 30.186 194.361 30.486L194.325 29.802H195.081V32.952H194.505C194.481 32.532 194.385 32.13 194.217 31.746C194.049 31.35 193.803 31.026 193.479 30.774C193.155 30.51 192.735 30.378 192.219 30.378C191.667 30.378 191.235 30.516 190.923 30.792C190.611 31.068 190.455 31.386 190.455 31.746C190.455 32.118 190.569 32.43 190.797 32.682C191.037 32.922 191.343 33.132 191.715 33.312C192.087 33.492 192.483 33.666 192.903 33.834C193.359 34.026 193.803 34.236 194.235 34.464C194.667 34.692 195.021 34.98 195.297 35.328C195.573 35.664 195.711 36.102 195.711 36.642C195.711 37.242 195.555 37.74 195.243 38.136C194.943 38.532 194.553 38.82 194.073 39C193.605 39.192 193.113 39.288 192.597 39.288Z" fill="#FFC24B"/>
<path d="M227.99 38.406C228.446 38.382 228.758 38.28 228.926 38.1C229.094 37.908 229.184 37.65 229.196 37.326C229.22 36.99 229.232 36.612 229.232 36.192V28.416C229.232 28.176 229.238 27.948 229.25 27.732C229.262 27.504 229.274 27.3 229.286 27.12C229.07 27.132 228.854 27.144 228.638 27.156C228.422 27.168 228.206 27.18 227.99 27.192V26.4C228.626 26.388 229.28 26.382 229.952 26.382C230.624 26.37 231.308 26.364 232.004 26.364C233.168 26.364 234.146 26.496 234.938 26.76C235.73 27.024 236.336 27.414 236.756 27.93C237.176 28.446 237.404 29.088 237.44 29.856C237.464 30.324 237.392 30.816 237.224 31.332C237.068 31.836 236.768 32.316 236.324 32.772C235.892 33.216 235.28 33.576 234.488 33.852C233.696 34.128 232.682 34.266 231.446 34.266C231.398 34.266 231.308 34.266 231.176 34.266C231.044 34.266 230.918 34.26 230.798 34.248V36.858C230.798 37.182 230.792 37.464 230.78 37.704C230.78 37.932 230.768 38.124 230.744 38.28C230.936 38.268 231.122 38.256 231.302 38.244C231.482 38.232 231.662 38.226 231.842 38.226C232.034 38.214 232.22 38.202 232.4 38.19V39H227.99V38.406ZM230.798 33.51C231.026 33.534 231.218 33.552 231.374 33.564C231.542 33.564 231.74 33.564 231.968 33.564C232.652 33.564 233.276 33.432 233.84 33.168C234.404 32.892 234.854 32.502 235.19 31.998C235.526 31.494 235.694 30.894 235.694 30.198C235.694 29.634 235.604 29.154 235.424 28.758C235.244 28.35 234.986 28.026 234.65 27.786C234.326 27.534 233.936 27.354 233.48 27.246C233.024 27.126 232.52 27.066 231.968 27.066C231.548 27.066 231.254 27.156 231.086 27.336C230.93 27.516 230.84 27.768 230.816 28.092C230.804 28.404 230.798 28.776 230.798 29.208V33.51ZM238.708 38.46C239.08 38.46 239.338 38.37 239.482 38.19C239.626 37.998 239.71 37.74 239.734 37.416C239.758 37.08 239.77 36.696 239.77 36.264V32.16C239.77 31.968 239.77 31.776 239.77 31.584C239.782 31.392 239.806 31.194 239.842 30.99C239.626 31.002 239.41 31.014 239.194 31.026C238.99 31.026 238.78 31.032 238.564 31.044V30.306H239.122C239.638 30.306 239.992 30.258 240.184 30.162C240.388 30.054 240.556 29.94 240.688 29.82H241.21C241.234 30.012 241.252 30.252 241.264 30.54C241.276 30.816 241.288 31.17 241.3 31.602C241.48 31.302 241.726 31.008 242.038 30.72C242.35 30.432 242.698 30.192 243.082 30C243.478 29.808 243.892 29.712 244.324 29.712C244.66 29.712 244.954 29.802 245.206 29.982C245.458 30.162 245.584 30.45 245.584 30.846C245.584 30.942 245.554 31.062 245.494 31.206C245.434 31.338 245.338 31.458 245.206 31.566C245.074 31.662 244.9 31.71 244.684 31.71C244.42 31.698 244.21 31.596 244.054 31.404C243.898 31.2 243.838 30.966 243.874 30.702C243.574 30.69 243.262 30.768 242.938 30.936C242.626 31.104 242.332 31.338 242.056 31.638C241.78 31.926 241.534 32.268 241.318 32.664L241.336 37.092C241.336 37.332 241.33 37.548 241.318 37.74C241.318 37.92 241.3 38.112 241.264 38.316C241.456 38.304 241.642 38.298 241.822 38.298C242.014 38.286 242.206 38.274 242.398 38.262V39H238.708V38.46ZM250.836 39.288C249.996 39.288 249.234 39.096 248.55 38.712C247.866 38.316 247.32 37.776 246.912 37.092C246.516 36.396 246.318 35.604 246.318 34.716C246.318 33.768 246.516 32.916 246.912 32.16C247.308 31.404 247.848 30.81 248.532 30.378C249.216 29.934 249.984 29.712 250.836 29.712C251.676 29.712 252.438 29.916 253.122 30.324C253.806 30.72 254.352 31.26 254.76 31.944C255.168 32.628 255.372 33.408 255.372 34.284C255.372 35.208 255.168 36.054 254.76 36.822C254.364 37.578 253.824 38.178 253.14 38.622C252.456 39.066 251.688 39.288 250.836 39.288ZM250.98 38.568C251.616 38.568 252.12 38.388 252.492 38.028C252.864 37.668 253.128 37.2 253.284 36.624C253.452 36.048 253.536 35.442 253.536 34.806C253.536 34.266 253.482 33.738 253.374 33.222C253.278 32.694 253.122 32.22 252.906 31.8C252.69 31.368 252.408 31.026 252.06 30.774C251.724 30.522 251.316 30.396 250.836 30.396C250.212 30.396 249.702 30.576 249.306 30.936C248.91 31.296 248.616 31.764 248.424 32.34C248.244 32.916 248.154 33.534 248.154 34.194C248.154 34.938 248.256 35.646 248.46 36.318C248.664 36.978 248.976 37.518 249.396 37.938C249.816 38.358 250.344 38.568 250.98 38.568ZM260.753 39.288C260.021 39.288 259.361 39.108 258.773 38.748C258.185 38.376 257.717 37.848 257.369 37.164C257.033 36.48 256.865 35.676 256.865 34.752C256.865 33.768 257.063 32.898 257.459 32.142C257.855 31.386 258.401 30.792 259.097 30.36C259.805 29.928 260.603 29.712 261.491 29.712C261.887 29.712 262.277 29.766 262.661 29.874C263.057 29.97 263.369 30.084 263.597 30.216V27.75C263.597 27.558 263.597 27.378 263.597 27.21C263.609 27.03 263.627 26.82 263.651 26.58C263.435 26.592 263.219 26.604 263.003 26.616C262.799 26.628 262.589 26.64 262.373 26.652V25.896C262.901 25.896 263.309 25.872 263.597 25.824C263.885 25.776 264.101 25.716 264.245 25.644C264.401 25.572 264.521 25.494 264.605 25.41H265.127V37.092C265.127 37.284 265.121 37.476 265.109 37.668C265.097 37.86 265.079 38.076 265.055 38.316C265.271 38.304 265.481 38.292 265.685 38.28C265.901 38.268 266.117 38.256 266.333 38.244V39H263.759C263.723 38.82 263.693 38.658 263.669 38.514C263.657 38.358 263.645 38.208 263.633 38.064C263.297 38.436 262.883 38.736 262.391 38.964C261.899 39.18 261.353 39.288 260.753 39.288ZM261.401 38.406C261.797 38.406 262.193 38.292 262.589 38.064C262.997 37.836 263.333 37.554 263.597 37.218C263.585 37.074 263.579 36.924 263.579 36.768C263.579 36.6 263.579 36.42 263.579 36.228L263.597 31.044C263.309 30.828 262.991 30.672 262.643 30.576C262.307 30.468 261.959 30.414 261.599 30.414C260.999 30.414 260.477 30.588 260.033 30.936C259.589 31.284 259.253 31.77 259.025 32.394C258.797 33.018 258.695 33.75 258.719 34.59C258.743 35.322 258.857 35.976 259.061 36.552C259.277 37.128 259.577 37.584 259.961 37.92C260.357 38.244 260.837 38.406 261.401 38.406ZM271.457 39.288C270.809 39.288 270.263 39.168 269.819 38.928C269.387 38.688 269.057 38.28 268.829 37.704C268.613 37.128 268.505 36.348 268.505 35.364V32.16C268.505 31.968 268.505 31.776 268.505 31.584C268.517 31.392 268.541 31.194 268.577 30.99C268.373 31.002 268.163 31.014 267.947 31.026C267.743 31.026 267.539 31.032 267.335 31.044V30.306H267.893C268.409 30.306 268.781 30.258 269.009 30.162C269.249 30.054 269.435 29.94 269.567 29.82H270.089V35.31C270.089 36.342 270.233 37.116 270.521 37.632C270.821 38.136 271.325 38.382 272.033 38.37C272.489 38.358 272.921 38.22 273.329 37.956C273.749 37.68 274.085 37.356 274.337 36.984V32.358C274.337 32.07 274.343 31.824 274.355 31.62C274.367 31.404 274.391 31.194 274.427 30.99C274.211 31.002 273.995 31.014 273.779 31.026C273.563 31.026 273.347 31.032 273.131 31.044V30.306H273.689C274.205 30.306 274.577 30.258 274.805 30.162C275.045 30.054 275.231 29.94 275.363 29.82H275.885L275.867 36.624C275.867 36.816 275.861 37.086 275.849 37.434C275.837 37.782 275.819 38.076 275.795 38.316C276.011 38.304 276.227 38.292 276.443 38.28C276.659 38.268 276.875 38.256 277.091 38.244V39H274.517C274.481 38.796 274.451 38.604 274.427 38.424C274.415 38.244 274.403 38.076 274.391 37.92C274.019 38.292 273.569 38.616 273.041 38.892C272.513 39.156 271.985 39.288 271.457 39.288ZM282.791 39.288C281.987 39.288 281.243 39.108 280.559 38.748C279.887 38.376 279.347 37.848 278.939 37.164C278.543 36.468 278.345 35.634 278.345 34.662C278.345 34.038 278.459 33.432 278.687 32.844C278.915 32.256 279.233 31.728 279.641 31.26C280.061 30.78 280.559 30.402 281.135 30.126C281.711 29.85 282.347 29.712 283.043 29.712C283.715 29.712 284.297 29.814 284.789 30.018C285.293 30.222 285.683 30.492 285.959 30.828C286.235 31.164 286.373 31.53 286.373 31.926C286.373 32.19 286.301 32.418 286.157 32.61C286.013 32.79 285.803 32.88 285.527 32.88C285.227 32.892 285.011 32.802 284.879 32.61C284.759 32.406 284.699 32.226 284.699 32.07C284.699 31.95 284.717 31.83 284.753 31.71C284.789 31.578 284.861 31.458 284.969 31.35C284.873 31.062 284.705 30.852 284.465 30.72C284.225 30.576 283.973 30.486 283.709 30.45C283.457 30.402 283.247 30.378 283.079 30.378C282.263 30.378 281.573 30.708 281.009 31.368C280.457 32.016 280.181 32.964 280.181 34.212C280.181 35.016 280.307 35.73 280.559 36.354C280.823 36.978 281.189 37.47 281.657 37.83C282.125 38.178 282.665 38.352 283.277 38.352C283.841 38.352 284.381 38.202 284.897 37.902C285.413 37.602 285.815 37.236 286.103 36.804L286.571 37.164C286.259 37.668 285.881 38.076 285.437 38.388C285.005 38.7 284.555 38.928 284.087 39.072C283.631 39.216 283.199 39.288 282.791 39.288ZM291.276 39.288C291 39.288 290.718 39.246 290.43 39.162C290.142 39.09 289.872 38.94 289.62 38.712C289.38 38.484 289.188 38.154 289.044 37.722C288.9 37.278 288.828 36.696 288.828 35.976L288.864 30.756L287.478 30.774V30C287.79 29.988 288.108 29.874 288.432 29.658C288.756 29.43 289.044 29.124 289.296 28.74C289.56 28.356 289.74 27.936 289.836 27.48H290.448V30H293.472V30.702L290.448 30.738L290.412 35.742C290.412 36.282 290.454 36.744 290.538 37.128C290.634 37.5 290.784 37.782 290.988 37.974C291.192 38.166 291.456 38.262 291.78 38.262C292.116 38.262 292.428 38.166 292.716 37.974C293.016 37.782 293.28 37.518 293.508 37.182L293.994 37.578C293.73 37.974 293.466 38.286 293.202 38.514C292.95 38.742 292.704 38.91 292.464 39.018C292.224 39.138 292.002 39.21 291.798 39.234C291.594 39.27 291.42 39.288 291.276 39.288ZM298.543 39.288C297.943 39.288 297.409 39.204 296.941 39.036C296.473 38.88 296.089 38.7 295.789 38.496L295.861 39.126H295.105L294.997 36.03H295.555C295.579 36.522 295.717 36.966 295.969 37.362C296.221 37.746 296.545 38.046 296.941 38.262C297.337 38.478 297.763 38.586 298.219 38.586C298.531 38.586 298.837 38.538 299.137 38.442C299.437 38.334 299.689 38.178 299.893 37.974C300.097 37.758 300.199 37.488 300.199 37.164C300.199 36.828 300.097 36.552 299.893 36.336C299.701 36.108 299.443 35.91 299.119 35.742C298.795 35.574 298.447 35.418 298.075 35.274C297.715 35.13 297.355 34.98 296.995 34.824C296.635 34.668 296.299 34.482 295.987 34.266C295.687 34.05 295.447 33.786 295.267 33.474C295.087 33.162 294.997 32.778 294.997 32.322C294.997 32.07 295.045 31.794 295.141 31.494C295.237 31.194 295.399 30.912 295.627 30.648C295.855 30.372 296.167 30.15 296.563 29.982C296.959 29.802 297.463 29.712 298.075 29.712C298.399 29.712 298.759 29.766 299.155 29.874C299.551 29.982 299.935 30.186 300.307 30.486L300.271 29.802H301.027V32.952H300.451C300.427 32.532 300.331 32.13 300.163 31.746C299.995 31.35 299.749 31.026 299.425 30.774C299.101 30.51 298.681 30.378 298.165 30.378C297.613 30.378 297.181 30.516 296.869 30.792C296.557 31.068 296.401 31.386 296.401 31.746C296.401 32.118 296.515 32.43 296.743 32.682C296.983 32.922 297.289 33.132 297.661 33.312C298.033 33.492 298.429 33.666 298.849 33.834C299.305 34.026 299.749 34.236 300.181 34.464C300.613 34.692 300.967 34.98 301.243 35.328C301.519 35.664 301.657 36.102 301.657 36.642C301.657 37.242 301.501 37.74 301.189 38.136C300.889 38.532 300.499 38.82 300.019 39C299.551 39.192 299.059 39.288 298.543 39.288Z" fill="#FFC24B"/>
<path d="M343.944 30.414C343.824 29.286 343.428 28.41 342.756 27.786C342.096 27.162 341.244 26.85 340.2 26.85C339.564 26.85 338.964 26.988 338.4 27.264C337.848 27.528 337.362 27.912 336.942 28.416C336.522 28.92 336.192 29.526 335.952 30.234C335.712 30.942 335.592 31.74 335.592 32.628C335.592 33.756 335.808 34.752 336.24 35.616C336.672 36.48 337.254 37.152 337.986 37.632C338.718 38.112 339.528 38.352 340.416 38.352C341.196 38.352 341.964 38.178 342.72 37.83C343.476 37.47 344.094 36.954 344.574 36.282L345.042 36.66C344.526 37.368 343.968 37.914 343.368 38.298C342.768 38.682 342.168 38.94 341.568 39.072C340.98 39.216 340.44 39.288 339.948 39.288C339.048 39.288 338.22 39.126 337.464 38.802C336.72 38.478 336.072 38.028 335.52 37.452C334.98 36.864 334.56 36.186 334.26 35.418C333.972 34.638 333.828 33.798 333.828 32.898C333.828 32.046 333.954 31.218 334.206 30.414C334.47 29.61 334.86 28.884 335.376 28.236C335.892 27.588 336.54 27.072 337.32 26.688C338.112 26.304 339.03 26.112 340.074 26.112C340.746 26.112 341.382 26.202 341.982 26.382C342.582 26.562 343.158 26.838 343.71 27.21L343.62 26.238H344.592V30.414H343.944ZM350.842 39.288C350.002 39.288 349.24 39.096 348.556 38.712C347.872 38.316 347.326 37.776 346.918 37.092C346.522 36.396 346.324 35.604 346.324 34.716C346.324 33.768 346.522 32.916 346.918 32.16C347.314 31.404 347.854 30.81 348.538 30.378C349.222 29.934 349.99 29.712 350.842 29.712C351.682 29.712 352.444 29.916 353.128 30.324C353.812 30.72 354.358 31.26 354.766 31.944C355.174 32.628 355.378 33.408 355.378 34.284C355.378 35.208 355.174 36.054 354.766 36.822C354.37 37.578 353.83 38.178 353.146 38.622C352.462 39.066 351.694 39.288 350.842 39.288ZM350.986 38.568C351.622 38.568 352.126 38.388 352.498 38.028C352.87 37.668 353.134 37.2 353.29 36.624C353.458 36.048 353.542 35.442 353.542 34.806C353.542 34.266 353.488 33.738 353.38 33.222C353.284 32.694 353.128 32.22 352.912 31.8C352.696 31.368 352.414 31.026 352.066 30.774C351.73 30.522 351.322 30.396 350.842 30.396C350.218 30.396 349.708 30.576 349.312 30.936C348.916 31.296 348.622 31.764 348.43 32.34C348.25 32.916 348.16 33.534 348.16 34.194C348.16 34.938 348.262 35.646 348.466 36.318C348.67 36.978 348.982 37.518 349.402 37.938C349.822 38.358 350.35 38.568 350.986 38.568ZM356.907 39V38.46C357.279 38.46 357.537 38.37 357.681 38.19C357.825 37.998 357.909 37.74 357.933 37.416C357.957 37.08 357.969 36.696 357.969 36.264L357.987 32.16C357.987 31.968 357.987 31.776 357.987 31.584C357.999 31.392 358.023 31.194 358.059 30.99C357.843 31.002 357.627 31.014 357.411 31.026C357.207 31.038 356.997 31.05 356.781 31.062V30.306C357.309 30.306 357.705 30.282 357.969 30.234C358.245 30.186 358.449 30.126 358.581 30.054C358.713 29.982 358.821 29.904 358.905 29.82H359.427C359.439 29.904 359.445 30 359.445 30.108C359.457 30.216 359.469 30.336 359.481 30.468C359.493 30.6 359.499 30.75 359.499 30.918C359.763 30.69 360.051 30.486 360.363 30.306C360.687 30.126 361.023 29.982 361.371 29.874C361.731 29.766 362.085 29.712 362.433 29.712C363.477 29.712 364.239 30.042 364.719 30.702C365.199 31.35 365.439 32.364 365.439 33.744V37.092C365.439 37.332 365.433 37.548 365.421 37.74C365.421 37.92 365.403 38.112 365.367 38.316C365.559 38.304 365.745 38.298 365.925 38.298C366.117 38.286 366.309 38.274 366.501 38.262V39H362.829V38.46C363.201 38.46 363.459 38.37 363.603 38.19C363.747 37.998 363.831 37.74 363.855 37.416C363.879 37.08 363.891 36.696 363.891 36.264V33.744C363.879 32.712 363.705 31.932 363.369 31.404C363.045 30.876 362.529 30.618 361.821 30.63C361.389 30.642 360.963 30.756 360.543 30.972C360.135 31.188 359.793 31.464 359.517 31.8C359.529 31.896 359.535 32.004 359.535 32.124C359.535 32.244 359.535 32.37 359.535 32.502L359.517 37.092C359.517 37.332 359.511 37.548 359.499 37.74C359.499 37.92 359.481 38.112 359.445 38.316C359.637 38.304 359.823 38.298 360.003 38.298C360.195 38.286 360.387 38.274 360.579 38.262V39H356.907ZM371.067 39.288C370.791 39.288 370.509 39.246 370.221 39.162C369.933 39.09 369.663 38.94 369.411 38.712C369.171 38.484 368.979 38.154 368.835 37.722C368.691 37.278 368.619 36.696 368.619 35.976L368.655 30.756L367.269 30.774V30C367.581 29.988 367.899 29.874 368.223 29.658C368.547 29.43 368.835 29.124 369.087 28.74C369.351 28.356 369.531 27.936 369.627 27.48H370.239V30H373.263V30.702L370.239 30.738L370.203 35.742C370.203 36.282 370.245 36.744 370.329 37.128C370.425 37.5 370.575 37.782 370.779 37.974C370.983 38.166 371.247 38.262 371.571 38.262C371.907 38.262 372.219 38.166 372.507 37.974C372.807 37.782 373.071 37.518 373.299 37.182L373.785 37.578C373.521 37.974 373.257 38.286 372.993 38.514C372.741 38.742 372.495 38.91 372.255 39.018C372.015 39.138 371.793 39.21 371.589 39.234C371.385 39.27 371.211 39.288 371.067 39.288ZM380.116 39C380.08 38.796 380.056 38.616 380.044 38.46C380.032 38.304 380.014 38.142 379.99 37.974C379.582 38.382 379.138 38.706 378.658 38.946C378.19 39.174 377.692 39.288 377.164 39.288C376.252 39.288 375.574 39.084 375.13 38.676C374.686 38.256 374.464 37.746 374.464 37.146C374.464 36.594 374.632 36.12 374.968 35.724C375.316 35.316 375.76 34.986 376.3 34.734C376.852 34.47 377.446 34.278 378.082 34.158C378.73 34.026 379.354 33.966 379.954 33.978V32.862C379.954 32.442 379.918 32.046 379.846 31.674C379.774 31.302 379.618 30.996 379.378 30.756C379.138 30.516 378.754 30.39 378.226 30.378C377.878 30.366 377.518 30.432 377.146 30.576C376.786 30.72 376.522 30.966 376.354 31.314C376.45 31.41 376.51 31.524 376.534 31.656C376.57 31.776 376.588 31.89 376.588 31.998C376.588 32.142 376.528 32.31 376.408 32.502C376.288 32.682 376.078 32.766 375.778 32.754C375.526 32.754 375.334 32.67 375.202 32.502C375.07 32.322 375.004 32.112 375.004 31.872C375.004 31.464 375.154 31.098 375.454 30.774C375.766 30.45 376.192 30.192 376.732 30C377.272 29.808 377.884 29.712 378.568 29.712C379.576 29.712 380.32 29.982 380.8 30.522C381.28 31.05 381.514 31.89 381.502 33.042C381.502 33.486 381.502 33.936 381.502 34.392C381.502 34.836 381.496 35.286 381.484 35.742C381.484 36.186 381.484 36.636 381.484 37.092C381.484 37.284 381.478 37.476 381.466 37.668C381.454 37.86 381.436 38.076 381.412 38.316C381.628 38.304 381.838 38.292 382.042 38.28C382.258 38.268 382.474 38.256 382.69 38.244V39H380.116ZM379.954 34.59C379.546 34.602 379.114 34.656 378.658 34.752C378.214 34.836 377.8 34.968 377.416 35.148C377.044 35.328 376.738 35.568 376.498 35.868C376.27 36.156 376.162 36.51 376.174 36.93C376.198 37.374 376.342 37.71 376.606 37.938C376.882 38.154 377.206 38.262 377.578 38.262C378.07 38.262 378.496 38.172 378.856 37.992C379.228 37.8 379.594 37.536 379.954 37.2C379.942 37.068 379.936 36.924 379.936 36.768C379.936 36.612 379.936 36.45 379.936 36.282C379.936 36.222 379.936 36.03 379.936 35.706C379.948 35.382 379.954 35.01 379.954 34.59ZM388.317 39.288C387.513 39.288 386.769 39.108 386.085 38.748C385.413 38.376 384.873 37.848 384.465 37.164C384.069 36.468 383.871 35.634 383.871 34.662C383.871 34.038 383.985 33.432 384.213 32.844C384.441 32.256 384.759 31.728 385.167 31.26C385.587 30.78 386.085 30.402 386.661 30.126C387.237 29.85 387.873 29.712 388.569 29.712C389.241 29.712 389.823 29.814 390.315 30.018C390.819 30.222 391.209 30.492 391.485 30.828C391.761 31.164 391.899 31.53 391.899 31.926C391.899 32.19 391.827 32.418 391.683 32.61C391.539 32.79 391.329 32.88 391.053 32.88C390.753 32.892 390.537 32.802 390.405 32.61C390.285 32.406 390.225 32.226 390.225 32.07C390.225 31.95 390.243 31.83 390.279 31.71C390.315 31.578 390.387 31.458 390.495 31.35C390.399 31.062 390.231 30.852 389.991 30.72C389.751 30.576 389.499 30.486 389.235 30.45C388.983 30.402 388.773 30.378 388.605 30.378C387.789 30.378 387.099 30.708 386.535 31.368C385.983 32.016 385.707 32.964 385.707 34.212C385.707 35.016 385.833 35.73 386.085 36.354C386.349 36.978 386.715 37.47 387.183 37.83C387.651 38.178 388.191 38.352 388.803 38.352C389.367 38.352 389.907 38.202 390.423 37.902C390.939 37.602 391.341 37.236 391.629 36.804L392.097 37.164C391.785 37.668 391.407 38.076 390.963 38.388C390.531 38.7 390.081 38.928 389.613 39.072C389.157 39.216 388.725 39.288 388.317 39.288ZM396.801 39.288C396.525 39.288 396.243 39.246 395.955 39.162C395.667 39.09 395.397 38.94 395.145 38.712C394.905 38.484 394.713 38.154 394.569 37.722C394.425 37.278 394.353 36.696 394.353 35.976L394.389 30.756L393.003 30.774V30C393.315 29.988 393.633 29.874 393.957 29.658C394.281 29.43 394.569 29.124 394.821 28.74C395.085 28.356 395.265 27.936 395.361 27.48H395.973V30H398.997V30.702L395.973 30.738L395.937 35.742C395.937 36.282 395.979 36.744 396.063 37.128C396.159 37.5 396.309 37.782 396.513 37.974C396.717 38.166 396.981 38.262 397.305 38.262C397.641 38.262 397.953 38.166 398.241 37.974C398.541 37.782 398.805 37.518 399.033 37.182L399.519 37.578C399.255 37.974 398.991 38.286 398.727 38.514C398.475 38.742 398.229 38.91 397.989 39.018C397.749 39.138 397.527 39.21 397.323 39.234C397.119 39.27 396.945 39.288 396.801 39.288Z" fill="#FFC24B"/>
<path d="M436.966 39.288C435.766 39.288 434.704 39.036 433.78 38.532C432.856 38.028 432.136 37.302 431.62 36.354C431.104 35.406 430.846 34.278 430.846 32.97C430.846 32.118 430.972 31.29 431.224 30.486C431.488 29.67 431.878 28.932 432.394 28.272C432.922 27.612 433.576 27.09 434.356 26.706C435.148 26.31 436.066 26.112 437.11 26.112C437.542 26.112 437.98 26.154 438.424 26.238C438.868 26.31 439.294 26.424 439.702 26.58C440.122 26.724 440.5 26.898 440.836 27.102L440.764 26.238H441.754V30.36H441.106C441.058 29.604 440.854 28.968 440.494 28.452C440.146 27.924 439.69 27.522 439.126 27.246C438.562 26.97 437.932 26.832 437.236 26.832C436.6 26.832 436 26.976 435.436 27.264C434.884 27.54 434.392 27.936 433.96 28.452C433.54 28.956 433.21 29.556 432.97 30.252C432.73 30.948 432.61 31.716 432.61 32.556C432.61 33.684 432.814 34.692 433.222 35.58C433.63 36.468 434.194 37.164 434.914 37.668C435.646 38.172 436.486 38.424 437.434 38.424C437.758 38.424 438.094 38.394 438.442 38.334C438.802 38.274 439.156 38.178 439.504 38.046C439.864 37.902 440.2 37.728 440.512 37.524V35.328C440.512 35.04 440.512 34.752 440.512 34.464C440.512 34.164 440.512 33.87 440.512 33.582C440.308 33.594 440.098 33.606 439.882 33.618C439.666 33.63 439.456 33.642 439.252 33.654V32.862H443.32V33.456C442.984 33.456 442.726 33.546 442.546 33.726C442.366 33.894 442.24 34.104 442.168 34.356C442.096 34.596 442.054 34.836 442.042 35.076C442.03 35.304 442.024 35.478 442.024 35.598V38.352H441.538C441.346 38.352 441.082 38.388 440.746 38.46C440.41 38.532 440.026 38.652 439.594 38.82C439.222 38.964 438.79 39.078 438.298 39.162C437.806 39.246 437.362 39.288 436.966 39.288ZM449.957 39C449.921 38.796 449.897 38.616 449.885 38.46C449.873 38.304 449.855 38.142 449.831 37.974C449.423 38.382 448.979 38.706 448.499 38.946C448.031 39.174 447.533 39.288 447.005 39.288C446.093 39.288 445.415 39.084 444.971 38.676C444.527 38.256 444.305 37.746 444.305 37.146C444.305 36.594 444.473 36.12 444.809 35.724C445.157 35.316 445.601 34.986 446.141 34.734C446.693 34.47 447.287 34.278 447.923 34.158C448.571 34.026 449.195 33.966 449.795 33.978V32.862C449.795 32.442 449.759 32.046 449.687 31.674C449.615 31.302 449.459 30.996 449.219 30.756C448.979 30.516 448.595 30.39 448.067 30.378C447.719 30.366 447.359 30.432 446.987 30.576C446.627 30.72 446.363 30.966 446.195 31.314C446.291 31.41 446.351 31.524 446.375 31.656C446.411 31.776 446.429 31.89 446.429 31.998C446.429 32.142 446.369 32.31 446.249 32.502C446.129 32.682 445.919 32.766 445.619 32.754C445.367 32.754 445.175 32.67 445.043 32.502C444.911 32.322 444.845 32.112 444.845 31.872C444.845 31.464 444.995 31.098 445.295 30.774C445.607 30.45 446.033 30.192 446.573 30C447.113 29.808 447.725 29.712 448.409 29.712C449.417 29.712 450.161 29.982 450.641 30.522C451.121 31.05 451.355 31.89 451.343 33.042C451.343 33.486 451.343 33.936 451.343 34.392C451.343 34.836 451.337 35.286 451.325 35.742C451.325 36.186 451.325 36.636 451.325 37.092C451.325 37.284 451.319 37.476 451.307 37.668C451.295 37.86 451.277 38.076 451.253 38.316C451.469 38.304 451.679 38.292 451.883 38.28C452.099 38.268 452.315 38.256 452.531 38.244V39H449.957ZM449.795 34.59C449.387 34.602 448.955 34.656 448.499 34.752C448.055 34.836 447.641 34.968 447.257 35.148C446.885 35.328 446.579 35.568 446.339 35.868C446.111 36.156 446.003 36.51 446.015 36.93C446.039 37.374 446.183 37.71 446.447 37.938C446.723 38.154 447.047 38.262 447.419 38.262C447.911 38.262 448.337 38.172 448.697 37.992C449.069 37.8 449.435 37.536 449.795 37.2C449.783 37.068 449.777 36.924 449.777 36.768C449.777 36.612 449.777 36.45 449.777 36.282C449.777 36.222 449.777 36.03 449.777 35.706C449.789 35.382 449.795 35.01 449.795 34.59ZM453.587 38.46C453.959 38.46 454.217 38.37 454.361 38.19C454.505 37.998 454.589 37.74 454.613 37.416C454.637 37.08 454.649 36.696 454.649 36.264V27.75C454.649 27.558 454.649 27.378 454.649 27.21C454.661 27.03 454.679 26.82 454.703 26.58C454.487 26.592 454.271 26.604 454.055 26.616C453.851 26.628 453.641 26.64 453.425 26.652V25.896C453.953 25.896 454.361 25.872 454.649 25.824C454.949 25.776 455.171 25.716 455.315 25.644C455.471 25.572 455.591 25.494 455.675 25.41H456.197L456.215 37.092C456.215 37.332 456.209 37.548 456.197 37.74C456.185 37.92 456.161 38.112 456.125 38.316C456.317 38.304 456.503 38.298 456.683 38.298C456.875 38.286 457.067 38.274 457.259 38.262V39H453.587V38.46ZM458.491 38.46C458.863 38.46 459.121 38.37 459.265 38.19C459.409 37.998 459.493 37.74 459.517 37.416C459.541 37.08 459.553 36.696 459.553 36.264V27.75C459.553 27.558 459.553 27.378 459.553 27.21C459.565 27.03 459.583 26.82 459.607 26.58C459.391 26.592 459.175 26.604 458.959 26.616C458.755 26.628 458.545 26.64 458.329 26.652V25.896C458.857 25.896 459.265 25.872 459.553 25.824C459.853 25.776 460.075 25.716 460.219 25.644C460.375 25.572 460.495 25.494 460.579 25.41H461.101L461.119 37.092C461.119 37.332 461.113 37.548 461.101 37.74C461.089 37.92 461.065 38.112 461.029 38.316C461.221 38.304 461.407 38.298 461.587 38.298C461.779 38.286 461.971 38.274 462.163 38.262V39H458.491V38.46ZM467.931 39.288C467.103 39.288 466.353 39.096 465.681 38.712C465.021 38.316 464.499 37.764 464.115 37.056C463.731 36.336 463.539 35.49 463.539 34.518C463.539 33.678 463.725 32.892 464.097 32.16C464.481 31.428 465.015 30.84 465.699 30.396C466.383 29.94 467.175 29.712 468.075 29.712C468.579 29.712 469.047 29.796 469.479 29.964C469.923 30.12 470.313 30.366 470.649 30.702C470.985 31.026 471.249 31.44 471.441 31.944C471.633 32.436 471.729 33.018 471.729 33.69L465.393 33.798C465.393 34.71 465.489 35.514 465.681 36.21C465.885 36.894 466.209 37.428 466.653 37.812C467.097 38.184 467.667 38.37 468.363 38.37C468.735 38.37 469.113 38.304 469.497 38.172C469.893 38.04 470.259 37.86 470.595 37.632C470.931 37.404 471.201 37.152 471.405 36.876L471.837 37.236C471.513 37.74 471.123 38.142 470.667 38.442C470.211 38.742 469.743 38.958 469.263 39.09C468.783 39.222 468.339 39.288 467.931 39.288ZM465.447 33.042H470.037C470.037 32.61 469.971 32.196 469.839 31.8C469.719 31.392 469.515 31.062 469.227 30.81C468.939 30.546 468.561 30.414 468.093 30.414C467.397 30.414 466.815 30.624 466.347 31.044C465.891 31.452 465.591 32.118 465.447 33.042ZM473.331 38.46C473.703 38.46 473.961 38.37 474.105 38.19C474.249 37.998 474.333 37.74 474.357 37.416C474.381 37.08 474.393 36.696 474.393 36.264V32.16C474.393 31.968 474.393 31.776 474.393 31.584C474.405 31.392 474.429 31.194 474.465 30.99C474.249 31.002 474.033 31.014 473.817 31.026C473.613 31.026 473.403 31.032 473.187 31.044V30.306H473.745C474.261 30.306 474.615 30.258 474.807 30.162C475.011 30.054 475.179 29.94 475.311 29.82H475.833C475.857 30.012 475.875 30.252 475.887 30.54C475.899 30.816 475.911 31.17 475.923 31.602C476.103 31.302 476.349 31.008 476.661 30.72C476.973 30.432 477.321 30.192 477.705 30C478.101 29.808 478.515 29.712 478.947 29.712C479.283 29.712 479.577 29.802 479.829 29.982C480.081 30.162 480.207 30.45 480.207 30.846C480.207 30.942 480.177 31.062 480.117 31.206C480.057 31.338 479.961 31.458 479.829 31.566C479.697 31.662 479.523 31.71 479.307 31.71C479.043 31.698 478.833 31.596 478.677 31.404C478.521 31.2 478.461 30.966 478.497 30.702C478.197 30.69 477.885 30.768 477.561 30.936C477.249 31.104 476.955 31.338 476.679 31.638C476.403 31.926 476.157 32.268 475.941 32.664L475.959 37.092C475.959 37.332 475.953 37.548 475.941 37.74C475.941 37.92 475.923 38.112 475.887 38.316C476.079 38.304 476.265 38.298 476.445 38.298C476.637 38.286 476.829 38.274 477.021 38.262V39H473.331V38.46ZM482.803 43.878C482.431 43.878 482.113 43.788 481.849 43.608C481.585 43.428 481.453 43.152 481.453 42.78C481.453 42.564 481.525 42.366 481.669 42.186C481.813 42.006 481.999 41.916 482.227 41.916C482.515 41.904 482.707 41.994 482.803 42.186C482.911 42.378 482.965 42.546 482.965 42.69C482.965 42.726 482.965 42.762 482.965 42.798C482.965 42.846 482.959 42.894 482.947 42.942C482.983 42.966 483.049 42.978 483.145 42.978C483.289 42.978 483.445 42.918 483.613 42.798C483.781 42.678 483.931 42.504 484.063 42.276C484.219 42.012 484.399 41.616 484.603 41.088C484.819 40.56 485.059 39.93 485.323 39.198L482.515 33.186C482.203 32.514 481.975 31.98 481.831 31.584C481.699 31.188 481.609 30.894 481.561 30.702L480.697 30.738V30H484.423V30.54H484.351C483.847 30.576 483.571 30.768 483.523 31.116C483.475 31.452 483.613 31.968 483.937 32.664L486.043 37.182C486.319 36.414 486.583 35.658 486.835 34.914C487.087 34.158 487.339 33.408 487.591 32.664C487.687 32.4 487.783 32.13 487.879 31.854C487.987 31.566 488.089 31.314 488.185 31.098C488.293 30.87 488.389 30.726 488.473 30.666L487.231 30.738V30H490.057V30.54C489.613 30.708 489.277 30.99 489.049 31.386C488.833 31.77 488.611 32.268 488.383 32.88L486.133 39.162C485.773 40.17 485.443 41.022 485.143 41.718C484.843 42.426 484.513 42.96 484.153 43.32C483.793 43.692 483.343 43.878 482.803 43.878Z" fill="#FFC24B"/>
<path d="M4.00471 37.0024C2.00236 34.3347 2.00235 30.6653 4.00471 27.9977L22.0194 3.99765C23.4359 2.11049 25.658 1 28.0176 1L501.982 1C504.342 1 506.564 2.11049 507.981 3.99765L525.995 27.9976C527.998 30.6653 527.998 34.3347 525.995 37.0024L507.981 61.0023C506.564 62.8895 504.342 64 501.982 64H28.0176C25.658 64 23.4359 62.8895 22.0194 61.0024L4.00471 37.0024Z" stroke="url(#paint2_angular_0_1555)"/>
<defs>
<linearGradient id="paint0_linear_0_1555" x1="38.5" y1="47" x2="49" y2="54" gradientUnits="userSpaceOnUse">
<stop stop-color="#FCC04B"/>
<stop offset="1" stop-color="#A88038"/>
</linearGradient>
<linearGradient id="paint1_linear_0_1555" x1="47.5" y1="50" x2="89.5" y2="50" gradientUnits="userSpaceOnUse">
<stop stop-color="#FFC24B"/>
<stop offset="1" stop-color="#58412B" stop-opacity="0.49"/>
</linearGradient>
<radialGradient id="paint2_angular_0_1555" cx="0" cy="0" r="1" gradientUnits="userSpaceOnUse" gradientTransform="translate(245 32.5) rotate(90) scale(32 245)">
<stop offset="0.14776" stop-color="#835F1F"/>
<stop offset="0.233683" stop-color="#FFD589"/>
<stop offset="0.485893" stop-color="#2E1C13"/>
<stop offset="0.647194" stop-color="#835F1F"/>
<stop offset="0.816144" stop-color="#FFD589"/>
<stop offset="0.964739" stop-color="#161616" stop-opacity="0"/>
</radialGradient>
</defs>
</svg>
