<svg width="185" height="209" viewBox="0 0 185 209" fill="none" xmlns="http://www.w3.org/2000/svg">
<path d="M102.595 3.76739C96.4168 0.183647 88.7928 0.183642 82.6152 3.76739L11.0438 45.2869C4.90429 48.8484 1.1254 55.4094 1.1254 62.5071V145.704C1.1254 152.801 4.90429 159.362 11.0438 162.924L82.6152 204.443C88.7928 208.027 96.4169 208.027 102.595 204.443L174.166 162.924C180.305 159.362 184.084 152.801 184.084 145.704V62.5071C184.084 55.4094 180.305 48.8484 174.166 45.2869L102.595 3.76739Z" fill="#F2BB5A" fill-opacity="0.1"/>
<path d="M102.595 3.76739C96.4168 0.183647 88.7928 0.183642 82.6152 3.76739L11.0438 45.2869C4.90429 48.8484 1.1254 55.4094 1.1254 62.5071V145.704C1.1254 152.801 4.90429 159.362 11.0438 162.924L82.6152 204.443C88.7928 208.027 96.4169 208.027 102.595 204.443L174.166 162.924C180.305 159.362 184.084 152.801 184.084 145.704V62.5071C184.084 55.4094 180.305 48.8484 174.166 45.2869L102.595 3.76739Z" stroke="url(#paint0_radial_0_1295)" stroke-width="1.77799"/>
<path d="M102.595 3.76739C96.4168 0.183647 88.7928 0.183642 82.6152 3.76739L11.0438 45.2869C4.90429 48.8484 1.1254 55.4094 1.1254 62.5071V145.704C1.1254 152.801 4.90429 159.362 11.0438 162.924L82.6152 204.443C88.7928 208.027 96.4169 208.027 102.595 204.443L174.166 162.924C180.305 159.362 184.084 152.801 184.084 145.704V62.5071C184.084 55.4094 180.305 48.8484 174.166 45.2869L102.595 3.76739Z" stroke="url(#paint1_radial_0_1295)" stroke-width="1.77799"/>
<defs>
<radialGradient id="paint0_radial_0_1295" cx="0" cy="0" r="1" gradientUnits="userSpaceOnUse" gradientTransform="translate(-9.21053 2.73708) rotate(55.7174) scale(130.408 173.38)">
<stop stop-color="#FFE195"/>
<stop offset="0.177083" stop-color="#F2BB5A" stop-opacity="0.876812"/>
<stop offset="0.359375" stop-color="#BF7A00" stop-opacity="0.75"/>
<stop offset="1" stop-color="#BF7A00" stop-opacity="0"/>
<stop offset="1" stop-color="#0F1218" stop-opacity="0"/>
</radialGradient>
<radialGradient id="paint1_radial_0_1295" cx="0" cy="0" r="1" gradientUnits="userSpaceOnUse" gradientTransform="translate(180.911 154.277) rotate(-150.214) scale(101.408 100.925)">
<stop stop-color="#FFE195"/>
<stop offset="0.166667" stop-color="#F2BB5A" stop-opacity="0.8"/>
<stop offset="0.328125" stop-color="#BF7A00" stop-opacity="0.75"/>
<stop offset="1" stop-color="#0B0B0B" stop-opacity="0"/>
</radialGradient>
</defs>
</svg>
