<svg width="691" height="252" viewBox="0 0 691 252" fill="none" xmlns="http://www.w3.org/2000/svg">
<path d="M123.721 4.93101C116.22 0.50196 106.908 0.4827 99.3892 4.88066L13.8167 54.9312C6.4534 59.2379 1.92775 67.1279 1.92775 75.6582V176.342C1.92775 184.872 6.45341 192.762 13.8167 197.069L99.3892 247.119C106.909 251.517 116.22 251.498 123.721 247.069L214.259 193.61C217.627 191.621 221.467 190.572 225.378 190.572H665.06C678.322 190.572 689.072 179.822 689.072 166.56V85.4397C689.072 72.1783 678.322 61.4277 665.06 61.4277H225.378C221.467 61.4277 217.627 60.3788 214.259 58.3903L123.721 4.93101Z" fill="#F2BB5A" fill-opacity="0.1"/>
<path d="M123.721 4.93101C116.22 0.50196 106.908 0.4827 99.3892 4.88066L13.8167 54.9312C6.4534 59.2379 1.92775 67.1279 1.92775 75.6582V176.342C1.92775 184.872 6.45341 192.762 13.8167 197.069L99.3892 247.119C106.909 251.517 116.22 251.498 123.721 247.069L214.259 193.61C217.627 191.621 221.467 190.572 225.378 190.572H665.06C678.322 190.572 689.072 179.822 689.072 166.56V85.4397C689.072 72.1783 678.322 61.4277 665.06 61.4277H225.378C221.467 61.4277 217.627 60.3788 214.259 58.3903L123.721 4.93101Z" stroke="url(#paint0_radial_0_500)" stroke-width="2.14451"/>
<path d="M123.721 4.93101C116.22 0.50196 106.908 0.4827 99.3892 4.88066L13.8167 54.9312C6.4534 59.2379 1.92775 67.1279 1.92775 75.6582V176.342C1.92775 184.872 6.45341 192.762 13.8167 197.069L99.3892 247.119C106.909 251.517 116.22 251.498 123.721 247.069L214.259 193.61C217.627 191.621 221.467 190.572 225.378 190.572H665.06C678.322 190.572 689.072 179.822 689.072 166.56V85.4397C689.072 72.1783 678.322 61.4277 665.06 61.4277H225.378C221.467 61.4277 217.627 60.3788 214.259 58.3903L123.721 4.93101Z" stroke="url(#paint1_radial_0_500)" stroke-width="2.14451"/>
<defs>
<radialGradient id="paint0_radial_0_500" cx="0" cy="0" r="1" gradientUnits="userSpaceOnUse" gradientTransform="translate(-10.4524 3.51556) rotate(55.9358) scale(157.167 208.324)">
<stop stop-color="#FFE195"/>
<stop offset="0.177083" stop-color="#F2BB5A" stop-opacity="0.876812"/>
<stop offset="0.359375" stop-color="#BF7A00" stop-opacity="0.75"/>
<stop offset="1" stop-color="#BF7A00" stop-opacity="0"/>
<stop offset="1" stop-color="#0F1218" stop-opacity="0"/>
</radialGradient>
<radialGradient id="paint1_radial_0_500" cx="0" cy="0" r="1" gradientUnits="userSpaceOnUse" gradientTransform="translate(605.13 183.33) rotate(-149.099) scale(145.327 145.2)">
<stop stop-color="#FFE195"/>
<stop offset="0.166667" stop-color="#F2BB5A" stop-opacity="0.8"/>
<stop offset="0.328125" stop-color="#BF7A00" stop-opacity="0.75"/>
<stop offset="1" stop-color="#0B0B0B" stop-opacity="0"/>
</radialGradient>
</defs>
</svg>
