<svg width="119" height="64" viewBox="0 0 119 64" fill="none" xmlns="http://www.w3.org/2000/svg">
<path d="M4.1709 37.9234C2.73619 35.9014 2.08053 34.9694 1.73719 33.997C1.16669 32.3812 1.16669 30.6188 1.73719 29.003C2.08053 28.0306 2.73619 27.0986 4.1709 25.0766L18.646 4.67659C19.7088 3.17881 20.199 2.49254 20.7867 1.95695L20.4498 1.58741L20.7867 1.95695C21.7614 1.06852 22.9532 0.452839 24.2418 0.172003C25.0187 0.00270081 25.8621 0 27.6986 0H91.3014C93.1379 0 93.9813 0.00270081 94.7582 0.172003C96.0468 0.452839 97.2386 1.06852 98.2133 1.95695C98.801 2.49254 99.2913 3.17881 100.354 4.6766L114.829 25.0766C116.264 27.0986 116.919 28.0306 117.263 29.003C117.833 30.6188 117.833 32.3812 117.263 33.997C116.919 34.9694 116.264 35.9014 114.829 37.9234L100.354 58.3234C99.2912 59.8212 98.801 60.5075 98.2133 61.043C97.2386 61.9315 96.0468 62.5472 94.7582 62.828C93.9813 62.9973 93.1379 63 91.3014 63H27.6986C25.8621 63 25.0187 62.9973 24.2418 62.828C22.9532 62.5472 21.7614 61.9315 20.7867 61.043C20.199 60.5075 19.7088 59.8212 18.646 58.3234L4.1709 37.9234Z" stroke="url(#paint0_linear_0_1572)"/>
<path d="M4.1709 37.9234C2.73619 35.9014 2.08053 34.9694 1.73719 33.997C1.16669 32.3812 1.16669 30.6188 1.73719 29.003C2.08053 28.0306 2.73619 27.0986 4.1709 25.0766L18.646 4.67659C19.7088 3.17881 20.199 2.49254 20.7867 1.95695L20.4498 1.58741L20.7867 1.95695C21.7614 1.06852 22.9532 0.452839 24.2418 0.172003C25.0187 0.00270081 25.8621 0 27.6986 0H91.3014C93.1379 0 93.9813 0.00270081 94.7582 0.172003C96.0468 0.452839 97.2386 1.06852 98.2133 1.95695C98.801 2.49254 99.2913 3.17881 100.354 4.6766L114.829 25.0766C116.264 27.0986 116.919 28.0306 117.263 29.003C117.833 30.6188 117.833 32.3812 117.263 33.997C116.919 34.9694 116.264 35.9014 114.829 37.9234L100.354 58.3234C99.2912 59.8212 98.801 60.5075 98.2133 61.043C97.2386 61.9315 96.0468 62.5472 94.7582 62.828C93.9813 62.9973 93.1379 63 91.3014 63H27.6986C25.8621 63 25.0187 62.9973 24.2418 62.828C22.9532 62.5472 21.7614 61.9315 20.7867 61.043C20.199 60.5075 19.7088 59.8212 18.646 58.3234L4.1709 37.9234Z" stroke="url(#paint1_linear_0_1572)"/>
<defs>
<linearGradient id="paint0_linear_0_1572" x1="-1.52346" y1="-5.83334" x2="48.3986" y2="38.7353" gradientUnits="userSpaceOnUse">
<stop stop-color="#FFE195"/>
<stop offset="0.177083" stop-color="#F2BB5A" stop-opacity="0.876812"/>
<stop offset="0.359375" stop-color="#BF7A00" stop-opacity="0.75"/>
<stop offset="1" stop-color="#BF7A00" stop-opacity="0"/>
<stop offset="1" stop-color="#0F1218" stop-opacity="0"/>
</linearGradient>
<linearGradient id="paint1_linear_0_1572" x1="116.019" y1="65.6334" x2="63.1196" y2="18.1934" gradientUnits="userSpaceOnUse">
<stop stop-color="#FFE195"/>
<stop offset="0.217042" stop-color="#F2BB5A" stop-opacity="0.86"/>
<stop offset="0.439162" stop-color="#BF7A00" stop-opacity="0.669735"/>
<stop offset="0.829796" stop-opacity="0"/>
</linearGradient>
</defs>
</svg>
