<svg width="135" height="135" viewBox="0 0 135 135" fill="none" xmlns="http://www.w3.org/2000/svg">
<path fill-rule="evenodd" clip-rule="evenodd" d="M33.0242 46.9993C32.147 46.9926 31.3682 47.5585 31.1023 48.3942L29.1021 54.3941C29.0345 54.5984 29.0003 54.812 29.001 55.0269V101.07C29.001 103.651 29.9023 106.243 31.5637 108.289C33.2612 110.38 35.8307 113 39.4581 113H96.5432C100.171 113 102.74 110.38 104.438 108.289C106.099 106.243 107 103.65 107 101.07V55.0262V55.0269C107 54.812 106.966 54.5983 106.898 54.3941L104.898 48.3942C104.731 47.8906 104.37 47.4741 103.895 47.237C103.42 46.9993 102.871 46.9605 102.367 47.1279C101.863 47.296 101.448 47.6569 101.21 48.1317C100.973 48.6064 100.934 49.1562 101.101 49.6598L103 55.351V101.069C103 102.675 102.369 104.491 101.332 105.768C99.9409 107.481 97.9976 108.998 96.5424 108.998H39.4572C38.0028 108.998 36.0589 107.481 34.6679 105.768C33.6313 104.491 33.0005 102.675 33.0005 101.069V55.351L34.8989 49.6598C35.1118 49.0504 35.0174 48.3754 34.6458 47.8471C34.2734 47.3194 33.6694 47.004 33.0239 46.9994L33.0242 46.9993Z" fill="url(#paint0_linear_0_1296)" fill-opacity="0.876812"/>
<path fill-rule="evenodd" clip-rule="evenodd" d="M33.0002 35C32.2428 35 31.5498 35.4286 31.2108 36.1056L27.2111 44.1057C26.8261 44.8758 26.9774 45.8059 27.5861 46.4147L31.5858 50.4144C32.1215 50.9501 32.9137 51.1376 33.6328 50.8985L45 47.1097L56.3671 50.8985C56.7776 51.0358 57.2223 51.0358 57.6328 50.8985L68.9999 47.1097L80.367 50.8985C80.7775 51.0358 81.2222 51.0358 81.6327 50.8985L92.9374 47.1292L102.257 50.8598C103.001 51.1558 103.848 50.9803 104.414 50.4145L108.413 46.4148C109.022 45.806 109.173 44.8759 108.788 44.1058L104.789 36.1057C104.45 35.428 103.757 35.0001 102.999 35.0001L33.0002 35ZM34.2343 38.9997H101.765L104.566 44.6052L102.519 46.6563L93.7411 43.1448C93.3018 42.9701 92.815 42.9567 92.3663 43.1067L80.9992 46.8949L69.632 43.106C69.2215 42.9687 68.7769 42.9687 68.3664 43.106L56.9993 46.8949L45.6321 43.106C45.2216 42.9687 44.777 42.9687 44.3665 43.106L33.5385 46.7154L31.4332 44.606L34.2336 39.0005L34.2343 38.9997Z" fill="url(#paint1_linear_0_1296)" fill-opacity="0.876812"/>
<path d="M33.0002 23C30.2648 23 28 25.2647 28 28.0002V34.0001C28 36.7356 30.2648 39.0003 33.0002 39.0003H102.999C105.734 39.0003 107.999 36.7356 107.999 34.0001V28.0002C107.999 25.2647 105.734 23 102.999 23H33.0002ZM33.0002 26.9997H102.999C103.588 26.9997 103.999 27.4109 103.999 27.9995V33.9994C103.999 34.588 103.588 34.9992 102.999 34.9992H33.0002C32.4116 34.9992 32.0004 34.588 32.0004 33.9994V27.9995C32.0004 27.4109 32.4116 26.9997 33.0002 26.9997Z" fill="url(#paint2_linear_0_1296)" fill-opacity="0.876812"/>
<path d="M89.9996 77.0488C90.0084 76.6798 89.9166 76.3155 89.7338 75.9961L85.7301 69.0065C85.3746 68.3851 84.717 68.0014 84.0057 68.0007H75.9975C75.2844 68.0001 74.6254 68.3838 74.2692 69.0065L70.2655 75.9961H70.2649C69.9086 76.6182 69.9086 77.3849 70.2649 78.0064L74.2685 84.996L74.2692 84.9967C74.6254 85.6195 75.2844 86.0025 75.9975 86.0018H84.0057C84.7169 86.0012 85.3745 85.6181 85.7301 84.9967L89.7338 78.0071V78.0064C89.9005 77.7151 89.9923 77.3856 89.9996 77.0488ZM85.7066 77.0006L82.852 81.9839H77.1474L74.2928 77.0006L77.1474 72.0172H82.852L85.7066 77.0006Z" fill="url(#paint3_linear_0_1296)" fill-opacity="0.876812"/>
<path d="M77.9997 84.0481C78.0084 83.6792 77.9167 83.3155 77.7339 82.9955L73.7302 76.0059C73.3746 75.3844 72.717 75.0014 72.0058 75.0007H63.9976C63.2845 74.9994 62.6255 75.3831 62.2693 76.0059L58.2656 82.9955H58.265C57.9087 83.6175 57.9087 84.3843 58.265 85.0063L62.2686 91.9959H62.2693C62.6255 92.6186 63.2845 93.0017 63.9976 93.001H72.0058C72.717 93.0003 73.3746 92.6173 73.7302 91.9959L77.7339 85.0063C77.9006 84.7143 77.9924 84.3849 77.9997 84.0481ZM73.7067 83.9999L70.8521 88.9833H65.1475L62.2929 83.9999L65.1475 79.0165H70.8521L73.7067 83.9999Z" fill="url(#paint4_linear_0_1296)" fill-opacity="0.876812"/>
<path d="M65.9999 77.0488C66.0086 76.6798 65.9169 76.3155 65.734 75.9961L61.7304 69.0065C61.3748 68.3851 60.7172 68.0014 60.006 68.0007H51.9978C51.2846 68.0001 50.6257 68.3838 50.2695 69.0065L46.2658 75.9961H46.2651C45.9089 76.6182 45.9089 77.3849 46.2651 78.0064L50.2688 84.996L50.2695 84.9967C50.6257 85.6195 51.2846 86.0025 51.9978 86.0018H60.006C60.7171 86.0012 61.3747 85.6181 61.7304 84.9967L65.734 78.0071V78.0064C65.9008 77.7151 65.9925 77.3856 65.9999 77.0488ZM61.7068 77.0006L58.8522 81.9839H53.1477L50.2931 77.0006L53.1477 72.0172H58.8522L61.7068 77.0006Z" fill="url(#paint5_linear_0_1296)" fill-opacity="0.876812"/>
<path d="M44.0007 61C41.2652 61 39.0005 63.2647 39.0005 66.0002V95.0005C39.0005 97.7359 41.2652 100.001 44.0007 100.001H92.0002C94.7357 100.001 97.0004 97.7359 97.0004 95.0005V66.0002C97.0004 63.2647 94.7357 61 92.0002 61H44.0007ZM44.0007 64.9997H92.0002C92.5888 64.9997 93 65.4109 93 65.9995V94.9998C93 95.5884 92.5888 95.9995 92.0002 95.9995H44.0007C43.4121 95.9995 43.0009 95.5884 43.0009 94.9998V65.9995C43.0009 65.4109 43.4121 64.9997 44.0007 64.9997Z" fill="url(#paint6_linear_0_1296)" fill-opacity="0.876812"/>
<defs>
<linearGradient id="paint0_linear_0_1296" x1="68.0006" y1="46.9993" x2="68.0006" y2="113" gradientUnits="userSpaceOnUse">
<stop stop-color="#FFBA41"/>
<stop offset="1" stop-color="#FFFBBD"/>
</linearGradient>
<linearGradient id="paint1_linear_0_1296" x1="67.9997" y1="35" x2="67.9997" y2="51.0018" gradientUnits="userSpaceOnUse">
<stop stop-color="#FFBA41"/>
<stop offset="1" stop-color="#FFFBBD"/>
</linearGradient>
<linearGradient id="paint2_linear_0_1296" x1="67.9996" y1="23" x2="67.9996" y2="39.0003" gradientUnits="userSpaceOnUse">
<stop stop-color="#FFBA41"/>
<stop offset="1" stop-color="#FFFBBD"/>
</linearGradient>
<linearGradient id="paint3_linear_0_1296" x1="79.9989" y1="68.0007" x2="79.9989" y2="86.0018" gradientUnits="userSpaceOnUse">
<stop stop-color="#FFBA41"/>
<stop offset="1" stop-color="#FFFBBD"/>
</linearGradient>
<linearGradient id="paint4_linear_0_1296" x1="67.999" y1="75.0007" x2="67.999" y2="93.001" gradientUnits="userSpaceOnUse">
<stop stop-color="#FFBA41"/>
<stop offset="1" stop-color="#FFFBBD"/>
</linearGradient>
<linearGradient id="paint5_linear_0_1296" x1="55.9992" y1="68.0007" x2="55.9992" y2="86.0018" gradientUnits="userSpaceOnUse">
<stop stop-color="#FFBA41"/>
<stop offset="1" stop-color="#FFFBBD"/>
</linearGradient>
<linearGradient id="paint6_linear_0_1296" x1="68.0004" y1="61" x2="68.0004" y2="100.001" gradientUnits="userSpaceOnUse">
<stop stop-color="#FFBA41"/>
<stop offset="1" stop-color="#FFFBBD"/>
</linearGradient>
</defs>
</svg>
