<svg width="53" height="67" viewBox="0 0 53 67" fill="none" xmlns="http://www.w3.org/2000/svg">
<path d="M27.3144 64.1029H23.6119C13.2164 64.1029 4.7439 55.63 4.7439 45.2349V20.8133C4.7439 10.4179 13.2168 1.94531 23.6119 1.94531H27.3144C37.7099 1.94531 46.1824 10.4182 46.1824 20.8133V45.2349C46.1829 55.6304 37.71 64.1029 27.3144 64.1029ZM23.6119 5.50531C15.2106 5.50531 8.3039 12.3408 8.3039 20.8133V45.2349C8.3039 53.7078 15.2103 60.5429 23.6119 60.5429L27.3144 60.5434C35.7874 60.5434 42.6224 53.637 42.6224 45.2354L42.6229 20.8138C42.6229 12.3409 35.7165 5.50581 27.3149 5.50581L23.6119 5.50531Z" fill="url(#paint0_linear_0_1588)" fill-opacity="0.876812"/>
<path d="M34.292 34.911C33.6513 34.1988 32.512 34.1988 31.7998 34.911L27.243 39.8948L27.2435 21.81C27.2435 20.8133 26.4602 20.03 25.4635 20.03C24.4667 20.03 23.6835 20.8133 23.6835 21.81V39.966L19.1267 34.9822C18.486 34.27 17.3467 34.27 16.6344 34.9822C16.0647 35.6228 16.0647 36.6196 16.6344 37.2608L24.1815 45.5912C24.8222 46.3034 25.9615 46.3034 26.6737 45.5912L34.2924 37.2608C34.8616 36.5486 34.8616 35.5519 34.2919 34.9112L34.292 34.911Z" fill="url(#paint1_linear_0_1588)" fill-opacity="0.876812"/>
<defs>
<linearGradient id="paint0_linear_0_1588" x1="25.4632" y1="1.94531" x2="25.4632" y2="64.1029" gradientUnits="userSpaceOnUse">
<stop stop-color="#FFBA41"/>
<stop offset="1" stop-color="#FFFBBD"/>
</linearGradient>
<linearGradient id="paint1_linear_0_1588" x1="25.4632" y1="20.03" x2="25.4632" y2="46.1254" gradientUnits="userSpaceOnUse">
<stop stop-color="#FFBA41"/>
<stop offset="1" stop-color="#FFFBBD"/>
</linearGradient>
</defs>
</svg>
