<svg width="271" height="64" viewBox="0 0 271 64" fill="none" xmlns="http://www.w3.org/2000/svg">
<g filter="url(#filter0_b_0_1570)">
<g clip-path="url(#clip0_0_1570)">
<path d="M4.1709 37.9234C2.73619 35.9014 2.08053 34.9694 1.73719 33.997C1.16669 32.3812 1.16669 30.6188 1.73719 29.003C2.08053 28.0306 2.73619 27.0986 4.1709 25.0766L18.646 4.67659C19.7088 3.17881 20.199 2.49254 20.7867 1.95695L20.4498 1.58741L20.7867 1.95695C21.7614 1.06852 22.9532 0.452839 24.2418 0.172003C25.0187 0.00270081 25.8621 0 27.6986 0H91.3014C93.1379 0 93.9813 0.00270081 94.7582 0.172003C96.0468 0.452839 97.2386 1.06852 98.2133 1.95695C98.801 2.49254 99.2913 3.17881 100.354 4.6766L114.829 25.0766C116.264 27.0986 116.919 28.0306 117.263 29.003C117.833 30.6188 117.833 32.3812 117.263 33.997C116.919 34.9694 116.264 35.9014 114.829 37.9234L100.354 58.3234C99.2912 59.8212 98.801 60.5075 98.2133 61.043C97.2386 61.9315 96.0468 62.5472 94.7582 62.828C93.9813 62.9973 93.1379 63 91.3014 63H27.6986C25.8621 63 25.0187 62.9973 24.2418 62.828C22.9532 62.5472 21.7614 61.9315 20.7867 61.043C20.199 60.5075 19.7088 59.8212 18.646 58.3234L4.1709 37.9234Z" stroke="url(#paint0_linear_0_1570)"/>
<path d="M4.1709 37.9234C2.73619 35.9014 2.08053 34.9694 1.73719 33.997C1.16669 32.3812 1.16669 30.6188 1.73719 29.003C2.08053 28.0306 2.73619 27.0986 4.1709 25.0766L18.646 4.67659C19.7088 3.17881 20.199 2.49254 20.7867 1.95695L20.4498 1.58741L20.7867 1.95695C21.7614 1.06852 22.9532 0.452839 24.2418 0.172003C25.0187 0.00270081 25.8621 0 27.6986 0H91.3014C93.1379 0 93.9813 0.00270081 94.7582 0.172003C96.0468 0.452839 97.2386 1.06852 98.2133 1.95695C98.801 2.49254 99.2913 3.17881 100.354 4.6766L114.829 25.0766C116.264 27.0986 116.919 28.0306 117.263 29.003C117.833 30.6188 117.833 32.3812 117.263 33.997C116.919 34.9694 116.264 35.9014 114.829 37.9234L100.354 58.3234C99.2912 59.8212 98.801 60.5075 98.2133 61.043C97.2386 61.9315 96.0468 62.5472 94.7582 62.828C93.9813 62.9973 93.1379 63 91.3014 63H27.6986C25.8621 63 25.0187 62.9973 24.2418 62.828C22.9532 62.5472 21.7614 61.9315 20.7867 61.043C20.199 60.5075 19.7088 59.8212 18.646 58.3234L4.1709 37.9234Z" stroke="url(#paint1_linear_0_1570)"/>
<path d="M37.636 29.86C37.552 29.224 37.378 28.672 37.114 28.204C36.85 27.724 36.496 27.358 36.052 27.106C35.62 26.842 35.098 26.71 34.486 26.71C33.898 26.71 33.406 26.878 33.01 27.214C32.626 27.55 32.434 27.964 32.434 28.456C32.434 28.864 32.548 29.218 32.776 29.518C33.016 29.818 33.358 30.094 33.802 30.346C34.246 30.586 34.774 30.838 35.386 31.102C35.842 31.294 36.304 31.51 36.772 31.75C37.24 31.978 37.672 32.254 38.068 32.578C38.464 32.902 38.782 33.28 39.022 33.712C39.274 34.132 39.4 34.636 39.4 35.224C39.4 35.92 39.214 36.538 38.842 37.078C38.482 37.618 37.966 38.038 37.294 38.338C36.622 38.638 35.83 38.788 34.918 38.788C34.414 38.788 33.88 38.71 33.316 38.554C32.752 38.41 32.236 38.188 31.768 37.888L31.822 38.662H30.598L30.562 34.576H31.588C31.72 35.596 32.098 36.37 32.722 36.898C33.346 37.414 34.096 37.672 34.972 37.672C35.416 37.672 35.812 37.594 36.16 37.438C36.508 37.27 36.778 37.048 36.97 36.772C37.174 36.484 37.276 36.16 37.276 35.8C37.276 35.332 37.132 34.948 36.844 34.648C36.556 34.348 36.19 34.09 35.746 33.874C35.302 33.658 34.84 33.448 34.36 33.244C33.82 33.016 33.31 32.776 32.83 32.524C32.35 32.26 31.924 31.966 31.552 31.642C31.192 31.306 30.904 30.922 30.688 30.49C30.484 30.058 30.382 29.548 30.382 28.96C30.382 28.612 30.448 28.246 30.58 27.862C30.712 27.466 30.928 27.1 31.228 26.764C31.54 26.428 31.954 26.152 32.47 25.936C32.986 25.72 33.628 25.612 34.396 25.612C34.876 25.612 35.398 25.684 35.962 25.828C36.538 25.96 37.042 26.182 37.474 26.494L37.402 25.738H38.644V29.86H37.636ZM40.6974 37.546C41.0454 37.546 41.2914 37.474 41.4354 37.33C41.5794 37.174 41.6694 36.958 41.7054 36.682C41.7414 36.406 41.7594 36.094 41.7594 35.746V32.38C41.7594 32.176 41.7654 31.954 41.7774 31.714C41.7894 31.462 41.8074 31.204 41.8314 30.94C41.6274 30.952 41.4054 30.964 41.1654 30.976C40.9254 30.988 40.7274 31 40.5714 31.012V29.842C41.1114 29.842 41.5554 29.818 41.9034 29.77C42.2634 29.71 42.5394 29.638 42.7314 29.554C42.9354 29.47 43.0794 29.392 43.1634 29.32H43.9734V35.926C43.9734 36.118 43.9674 36.352 43.9554 36.628C43.9554 36.892 43.9374 37.15 43.9014 37.402C44.0934 37.378 44.2974 37.366 44.5134 37.366C44.7414 37.354 44.9274 37.348 45.0714 37.348V38.5H40.6974V37.546ZM42.7674 27.772C42.4194 27.772 42.1254 27.646 41.8854 27.394C41.6454 27.13 41.5254 26.812 41.5254 26.44C41.5254 26.068 41.6454 25.75 41.8854 25.486C42.1374 25.222 42.4314 25.09 42.7674 25.09C43.1154 25.09 43.4034 25.222 43.6314 25.486C43.8714 25.75 43.9914 26.068 43.9914 26.44C43.9914 26.812 43.8774 27.13 43.6494 27.394C43.4214 27.646 43.1274 27.772 42.7674 27.772ZM50.3368 43.378C49.2808 43.378 48.4408 43.264 47.8168 43.036C47.2048 42.808 46.7608 42.508 46.4848 42.136C46.2208 41.776 46.0888 41.398 46.0888 41.002C46.0888 40.702 46.1548 40.42 46.2868 40.156C46.4188 39.904 46.6108 39.664 46.8628 39.436C47.1148 39.208 47.4208 39.028 47.7808 38.896C47.3248 38.764 46.9948 38.566 46.7908 38.302C46.5868 38.026 46.4848 37.714 46.4848 37.366C46.4848 37.018 46.6228 36.652 46.8988 36.268C47.1868 35.884 47.6368 35.614 48.2488 35.458C47.7328 35.23 47.3068 34.894 46.9708 34.45C46.6468 34.006 46.4788 33.478 46.4668 32.866C46.4548 32.146 46.6348 31.51 47.0068 30.958C47.3908 30.406 47.8888 29.98 48.5008 29.68C49.1128 29.368 49.7488 29.212 50.4088 29.212C50.7448 29.212 51.1168 29.26 51.5248 29.356C51.9328 29.452 52.2928 29.602 52.6048 29.806C52.7248 29.446 52.8928 29.116 53.1088 28.816C53.3248 28.504 53.5768 28.252 53.8648 28.06C54.1648 27.868 54.4948 27.772 54.8548 27.772C55.2268 27.772 55.5088 27.868 55.7008 28.06C55.8928 28.252 55.9888 28.51 55.9888 28.834C55.9888 28.966 55.9588 29.11 55.8988 29.266C55.8388 29.422 55.7368 29.554 55.5928 29.662C55.4488 29.77 55.2508 29.824 54.9988 29.824C54.8068 29.824 54.6268 29.758 54.4588 29.626C54.3028 29.494 54.2068 29.332 54.1708 29.14C53.9668 29.188 53.7808 29.338 53.6128 29.59C53.4568 29.842 53.3608 30.082 53.3248 30.31C53.6488 30.598 53.9008 30.94 54.0808 31.336C54.2608 31.72 54.3508 32.134 54.3508 32.578C54.3508 33.262 54.1588 33.874 53.7748 34.414C53.4028 34.942 52.9108 35.356 52.2988 35.656C51.6988 35.956 51.0508 36.106 50.3548 36.106C50.1748 36.106 49.9948 36.1 49.8148 36.088C49.6348 36.064 49.4428 36.052 49.2388 36.052C48.9148 36.052 48.6448 36.118 48.4288 36.25C48.2248 36.382 48.1348 36.556 48.1588 36.772C48.1948 37.024 48.4108 37.192 48.8068 37.276C49.2028 37.348 49.8148 37.408 50.6428 37.456C51.5668 37.504 52.3708 37.618 53.0548 37.798C53.7388 37.978 54.2668 38.26 54.6388 38.644C55.0108 39.04 55.1968 39.58 55.1968 40.264C55.1968 40.768 55.0528 41.212 54.7648 41.596C54.4768 41.98 54.0928 42.304 53.6128 42.568C53.1448 42.832 52.6228 43.03 52.0468 43.162C51.4828 43.306 50.9128 43.378 50.3368 43.378ZM50.6788 42.316C51.5908 42.316 52.2868 42.148 52.7668 41.812C53.2468 41.476 53.4868 41.11 53.4868 40.714C53.4868 40.402 53.3728 40.15 53.1448 39.958C52.9168 39.778 52.5928 39.64 52.1728 39.544C51.7528 39.448 51.2308 39.388 50.6068 39.364C50.3308 39.352 50.0248 39.334 49.6888 39.31C49.3528 39.298 49.0468 39.268 48.7708 39.22C48.5428 39.388 48.3628 39.598 48.2308 39.85C48.1108 40.102 48.0508 40.354 48.0508 40.606C48.0268 41.122 48.2548 41.536 48.7348 41.848C49.2148 42.16 49.8628 42.316 50.6788 42.316ZM50.4268 35.098C50.7868 35.098 51.0868 34.996 51.3268 34.792C51.5788 34.576 51.7648 34.306 51.8848 33.982C52.0168 33.646 52.0828 33.292 52.0828 32.92C52.0828 32.464 52.0228 32.032 51.9028 31.624C51.7828 31.204 51.5968 30.868 51.3448 30.616C51.0928 30.352 50.7748 30.22 50.3908 30.22C49.8508 30.22 49.4308 30.448 49.1308 30.904C48.8428 31.348 48.6988 31.876 48.6988 32.488C48.6988 32.956 48.7648 33.394 48.8968 33.802C49.0408 34.198 49.2388 34.516 49.4908 34.756C49.7548 34.984 50.0668 35.098 50.4268 35.098ZM56.3068 38.5V37.546C56.6548 37.546 56.9008 37.474 57.0448 37.33C57.1888 37.174 57.2788 36.958 57.3148 36.682C57.3508 36.406 57.3688 36.094 57.3688 35.746V32.362C57.3688 32.146 57.3748 31.918 57.3868 31.678C57.3988 31.438 57.4168 31.192 57.4408 30.94C57.2488 30.952 57.0268 30.964 56.7748 30.976C56.5348 30.988 56.3368 31 56.1808 31.012V29.842C56.7208 29.842 57.1648 29.818 57.5128 29.77C57.8608 29.71 58.1308 29.638 58.3228 29.554C58.5148 29.47 58.6528 29.392 58.7368 29.32H59.4928C59.5168 29.452 59.5288 29.56 59.5288 29.644C59.5288 29.728 59.5348 29.818 59.5468 29.914C59.5588 29.998 59.5768 30.124 59.6008 30.292C59.8408 30.088 60.1168 29.908 60.4288 29.752C60.7528 29.584 61.0768 29.452 61.4008 29.356C61.7248 29.26 62.0248 29.212 62.3008 29.212C63.3808 29.212 64.1548 29.53 64.6228 30.166C65.0908 30.802 65.3248 31.816 65.3248 33.208V35.926C65.3248 36.118 65.3188 36.352 65.3068 36.628C65.3068 36.892 65.2888 37.15 65.2528 37.402C65.4568 37.378 65.6668 37.366 65.8828 37.366C66.0988 37.354 66.2788 37.348 66.4228 37.348V38.5H62.0488V37.546C62.3968 37.546 62.6428 37.474 62.7868 37.33C62.9428 37.174 63.0388 36.958 63.0748 36.682C63.1108 36.406 63.1288 36.094 63.1288 35.746L63.1108 33.19C63.1108 32.326 62.9788 31.684 62.7148 31.264C62.4628 30.832 62.0428 30.616 61.4548 30.616C61.1068 30.628 60.7648 30.712 60.4288 30.868C60.0928 31.024 59.8108 31.222 59.5828 31.462C59.5948 31.606 59.6008 31.756 59.6008 31.912C59.6008 32.068 59.6008 32.224 59.6008 32.38L59.5828 35.926C59.5828 36.118 59.5768 36.352 59.5648 36.628C59.5648 36.892 59.5468 37.15 59.5108 37.402C59.7028 37.378 59.9068 37.366 60.1228 37.366C60.3508 37.354 60.5368 37.348 60.6808 37.348V38.5H56.3068ZM77.2709 26.89C76.9469 26.902 76.6889 26.962 76.4969 27.07C76.3169 27.166 76.1909 27.34 76.1189 27.592C76.0469 27.844 76.0109 28.204 76.0109 28.672V35.818C76.0109 36.142 76.0049 36.442 75.9929 36.718C75.9809 36.994 75.9629 37.21 75.9389 37.366C76.1429 37.354 76.3769 37.342 76.6409 37.33C76.9049 37.318 77.1149 37.312 77.2709 37.312V38.5H72.4829V37.51C72.8189 37.498 73.0769 37.444 73.2569 37.348C73.4369 37.24 73.5629 37.06 73.6349 36.808C73.7069 36.544 73.7429 36.184 73.7429 35.728V28.546C73.7429 28.246 73.7489 27.958 73.7609 27.682C73.7849 27.406 73.8029 27.19 73.8149 27.034C73.6109 27.046 73.3769 27.058 73.1129 27.07C72.8489 27.07 72.6389 27.076 72.4829 27.088V25.9H77.2709V26.89ZM78.7892 38.5V37.546C79.1372 37.546 79.3832 37.474 79.5272 37.33C79.6712 37.174 79.7612 36.958 79.7972 36.682C79.8332 36.406 79.8512 36.094 79.8512 35.746V32.362C79.8512 32.146 79.8572 31.918 79.8692 31.678C79.8812 31.438 79.8992 31.192 79.9232 30.94C79.7312 30.952 79.5092 30.964 79.2572 30.976C79.0172 30.988 78.8192 31 78.6632 31.012V29.842C79.2032 29.842 79.6472 29.818 79.9952 29.77C80.3432 29.71 80.6132 29.638 80.8052 29.554C80.9972 29.47 81.1352 29.392 81.2192 29.32H81.9752C81.9992 29.452 82.0112 29.56 82.0112 29.644C82.0112 29.728 82.0172 29.818 82.0292 29.914C82.0412 29.998 82.0592 30.124 82.0832 30.292C82.3232 30.088 82.5992 29.908 82.9112 29.752C83.2352 29.584 83.5592 29.452 83.8832 29.356C84.2072 29.26 84.5072 29.212 84.7832 29.212C85.8632 29.212 86.6372 29.53 87.1052 30.166C87.5732 30.802 87.8072 31.816 87.8072 33.208V35.926C87.8072 36.118 87.8012 36.352 87.7892 36.628C87.7892 36.892 87.7712 37.15 87.7352 37.402C87.9392 37.378 88.1492 37.366 88.3652 37.366C88.5812 37.354 88.7612 37.348 88.9052 37.348V38.5H84.5312V37.546C84.8792 37.546 85.1252 37.474 85.2692 37.33C85.4252 37.174 85.5212 36.958 85.5572 36.682C85.5932 36.406 85.6112 36.094 85.6112 35.746L85.5932 33.19C85.5932 32.326 85.4612 31.684 85.1972 31.264C84.9452 30.832 84.5252 30.616 83.9372 30.616C83.5892 30.628 83.2472 30.712 82.9112 30.868C82.5752 31.024 82.2932 31.222 82.0652 31.462C82.0772 31.606 82.0832 31.756 82.0832 31.912C82.0832 32.068 82.0832 32.224 82.0832 32.38L82.0652 35.926C82.0652 36.118 82.0592 36.352 82.0472 36.628C82.0472 36.892 82.0292 37.15 81.9932 37.402C82.1852 37.378 82.3892 37.366 82.6052 37.366C82.8332 37.354 83.0192 37.348 83.1632 37.348V38.5H78.7892Z" fill="#FFF9C0"/>
<path d="M182.636 29.86C182.552 29.224 182.378 28.672 182.114 28.204C181.85 27.724 181.496 27.358 181.052 27.106C180.62 26.842 180.098 26.71 179.486 26.71C178.898 26.71 178.406 26.878 178.01 27.214C177.626 27.55 177.434 27.964 177.434 28.456C177.434 28.864 177.548 29.218 177.776 29.518C178.016 29.818 178.358 30.094 178.802 30.346C179.246 30.586 179.774 30.838 180.386 31.102C180.842 31.294 181.304 31.51 181.772 31.75C182.24 31.978 182.672 32.254 183.068 32.578C183.464 32.902 183.782 33.28 184.022 33.712C184.274 34.132 184.4 34.636 184.4 35.224C184.4 35.92 184.214 36.538 183.842 37.078C183.482 37.618 182.966 38.038 182.294 38.338C181.622 38.638 180.83 38.788 179.918 38.788C179.414 38.788 178.88 38.71 178.316 38.554C177.752 38.41 177.236 38.188 176.768 37.888L176.822 38.662H175.598L175.562 34.576H176.588C176.72 35.596 177.098 36.37 177.722 36.898C178.346 37.414 179.096 37.672 179.972 37.672C180.416 37.672 180.812 37.594 181.16 37.438C181.508 37.27 181.778 37.048 181.97 36.772C182.174 36.484 182.276 36.16 182.276 35.8C182.276 35.332 182.132 34.948 181.844 34.648C181.556 34.348 181.19 34.09 180.746 33.874C180.302 33.658 179.84 33.448 179.36 33.244C178.82 33.016 178.31 32.776 177.83 32.524C177.35 32.26 176.924 31.966 176.552 31.642C176.192 31.306 175.904 30.922 175.688 30.49C175.484 30.058 175.382 29.548 175.382 28.96C175.382 28.612 175.448 28.246 175.58 27.862C175.712 27.466 175.928 27.1 176.228 26.764C176.54 26.428 176.954 26.152 177.47 25.936C177.986 25.72 178.628 25.612 179.396 25.612C179.876 25.612 180.398 25.684 180.962 25.828C181.538 25.96 182.042 26.182 182.474 26.494L182.402 25.738H183.644V29.86H182.636ZM185.697 37.546C186.045 37.546 186.291 37.474 186.435 37.33C186.579 37.174 186.669 36.958 186.705 36.682C186.741 36.406 186.759 36.094 186.759 35.746V32.38C186.759 32.176 186.765 31.954 186.777 31.714C186.789 31.462 186.807 31.204 186.831 30.94C186.627 30.952 186.405 30.964 186.165 30.976C185.925 30.988 185.727 31 185.571 31.012V29.842C186.111 29.842 186.555 29.818 186.903 29.77C187.263 29.71 187.539 29.638 187.731 29.554C187.935 29.47 188.079 29.392 188.163 29.32H188.973V35.926C188.973 36.118 188.967 36.352 188.955 36.628C188.955 36.892 188.937 37.15 188.901 37.402C189.093 37.378 189.297 37.366 189.513 37.366C189.741 37.354 189.927 37.348 190.071 37.348V38.5H185.697V37.546ZM187.767 27.772C187.419 27.772 187.125 27.646 186.885 27.394C186.645 27.13 186.525 26.812 186.525 26.44C186.525 26.068 186.645 25.75 186.885 25.486C187.137 25.222 187.431 25.09 187.767 25.09C188.115 25.09 188.403 25.222 188.631 25.486C188.871 25.75 188.991 26.068 188.991 26.44C188.991 26.812 188.877 27.13 188.649 27.394C188.421 27.646 188.127 27.772 187.767 27.772ZM195.337 43.378C194.281 43.378 193.441 43.264 192.817 43.036C192.205 42.808 191.761 42.508 191.485 42.136C191.221 41.776 191.089 41.398 191.089 41.002C191.089 40.702 191.155 40.42 191.287 40.156C191.419 39.904 191.611 39.664 191.863 39.436C192.115 39.208 192.421 39.028 192.781 38.896C192.325 38.764 191.995 38.566 191.791 38.302C191.587 38.026 191.485 37.714 191.485 37.366C191.485 37.018 191.623 36.652 191.899 36.268C192.187 35.884 192.637 35.614 193.249 35.458C192.733 35.23 192.307 34.894 191.971 34.45C191.647 34.006 191.479 33.478 191.467 32.866C191.455 32.146 191.635 31.51 192.007 30.958C192.391 30.406 192.889 29.98 193.501 29.68C194.113 29.368 194.749 29.212 195.409 29.212C195.745 29.212 196.117 29.26 196.525 29.356C196.933 29.452 197.293 29.602 197.605 29.806C197.725 29.446 197.893 29.116 198.109 28.816C198.325 28.504 198.577 28.252 198.865 28.06C199.165 27.868 199.495 27.772 199.855 27.772C200.227 27.772 200.509 27.868 200.701 28.06C200.893 28.252 200.989 28.51 200.989 28.834C200.989 28.966 200.959 29.11 200.899 29.266C200.839 29.422 200.737 29.554 200.593 29.662C200.449 29.77 200.251 29.824 199.999 29.824C199.807 29.824 199.627 29.758 199.459 29.626C199.303 29.494 199.207 29.332 199.171 29.14C198.967 29.188 198.781 29.338 198.613 29.59C198.457 29.842 198.361 30.082 198.325 30.31C198.649 30.598 198.901 30.94 199.081 31.336C199.261 31.72 199.351 32.134 199.351 32.578C199.351 33.262 199.159 33.874 198.775 34.414C198.403 34.942 197.911 35.356 197.299 35.656C196.699 35.956 196.051 36.106 195.355 36.106C195.175 36.106 194.995 36.1 194.815 36.088C194.635 36.064 194.443 36.052 194.239 36.052C193.915 36.052 193.645 36.118 193.429 36.25C193.225 36.382 193.135 36.556 193.159 36.772C193.195 37.024 193.411 37.192 193.807 37.276C194.203 37.348 194.815 37.408 195.643 37.456C196.567 37.504 197.371 37.618 198.055 37.798C198.739 37.978 199.267 38.26 199.639 38.644C200.011 39.04 200.197 39.58 200.197 40.264C200.197 40.768 200.053 41.212 199.765 41.596C199.477 41.98 199.093 42.304 198.613 42.568C198.145 42.832 197.623 43.03 197.047 43.162C196.483 43.306 195.913 43.378 195.337 43.378ZM195.679 42.316C196.591 42.316 197.287 42.148 197.767 41.812C198.247 41.476 198.487 41.11 198.487 40.714C198.487 40.402 198.373 40.15 198.145 39.958C197.917 39.778 197.593 39.64 197.173 39.544C196.753 39.448 196.231 39.388 195.607 39.364C195.331 39.352 195.025 39.334 194.689 39.31C194.353 39.298 194.047 39.268 193.771 39.22C193.543 39.388 193.363 39.598 193.231 39.85C193.111 40.102 193.051 40.354 193.051 40.606C193.027 41.122 193.255 41.536 193.735 41.848C194.215 42.16 194.863 42.316 195.679 42.316ZM195.427 35.098C195.787 35.098 196.087 34.996 196.327 34.792C196.579 34.576 196.765 34.306 196.885 33.982C197.017 33.646 197.083 33.292 197.083 32.92C197.083 32.464 197.023 32.032 196.903 31.624C196.783 31.204 196.597 30.868 196.345 30.616C196.093 30.352 195.775 30.22 195.391 30.22C194.851 30.22 194.431 30.448 194.131 30.904C193.843 31.348 193.699 31.876 193.699 32.488C193.699 32.956 193.765 33.394 193.897 33.802C194.041 34.198 194.239 34.516 194.491 34.756C194.755 34.984 195.067 35.098 195.427 35.098ZM201.307 38.5V37.546C201.655 37.546 201.901 37.474 202.045 37.33C202.189 37.174 202.279 36.958 202.315 36.682C202.351 36.406 202.369 36.094 202.369 35.746V32.362C202.369 32.146 202.375 31.918 202.387 31.678C202.399 31.438 202.417 31.192 202.441 30.94C202.249 30.952 202.027 30.964 201.775 30.976C201.535 30.988 201.337 31 201.181 31.012V29.842C201.721 29.842 202.165 29.818 202.513 29.77C202.861 29.71 203.131 29.638 203.323 29.554C203.515 29.47 203.653 29.392 203.737 29.32H204.493C204.517 29.452 204.529 29.56 204.529 29.644C204.529 29.728 204.535 29.818 204.547 29.914C204.559 29.998 204.577 30.124 204.601 30.292C204.841 30.088 205.117 29.908 205.429 29.752C205.753 29.584 206.077 29.452 206.401 29.356C206.725 29.26 207.025 29.212 207.301 29.212C208.381 29.212 209.155 29.53 209.623 30.166C210.091 30.802 210.325 31.816 210.325 33.208V35.926C210.325 36.118 210.319 36.352 210.307 36.628C210.307 36.892 210.289 37.15 210.253 37.402C210.457 37.378 210.667 37.366 210.883 37.366C211.099 37.354 211.279 37.348 211.423 37.348V38.5H207.049V37.546C207.397 37.546 207.643 37.474 207.787 37.33C207.943 37.174 208.039 36.958 208.075 36.682C208.111 36.406 208.129 36.094 208.129 35.746L208.111 33.19C208.111 32.326 207.979 31.684 207.715 31.264C207.463 30.832 207.043 30.616 206.455 30.616C206.107 30.628 205.765 30.712 205.429 30.868C205.093 31.024 204.811 31.222 204.583 31.462C204.595 31.606 204.601 31.756 204.601 31.912C204.601 32.068 204.601 32.224 204.601 32.38L204.583 35.926C204.583 36.118 204.577 36.352 204.565 36.628C204.565 36.892 204.547 37.15 204.511 37.402C204.703 37.378 204.907 37.366 205.123 37.366C205.351 37.354 205.537 37.348 205.681 37.348V38.5H201.307ZM221.839 26.89C221.527 26.902 221.275 26.956 221.083 27.052C220.903 27.148 220.771 27.304 220.687 27.52C220.615 27.724 220.579 28.018 220.579 28.402V33.226C220.579 33.946 220.645 34.576 220.777 35.116C220.921 35.644 221.125 36.088 221.389 36.448C221.653 36.808 221.977 37.078 222.361 37.258C222.757 37.438 223.213 37.528 223.729 37.528C224.449 37.552 225.055 37.402 225.547 37.078C226.051 36.754 226.429 36.28 226.681 35.656C226.933 35.032 227.059 34.27 227.059 33.37L227.077 28.546C227.077 28.246 227.083 27.958 227.095 27.682C227.107 27.406 227.125 27.19 227.149 27.034C226.945 27.046 226.711 27.058 226.447 27.07C226.183 27.07 225.973 27.076 225.817 27.088V25.9H229.705V26.89C229.381 26.902 229.123 26.962 228.931 27.07C228.751 27.166 228.625 27.34 228.553 27.592C228.481 27.844 228.445 28.204 228.445 28.672L228.427 33.064C228.427 34.012 228.313 34.846 228.085 35.566C227.869 36.274 227.545 36.868 227.113 37.348C226.681 37.828 226.159 38.188 225.547 38.428C224.935 38.668 224.239 38.788 223.459 38.788C222.463 38.788 221.629 38.65 220.957 38.374C220.297 38.098 219.769 37.702 219.373 37.186C218.989 36.658 218.713 36.04 218.545 35.332C218.389 34.612 218.311 33.808 218.311 32.92V28.798C218.311 28.486 218.317 28.162 218.329 27.826C218.353 27.478 218.371 27.214 218.383 27.034C218.179 27.046 217.945 27.058 217.681 27.07C217.417 27.07 217.207 27.076 217.051 27.088V25.9H221.839V26.89ZM230.465 43.09V42.136C230.813 42.136 231.059 42.058 231.203 41.902C231.359 41.758 231.455 41.548 231.491 41.272C231.527 40.996 231.545 40.684 231.545 40.336L231.563 32.362C231.563 32.146 231.563 31.918 231.563 31.678C231.575 31.438 231.599 31.192 231.635 30.94C231.431 30.952 231.203 30.964 230.951 30.976C230.711 30.988 230.513 31 230.357 31.012V29.842C230.909 29.842 231.353 29.818 231.689 29.77C232.037 29.71 232.301 29.638 232.481 29.554C232.673 29.47 232.811 29.392 232.895 29.32H233.669C233.693 29.44 233.711 29.584 233.723 29.752C233.735 29.92 233.747 30.076 233.759 30.22C234.155 29.872 234.575 29.62 235.019 29.464C235.463 29.296 235.889 29.212 236.297 29.212C237.017 29.212 237.659 29.398 238.223 29.77C238.787 30.13 239.231 30.652 239.555 31.336C239.879 32.008 240.041 32.806 240.041 33.73C240.041 34.714 239.843 35.59 239.447 36.358C239.063 37.114 238.535 37.708 237.863 38.14C237.191 38.572 236.417 38.788 235.541 38.788C235.181 38.788 234.857 38.746 234.569 38.662C234.281 38.59 234.011 38.494 233.759 38.374V40.516C233.759 40.708 233.753 40.936 233.741 41.2C233.741 41.476 233.723 41.74 233.687 41.992C233.879 41.968 234.083 41.95 234.299 41.938C234.515 41.938 234.695 41.938 234.839 41.938V43.09H230.465ZM235.343 37.654C235.895 37.642 236.339 37.474 236.675 37.15C237.023 36.814 237.275 36.37 237.431 35.818C237.587 35.266 237.665 34.666 237.665 34.018C237.665 33.43 237.587 32.872 237.431 32.344C237.287 31.816 237.053 31.39 236.729 31.066C236.405 30.742 235.973 30.58 235.433 30.58C235.097 30.592 234.779 30.676 234.479 30.832C234.191 30.988 233.951 31.192 233.759 31.444C233.759 31.708 233.759 31.978 233.759 32.254C233.759 32.53 233.759 32.824 233.759 33.136C233.759 33.448 233.759 33.802 233.759 34.198C233.759 34.582 233.759 35.02 233.759 35.512C233.759 36.004 233.759 36.568 233.759 37.204C233.951 37.336 234.185 37.444 234.461 37.528C234.737 37.612 235.031 37.654 235.343 37.654Z" fill="#FFF9C0"/>
<path d="M149.627 38.6635C148.059 36.5742 147.342 35.6106 146.968 34.6009C146.348 32.9225 146.348 31.0775 146.968 29.3991C147.342 28.3894 148.059 27.4258 149.627 25.3365L164.939 4.93652C166.007 3.51366 166.5 2.8618 167.082 2.3533C168.046 1.50994 169.211 0.927829 170.465 0.662514C171.221 0.502546 172.038 0.5 173.817 0.5H242.183C243.962 0.5 244.779 0.502546 245.535 0.662514C246.789 0.927829 247.954 1.50994 248.918 2.35331C249.5 2.8618 249.993 3.51366 251.061 4.93652L251.461 4.63637L251.061 4.93652L266.373 25.3365C267.941 27.4258 268.658 28.3894 269.032 29.3991C269.652 31.0775 269.652 32.9225 269.032 34.6009C268.658 35.6106 267.941 36.5742 266.373 38.6635L251.061 59.0635C249.993 60.4863 249.5 61.1382 248.918 61.6467C247.954 62.4901 246.789 63.0722 245.535 63.3375C244.779 63.4975 243.962 63.5 242.183 63.5H173.817C172.038 63.5 171.221 63.4975 170.465 63.3375C169.211 63.0722 168.046 62.4901 167.082 61.6467C166.5 61.1382 166.007 60.4863 164.939 59.0635L149.627 38.6635Z" fill="#F2BB5A" fill-opacity="0.1"/>
<path d="M149.627 38.6635C148.059 36.5742 147.342 35.6106 146.968 34.6009C146.348 32.9225 146.348 31.0775 146.968 29.3991C147.342 28.3894 148.059 27.4258 149.627 25.3365L164.939 4.93652C166.007 3.51366 166.5 2.8618 167.082 2.3533C168.046 1.50994 169.211 0.927829 170.465 0.662514C171.221 0.502546 172.038 0.5 173.817 0.5H242.183C243.962 0.5 244.779 0.502546 245.535 0.662514C246.789 0.927829 247.954 1.50994 248.918 2.35331C249.5 2.8618 249.993 3.51366 251.061 4.93652L251.461 4.63637L251.061 4.93652L266.373 25.3365C267.941 27.4258 268.658 28.3894 269.032 29.3991C269.652 31.0775 269.652 32.9225 269.032 34.6009C268.658 35.6106 267.941 36.5742 266.373 38.6635L251.061 59.0635C249.993 60.4863 249.5 61.1382 248.918 61.6467C247.954 62.4901 246.789 63.0722 245.535 63.3375C244.779 63.4975 243.962 63.5 242.183 63.5H173.817C172.038 63.5 171.221 63.4975 170.465 63.3375C169.211 63.0722 168.046 62.4901 167.082 61.6467C166.5 61.1382 166.007 60.4863 164.939 59.0635L149.627 38.6635Z" stroke="url(#paint2_linear_0_1570)"/>
<path d="M149.627 38.6635C148.059 36.5742 147.342 35.6106 146.968 34.6009C146.348 32.9225 146.348 31.0775 146.968 29.3991C147.342 28.3894 148.059 27.4258 149.627 25.3365L164.939 4.93652C166.007 3.51366 166.5 2.8618 167.082 2.3533C168.046 1.50994 169.211 0.927829 170.465 0.662514C171.221 0.502546 172.038 0.5 173.817 0.5H242.183C243.962 0.5 244.779 0.502546 245.535 0.662514C246.789 0.927829 247.954 1.50994 248.918 2.35331C249.5 2.8618 249.993 3.51366 251.061 4.93652L251.461 4.63637L251.061 4.93652L266.373 25.3365C267.941 27.4258 268.658 28.3894 269.032 29.3991C269.652 31.0775 269.652 32.9225 269.032 34.6009C268.658 35.6106 267.941 36.5742 266.373 38.6635L251.061 59.0635C249.993 60.4863 249.5 61.1382 248.918 61.6467C247.954 62.4901 246.789 63.0722 245.535 63.3375C244.779 63.4975 243.962 63.5 242.183 63.5H173.817C172.038 63.5 171.221 63.4975 170.465 63.3375C169.211 63.0722 168.046 62.4901 167.082 61.6467C166.5 61.1382 166.007 60.4863 164.939 59.0635L149.627 38.6635Z" stroke="url(#paint3_linear_0_1570)"/>
</g>
</g>
<defs>
<filter id="filter0_b_0_1570" x="-10" y="-10" width="291" height="84" filterUnits="userSpaceOnUse" color-interpolation-filters="sRGB">
<feFlood flood-opacity="0" result="BackgroundImageFix"/>
<feGaussianBlur in="BackgroundImageFix" stdDeviation="5"/>
<feComposite in2="SourceAlpha" operator="in" result="effect1_backgroundBlur_0_1570"/>
<feBlend mode="normal" in="SourceGraphic" in2="effect1_backgroundBlur_0_1570" result="shape"/>
</filter>
<linearGradient id="paint0_linear_0_1570" x1="-1.52346" y1="-5.83334" x2="48.3986" y2="38.7353" gradientUnits="userSpaceOnUse">
<stop stop-color="#FFE195"/>
<stop offset="0.177083" stop-color="#F2BB5A" stop-opacity="0.876812"/>
<stop offset="0.359375" stop-color="#BF7A00" stop-opacity="0.75"/>
<stop offset="1" stop-color="#BF7A00" stop-opacity="0"/>
<stop offset="1" stop-color="#0F1218" stop-opacity="0"/>
</linearGradient>
<linearGradient id="paint1_linear_0_1570" x1="116.019" y1="65.6334" x2="63.1196" y2="18.1934" gradientUnits="userSpaceOnUse">
<stop stop-color="#FFE195"/>
<stop offset="0.217042" stop-color="#F2BB5A" stop-opacity="0.86"/>
<stop offset="0.439162" stop-color="#BF7A00" stop-opacity="0.669735"/>
<stop offset="0.829796" stop-opacity="0"/>
</linearGradient>
<linearGradient id="paint2_linear_0_1570" x1="143.446" y1="-5.33334" x2="193.608" y2="42.0398" gradientUnits="userSpaceOnUse">
<stop stop-color="#FFE195"/>
<stop offset="0.177083" stop-color="#F2BB5A" stop-opacity="0.876812"/>
<stop offset="0.359375" stop-color="#BF7A00" stop-opacity="0.75"/>
<stop offset="1" stop-color="#BF7A00" stop-opacity="0"/>
<stop offset="1" stop-color="#0F1218" stop-opacity="0"/>
</linearGradient>
<linearGradient id="paint3_linear_0_1570" x1="267.788" y1="66.1334" x2="214.649" y2="15.721" gradientUnits="userSpaceOnUse">
<stop stop-color="#FFE195"/>
<stop offset="0.217042" stop-color="#F2BB5A" stop-opacity="0.86"/>
<stop offset="0.439162" stop-color="#BF7A00" stop-opacity="0.669735"/>
<stop offset="0.829796" stop-opacity="0"/>
</linearGradient>
<clipPath id="clip0_0_1570">
<rect width="271" height="64" rx="24" fill="white"/>
</clipPath>
</defs>
</svg>
