<svg width="141" height="62" viewBox="0 0 141 62" fill="none" xmlns="http://www.w3.org/2000/svg">
<path d="M39.1923 61.2501H9.80628C4.39978 61.2501 0.000991821 57.4842 0.000991821 52.8546V19.1835C0.000991821 18.5216 0.633759 17.9799 1.40678 17.9799H13.9941C14.7671 17.9799 15.3999 18.5216 15.3999 19.1835V22.1756C15.3999 23.167 16.3416 23.9734 17.4996 23.9734C18.6576 23.9734 19.5994 23.1671 19.5994 22.1756V19.184C19.5994 18.5221 20.2322 17.9803 21.0052 17.9803H47.5983C48.3713 17.9803 48.9983 18.5171 48.9983 19.179V52.8547C48.9983 57.4839 44.6 61.2502 39.193 61.2502L39.1923 61.2501ZM2.80028 20.3771V52.8554C2.80028 56.1625 5.94299 58.8535 9.8056 58.8535H39.1916C43.0541 58.8535 46.1969 56.1626 46.1969 52.8554V20.3771H22.3982V22.175C22.3982 24.4885 20.2004 26.3702 17.4984 26.3702C14.7965 26.3702 12.5987 24.4885 12.5987 22.175V20.3771H2.80028Z" fill="url(#paint0_linear_0_1064)" fill-opacity="0.876812"/>
<path d="M13.9939 20.377H1.4102C0.928241 20.377 0.475809 20.1625 0.219543 19.813C-0.0367222 19.4636 -0.0652056 19.0211 0.144139 18.6501C0.152575 18.6356 0.129901 18.674 7.14622 6.65853C7.38298 6.2531 7.87231 5.99304 8.40384 5.99304H14.0001C14.7732 5.99304 15.4001 6.52986 15.4001 7.19173V19.1729C15.3996 19.8352 14.7668 20.3765 13.9938 20.3765L13.9939 20.377ZM3.66602 17.98H12.6002V8.39085H9.26555L3.66602 17.98Z" fill="url(#paint1_linear_0_1064)" fill-opacity="0.876812"/>
<path d="M47.5982 20.3769H21.0065C20.2334 20.3769 19.6007 19.8351 19.6007 19.1732V7.1967C19.6007 6.53482 20.2334 5.99304 21.0065 5.99304H27.9944C28.7674 5.99304 29.4001 6.53483 29.4001 7.1967V10.1883C29.4001 11.1798 30.3419 11.9862 31.4999 11.9862C32.6579 11.9862 33.5997 11.1798 33.5997 10.1883V7.1967C33.5997 6.53482 34.2325 5.99304 35.0055 5.99304H40.596C41.1275 5.99304 41.6163 6.2531 41.8531 6.65853L48.8509 18.642C49.3155 19.438 48.6384 20.3766 47.5986 20.3766L47.5982 20.3769ZM22.3996 17.98H45.333L39.7336 8.39077H36.399V10.1886C36.399 12.5021 34.2012 14.3839 31.4992 14.3839C28.7973 14.3839 26.5995 12.5021 26.5995 10.1886V8.39077H22.4001L22.3996 17.98Z" fill="url(#paint2_linear_0_1064)" fill-opacity="0.876812"/>
<path d="M39.1977 61.1312H9.79948C4.39623 61.1312 0 57.3672 0 52.7407C0 52.0788 0.626962 51.542 1.39998 51.542H47.5963C48.3694 51.542 48.9963 52.0788 48.9963 52.7407C48.9963 57.367 44.6002 61.1312 39.1968 61.1312H39.1977ZM2.94063 53.9394C3.59079 56.6714 6.41932 58.7337 9.79935 58.7337H39.1975C42.5775 58.7337 45.406 56.6712 46.0562 53.9394H2.94063Z" fill="url(#paint3_linear_0_1064)" fill-opacity="0.876812"/>
<path d="M17.4993 26.3698C14.7974 26.3698 12.5996 24.488 12.5996 22.1746V8.39038H7.78528C5.08602 8.39038 2.85018 6.54374 2.80118 4.27419C2.75003 1.91472 4.96412 0 7.69984 0H41.2125C43.9118 0 46.1476 1.84664 46.1966 4.11619C46.2478 6.4752 44.0337 8.39003 41.2979 8.39003H36.3982V10.1879C36.3982 12.5014 34.2004 14.3831 31.4985 14.3831C28.7965 14.3831 26.5987 12.5014 26.5987 10.1879V8.39003H22.3993V22.1742C22.3988 24.4882 20.201 26.3699 17.4996 26.3699L17.4993 26.3698ZM7.69984 2.39715C6.52816 2.39715 5.57846 3.2166 5.60006 4.22969C5.62115 5.2022 6.60089 5.99323 7.78474 5.99323H13.999C14.7721 5.99323 15.399 6.53004 15.399 7.19192V22.1747C15.399 23.1662 16.3408 23.9726 17.4988 23.9726C18.6568 23.9726 19.5985 23.1662 19.5985 22.1747L19.5991 7.19654C19.5991 6.53465 20.2318 5.99288 21.0049 5.99288H27.9928C28.7658 5.99288 29.3986 6.53467 29.3986 7.19654V10.1881C29.3986 11.1796 30.3403 11.986 31.4983 11.986C32.6563 11.986 33.5981 11.1796 33.5981 10.1881V7.19654C33.5981 6.53465 34.2309 5.99288 35.0039 5.99288H41.2978C42.4695 5.99288 43.4192 5.17343 43.397 4.16069C43.3759 3.18818 42.3962 2.39715 41.2123 2.39715H7.69984Z" fill="url(#paint4_linear_0_1064)" fill-opacity="0.876812"/>
<path d="M28.5604 41.2049L23.8004 38.8517C23.3674 38.6377 23.1006 38.2418 23.1006 37.8138V33.1079C23.1006 32.6799 23.3674 32.2839 23.8004 32.0699L28.5604 29.7168C28.9933 29.5028 29.5269 29.5028 29.9604 29.7168L34.7204 32.0699C35.1533 32.2839 35.4201 32.6799 35.4201 33.1079V37.8138C35.4201 38.2418 35.1533 38.6377 34.7204 38.8517L29.9604 41.2049C29.5274 41.4189 28.9933 41.4193 28.5604 41.2049ZM25.9001 37.1221L29.2602 38.7831L32.6202 37.1221V33.8L29.2602 32.139L25.9001 33.8V37.1221Z" fill="url(#paint5_linear_0_1064)" fill-opacity="0.876812"/>
<path d="M23.7993 48.2645L19.0393 45.9114C18.6064 45.6974 18.3396 45.3015 18.3396 44.8735V40.1676C18.3396 39.7396 18.6064 39.3436 19.0393 39.1296L23.7993 36.7765C24.2322 36.5625 24.7659 36.5625 25.1993 36.7765L29.9593 39.1296C30.3922 39.3436 30.6591 39.7395 30.6591 40.1676V44.8735C30.6591 45.3015 30.3922 45.6974 29.9593 45.9114L25.1993 48.2645C24.7664 48.4785 24.2322 48.479 23.7993 48.2645ZM21.1396 44.1818L24.4997 45.8428L27.8597 44.1818V40.8597L24.4997 39.1987L21.1396 40.8597V44.1818Z" fill="url(#paint6_linear_0_1064)" fill-opacity="0.876812"/>
<path d="M19.0382 41.2049L14.2782 38.8517C13.8453 38.6377 13.5785 38.2418 13.5785 37.8138L13.578 33.1079C13.578 32.6799 13.8448 32.2839 14.2777 32.0699L19.0377 29.7168C19.4706 29.5028 20.0043 29.5028 20.4377 29.7168L25.1977 32.0699C25.6306 32.2839 25.8975 32.6799 25.8975 33.1079V37.8138C25.8975 38.2418 25.6306 38.6377 25.1977 38.8517L20.4377 41.2049C20.0053 41.4189 19.4711 41.4193 19.0382 41.2049ZM16.378 37.1221L19.738 38.7831L23.0981 37.1221V33.8L19.738 32.139L16.378 33.8V37.1221Z" fill="url(#paint7_linear_0_1064)" fill-opacity="0.876812"/>
<path d="M90.1939 61.2501H66.805C62.5019 61.2501 59.0008 58.2528 59.0008 54.568V27.7686C59.0008 27.2418 59.5044 26.8105 60.1197 26.8105H70.1381C70.7534 26.8105 71.257 27.2418 71.257 27.7686V30.15C71.257 30.9391 72.0066 31.5809 72.9283 31.5809C73.85 31.5809 74.5995 30.9391 74.5995 30.15V27.7689C74.5995 27.2421 75.1032 26.8109 75.7184 26.8109H96.8843C97.4996 26.8109 97.9986 27.2382 97.9986 27.765V54.5681C97.9986 58.2525 94.498 61.2502 90.1944 61.2502L90.1939 61.2501ZM61.2288 28.7186V54.5686C61.2288 57.2008 63.7301 59.3426 66.8045 59.3426H90.1933C93.2676 59.3426 95.769 57.2009 95.769 54.5686V28.7186H76.8271V30.1495C76.8271 31.9909 75.0779 33.4886 72.9273 33.4886C70.7768 33.4886 69.0275 31.9909 69.0275 30.1495V28.7186H61.2288Z" fill="url(#paint8_linear_0_1064)" fill-opacity="0.876812"/>
<path d="M70.138 28.7184H60.1224C59.7388 28.7184 59.3787 28.5477 59.1747 28.2696C58.9708 27.9915 58.9481 27.6393 59.1147 27.344C59.1214 27.3325 59.1034 27.363 64.6878 17.7997C64.8762 17.477 65.2657 17.27 65.6888 17.27H70.143C70.7582 17.27 71.2572 17.6973 71.2572 18.2241V27.7601C71.2568 28.2873 70.7532 28.7181 70.1379 28.7181L70.138 28.7184ZM61.9179 26.8107H69.0287V19.1785H66.3746L61.9179 26.8107Z" fill="url(#paint9_linear_0_1064)" fill-opacity="0.876812"/>
<path d="M96.8842 28.7184H75.7194C75.1041 28.7184 74.6005 28.2872 74.6005 27.7604V18.228C74.6005 17.7012 75.1041 17.27 75.7194 17.27H81.2812C81.8965 17.27 82.4001 17.7012 82.4001 18.228V20.6091C82.4001 21.3982 83.1497 22.04 84.0714 22.04C84.993 22.04 85.7426 21.3982 85.7426 20.6091V18.228C85.7426 17.7012 86.2462 17.27 86.8615 17.27H91.3111C91.7341 17.27 92.1232 17.477 92.3116 17.7997L97.8814 27.3375C98.2511 27.9711 97.7122 28.7182 96.8846 28.7182L96.8842 28.7184ZM76.8282 26.8106H95.0814L90.6247 19.1784H87.9706V20.6094C87.9706 22.4507 86.2214 23.9484 84.0708 23.9484C81.9203 23.9484 80.171 22.4507 80.171 20.6094V19.1784H76.8286L76.8282 26.8106Z" fill="url(#paint10_linear_0_1064)" fill-opacity="0.876812"/>
<path d="M90.1981 61.1554H66.7996C62.499 61.1554 59 58.1596 59 54.4773C59 53.9504 59.499 53.5232 60.1143 53.5232H96.8828C97.4981 53.5232 97.9971 53.9505 97.9971 54.4773C97.9971 58.1595 94.4981 61.1554 90.1975 61.1554H90.1981ZM61.3405 55.4313C61.858 57.6058 64.1093 59.2472 66.7995 59.2472H90.198C92.8882 59.2472 95.1395 57.6057 95.657 55.4313H61.3405Z" fill="url(#paint11_linear_0_1064)" fill-opacity="0.876812"/>
<path d="M72.928 33.4882C70.7775 33.4882 69.0282 31.9905 69.0282 30.1492V19.1781H65.1965C63.0481 19.1781 61.2685 17.7083 61.2295 15.9019C61.1888 14.024 62.951 12.5 65.1284 12.5H91.8018C93.9502 12.5 95.7297 13.9698 95.7687 15.7762C95.8094 17.6537 94.0472 19.1778 91.8698 19.1778H87.97V20.6087C87.97 22.4501 86.2208 23.9478 84.0702 23.9478C81.9197 23.9478 80.1704 22.4501 80.1704 20.6087V19.1778H76.828V30.1489C76.8276 31.9906 75.0784 33.4883 72.9282 33.4883L72.928 33.4882ZM65.1284 14.4079C64.1959 14.4079 63.44 15.0601 63.4572 15.8665C63.474 16.6405 64.2538 17.2701 65.196 17.2701H70.1421C70.7574 17.2701 71.2564 17.6974 71.2564 18.2242V30.1492C71.2564 30.9384 72.0059 31.5802 72.9276 31.5802C73.8493 31.5802 74.5988 30.9384 74.5988 30.1492L74.5993 18.2279C74.5993 17.7011 75.1029 17.2698 75.7182 17.2698H81.28C81.8952 17.2698 82.3989 17.7011 82.3989 18.2279V20.6089C82.3989 21.398 83.1484 22.0399 84.0701 22.0399C84.9918 22.0399 85.7413 21.3981 85.7413 20.6089V18.2279C85.7413 17.7011 86.245 17.2698 86.8602 17.2698H91.8697C92.8022 17.2698 93.5581 16.6176 93.5405 15.8116C93.5237 15.0375 92.7439 14.4079 91.8017 14.4079H65.1284Z" fill="url(#paint12_linear_0_1064)" fill-opacity="0.876812"/>
<path d="M81.7317 45.2957L77.9431 43.4228C77.5986 43.2525 77.3862 42.9374 77.3862 42.5967V38.8512C77.3862 38.5105 77.5986 38.1954 77.9431 38.0251L81.7317 36.1522C82.0763 35.9818 82.501 35.9818 82.846 36.1522L86.6346 38.0251C86.9792 38.1954 87.1915 38.5105 87.1915 38.8512V42.5967C87.1915 42.9374 86.9792 43.2525 86.6346 43.4228L82.846 45.2957C82.5014 45.4661 82.0763 45.4664 81.7317 45.2957ZM79.6144 42.0462L82.2887 43.3682L84.963 42.0462V39.4021L82.2887 38.0801L79.6144 39.4021V42.0462Z" fill="url(#paint13_linear_0_1064)" fill-opacity="0.876812"/>
<path d="M77.9423 50.9145L74.1537 49.0416C73.8092 48.8713 73.5968 48.5561 73.5968 48.2155V44.47C73.5968 44.1293 73.8092 43.8142 74.1537 43.6438L77.9423 41.7709C78.2869 41.6006 78.7116 41.6006 79.0566 41.7709L82.8452 43.6438C83.1897 43.8142 83.4021 44.1293 83.4021 44.47V48.2155C83.4021 48.5561 83.1897 48.8713 82.8452 49.0416L79.0566 50.9145C78.712 51.0848 78.2869 51.0852 77.9423 50.9145ZM75.8254 47.6649L78.4997 48.987L81.174 47.6649V45.0209L78.4997 43.6988L75.8254 45.0209V47.6649Z" fill="url(#paint14_linear_0_1064)" fill-opacity="0.876812"/>
<path d="M74.1529 45.2957L70.3643 43.4228C70.0198 43.2525 69.8074 42.9374 69.8074 42.5967L69.807 38.8512C69.807 38.5105 70.0193 38.1954 70.3639 38.0251L74.1525 36.1522C74.497 35.9818 74.9218 35.9818 75.2668 36.1522L79.0553 38.0251C79.3999 38.1954 79.6123 38.5105 79.6123 38.8512V42.5967C79.6123 42.9374 79.3999 43.2525 79.0553 43.4228L75.2668 45.2957C74.9226 45.4661 74.4974 45.4664 74.1529 45.2957ZM72.0356 42.0462L74.7099 43.3682L77.3842 42.0462V39.4021L74.7099 38.0801L72.0356 39.4021V42.0462Z" fill="url(#paint15_linear_0_1064)" fill-opacity="0.876812"/>
<path d="M134.395 61.2499H114.604C110.963 61.2499 108.001 58.7137 108.001 55.5958V32.9194C108.001 32.4736 108.427 32.1088 108.947 32.1088H117.425C117.945 32.1088 118.371 32.4736 118.371 32.9194V34.9344C118.371 35.6022 119.006 36.1453 119.785 36.1453C120.565 36.1453 121.2 35.6022 121.2 34.9344V32.9197C121.2 32.4739 121.626 32.1091 122.146 32.1091H140.056C140.577 32.1091 140.999 32.4706 140.999 32.9164V55.5959C140.999 58.7135 138.037 61.25 134.395 61.25L134.395 61.2499ZM109.886 33.7233V55.5964C109.886 57.8236 112.002 59.6359 114.604 59.6359H134.394C136.996 59.6359 139.112 57.8237 139.112 55.5964V33.7233H123.084V34.9341C123.084 36.4921 121.604 37.7594 119.785 37.7594C117.965 37.7594 116.485 36.4921 116.485 34.9341V33.7233H109.886Z" fill="url(#paint16_linear_0_1064)" fill-opacity="0.876812"/>
<path d="M117.424 33.7234H108.95C108.625 33.7234 108.32 33.5789 108.148 33.3436C107.975 33.1083 107.956 32.8103 108.097 32.5604C108.103 32.5506 108.087 32.5765 112.813 24.4844C112.972 24.2114 113.302 24.0363 113.66 24.0363H117.429C117.949 24.0363 118.371 24.3978 118.371 24.8435V32.9125C118.371 33.3585 117.945 33.7231 117.424 33.7231L117.424 33.7234ZM110.469 32.1091H116.486V25.6511H114.24L110.469 32.1091Z" fill="url(#paint17_linear_0_1064)" fill-opacity="0.876812"/>
<path d="M140.056 33.7233H122.147C121.627 33.7233 121.2 33.3585 121.2 32.9127V24.8469C121.2 24.4011 121.627 24.0363 122.147 24.0363H126.853C127.374 24.0363 127.8 24.4011 127.8 24.8469V26.8616C127.8 27.5293 128.434 28.0724 129.214 28.0724C129.994 28.0724 130.628 27.5294 130.628 26.8616V24.8469C130.628 24.4011 131.054 24.0363 131.575 24.0363H135.34C135.698 24.0363 136.027 24.2114 136.187 24.4844L140.9 32.5549C141.212 33.091 140.756 33.7232 140.056 33.7232L140.056 33.7233ZM123.085 32.1091H138.53L134.759 25.6511H132.514V26.8619C132.514 28.4199 131.033 29.6872 129.214 29.6872C127.394 29.6872 125.914 28.4199 125.914 26.8619V25.6511H123.086L123.085 32.1091Z" fill="url(#paint18_linear_0_1064)" fill-opacity="0.876812"/>
<path d="M134.398 61.1699H114.6C110.961 61.1699 108 58.635 108 55.5192C108 55.0734 108.422 54.7119 108.943 54.7119H140.055C140.575 54.7119 140.998 55.0734 140.998 55.5192C140.998 58.6349 138.037 61.1699 134.398 61.1699H134.398ZM109.98 56.3265C110.418 58.1664 112.323 59.5553 114.6 59.5553H134.398C136.675 59.5553 138.58 58.1663 139.017 56.3265H109.98Z" fill="url(#paint19_linear_0_1064)" fill-opacity="0.876812"/>
<path d="M119.785 37.7593C117.966 37.7593 116.485 36.492 116.485 34.9339V25.6507H113.243C111.425 25.6507 109.92 24.407 109.887 22.8785C109.852 21.2895 111.343 20 113.186 20H135.755C137.573 20 139.079 21.2437 139.112 22.7721C139.146 24.3608 137.655 25.6504 135.813 25.6504H132.513V26.8612C132.513 28.4193 131.033 29.6866 129.213 29.6866C127.394 29.6866 125.913 28.4193 125.913 26.8612V25.6504H123.085V34.9337C123.085 36.492 121.605 37.7593 119.785 37.7593L119.785 37.7593ZM113.186 21.6144C112.397 21.6144 111.757 22.1663 111.771 22.8486C111.786 23.5035 112.445 24.0363 113.243 24.0363H117.428C117.949 24.0363 118.371 24.3978 118.371 24.8435V34.934C118.371 35.6017 119.005 36.1448 119.785 36.1448C120.565 36.1448 121.199 35.6017 121.199 34.934L121.199 24.8466C121.199 24.4009 121.626 24.036 122.146 24.036H126.852C127.373 24.036 127.799 24.4009 127.799 24.8466V26.8614C127.799 27.5291 128.433 28.0722 129.213 28.0722C129.993 28.0722 130.627 27.5291 130.627 26.8614V24.8466C130.627 24.4009 131.053 24.036 131.574 24.036H135.813C136.602 24.036 137.241 23.4841 137.227 22.8021C137.212 22.1471 136.553 21.6144 135.755 21.6144H113.186Z" fill="url(#paint20_linear_0_1064)" fill-opacity="0.876812"/>
<path d="M127.235 47.7501L124.029 46.1654C123.737 46.0212 123.558 45.7546 123.558 45.4663V42.297C123.558 42.0088 123.737 41.7421 124.029 41.598L127.235 40.0132C127.526 39.8691 127.886 39.8691 128.177 40.0132L131.383 41.598C131.675 41.7421 131.854 42.0088 131.854 42.297V45.4663C131.854 45.7546 131.675 46.0212 131.383 46.1654L128.177 47.7501C127.886 47.8942 127.526 47.8945 127.235 47.7501ZM125.443 45.0005L127.706 46.1191L129.969 45.0005V42.7632L127.706 41.6445L125.443 42.7632V45.0005Z" fill="url(#paint21_linear_0_1064)" fill-opacity="0.876812"/>
<path d="M124.028 52.5046L120.822 50.9199C120.531 50.7757 120.351 50.5091 120.351 50.2208V47.0516C120.351 46.7633 120.531 46.4966 120.822 46.3525L124.028 44.7678C124.32 44.6236 124.679 44.6236 124.971 44.7678L128.177 46.3525C128.468 46.4966 128.648 46.7633 128.648 47.0516V50.2208C128.648 50.5091 128.468 50.7757 128.177 50.9199L124.971 52.5046C124.679 52.6488 124.32 52.6491 124.028 52.5046ZM122.237 49.755L124.5 50.8736L126.763 49.755V47.5177L124.5 46.3991L122.237 47.5177V49.755Z" fill="url(#paint22_linear_0_1064)" fill-opacity="0.876812"/>
<path d="M120.822 47.7501L117.616 46.1654C117.324 46.0212 117.145 45.7546 117.145 45.4663L117.144 42.297C117.144 42.0088 117.324 41.7421 117.616 41.598L120.821 40.0132C121.113 39.8691 121.472 39.8691 121.764 40.0132L124.97 41.598C125.261 41.7421 125.441 42.0088 125.441 42.297V45.4663C125.441 45.7546 125.261 46.0212 124.97 46.1654L121.764 47.7501C121.473 47.8942 121.113 47.8945 120.822 47.7501ZM119.03 45.0005L121.293 46.1191L123.556 45.0005V42.7632L121.293 41.6445L119.03 42.7632V45.0005Z" fill="url(#paint23_linear_0_1064)" fill-opacity="0.876812"/>
<defs>
<linearGradient id="paint0_linear_0_1064" x1="24.4996" y1="17.9799" x2="24.4996" y2="61.2502" gradientUnits="userSpaceOnUse">
<stop stop-color="#FFBA41"/>
<stop offset="1" stop-color="#FFFBBD"/>
</linearGradient>
<linearGradient id="paint1_linear_0_1064" x1="7.70259" y1="5.99304" x2="7.70259" y2="20.377" gradientUnits="userSpaceOnUse">
<stop stop-color="#FFBA41"/>
<stop offset="1" stop-color="#FFFBBD"/>
</linearGradient>
<linearGradient id="paint2_linear_0_1064" x1="34.3004" y1="5.99304" x2="34.3004" y2="20.3769" gradientUnits="userSpaceOnUse">
<stop stop-color="#FFBA41"/>
<stop offset="1" stop-color="#FFFBBD"/>
</linearGradient>
<linearGradient id="paint3_linear_0_1064" x1="24.4982" y1="51.542" x2="24.4982" y2="61.1312" gradientUnits="userSpaceOnUse">
<stop stop-color="#FFBA41"/>
<stop offset="1" stop-color="#FFFBBD"/>
</linearGradient>
<linearGradient id="paint4_linear_0_1064" x1="24.4989" y1="0" x2="24.4989" y2="26.3699" gradientUnits="userSpaceOnUse">
<stop stop-color="#FFBA41"/>
<stop offset="1" stop-color="#FFFBBD"/>
</linearGradient>
<linearGradient id="paint5_linear_0_1064" x1="29.2604" y1="29.5563" x2="29.2604" y2="41.3655" gradientUnits="userSpaceOnUse">
<stop stop-color="#FFBA41"/>
<stop offset="1" stop-color="#FFFBBD"/>
</linearGradient>
<linearGradient id="paint6_linear_0_1064" x1="24.4993" y1="36.616" x2="24.4993" y2="48.4252" gradientUnits="userSpaceOnUse">
<stop stop-color="#FFBA41"/>
<stop offset="1" stop-color="#FFFBBD"/>
</linearGradient>
<linearGradient id="paint7_linear_0_1064" x1="19.7377" y1="29.5563" x2="19.7377" y2="41.3655" gradientUnits="userSpaceOnUse">
<stop stop-color="#FFBA41"/>
<stop offset="1" stop-color="#FFFBBD"/>
</linearGradient>
<linearGradient id="paint8_linear_0_1064" x1="78.4997" y1="26.8105" x2="78.4997" y2="61.2502" gradientUnits="userSpaceOnUse">
<stop stop-color="#FFBA41"/>
<stop offset="1" stop-color="#FFFBBD"/>
</linearGradient>
<linearGradient id="paint9_linear_0_1064" x1="65.1306" y1="17.27" x2="65.1306" y2="28.7184" gradientUnits="userSpaceOnUse">
<stop stop-color="#FFBA41"/>
<stop offset="1" stop-color="#FFFBBD"/>
</linearGradient>
<linearGradient id="paint10_linear_0_1064" x1="86.3003" y1="17.27" x2="86.3003" y2="28.7184" gradientUnits="userSpaceOnUse">
<stop stop-color="#FFBA41"/>
<stop offset="1" stop-color="#FFFBBD"/>
</linearGradient>
<linearGradient id="paint11_linear_0_1064" x1="78.4985" y1="53.5232" x2="78.4985" y2="61.1554" gradientUnits="userSpaceOnUse">
<stop stop-color="#FFBA41"/>
<stop offset="1" stop-color="#FFFBBD"/>
</linearGradient>
<linearGradient id="paint12_linear_0_1064" x1="78.4991" y1="12.5" x2="78.4991" y2="33.4883" gradientUnits="userSpaceOnUse">
<stop stop-color="#FFBA41"/>
<stop offset="1" stop-color="#FFFBBD"/>
</linearGradient>
<linearGradient id="paint13_linear_0_1064" x1="82.2889" y1="36.0244" x2="82.2889" y2="45.4236" gradientUnits="userSpaceOnUse">
<stop stop-color="#FFBA41"/>
<stop offset="1" stop-color="#FFFBBD"/>
</linearGradient>
<linearGradient id="paint14_linear_0_1064" x1="78.4995" y1="41.6432" x2="78.4995" y2="51.0424" gradientUnits="userSpaceOnUse">
<stop stop-color="#FFBA41"/>
<stop offset="1" stop-color="#FFFBBD"/>
</linearGradient>
<linearGradient id="paint15_linear_0_1064" x1="74.7096" y1="36.0244" x2="74.7096" y2="45.4236" gradientUnits="userSpaceOnUse">
<stop stop-color="#FFBA41"/>
<stop offset="1" stop-color="#FFFBBD"/>
</linearGradient>
<linearGradient id="paint16_linear_0_1064" x1="124.5" y1="32.1088" x2="124.5" y2="61.25" gradientUnits="userSpaceOnUse">
<stop stop-color="#FFBA41"/>
<stop offset="1" stop-color="#FFFBBD"/>
</linearGradient>
<linearGradient id="paint17_linear_0_1064" x1="113.187" y1="24.0363" x2="113.187" y2="33.7234" gradientUnits="userSpaceOnUse">
<stop stop-color="#FFBA41"/>
<stop offset="1" stop-color="#FFFBBD"/>
</linearGradient>
<linearGradient id="paint18_linear_0_1064" x1="131.1" y1="24.0363" x2="131.1" y2="33.7233" gradientUnits="userSpaceOnUse">
<stop stop-color="#FFBA41"/>
<stop offset="1" stop-color="#FFFBBD"/>
</linearGradient>
<linearGradient id="paint19_linear_0_1064" x1="124.499" y1="54.7119" x2="124.499" y2="61.1699" gradientUnits="userSpaceOnUse">
<stop stop-color="#FFBA41"/>
<stop offset="1" stop-color="#FFFBBD"/>
</linearGradient>
<linearGradient id="paint20_linear_0_1064" x1="124.499" y1="20" x2="124.499" y2="37.7593" gradientUnits="userSpaceOnUse">
<stop stop-color="#FFBA41"/>
<stop offset="1" stop-color="#FFFBBD"/>
</linearGradient>
<linearGradient id="paint21_linear_0_1064" x1="127.706" y1="39.9052" x2="127.706" y2="47.8583" gradientUnits="userSpaceOnUse">
<stop stop-color="#FFBA41"/>
<stop offset="1" stop-color="#FFFBBD"/>
</linearGradient>
<linearGradient id="paint22_linear_0_1064" x1="124.5" y1="44.6597" x2="124.5" y2="52.6128" gradientUnits="userSpaceOnUse">
<stop stop-color="#FFBA41"/>
<stop offset="1" stop-color="#FFFBBD"/>
</linearGradient>
<linearGradient id="paint23_linear_0_1064" x1="121.293" y1="39.9052" x2="121.293" y2="47.8583" gradientUnits="userSpaceOnUse">
<stop stop-color="#FFBA41"/>
<stop offset="1" stop-color="#FFFBBD"/>
</linearGradient>
</defs>
</svg>
