<svg width="155" height="51" viewBox="0 0 155 51" fill="none" xmlns="http://www.w3.org/2000/svg">
<path d="M25.4083 1.17305C23.907 0.293812 22.0488 0.289982 20.5439 1.16302L3.19065 11.2298C1.70113 12.0939 0.784318 13.6857 0.784318 15.4077V35.5923C0.784318 37.3143 1.70113 38.9061 3.19065 39.7702L20.5439 49.837C22.0488 50.71 23.907 50.7062 25.4083 49.827L42.5763 39.7728C44.0561 38.9062 44.9654 37.3199 44.9654 35.605V15.395C44.9654 13.6801 44.0561 12.0938 42.5763 11.2272L25.4083 1.17305Z" fill="#F2BB5A" fill-opacity="0.1"/>
<path d="M25.4083 1.17305C23.907 0.293812 22.0488 0.289982 20.5439 1.16302L3.19065 11.2298C1.70113 12.0939 0.784318 13.6857 0.784318 15.4077V35.5923C0.784318 37.3143 1.70113 38.9061 3.19065 39.7702L20.5439 49.837C22.0488 50.71 23.907 50.7062 25.4083 49.827L42.5763 39.7728C44.0561 38.9062 44.9654 37.3199 44.9654 35.605V15.395C44.9654 13.6801 44.0561 12.0938 42.5763 11.2272L25.4083 1.17305Z" stroke="url(#paint0_radial_0_158)" stroke-width="0.431364"/>
<path d="M25.4083 1.17305C23.907 0.293812 22.0488 0.289982 20.5439 1.16302L3.19065 11.2298C1.70113 12.0939 0.784318 13.6857 0.784318 15.4077V35.5923C0.784318 37.3143 1.70113 38.9061 3.19065 39.7702L20.5439 49.837C22.0488 50.71 23.907 50.7062 25.4083 49.827L42.5763 39.7728C44.0561 38.9062 44.9654 37.3199 44.9654 35.605V15.395C44.9654 13.6801 44.0561 12.0938 42.5763 11.2272L25.4083 1.17305Z" stroke="url(#paint1_radial_0_158)" stroke-width="0.431364"/>
<g clip-path="url(#clip0_0_158)">
<path d="M29.323 29.855H28.0921V29.1502C28.0921 28.7742 28.289 28.5863 28.6829 28.5863H28.7322C29.1261 28.5863 29.323 28.7742 29.323 29.1502V29.855ZM24.6453 28.3513C24.2514 28.3513 24.0545 28.508 24.0545 28.8212V32.1575C24.0545 32.4708 24.2514 32.6274 24.6453 32.6274C25.0392 32.6274 25.2362 32.4708 25.2362 32.1575V28.8212C25.2362 28.508 25.0392 28.3513 24.6453 28.3513ZM32.2282 26.4718V32.8623C32.2282 33.6455 31.9245 34.3033 31.3172 34.8359C30.7099 35.3684 29.9796 35.6347 29.1261 35.6347H16.4224C15.5689 35.6347 14.8385 35.3684 14.2312 34.8359C13.624 34.3033 13.3203 33.6455 13.3203 32.8623V26.4718C13.3203 25.7199 13.624 25.0699 14.2312 24.5217C14.8385 23.9735 15.5689 23.6994 16.4224 23.6994H29.1261C29.9796 23.6994 30.7099 23.9735 31.3172 24.5217C31.9245 25.0699 32.2282 25.7199 32.2282 26.4718ZM17.2594 33.5672V26.8477H18.8351V25.8609L14.6498 25.8139V26.8007H15.93V33.5672H17.2594ZM21.9864 27.8345H20.6569V32.2985C20.5913 32.4551 20.4764 32.5569 20.3123 32.6039C20.1481 32.6509 20.0168 32.5647 19.9184 32.3454V31.4526L19.8691 27.8345H18.5889V32.5334C18.6546 33.066 18.7694 33.3792 18.9336 33.4732C19.229 33.6612 19.5983 33.669 20.0415 33.4967C20.4846 33.3244 20.7883 33.0973 20.9524 32.8153V33.5672H21.9864V27.8345ZM26.1717 31.9695V28.9622C26.1717 28.367 25.9748 27.9598 25.5809 27.7405C25.187 27.5212 24.6946 27.6308 24.1037 28.0694V25.8609H22.7742V33.5202H23.8575L23.956 33.0033C24.6453 33.5672 25.1952 33.7238 25.6055 33.4732C26.0158 33.2226 26.2046 32.7214 26.1717 31.9695ZM30.3078 31.5466H29.323V32.2045C29.323 32.5491 29.1425 32.7214 28.7814 32.7214H28.5845C28.2234 32.7214 28.0428 32.5491 28.0428 32.2045V30.8418H30.3078V30.043C30.3078 29.2285 30.2914 28.7116 30.2586 28.4923C30.1601 27.9911 29.8072 27.6778 29.1999 27.5525C28.5927 27.4272 28.0921 27.5055 27.6981 27.7875C27.4355 28.0067 27.255 28.2417 27.1565 28.4923C27.058 28.8056 27.0088 29.2285 27.0088 29.761V31.5466C27.0088 32.7057 27.4684 33.3792 28.3875 33.5672C29.1753 33.7238 29.7498 33.4732 30.1109 32.8153C30.3407 32.4708 30.4063 32.0478 30.3078 31.5466ZM25.2362 21.8668C25.3018 22.0234 25.4167 22.1487 25.5809 22.2427C25.7122 22.3367 25.8927 22.3837 26.1225 22.3837C26.3195 22.3837 26.4836 22.3367 26.6149 22.2427C26.7462 22.1487 26.8611 22.0078 26.9596 21.8198V22.2897H28.4367V16.322H27.255V20.974C27.255 21.2872 27.0909 21.4439 26.7626 21.4439C26.4672 21.4439 26.3195 21.2872 26.3195 20.974V16.322H25.0885V20.3631C25.0885 20.927 25.1049 21.2716 25.1377 21.3969C25.1377 21.5222 25.1705 21.6788 25.2362 21.8668ZM20.8047 18.5305C20.8047 17.9667 20.8539 17.5124 20.9524 17.1678C21.0509 16.8859 21.2314 16.6353 21.494 16.416C21.7566 16.228 22.0849 16.1341 22.4788 16.1341C22.8399 16.1341 23.1353 16.1967 23.3651 16.322C23.5949 16.416 23.7754 16.5726 23.9067 16.7919C24.038 16.9485 24.1365 17.1522 24.2022 17.4028C24.235 17.5594 24.2514 17.8883 24.2514 18.3896V19.8932C24.2514 20.5197 24.235 20.927 24.2022 21.115C24.1693 21.3342 24.0709 21.5692 23.9067 21.8198C23.8083 21.9764 23.6277 22.1487 23.3651 22.3367C23.1025 22.4307 22.8399 22.4776 22.5773 22.4776C22.249 22.4776 21.9536 22.4307 21.691 22.3367C21.4612 22.2427 21.2806 22.1017 21.1493 21.9138C21.018 21.6632 20.936 21.4439 20.9031 21.2559C20.8375 20.9427 20.8047 20.5511 20.8047 20.0812V18.5305ZM21.9372 20.88C21.9372 21.0366 21.9946 21.1776 22.1095 21.3029C22.2244 21.4282 22.3639 21.4909 22.528 21.4909C22.922 21.4909 23.1189 21.2872 23.1189 20.88V17.7317C23.1189 17.3245 22.922 17.1208 22.528 17.1208C22.1341 17.1208 21.9372 17.3245 21.9372 17.7317V20.88ZM17.8996 22.4776H19.2783V17.9197L20.9031 14.0195H19.426L18.5397 16.9329L17.6534 14.0195H16.1762L17.8996 17.9197V22.4776Z" fill="url(#paint2_linear_0_158)" fill-opacity="0.876812"/>
</g>
<path d="M80.0201 1.17305C78.5187 0.293812 76.6606 0.289982 75.1556 1.16302L57.8024 11.2298C56.3129 12.0939 55.3961 13.6857 55.3961 15.4077V35.5923C55.3961 37.3143 56.3129 38.9061 57.8024 39.7702L75.1556 49.837C76.6606 50.71 78.5187 50.7062 80.0201 49.827L97.188 39.7728C98.6678 38.9062 99.5772 37.3199 99.5772 35.605V15.395C99.5772 13.6801 98.6678 12.0938 97.188 11.2272L80.0201 1.17305Z" fill="#F2BB5A" fill-opacity="0.1"/>
<path d="M80.0201 1.17305C78.5187 0.293812 76.6606 0.289982 75.1556 1.16302L57.8024 11.2298C56.3129 12.0939 55.3961 13.6857 55.3961 15.4077V35.5923C55.3961 37.3143 56.3129 38.9061 57.8024 39.7702L75.1556 49.837C76.6606 50.71 78.5187 50.7062 80.0201 49.827L97.188 39.7728C98.6678 38.9062 99.5772 37.3199 99.5772 35.605V15.395C99.5772 13.6801 98.6678 12.0938 97.188 11.2272L80.0201 1.17305Z" stroke="url(#paint3_radial_0_158)" stroke-width="0.431364"/>
<path d="M80.0201 1.17305C78.5187 0.293812 76.6606 0.289982 75.1556 1.16302L57.8024 11.2298C56.3129 12.0939 55.3961 13.6857 55.3961 15.4077V35.5923C55.3961 37.3143 56.3129 38.9061 57.8024 39.7702L75.1556 49.837C76.6606 50.71 78.5187 50.7062 80.0201 49.827L97.188 39.7728C98.6678 38.9062 99.5772 37.3199 99.5772 35.605V15.395C99.5772 13.6801 98.6678 12.0938 97.188 11.2272L80.0201 1.17305Z" stroke="url(#paint4_radial_0_158)" stroke-width="0.431364"/>
<path d="M73.1116 15.2881H81.5598C84.7782 15.2881 87.3931 17.903 87.3931 21.1214V29.5696C87.3931 31.1167 86.7785 32.6004 85.6845 33.6944C84.5906 34.7883 83.1069 35.4029 81.5598 35.4029H73.1116C69.8932 35.4029 67.2783 32.788 67.2783 29.5696V21.1214C67.2783 19.5743 67.8928 18.0906 68.9868 16.9966C70.0807 15.9027 71.5645 15.2881 73.1116 15.2881ZM72.9104 17.2996C71.9501 17.2996 71.0292 17.681 70.3502 18.36C69.6712 19.039 69.2897 19.96 69.2897 20.9202V29.7708C69.2897 31.7722 70.909 33.3914 72.9104 33.3914H81.7609C82.7212 33.3914 83.6421 33.01 84.3211 32.331C85.0001 31.6519 85.3816 30.731 85.3816 29.7708V20.9202C85.3816 18.9188 83.7624 17.2996 81.7609 17.2996H72.9104ZM82.6158 18.8082C82.9492 18.8082 83.269 18.9406 83.5048 19.1764C83.7405 19.4122 83.873 19.7319 83.873 20.0654C83.873 20.3988 83.7405 20.7185 83.5048 20.9543C83.269 21.1901 82.9492 21.3225 82.6158 21.3225C82.2824 21.3225 81.9626 21.1901 81.7268 20.9543C81.4911 20.7185 81.3586 20.3988 81.3586 20.0654C81.3586 19.7319 81.4911 19.4122 81.7268 19.1764C81.9626 18.9406 82.2824 18.8082 82.6158 18.8082ZM77.3357 20.3168C78.6694 20.3168 79.9484 20.8466 80.8915 21.7897C81.8346 22.7327 82.3644 24.0118 82.3644 25.3455C82.3644 26.6792 81.8346 27.9583 80.8915 28.9013C79.9484 29.8444 78.6694 30.3742 77.3357 30.3742C76.002 30.3742 74.7229 29.8444 73.7798 28.9013C72.8368 27.9583 72.307 26.6792 72.307 25.3455C72.307 24.0118 72.8368 22.7327 73.7798 21.7897C74.7229 20.8466 76.002 20.3168 77.3357 20.3168ZM77.3357 22.3283C76.5355 22.3283 75.768 22.6462 75.2022 23.212C74.6363 23.7778 74.3184 24.5453 74.3184 25.3455C74.3184 26.1457 74.6363 26.9132 75.2022 27.479C75.768 28.0448 76.5355 28.3627 77.3357 28.3627C78.1359 28.3627 78.9033 28.0448 79.4692 27.479C80.035 26.9132 80.3529 26.1457 80.3529 25.3455C80.3529 24.5453 80.035 23.7778 79.4692 23.212C78.9033 22.6462 78.1359 22.3283 77.3357 22.3283Z" fill="url(#paint5_linear_0_158)" fill-opacity="0.876812"/>
<path d="M134.632 1.17305C133.131 0.293812 131.272 0.289982 129.767 1.16302L112.414 11.2298C110.925 12.0939 110.008 13.6857 110.008 15.4077V35.5923C110.008 37.3143 110.925 38.9061 112.414 39.7702L129.767 49.837C131.272 50.71 133.131 50.7062 134.632 49.827L151.8 39.7728C153.28 38.9062 154.189 37.3199 154.189 35.605V15.395C154.189 13.6801 153.28 12.0938 151.8 11.2272L134.632 1.17305Z" fill="#F2BB5A" fill-opacity="0.1"/>
<path d="M134.632 1.17305C133.131 0.293812 131.272 0.289982 129.767 1.16302L112.414 11.2298C110.925 12.0939 110.008 13.6857 110.008 15.4077V35.5923C110.008 37.3143 110.925 38.9061 112.414 39.7702L129.767 49.837C131.272 50.71 133.131 50.7062 134.632 49.827L151.8 39.7728C153.28 38.9062 154.189 37.3199 154.189 35.605V15.395C154.189 13.6801 153.28 12.0938 151.8 11.2272L134.632 1.17305Z" stroke="url(#paint6_radial_0_158)" stroke-width="0.431364"/>
<path d="M134.632 1.17305C133.131 0.293812 131.272 0.289982 129.767 1.16302L112.414 11.2298C110.925 12.0939 110.008 13.6857 110.008 15.4077V35.5923C110.008 37.3143 110.925 38.9061 112.414 39.7702L129.767 49.837C131.272 50.71 133.131 50.7062 134.632 49.827L151.8 39.7728C153.28 38.9062 154.189 37.3199 154.189 35.605V15.395C154.189 13.6801 153.28 12.0938 151.8 11.2272L134.632 1.17305Z" stroke="url(#paint7_radial_0_158)" stroke-width="0.431364"/>
<path fill-rule="evenodd" clip-rule="evenodd" d="M129.362 22.2971H133.097V24.1577C133.635 23.0876 135.015 22.1261 137.088 22.1261C141.061 22.1261 142.005 24.2563 142.005 28.1646V35.4029H137.982V29.0547C137.982 26.829 137.444 25.5738 136.074 25.5738C134.174 25.5738 133.385 26.9265 133.385 29.0537V35.4029H129.362V22.2971ZM122.463 35.2319H126.486V22.1261H122.463V35.2319ZM127.063 17.8527C127.063 18.1899 126.996 18.5238 126.866 18.8349C126.736 19.146 126.545 19.4282 126.305 19.6651C125.819 20.1485 125.16 20.419 124.475 20.4174C123.79 20.4169 123.133 20.147 122.646 19.6661C122.407 19.4284 122.217 19.1459 122.087 18.8348C121.958 18.5236 121.891 18.1899 121.89 17.8527C121.89 17.1718 122.162 16.5201 122.647 16.0394C123.134 15.5578 123.791 15.2878 124.476 15.2881C125.162 15.2881 125.819 15.5586 126.305 16.0394C126.79 16.5201 127.063 17.1718 127.063 17.8527Z" fill="url(#paint8_linear_0_158)" fill-opacity="0.876812"/>
<defs>
<radialGradient id="paint0_radial_0_158" cx="0" cy="0" r="1" gradientUnits="userSpaceOnUse" gradientTransform="translate(-1.72332 0.906667) rotate(55.7174) scale(31.6389 42.0644)">
<stop stop-color="#FFE195"/>
<stop offset="0.177083" stop-color="#F2BB5A" stop-opacity="0.876812"/>
<stop offset="0.359375" stop-color="#BF7A00" stop-opacity="0.75"/>
<stop offset="1" stop-color="#BF7A00" stop-opacity="0"/>
<stop offset="1" stop-color="#0F1218" stop-opacity="0"/>
</radialGradient>
<radialGradient id="paint1_radial_0_158" cx="0" cy="0" r="1" gradientUnits="userSpaceOnUse" gradientTransform="translate(122.896 37.0112) rotate(-149.306) scale(29.3569 29.2171)">
<stop stop-color="#FFE195"/>
<stop offset="0.166667" stop-color="#F2BB5A" stop-opacity="0.8"/>
<stop offset="0.328125" stop-color="#BF7A00" stop-opacity="0.75"/>
<stop offset="1" stop-color="#0B0B0B" stop-opacity="0"/>
</radialGradient>
<linearGradient id="paint2_linear_0_158" x1="22.7742" y1="14.0195" x2="22.7742" y2="35.6347" gradientUnits="userSpaceOnUse">
<stop stop-color="#FFBA41"/>
<stop offset="1" stop-color="#FFFBBD"/>
</linearGradient>
<radialGradient id="paint3_radial_0_158" cx="0" cy="0" r="1" gradientUnits="userSpaceOnUse" gradientTransform="translate(52.8884 0.906667) rotate(55.7174) scale(31.6389 42.0644)">
<stop stop-color="#FFE195"/>
<stop offset="0.177083" stop-color="#F2BB5A" stop-opacity="0.876812"/>
<stop offset="0.359375" stop-color="#BF7A00" stop-opacity="0.75"/>
<stop offset="1" stop-color="#BF7A00" stop-opacity="0"/>
<stop offset="1" stop-color="#0F1218" stop-opacity="0"/>
</radialGradient>
<radialGradient id="paint4_radial_0_158" cx="0" cy="0" r="1" gradientUnits="userSpaceOnUse" gradientTransform="translate(177.508 37.0112) rotate(-149.306) scale(29.3569 29.2171)">
<stop stop-color="#FFE195"/>
<stop offset="0.166667" stop-color="#F2BB5A" stop-opacity="0.8"/>
<stop offset="0.328125" stop-color="#BF7A00" stop-opacity="0.75"/>
<stop offset="1" stop-color="#0B0B0B" stop-opacity="0"/>
</radialGradient>
<linearGradient id="paint5_linear_0_158" x1="77.3357" y1="15.2881" x2="77.3357" y2="35.4029" gradientUnits="userSpaceOnUse">
<stop stop-color="#FFBA41"/>
<stop offset="1" stop-color="#FFFBBD"/>
</linearGradient>
<radialGradient id="paint6_radial_0_158" cx="0" cy="0" r="1" gradientUnits="userSpaceOnUse" gradientTransform="translate(107.5 0.906667) rotate(55.7174) scale(31.6389 42.0644)">
<stop stop-color="#FFE195"/>
<stop offset="0.177083" stop-color="#F2BB5A" stop-opacity="0.876812"/>
<stop offset="0.359375" stop-color="#BF7A00" stop-opacity="0.75"/>
<stop offset="1" stop-color="#BF7A00" stop-opacity="0"/>
<stop offset="1" stop-color="#0F1218" stop-opacity="0"/>
</radialGradient>
<radialGradient id="paint7_radial_0_158" cx="0" cy="0" r="1" gradientUnits="userSpaceOnUse" gradientTransform="translate(232.119 37.0112) rotate(-149.306) scale(29.3569 29.2171)">
<stop stop-color="#FFE195"/>
<stop offset="0.166667" stop-color="#F2BB5A" stop-opacity="0.8"/>
<stop offset="0.328125" stop-color="#BF7A00" stop-opacity="0.75"/>
<stop offset="1" stop-color="#0B0B0B" stop-opacity="0"/>
</radialGradient>
<linearGradient id="paint8_linear_0_158" x1="131.947" y1="15.2881" x2="131.947" y2="35.4029" gradientUnits="userSpaceOnUse">
<stop stop-color="#FFBA41"/>
<stop offset="1" stop-color="#FFFBBD"/>
</linearGradient>
<clipPath id="clip0_0_158">
<rect width="18.9079" height="22.9309" fill="white" transform="translate(13.3203 13.9248)"/>
</clipPath>
</defs>
</svg>
