<svg width="142" height="65" viewBox="0 0 142 65" fill="none" xmlns="http://www.w3.org/2000/svg">
<path d="M4.83893 39.719C2.92078 37.4786 2.04311 36.444 1.59312 35.3475C0.844356 33.523 0.844356 31.477 1.59312 29.6525C2.04311 28.556 2.92078 27.5214 4.83893 25.281L22.3048 4.88096C23.3738 3.63237 23.8662 3.06052 24.4303 2.61491C25.3655 1.87607 26.4634 1.37077 27.6328 1.14086C28.3382 1.0022 29.0929 1 30.7366 1H111.263C112.907 1 113.662 1.0022 114.367 1.14086C115.537 1.37077 116.634 1.87607 117.57 2.61491C118.134 3.06052 118.626 3.63237 119.695 4.88096L137.161 25.281C139.079 27.5214 139.957 28.556 140.407 29.6525C141.156 31.477 141.156 33.523 140.407 35.3475C139.957 36.444 139.079 37.4786 137.161 39.719L119.695 60.119C118.626 61.3676 118.134 61.9395 117.57 62.3851C116.634 63.1239 115.537 63.6292 114.367 63.8591C113.662 63.9978 112.907 64 111.263 64H30.7366C29.0929 64 28.3382 63.9978 27.6328 63.8591C26.4634 63.6292 25.3655 63.1239 24.4303 62.3851C23.8662 61.9395 23.3738 61.3676 22.3048 60.119L4.83893 39.719Z" stroke="url(#paint0_linear_0_377)"/>
<path d="M4.83893 39.719C2.92078 37.4786 2.04311 36.444 1.59312 35.3475C0.844356 33.523 0.844356 31.477 1.59312 29.6525C2.04311 28.556 2.92078 27.5214 4.83893 25.281L22.3048 4.88096C23.3738 3.63237 23.8662 3.06052 24.4303 2.61491C25.3655 1.87607 26.4634 1.37077 27.6328 1.14086C28.3382 1.0022 29.0929 1 30.7366 1H111.263C112.907 1 113.662 1.0022 114.367 1.14086C115.537 1.37077 116.634 1.87607 117.57 2.61491C118.134 3.06052 118.626 3.63237 119.695 4.88096L137.161 25.281C139.079 27.5214 139.957 28.556 140.407 29.6525C141.156 31.477 141.156 33.523 140.407 35.3475C139.957 36.444 139.079 37.4786 137.161 39.719L119.695 60.119C118.626 61.3676 118.134 61.9395 117.57 62.3851C116.634 63.1239 115.537 63.6292 114.367 63.8591C113.662 63.9978 112.907 64 111.263 64H30.7366C29.0929 64 28.3382 63.9978 27.6328 63.8591C26.4634 63.6292 25.3655 63.1239 24.4303 62.3851C23.8662 61.9395 23.3738 61.3676 22.3048 60.119L4.83893 39.719Z" stroke="url(#paint1_linear_0_377)"/>
<path d="M36.636 30.86C36.552 30.224 36.378 29.672 36.114 29.204C35.85 28.724 35.496 28.358 35.052 28.106C34.62 27.842 34.098 27.71 33.486 27.71C32.898 27.71 32.406 27.878 32.01 28.214C31.626 28.55 31.434 28.964 31.434 29.456C31.434 29.864 31.548 30.218 31.776 30.518C32.016 30.818 32.358 31.094 32.802 31.346C33.246 31.586 33.774 31.838 34.386 32.102C34.842 32.294 35.304 32.51 35.772 32.75C36.24 32.978 36.672 33.254 37.068 33.578C37.464 33.902 37.782 34.28 38.022 34.712C38.274 35.132 38.4 35.636 38.4 36.224C38.4 36.92 38.214 37.538 37.842 38.078C37.482 38.618 36.966 39.038 36.294 39.338C35.622 39.638 34.83 39.788 33.918 39.788C33.414 39.788 32.88 39.71 32.316 39.554C31.752 39.41 31.236 39.188 30.768 38.888L30.822 39.662H29.598L29.562 35.576H30.588C30.72 36.596 31.098 37.37 31.722 37.898C32.346 38.414 33.096 38.672 33.972 38.672C34.416 38.672 34.812 38.594 35.16 38.438C35.508 38.27 35.778 38.048 35.97 37.772C36.174 37.484 36.276 37.16 36.276 36.8C36.276 36.332 36.132 35.948 35.844 35.648C35.556 35.348 35.19 35.09 34.746 34.874C34.302 34.658 33.84 34.448 33.36 34.244C32.82 34.016 32.31 33.776 31.83 33.524C31.35 33.26 30.924 32.966 30.552 32.642C30.192 32.306 29.904 31.922 29.688 31.49C29.484 31.058 29.382 30.548 29.382 29.96C29.382 29.612 29.448 29.246 29.58 28.862C29.712 28.466 29.928 28.1 30.228 27.764C30.54 27.428 30.954 27.152 31.47 26.936C31.986 26.72 32.628 26.612 33.396 26.612C33.876 26.612 34.398 26.684 34.962 26.828C35.538 26.96 36.042 27.182 36.474 27.494L36.402 26.738H37.644V30.86H36.636ZM43.459 39.788C42.763 39.788 42.193 39.656 41.749 39.392C41.317 39.128 40.999 38.708 40.795 38.132C40.591 37.544 40.489 36.776 40.489 35.828V33.38C40.489 33.176 40.495 32.948 40.507 32.696C40.519 32.444 40.531 32.192 40.543 31.94C40.351 31.952 40.135 31.964 39.895 31.976C39.655 31.976 39.457 31.982 39.301 31.994V30.842H39.607C40.267 30.842 40.777 30.788 41.137 30.68C41.509 30.56 41.761 30.44 41.893 30.32H42.721V35.828C42.721 36.692 42.835 37.334 43.063 37.754C43.303 38.174 43.687 38.384 44.215 38.384C44.575 38.372 44.929 38.264 45.277 38.06C45.637 37.856 45.925 37.616 46.141 37.34V33.452C46.141 33.212 46.147 32.966 46.159 32.714C46.171 32.45 46.189 32.192 46.213 31.94C46.021 31.952 45.799 31.964 45.547 31.976C45.307 31.976 45.109 31.982 44.953 31.994V30.842H45.421C45.973 30.842 46.429 30.782 46.789 30.662C47.161 30.542 47.407 30.428 47.527 30.32H48.355V36.782C48.355 36.95 48.349 37.196 48.337 37.52C48.325 37.844 48.307 38.138 48.283 38.402C48.487 38.378 48.703 38.366 48.931 38.366C49.159 38.354 49.345 38.342 49.489 38.33V39.5H46.357C46.333 39.332 46.309 39.164 46.285 38.996C46.273 38.828 46.261 38.666 46.249 38.51C45.877 38.846 45.457 39.146 44.989 39.41C44.533 39.662 44.023 39.788 43.459 39.788ZM51.1689 28.97C51.1689 28.766 51.1689 28.544 51.1689 28.304C51.1809 28.052 51.1989 27.794 51.2229 27.53C51.0309 27.542 50.8089 27.554 50.5569 27.566C50.3169 27.578 50.1189 27.59 49.9629 27.602V26.432C50.5149 26.432 50.9649 26.408 51.3129 26.36C51.6609 26.3 51.9309 26.228 52.1229 26.144C52.3269 26.06 52.4709 25.982 52.5549 25.91H53.3829V31.22C53.7669 30.86 54.1749 30.602 54.6069 30.446C55.0389 30.29 55.4709 30.212 55.9029 30.212C56.6469 30.212 57.3009 30.398 57.8649 30.77C58.4409 31.142 58.8909 31.67 59.2149 32.354C59.5389 33.038 59.7009 33.842 59.7009 34.766C59.7009 35.75 59.5089 36.62 59.1249 37.376C58.7409 38.132 58.2129 38.726 57.5409 39.158C56.8689 39.578 56.0949 39.788 55.2189 39.788C54.8709 39.788 54.4449 39.716 53.9409 39.572C53.4489 39.428 52.9989 39.14 52.5909 38.708L52.0869 39.5H51.1689V28.97ZM53.3829 36.764C53.3829 37.244 53.4609 37.622 53.6169 37.898C53.7729 38.174 53.9709 38.372 54.2109 38.492C54.4629 38.6 54.7149 38.66 54.9669 38.672C55.5189 38.672 55.9629 38.51 56.2989 38.186C56.6469 37.862 56.8989 37.43 57.0549 36.89C57.2229 36.338 57.3069 35.744 57.3069 35.108C57.3069 34.46 57.2289 33.872 57.0729 33.344C56.9169 32.804 56.6769 32.378 56.3529 32.066C56.0289 31.742 55.6029 31.58 55.0749 31.58C54.7509 31.592 54.4389 31.676 54.1389 31.832C53.8389 31.988 53.5869 32.192 53.3829 32.444V36.764ZM65.086 39.788C64.534 39.788 64.018 39.716 63.538 39.572C63.058 39.428 62.674 39.254 62.386 39.05L62.44 39.626H61.27L61.18 36.53H62.152C62.188 36.938 62.332 37.31 62.584 37.646C62.836 37.97 63.16 38.228 63.556 38.42C63.964 38.6 64.414 38.69 64.906 38.69C65.146 38.69 65.374 38.654 65.59 38.582C65.818 38.51 66.004 38.396 66.148 38.24C66.304 38.072 66.382 37.862 66.382 37.61C66.382 37.346 66.292 37.13 66.112 36.962C65.944 36.794 65.704 36.638 65.392 36.494C65.08 36.35 64.714 36.2 64.294 36.044C63.922 35.9 63.55 35.75 63.178 35.594C62.806 35.438 62.464 35.252 62.152 35.036C61.84 34.808 61.588 34.532 61.396 34.208C61.204 33.884 61.108 33.488 61.108 33.02C61.108 32.696 61.168 32.372 61.288 32.048C61.408 31.724 61.6 31.424 61.864 31.148C62.128 30.86 62.464 30.632 62.872 30.464C63.292 30.296 63.802 30.212 64.402 30.212C64.726 30.212 65.092 30.266 65.5 30.374C65.908 30.47 66.268 30.638 66.58 30.878L66.562 30.302H67.732V33.47H66.76C66.7 33.05 66.568 32.678 66.364 32.354C66.16 32.018 65.89 31.754 65.554 31.562C65.218 31.37 64.816 31.274 64.348 31.274C63.964 31.274 63.64 31.37 63.376 31.562C63.112 31.742 62.98 32.012 62.98 32.372C62.98 32.672 63.082 32.918 63.286 33.11C63.49 33.302 63.766 33.464 64.114 33.596C64.462 33.728 64.84 33.872 65.248 34.028C65.812 34.22 66.322 34.448 66.778 34.712C67.246 34.976 67.618 35.294 67.894 35.666C68.17 36.038 68.308 36.5 68.308 37.052C68.308 37.676 68.152 38.192 67.84 38.6C67.528 38.996 67.126 39.296 66.634 39.5C66.142 39.692 65.626 39.788 65.086 39.788ZM73.9877 39.788C73.1837 39.788 72.4397 39.608 71.7557 39.248C71.0837 38.888 70.5437 38.366 70.1357 37.682C69.7397 36.986 69.5417 36.152 69.5417 35.18C69.5417 34.52 69.6557 33.896 69.8837 33.308C70.1117 32.708 70.4297 32.18 70.8377 31.724C71.2577 31.256 71.7557 30.89 72.3317 30.626C72.9077 30.35 73.5437 30.212 74.2397 30.212C74.9717 30.212 75.5897 30.326 76.0937 30.554C76.5977 30.77 76.9817 31.064 77.2457 31.436C77.5097 31.796 77.6417 32.18 77.6417 32.588C77.6417 32.912 77.5457 33.194 77.3537 33.434C77.1737 33.674 76.9097 33.8 76.5617 33.812C76.1537 33.824 75.8657 33.71 75.6977 33.47C75.5417 33.218 75.4637 32.984 75.4637 32.768C75.4637 32.648 75.4817 32.522 75.5177 32.39C75.5537 32.246 75.6137 32.114 75.6977 31.994C75.6137 31.778 75.4757 31.622 75.2837 31.526C75.0917 31.418 74.8937 31.346 74.6897 31.31C74.4857 31.274 74.3237 31.262 74.2037 31.274C73.5437 31.298 72.9977 31.598 72.5657 32.174C72.1337 32.75 71.9177 33.59 71.9177 34.694C71.9177 35.354 72.0077 35.966 72.1877 36.53C72.3797 37.082 72.6677 37.532 73.0517 37.88C73.4357 38.216 73.9277 38.39 74.5277 38.402C75.0557 38.414 75.5657 38.288 76.0577 38.024C76.5497 37.748 76.9517 37.394 77.2637 36.962L77.9837 37.628C77.5877 38.192 77.1617 38.63 76.7057 38.942C76.2497 39.254 75.7877 39.47 75.3197 39.59C74.8637 39.722 74.4197 39.788 73.9877 39.788ZM79.1076 38.546C79.4556 38.546 79.7016 38.474 79.8456 38.33C79.9896 38.174 80.0796 37.958 80.1156 37.682C80.1516 37.406 80.1696 37.094 80.1696 36.746V33.362C80.1696 33.146 80.1756 32.918 80.1876 32.678C80.1996 32.438 80.2176 32.192 80.2416 31.94C80.0376 31.952 79.8156 31.964 79.5756 31.976C79.3356 31.976 79.1376 31.982 78.9816 31.994V30.842H79.6476C80.1276 30.842 80.5296 30.788 80.8536 30.68C81.1776 30.56 81.4056 30.44 81.5376 30.32H82.2936C82.3176 30.464 82.3356 30.692 82.3476 31.004C82.3596 31.316 82.3656 31.628 82.3656 31.94C82.6416 31.58 82.9296 31.274 83.2296 31.022C83.5296 30.758 83.8356 30.56 84.1476 30.428C84.4716 30.284 84.8016 30.212 85.1376 30.212C85.5216 30.212 85.8576 30.32 86.1456 30.536C86.4456 30.752 86.5956 31.1 86.5956 31.58C86.5956 31.736 86.5536 31.904 86.4696 32.084C86.3976 32.264 86.2776 32.414 86.1096 32.534C85.9536 32.654 85.7376 32.714 85.4616 32.714C85.2096 32.714 84.9696 32.636 84.7416 32.48C84.5256 32.312 84.4116 32.048 84.3996 31.688C84.1476 31.676 83.8836 31.766 83.6076 31.958C83.3436 32.15 83.1036 32.384 82.8876 32.66C82.6716 32.936 82.5036 33.218 82.3836 33.506L82.4016 36.926C82.4016 37.118 82.3956 37.352 82.3836 37.628C82.3716 37.892 82.3536 38.15 82.3296 38.402C82.5216 38.378 82.7256 38.366 82.9416 38.366C83.1576 38.354 83.3376 38.348 83.4816 38.348V39.5H79.1076V38.546ZM87.4572 38.546C87.8052 38.546 88.0512 38.474 88.1952 38.33C88.3392 38.174 88.4292 37.958 88.4652 37.682C88.5012 37.406 88.5192 37.094 88.5192 36.746V33.38C88.5192 33.176 88.5252 32.954 88.5372 32.714C88.5492 32.462 88.5672 32.204 88.5912 31.94C88.3872 31.952 88.1652 31.964 87.9252 31.976C87.6852 31.988 87.4872 32 87.3312 32.012V30.842C87.8712 30.842 88.3152 30.818 88.6632 30.77C89.0232 30.71 89.2992 30.638 89.4912 30.554C89.6952 30.47 89.8392 30.392 89.9232 30.32H90.7332V36.926C90.7332 37.118 90.7272 37.352 90.7152 37.628C90.7152 37.892 90.6972 38.15 90.6612 38.402C90.8532 38.378 91.0572 38.366 91.2732 38.366C91.5012 38.354 91.6872 38.348 91.8312 38.348V39.5H87.4572V38.546ZM89.5272 28.772C89.1792 28.772 88.8852 28.646 88.6452 28.394C88.4052 28.13 88.2852 27.812 88.2852 27.44C88.2852 27.068 88.4052 26.75 88.6452 26.486C88.8972 26.222 89.1912 26.09 89.5272 26.09C89.8752 26.09 90.1632 26.222 90.3912 26.486C90.6312 26.75 90.7512 27.068 90.7512 27.44C90.7512 27.812 90.6372 28.13 90.4092 28.394C90.1812 28.646 89.8872 28.772 89.5272 28.772ZM93.7783 28.97C93.7783 28.766 93.7783 28.544 93.7783 28.304C93.7903 28.052 93.8083 27.794 93.8323 27.53C93.6403 27.542 93.4183 27.554 93.1663 27.566C92.9263 27.578 92.7283 27.59 92.5723 27.602V26.432C93.1243 26.432 93.5743 26.408 93.9223 26.36C94.2703 26.3 94.5403 26.228 94.7323 26.144C94.9363 26.06 95.0803 25.982 95.1643 25.91H95.9923V31.22C96.3763 30.86 96.7843 30.602 97.2163 30.446C97.6483 30.29 98.0803 30.212 98.5123 30.212C99.2563 30.212 99.9103 30.398 100.474 30.77C101.05 31.142 101.5 31.67 101.824 32.354C102.148 33.038 102.31 33.842 102.31 34.766C102.31 35.75 102.118 36.62 101.734 37.376C101.35 38.132 100.822 38.726 100.15 39.158C99.4783 39.578 98.7043 39.788 97.8283 39.788C97.4803 39.788 97.0543 39.716 96.5503 39.572C96.0583 39.428 95.6083 39.14 95.2003 38.708L94.6963 39.5H93.7783V28.97ZM95.9923 36.764C95.9923 37.244 96.0703 37.622 96.2263 37.898C96.3823 38.174 96.5803 38.372 96.8203 38.492C97.0723 38.6 97.3243 38.66 97.5763 38.672C98.1283 38.672 98.5723 38.51 98.9083 38.186C99.2563 37.862 99.5083 37.43 99.6643 36.89C99.8323 36.338 99.9163 35.744 99.9163 35.108C99.9163 34.46 99.8383 33.872 99.6823 33.344C99.5263 32.804 99.2863 32.378 98.9623 32.066C98.6383 31.742 98.2123 31.58 97.6843 31.58C97.3603 31.592 97.0483 31.676 96.7483 31.832C96.4483 31.988 96.1963 32.192 95.9923 32.444V36.764ZM108.001 39.788C107.137 39.788 106.369 39.596 105.697 39.212C105.025 38.816 104.503 38.264 104.131 37.556C103.759 36.836 103.573 35.99 103.573 35.018C103.573 34.178 103.759 33.392 104.131 32.66C104.503 31.928 105.025 31.34 105.697 30.896C106.381 30.44 107.173 30.212 108.073 30.212C108.577 30.212 109.063 30.284 109.531 30.428C109.999 30.572 110.419 30.812 110.791 31.148C111.163 31.484 111.457 31.928 111.673 32.48C111.901 33.032 112.009 33.704 111.997 34.496L105.949 34.604C105.949 35.348 106.033 36.008 106.201 36.584C106.381 37.148 106.669 37.598 107.065 37.934C107.461 38.258 107.983 38.42 108.631 38.42C108.919 38.42 109.225 38.372 109.549 38.276C109.885 38.168 110.215 38.012 110.539 37.808C110.863 37.592 111.151 37.328 111.403 37.016L112.087 37.646C111.691 38.222 111.253 38.666 110.773 38.978C110.293 39.29 109.813 39.5 109.333 39.608C108.853 39.728 108.409 39.788 108.001 39.788ZM106.039 33.524H109.783C109.771 33.044 109.699 32.642 109.567 32.318C109.447 31.982 109.267 31.73 109.027 31.562C108.787 31.382 108.493 31.292 108.145 31.292C107.557 31.292 107.083 31.49 106.723 31.886C106.375 32.27 106.147 32.816 106.039 33.524Z" fill="#FFF9C0"/>
<defs>
<linearGradient id="paint0_linear_0_377" x1="-2.63162" y1="-4.83334" x2="47.4733" y2="49.1406" gradientUnits="userSpaceOnUse">
<stop stop-color="#FFE195"/>
<stop offset="0.177083" stop-color="#F2BB5A" stop-opacity="0.876812"/>
<stop offset="0.359375" stop-color="#BF7A00" stop-opacity="0.75"/>
<stop offset="1" stop-color="#BF7A00" stop-opacity="0"/>
<stop offset="1" stop-color="#0F1218" stop-opacity="0"/>
</linearGradient>
<linearGradient id="paint1_linear_0_377" x1="139.196" y1="66.6334" x2="86.1481" y2="9.23064" gradientUnits="userSpaceOnUse">
<stop stop-color="#FFE195"/>
<stop offset="0.217042" stop-color="#F2BB5A" stop-opacity="0.86"/>
<stop offset="0.439162" stop-color="#BF7A00" stop-opacity="0.669735"/>
<stop offset="0.829796" stop-opacity="0"/>
</linearGradient>
</defs>
</svg>
