<svg width="1294" height="31" viewBox="0 0 1294 31" fill="none" xmlns="http://www.w3.org/2000/svg">
<path d="M312 15.5L1.63913e-06 15.5" stroke="url(#paint0_linear_0_380)" stroke-width="4"/>
<path d="M341.065 12.288C341.017 11.52 340.833 10.792 340.513 10.104C340.193 9.416 339.729 8.856 339.121 8.424C338.513 7.992 337.737 7.776 336.793 7.776C335.801 7.776 335.041 8.056 334.513 8.616C333.985 9.176 333.721 9.832 333.721 10.584C333.721 11.256 333.913 11.824 334.297 12.288C334.681 12.736 335.177 13.136 335.785 13.488C336.409 13.824 337.065 14.152 337.753 14.472C338.361 14.744 338.969 15.04 339.577 15.36C340.185 15.664 340.737 16.016 341.233 16.416C341.729 16.816 342.121 17.296 342.409 17.856C342.713 18.4 342.865 19.056 342.865 19.824C342.865 20.704 342.641 21.488 342.193 22.176C341.761 22.864 341.129 23.408 340.297 23.808C339.465 24.192 338.449 24.384 337.249 24.384C336.529 24.384 335.785 24.28 335.017 24.072C334.249 23.864 333.569 23.56 332.977 23.16L333.097 24.192H331.849L331.705 19.08H332.641C332.721 20.488 333.209 21.56 334.105 22.296C335.001 23.016 336.081 23.376 337.345 23.376C337.969 23.376 338.545 23.264 339.073 23.04C339.601 22.8 340.017 22.456 340.321 22.008C340.641 21.56 340.801 21.016 340.801 20.376C340.801 19.656 340.609 19.056 340.225 18.576C339.841 18.096 339.345 17.68 338.737 17.328C338.129 16.976 337.481 16.64 336.793 16.32C336.185 16.048 335.585 15.76 334.993 15.456C334.401 15.152 333.857 14.808 333.361 14.424C332.881 14.024 332.489 13.552 332.185 13.008C331.897 12.464 331.753 11.808 331.753 11.04C331.753 10.624 331.825 10.176 331.969 9.696C332.113 9.216 332.361 8.76 332.713 8.328C333.081 7.88 333.577 7.52 334.201 7.248C334.841 6.96 335.649 6.816 336.625 6.816C337.233 6.816 337.913 6.904 338.665 7.08C339.433 7.24 340.145 7.56 340.801 8.04L340.705 7.008H341.929V12.288H341.065ZM349.909 24.384C349.045 24.384 348.317 24.224 347.725 23.904C347.149 23.584 346.709 23.04 346.405 22.272C346.117 21.504 345.973 20.464 345.973 19.152V14.88C345.973 14.624 345.973 14.368 345.973 14.112C345.989 13.856 346.021 13.592 346.069 13.32C345.797 13.336 345.517 13.352 345.229 13.368C344.957 13.368 344.685 13.376 344.413 13.392V12.408H345.157C345.845 12.408 346.341 12.344 346.645 12.216C346.965 12.072 347.213 11.92 347.389 11.76H348.085V19.08C348.085 20.456 348.277 21.488 348.661 22.176C349.061 22.848 349.733 23.176 350.677 23.16C351.285 23.144 351.861 22.96 352.405 22.608C352.965 22.24 353.413 21.808 353.749 21.312V15.144C353.749 14.76 353.757 14.432 353.773 14.16C353.789 13.872 353.821 13.592 353.869 13.32C353.581 13.336 353.293 13.352 353.005 13.368C352.717 13.368 352.429 13.376 352.141 13.392V12.408H352.885C353.573 12.408 354.069 12.344 354.373 12.216C354.693 12.072 354.941 11.92 355.117 11.76H355.813L355.789 20.832C355.789 21.088 355.781 21.448 355.765 21.912C355.749 22.376 355.725 22.768 355.693 23.088C355.981 23.072 356.269 23.056 356.557 23.04C356.845 23.024 357.133 23.008 357.421 22.992V24H353.989C353.941 23.728 353.901 23.472 353.869 23.232C353.853 22.992 353.837 22.768 353.821 22.56C353.325 23.056 352.725 23.488 352.021 23.856C351.317 24.208 350.613 24.384 349.909 24.384ZM359.933 9C359.933 8.744 359.933 8.504 359.933 8.28C359.949 8.04 359.973 7.76 360.005 7.44C359.717 7.456 359.429 7.472 359.141 7.488C358.869 7.504 358.589 7.52 358.301 7.536V6.528C359.005 6.528 359.549 6.496 359.933 6.432C360.333 6.368 360.629 6.288 360.821 6.192C361.029 6.096 361.189 5.992 361.301 5.88H361.997V13.032C362.445 12.584 362.973 12.24 363.581 12C364.205 11.744 364.885 11.616 365.621 11.616C366.645 11.616 367.565 11.864 368.381 12.36C369.213 12.856 369.869 13.56 370.349 14.472C370.829 15.384 371.069 16.464 371.069 17.712C371.069 19.072 370.773 20.256 370.181 21.264C369.589 22.256 368.821 23.024 367.877 23.568C366.933 24.112 365.917 24.384 364.829 24.384C364.285 24.384 363.685 24.28 363.029 24.072C362.389 23.88 361.813 23.496 361.301 22.92L360.725 24H359.885L359.933 9ZM361.997 20.232C361.997 21.08 362.133 21.736 362.405 22.2C362.677 22.648 363.029 22.96 363.461 23.136C363.893 23.312 364.349 23.4 364.829 23.4C365.597 23.4 366.261 23.184 366.821 22.752C367.381 22.32 367.813 21.728 368.117 20.976C368.437 20.208 368.597 19.32 368.597 18.312C368.597 17.224 368.461 16.272 368.189 15.456C367.917 14.624 367.509 13.976 366.965 13.512C366.421 13.032 365.733 12.792 364.901 12.792C364.373 12.792 363.845 12.92 363.317 13.176C362.805 13.416 362.365 13.744 361.997 14.16V20.232ZM378.054 24.384C377.254 24.384 376.542 24.272 375.918 24.048C375.294 23.84 374.782 23.6 374.382 23.328L374.478 24.168H373.47L373.326 20.04H374.07C374.102 20.696 374.286 21.288 374.622 21.816C374.958 22.328 375.39 22.728 375.918 23.016C376.446 23.304 377.014 23.448 377.622 23.448C378.038 23.448 378.446 23.384 378.846 23.256C379.246 23.112 379.582 22.904 379.854 22.632C380.126 22.344 380.262 21.984 380.262 21.552C380.262 21.104 380.126 20.736 379.854 20.448C379.598 20.144 379.254 19.88 378.822 19.656C378.39 19.432 377.926 19.224 377.43 19.032C376.95 18.84 376.47 18.64 375.99 18.432C375.51 18.224 375.062 17.976 374.646 17.688C374.246 17.4 373.926 17.048 373.686 16.632C373.446 16.216 373.326 15.704 373.326 15.096C373.326 14.76 373.39 14.392 373.518 13.992C373.646 13.592 373.862 13.216 374.166 12.864C374.47 12.496 374.886 12.2 375.414 11.976C375.942 11.736 376.614 11.616 377.43 11.616C377.862 11.616 378.342 11.688 378.87 11.832C379.398 11.976 379.91 12.248 380.406 12.648L380.358 11.736H381.366V15.936H380.598C380.566 15.376 380.438 14.84 380.214 14.328C379.99 13.8 379.662 13.368 379.23 13.032C378.798 12.68 378.238 12.504 377.55 12.504C376.814 12.504 376.238 12.688 375.822 13.056C375.406 13.424 375.198 13.848 375.198 14.328C375.198 14.824 375.35 15.24 375.654 15.576C375.974 15.896 376.382 16.176 376.878 16.416C377.374 16.656 377.902 16.888 378.462 17.112C379.07 17.368 379.662 17.648 380.238 17.952C380.814 18.256 381.286 18.64 381.654 19.104C382.022 19.552 382.206 20.136 382.206 20.856C382.206 21.656 381.998 22.32 381.582 22.848C381.182 23.376 380.662 23.76 380.022 24C379.398 24.256 378.742 24.384 378.054 24.384ZM390.1 24.384C389.028 24.384 388.036 24.144 387.124 23.664C386.228 23.168 385.508 22.464 384.964 21.552C384.436 20.624 384.172 19.512 384.172 18.216C384.172 17.384 384.324 16.576 384.628 15.792C384.932 15.008 385.356 14.304 385.9 13.68C386.46 13.04 387.124 12.536 387.892 12.168C388.66 11.8 389.508 11.616 390.436 11.616C391.332 11.616 392.108 11.752 392.764 12.024C393.436 12.296 393.956 12.656 394.324 13.104C394.692 13.552 394.876 14.04 394.876 14.568C394.876 14.92 394.78 15.224 394.588 15.48C394.396 15.72 394.116 15.84 393.748 15.84C393.348 15.856 393.06 15.736 392.884 15.48C392.724 15.208 392.644 14.968 392.644 14.76C392.644 14.6 392.668 14.44 392.716 14.28C392.764 14.104 392.86 13.944 393.004 13.8C392.876 13.416 392.652 13.136 392.332 12.96C392.012 12.768 391.676 12.648 391.324 12.6C390.988 12.536 390.708 12.504 390.484 12.504C389.396 12.504 388.476 12.944 387.724 13.824C386.988 14.688 386.62 15.952 386.62 17.616C386.62 18.688 386.788 19.64 387.124 20.472C387.476 21.304 387.964 21.96 388.588 22.44C389.212 22.904 389.932 23.136 390.748 23.136C391.5 23.136 392.22 22.936 392.908 22.536C393.596 22.136 394.132 21.648 394.516 21.072L395.14 21.552C394.724 22.224 394.22 22.768 393.628 23.184C393.052 23.6 392.452 23.904 391.828 24.096C391.22 24.288 390.644 24.384 390.1 24.384ZM397.017 23.28C397.513 23.28 397.857 23.16 398.049 22.92C398.241 22.664 398.353 22.32 398.385 21.888C398.417 21.44 398.433 20.928 398.433 20.352V14.88C398.433 14.624 398.433 14.368 398.433 14.112C398.449 13.856 398.481 13.592 398.529 13.32C398.241 13.336 397.953 13.352 397.665 13.368C397.393 13.368 397.113 13.376 396.825 13.392V12.408H397.569C398.257 12.408 398.729 12.344 398.985 12.216C399.257 12.072 399.481 11.92 399.657 11.76H400.353C400.385 12.016 400.409 12.336 400.425 12.72C400.441 13.088 400.457 13.56 400.473 14.136C400.713 13.736 401.041 13.344 401.457 12.96C401.873 12.576 402.337 12.256 402.849 12C403.377 11.744 403.929 11.616 404.505 11.616C404.953 11.616 405.345 11.736 405.681 11.976C406.017 12.216 406.185 12.6 406.185 13.128C406.185 13.256 406.145 13.416 406.065 13.608C405.985 13.784 405.857 13.944 405.681 14.088C405.505 14.216 405.273 14.28 404.985 14.28C404.633 14.264 404.353 14.128 404.145 13.872C403.937 13.6 403.857 13.288 403.905 12.936C403.505 12.92 403.089 13.024 402.657 13.248C402.241 13.472 401.849 13.784 401.481 14.184C401.113 14.568 400.785 15.024 400.497 15.552L400.521 21.456C400.521 21.776 400.513 22.064 400.497 22.32C400.497 22.56 400.473 22.816 400.425 23.088C400.681 23.072 400.929 23.064 401.169 23.064C401.425 23.048 401.681 23.032 401.937 23.016V24H397.017V23.28ZM407.4 23.28C407.896 23.28 408.24 23.16 408.432 22.92C408.624 22.664 408.736 22.32 408.768 21.888C408.8 21.44 408.816 20.928 408.816 20.352V14.88C408.816 14.624 408.824 14.384 408.84 14.16C408.856 13.92 408.88 13.64 408.912 13.32C408.624 13.336 408.336 13.352 408.048 13.368C407.776 13.384 407.496 13.4 407.208 13.416V12.408C407.912 12.408 408.456 12.376 408.84 12.312C409.224 12.248 409.512 12.168 409.704 12.072C409.912 11.976 410.072 11.872 410.184 11.76H410.88V21.456C410.88 21.776 410.872 22.064 410.856 22.32C410.856 22.56 410.832 22.816 410.784 23.088C411.04 23.072 411.288 23.064 411.528 23.064C411.784 23.048 412.04 23.032 412.296 23.016V24H407.4V23.28ZM409.728 9.384C409.392 9.384 409.096 9.248 408.84 8.976C408.584 8.704 408.456 8.368 408.456 7.968C408.456 7.568 408.584 7.232 408.84 6.96C409.112 6.672 409.416 6.528 409.752 6.528C410.12 6.528 410.424 6.672 410.664 6.96C410.92 7.232 411.048 7.568 411.048 7.968C411.048 8.368 410.912 8.704 410.64 8.976C410.384 9.248 410.08 9.384 409.728 9.384ZM415.293 9C415.293 8.744 415.293 8.504 415.293 8.28C415.309 8.04 415.333 7.76 415.365 7.44C415.077 7.456 414.789 7.472 414.501 7.488C414.229 7.504 413.949 7.52 413.661 7.536V6.528C414.365 6.528 414.909 6.496 415.293 6.432C415.693 6.368 415.989 6.288 416.181 6.192C416.389 6.096 416.549 5.992 416.661 5.88H417.357V13.032C417.805 12.584 418.333 12.24 418.941 12C419.565 11.744 420.245 11.616 420.981 11.616C422.005 11.616 422.925 11.864 423.741 12.36C424.573 12.856 425.229 13.56 425.709 14.472C426.189 15.384 426.429 16.464 426.429 17.712C426.429 19.072 426.133 20.256 425.541 21.264C424.949 22.256 424.181 23.024 423.237 23.568C422.293 24.112 421.277 24.384 420.189 24.384C419.645 24.384 419.045 24.28 418.389 24.072C417.749 23.88 417.173 23.496 416.661 22.92L416.085 24H415.245L415.293 9ZM417.357 20.232C417.357 21.08 417.493 21.736 417.765 22.2C418.037 22.648 418.389 22.96 418.821 23.136C419.253 23.312 419.709 23.4 420.189 23.4C420.957 23.4 421.621 23.184 422.181 22.752C422.741 22.32 423.173 21.728 423.477 20.976C423.797 20.208 423.957 19.32 423.957 18.312C423.957 17.224 423.821 16.272 423.549 15.456C423.277 14.624 422.869 13.976 422.325 13.512C421.781 13.032 421.093 12.792 420.261 12.792C419.733 12.792 419.205 12.92 418.677 13.176C418.165 13.416 417.725 13.744 417.357 14.16V20.232ZM434.302 24.384C433.198 24.384 432.198 24.128 431.302 23.616C430.422 23.088 429.726 22.352 429.214 21.408C428.702 20.448 428.446 19.32 428.446 18.024C428.446 16.904 428.694 15.856 429.19 14.88C429.702 13.904 430.414 13.12 431.326 12.528C432.238 11.92 433.294 11.616 434.493 11.616C435.166 11.616 435.79 11.728 436.366 11.952C436.958 12.16 437.478 12.488 437.926 12.936C438.374 13.368 438.726 13.92 438.982 14.592C439.238 15.248 439.366 16.024 439.366 16.92L430.918 17.064C430.918 18.28 431.046 19.352 431.302 20.28C431.574 21.192 432.006 21.904 432.598 22.416C433.19 22.912 433.95 23.16 434.878 23.16C435.374 23.16 435.878 23.072 436.39 22.896C436.918 22.72 437.406 22.48 437.854 22.176C438.302 21.872 438.662 21.536 438.934 21.168L439.51 21.648C439.078 22.32 438.558 22.856 437.95 23.256C437.342 23.656 436.718 23.944 436.078 24.12C435.438 24.296 434.846 24.384 434.302 24.384ZM430.99 16.056H437.11C437.11 15.48 437.022 14.928 436.846 14.4C436.686 13.856 436.414 13.416 436.03 13.08C435.646 12.728 435.142 12.552 434.518 12.552C433.59 12.552 432.814 12.832 432.19 13.392C431.582 13.936 431.182 14.824 430.99 16.056ZM460.646 12.264C460.63 11.32 460.534 10.536 460.358 9.912C460.182 9.288 459.87 8.824 459.422 8.52C458.99 8.2 458.358 8.048 457.526 8.064H455.486L455.462 21.144C455.462 21.576 455.454 21.952 455.438 22.272C455.438 22.576 455.422 22.832 455.39 23.04C455.726 23.024 456.054 23.008 456.374 22.992C456.71 22.976 457.046 22.96 457.382 22.944V24H451.742V23.208C452.35 23.176 452.758 23.032 452.966 22.776C453.19 22.52 453.31 22.176 453.326 21.744C453.358 21.296 453.374 20.8 453.374 20.256L453.398 8.088L450.926 8.112C449.918 8.112 449.206 8.448 448.79 9.12C448.374 9.792 448.166 10.84 448.166 12.264H447.278L447.422 7.2H461.414L461.558 12.264H460.646ZM467.938 24.384C466.818 24.384 465.802 24.128 464.89 23.616C463.978 23.088 463.25 22.368 462.706 21.456C462.178 20.528 461.914 19.472 461.914 18.288C461.914 17.024 462.178 15.888 462.706 14.88C463.234 13.872 463.954 13.08 464.866 12.504C465.778 11.912 466.802 11.616 467.938 11.616C469.058 11.616 470.074 11.888 470.986 12.432C471.898 12.96 472.626 13.68 473.17 14.592C473.714 15.504 473.986 16.544 473.986 17.712C473.986 18.944 473.714 20.072 473.17 21.096C472.642 22.104 471.922 22.904 471.01 23.496C470.098 24.088 469.074 24.384 467.938 24.384ZM468.13 23.424C468.978 23.424 469.65 23.184 470.146 22.704C470.642 22.224 470.994 21.6 471.202 20.832C471.426 20.064 471.538 19.256 471.538 18.408C471.538 17.688 471.466 16.984 471.322 16.296C471.194 15.592 470.986 14.96 470.698 14.4C470.41 13.824 470.034 13.368 469.57 13.032C469.122 12.696 468.578 12.528 467.938 12.528C467.106 12.528 466.426 12.768 465.898 13.248C465.37 13.728 464.978 14.352 464.722 15.12C464.482 15.888 464.362 16.712 464.362 17.592C464.362 18.584 464.498 19.528 464.77 20.424C465.042 21.304 465.458 22.024 466.018 22.584C466.578 23.144 467.282 23.424 468.13 23.424ZM490.921 24.384C489.401 24.384 488.097 24.128 487.009 23.616C485.921 23.104 485.033 22.424 484.345 21.576C483.673 20.712 483.177 19.76 482.857 18.72C482.537 17.68 482.377 16.64 482.377 15.6C482.377 14.592 482.545 13.576 482.881 12.552C483.217 11.512 483.729 10.56 484.417 9.696C485.121 8.832 485.993 8.136 487.033 7.608C488.089 7.08 489.321 6.816 490.729 6.816C492.201 6.816 493.473 7.08 494.545 7.608C495.617 8.136 496.497 8.84 497.185 9.72C497.889 10.584 498.409 11.528 498.745 12.552C499.097 13.576 499.273 14.592 499.273 15.6C499.273 16.592 499.105 17.608 498.769 18.648C498.433 19.672 497.913 20.624 497.209 21.504C496.521 22.368 495.657 23.064 494.617 23.592C493.577 24.12 492.345 24.384 490.921 24.384ZM490.969 23.4C491.961 23.4 492.825 23.192 493.561 22.776C494.297 22.344 494.905 21.776 495.385 21.072C495.881 20.352 496.249 19.56 496.489 18.696C496.745 17.816 496.873 16.936 496.873 16.056C496.873 15.064 496.737 14.08 496.465 13.104C496.193 12.128 495.793 11.24 495.265 10.44C494.737 9.64 494.081 9 493.297 8.52C492.529 8.024 491.649 7.776 490.657 7.776C489.665 7.776 488.793 7.992 488.041 8.424C487.305 8.856 486.689 9.432 486.193 10.152C485.713 10.856 485.345 11.648 485.089 12.528C484.849 13.392 484.729 14.272 484.729 15.168C484.729 16.048 484.849 16.968 485.089 17.928C485.345 18.888 485.729 19.784 486.241 20.616C486.753 21.448 487.401 22.12 488.185 22.632C488.969 23.144 489.897 23.4 490.969 23.4ZM506.448 24.384C505.584 24.384 504.856 24.224 504.264 23.904C503.688 23.584 503.248 23.04 502.944 22.272C502.656 21.504 502.512 20.464 502.512 19.152V14.88C502.512 14.624 502.512 14.368 502.512 14.112C502.528 13.856 502.56 13.592 502.608 13.32C502.336 13.336 502.056 13.352 501.768 13.368C501.496 13.368 501.224 13.376 500.952 13.392V12.408H501.696C502.384 12.408 502.88 12.344 503.184 12.216C503.504 12.072 503.752 11.92 503.928 11.76H504.624V19.08C504.624 20.456 504.816 21.488 505.2 22.176C505.6 22.848 506.272 23.176 507.216 23.16C507.824 23.144 508.4 22.96 508.944 22.608C509.504 22.24 509.952 21.808 510.288 21.312V15.144C510.288 14.76 510.296 14.432 510.312 14.16C510.328 13.872 510.36 13.592 510.408 13.32C510.12 13.336 509.832 13.352 509.544 13.368C509.256 13.368 508.968 13.376 508.68 13.392V12.408H509.424C510.112 12.408 510.608 12.344 510.912 12.216C511.232 12.072 511.48 11.92 511.656 11.76H512.352L512.328 20.832C512.328 21.088 512.32 21.448 512.304 21.912C512.288 22.376 512.264 22.768 512.232 23.088C512.52 23.072 512.808 23.056 513.096 23.04C513.384 23.024 513.672 23.008 513.96 22.992V24H510.528C510.48 23.728 510.44 23.472 510.408 23.232C510.392 22.992 510.376 22.768 510.36 22.56C509.864 23.056 509.264 23.488 508.56 23.856C507.856 24.208 507.152 24.384 506.448 24.384ZM515.704 23.28C516.2 23.28 516.544 23.16 516.736 22.92C516.928 22.664 517.04 22.32 517.072 21.888C517.104 21.44 517.12 20.928 517.12 20.352V14.88C517.12 14.624 517.12 14.368 517.12 14.112C517.136 13.856 517.168 13.592 517.216 13.32C516.928 13.336 516.64 13.352 516.352 13.368C516.08 13.368 515.8 13.376 515.512 13.392V12.408H516.256C516.944 12.408 517.416 12.344 517.672 12.216C517.944 12.072 518.168 11.92 518.344 11.76H519.04C519.072 12.016 519.096 12.336 519.112 12.72C519.128 13.088 519.144 13.56 519.16 14.136C519.4 13.736 519.728 13.344 520.144 12.96C520.56 12.576 521.024 12.256 521.536 12C522.064 11.744 522.616 11.616 523.192 11.616C523.64 11.616 524.032 11.736 524.368 11.976C524.704 12.216 524.872 12.6 524.872 13.128C524.872 13.256 524.832 13.416 524.752 13.608C524.672 13.784 524.544 13.944 524.368 14.088C524.192 14.216 523.96 14.28 523.672 14.28C523.32 14.264 523.04 14.128 522.832 13.872C522.624 13.6 522.544 13.288 522.592 12.936C522.192 12.92 521.776 13.024 521.344 13.248C520.928 13.472 520.536 13.784 520.168 14.184C519.8 14.568 519.472 15.024 519.184 15.552L519.208 21.456C519.208 21.776 519.2 22.064 519.184 22.32C519.184 22.56 519.16 22.816 519.112 23.088C519.368 23.072 519.616 23.064 519.856 23.064C520.112 23.048 520.368 23.032 520.624 23.016V24H515.704V23.28ZM545.784 24.384L536.208 11.52C536.064 11.328 535.92 11.144 535.776 10.968C535.648 10.776 535.512 10.584 535.368 10.392H535.344L535.416 20.664C535.416 21.064 535.416 21.464 535.416 21.864C535.416 22.264 535.4 22.656 535.368 23.04C535.656 23.024 535.944 23.008 536.232 22.992C536.52 22.976 536.808 22.96 537.096 22.944V24H532.704V23.208C533.2 23.208 533.552 23.104 533.76 22.896C533.984 22.672 534.128 22.416 534.192 22.128C534.256 21.824 534.288 21.552 534.288 21.312L534.312 9.768C534.312 9.496 534.312 9.224 534.312 8.952C534.312 8.68 534.312 8.416 534.312 8.16C534.056 8.176 533.792 8.192 533.52 8.208C533.248 8.224 532.976 8.24 532.704 8.256V7.2H535.56L544.56 19.248C544.768 19.52 544.968 19.792 545.16 20.064C545.368 20.336 545.576 20.608 545.784 20.88H545.808L545.832 9.888C545.832 9.568 545.84 9.264 545.856 8.976C545.872 8.672 545.888 8.4 545.904 8.16C545.616 8.176 545.328 8.192 545.04 8.208C544.752 8.224 544.464 8.24 544.176 8.256V7.2H548.592V7.992C548 8.008 547.592 8.144 547.368 8.4C547.144 8.656 547.024 9 547.008 9.432C546.992 9.864 546.984 10.368 546.984 10.944L546.936 24.384H545.784ZM556.247 24.384C555.143 24.384 554.143 24.128 553.247 23.616C552.367 23.088 551.671 22.352 551.159 21.408C550.647 20.448 550.391 19.32 550.391 18.024C550.391 16.904 550.639 15.856 551.135 14.88C551.647 13.904 552.359 13.12 553.271 12.528C554.183 11.92 555.239 11.616 556.439 11.616C557.111 11.616 557.735 11.728 558.311 11.952C558.903 12.16 559.423 12.488 559.871 12.936C560.319 13.368 560.671 13.92 560.927 14.592C561.183 15.248 561.311 16.024 561.311 16.92L552.863 17.064C552.863 18.28 552.991 19.352 553.247 20.28C553.519 21.192 553.951 21.904 554.543 22.416C555.135 22.912 555.895 23.16 556.823 23.16C557.319 23.16 557.823 23.072 558.335 22.896C558.863 22.72 559.351 22.48 559.799 22.176C560.247 21.872 560.607 21.536 560.879 21.168L561.455 21.648C561.023 22.32 560.503 22.856 559.895 23.256C559.287 23.656 558.663 23.944 558.023 24.12C557.383 24.296 556.791 24.384 556.247 24.384ZM552.935 16.056H559.055C559.055 15.48 558.967 14.928 558.791 14.4C558.631 13.856 558.359 13.416 557.975 13.08C557.591 12.728 557.087 12.552 556.463 12.552C555.535 12.552 554.759 12.832 554.135 13.392C553.527 13.936 553.127 14.824 552.935 16.056ZM567.481 24.072L564.337 14.856C564.225 14.52 564.121 14.232 564.025 13.992C563.945 13.752 563.881 13.544 563.833 13.368C563.785 13.192 563.745 13.04 563.713 12.912L562.441 12.984V12H567.529V12.72C566.809 12.736 566.409 12.984 566.329 13.464C566.265 13.928 566.361 14.544 566.617 15.312L567.721 18.672C567.849 19.056 567.977 19.448 568.105 19.848C568.233 20.232 568.361 20.616 568.489 21C568.633 20.568 568.777 20.136 568.921 19.704C569.081 19.256 569.233 18.808 569.377 18.36L571.513 12H572.497L574.921 18.984C575.049 19.336 575.177 19.696 575.305 20.064C575.433 20.432 575.561 20.8 575.689 21.168C575.817 20.816 575.937 20.472 576.049 20.136C576.177 19.784 576.297 19.432 576.409 19.08L577.993 14.52C578.105 14.2 578.217 13.896 578.329 13.608C578.441 13.32 578.569 13.088 578.713 12.912L577.321 12.984V12H581.497V12.72C581.081 12.736 580.737 12.792 580.465 12.888C580.209 12.984 579.993 13.112 579.817 13.272C579.641 13.432 579.497 13.624 579.385 13.848C579.273 14.072 579.169 14.328 579.073 14.616L575.617 24.072H574.657L572.377 17.52C572.281 17.232 572.185 16.952 572.089 16.68C571.993 16.392 571.897 16.112 571.801 15.84C571.705 15.552 571.609 15.272 571.513 15C571.417 15.272 571.321 15.552 571.225 15.84C571.129 16.112 571.033 16.392 570.937 16.68C570.841 16.952 570.745 17.232 570.649 17.52L568.393 24.072H567.481ZM587.492 24.384C586.692 24.384 585.98 24.272 585.356 24.048C584.732 23.84 584.22 23.6 583.82 23.328L583.916 24.168H582.908L582.764 20.04H583.508C583.54 20.696 583.724 21.288 584.06 21.816C584.396 22.328 584.828 22.728 585.356 23.016C585.884 23.304 586.452 23.448 587.06 23.448C587.476 23.448 587.884 23.384 588.284 23.256C588.684 23.112 589.02 22.904 589.292 22.632C589.564 22.344 589.7 21.984 589.7 21.552C589.7 21.104 589.564 20.736 589.292 20.448C589.036 20.144 588.692 19.88 588.26 19.656C587.828 19.432 587.364 19.224 586.868 19.032C586.388 18.84 585.908 18.64 585.428 18.432C584.948 18.224 584.5 17.976 584.084 17.688C583.684 17.4 583.364 17.048 583.124 16.632C582.884 16.216 582.764 15.704 582.764 15.096C582.764 14.76 582.828 14.392 582.956 13.992C583.084 13.592 583.3 13.216 583.604 12.864C583.908 12.496 584.324 12.2 584.852 11.976C585.38 11.736 586.052 11.616 586.868 11.616C587.3 11.616 587.78 11.688 588.308 11.832C588.836 11.976 589.348 12.248 589.844 12.648L589.796 11.736H590.804V15.936H590.036C590.004 15.376 589.876 14.84 589.652 14.328C589.428 13.8 589.1 13.368 588.668 13.032C588.236 12.68 587.676 12.504 586.988 12.504C586.252 12.504 585.676 12.688 585.26 13.056C584.844 13.424 584.636 13.848 584.636 14.328C584.636 14.824 584.788 15.24 585.092 15.576C585.412 15.896 585.82 16.176 586.316 16.416C586.812 16.656 587.34 16.888 587.9 17.112C588.508 17.368 589.1 17.648 589.676 17.952C590.252 18.256 590.724 18.64 591.092 19.104C591.46 19.552 591.644 20.136 591.644 20.856C591.644 21.656 591.436 22.32 591.02 22.848C590.62 23.376 590.1 23.76 589.46 24C588.836 24.256 588.18 24.384 587.492 24.384ZM593.441 23.28C593.937 23.28 594.281 23.16 594.473 22.92C594.665 22.664 594.777 22.32 594.809 21.888C594.841 21.44 594.857 20.928 594.857 20.352V9C594.857 8.744 594.857 8.504 594.857 8.28C594.873 8.04 594.897 7.76 594.929 7.44C594.641 7.456 594.353 7.472 594.065 7.488C593.793 7.504 593.513 7.52 593.225 7.536V6.528C593.929 6.528 594.473 6.496 594.857 6.432C595.257 6.368 595.553 6.288 595.745 6.192C595.953 6.096 596.113 5.992 596.225 5.88H596.921L596.945 21.456C596.945 21.776 596.937 22.064 596.921 22.32C596.905 22.56 596.873 22.816 596.825 23.088C597.081 23.072 597.329 23.064 597.569 23.064C597.825 23.048 598.081 23.032 598.337 23.016V24H593.441V23.28ZM606.028 24.384C604.924 24.384 603.924 24.128 603.028 23.616C602.148 23.088 601.452 22.352 600.94 21.408C600.428 20.448 600.172 19.32 600.172 18.024C600.172 16.904 600.42 15.856 600.916 14.88C601.428 13.904 602.14 13.12 603.052 12.528C603.964 11.92 605.02 11.616 606.22 11.616C606.892 11.616 607.516 11.728 608.092 11.952C608.684 12.16 609.204 12.488 609.652 12.936C610.1 13.368 610.452 13.92 610.708 14.592C610.964 15.248 611.092 16.024 611.092 16.92L602.644 17.064C602.644 18.28 602.772 19.352 603.028 20.28C603.3 21.192 603.732 21.904 604.324 22.416C604.916 22.912 605.676 23.16 606.604 23.16C607.1 23.16 607.604 23.072 608.116 22.896C608.644 22.72 609.132 22.48 609.58 22.176C610.028 21.872 610.388 21.536 610.66 21.168L611.236 21.648C610.804 22.32 610.284 22.856 609.676 23.256C609.068 23.656 608.444 23.944 607.804 24.12C607.164 24.296 606.572 24.384 606.028 24.384ZM602.716 16.056H608.836C608.836 15.48 608.748 14.928 608.572 14.4C608.412 13.856 608.14 13.416 607.756 13.08C607.372 12.728 606.868 12.552 606.244 12.552C605.316 12.552 604.54 12.832 603.916 13.392C603.308 13.936 602.908 14.824 602.716 16.056ZM617.576 24.384C617.208 24.384 616.832 24.328 616.448 24.216C616.064 24.12 615.704 23.92 615.368 23.616C615.048 23.312 614.792 22.872 614.6 22.296C614.408 21.704 614.312 20.928 614.312 19.968L614.36 13.008L612.512 13.032V12C612.928 11.984 613.352 11.832 613.784 11.544C614.216 11.24 614.6 10.832 614.936 10.32C615.288 9.808 615.528 9.248 615.656 8.64H616.472V12H620.504V12.936L616.472 12.984L616.424 19.656C616.424 20.376 616.48 20.992 616.592 21.504C616.72 22 616.92 22.376 617.192 22.632C617.464 22.888 617.816 23.016 618.248 23.016C618.696 23.016 619.112 22.888 619.496 22.632C619.896 22.376 620.248 22.024 620.552 21.576L621.2 22.104C620.848 22.632 620.496 23.048 620.144 23.352C619.808 23.656 619.48 23.88 619.16 24.024C618.84 24.184 618.544 24.28 618.272 24.312C618 24.36 617.768 24.384 617.576 24.384ZM627.091 24.384C626.723 24.384 626.347 24.328 625.963 24.216C625.579 24.12 625.219 23.92 624.883 23.616C624.563 23.312 624.307 22.872 624.115 22.296C623.923 21.704 623.827 20.928 623.827 19.968L623.875 13.008L622.027 13.032V12C622.443 11.984 622.867 11.832 623.299 11.544C623.731 11.24 624.115 10.832 624.451 10.32C624.803 9.808 625.043 9.248 625.171 8.64H625.987V12H630.019V12.936L625.987 12.984L625.939 19.656C625.939 20.376 625.995 20.992 626.107 21.504C626.235 22 626.435 22.376 626.707 22.632C626.979 22.888 627.331 23.016 627.763 23.016C628.211 23.016 628.627 22.888 629.011 22.632C629.411 22.376 629.763 22.024 630.067 21.576L630.715 22.104C630.363 22.632 630.011 23.048 629.659 23.352C629.323 23.656 628.995 23.88 628.675 24.024C628.355 24.184 628.059 24.28 627.787 24.312C627.515 24.36 627.283 24.384 627.091 24.384ZM637.669 24.384C636.565 24.384 635.565 24.128 634.669 23.616C633.789 23.088 633.093 22.352 632.581 21.408C632.069 20.448 631.813 19.32 631.813 18.024C631.813 16.904 632.061 15.856 632.557 14.88C633.069 13.904 633.781 13.12 634.693 12.528C635.605 11.92 636.661 11.616 637.861 11.616C638.533 11.616 639.157 11.728 639.733 11.952C640.325 12.16 640.845 12.488 641.293 12.936C641.741 13.368 642.093 13.92 642.349 14.592C642.605 15.248 642.733 16.024 642.733 16.92L634.285 17.064C634.285 18.28 634.413 19.352 634.669 20.28C634.941 21.192 635.373 21.904 635.965 22.416C636.557 22.912 637.317 23.16 638.245 23.16C638.741 23.16 639.245 23.072 639.757 22.896C640.285 22.72 640.773 22.48 641.221 22.176C641.669 21.872 642.029 21.536 642.301 21.168L642.877 21.648C642.445 22.32 641.925 22.856 641.317 23.256C640.709 23.656 640.085 23.944 639.445 24.12C638.805 24.296 638.213 24.384 637.669 24.384ZM634.357 16.056H640.477C640.477 15.48 640.389 14.928 640.213 14.4C640.053 13.856 639.781 13.416 639.397 13.08C639.013 12.728 638.509 12.552 637.885 12.552C636.957 12.552 636.181 12.832 635.557 13.392C634.949 13.936 634.549 14.824 634.357 16.056ZM644.869 23.28C645.365 23.28 645.709 23.16 645.901 22.92C646.093 22.664 646.205 22.32 646.237 21.888C646.269 21.44 646.285 20.928 646.285 20.352V14.88C646.285 14.624 646.285 14.368 646.285 14.112C646.301 13.856 646.333 13.592 646.381 13.32C646.093 13.336 645.805 13.352 645.517 13.368C645.245 13.368 644.965 13.376 644.677 13.392V12.408H645.421C646.109 12.408 646.581 12.344 646.837 12.216C647.109 12.072 647.333 11.92 647.509 11.76H648.205C648.237 12.016 648.261 12.336 648.277 12.72C648.293 13.088 648.309 13.56 648.325 14.136C648.565 13.736 648.893 13.344 649.309 12.96C649.725 12.576 650.189 12.256 650.701 12C651.229 11.744 651.781 11.616 652.357 11.616C652.805 11.616 653.197 11.736 653.533 11.976C653.869 12.216 654.037 12.6 654.037 13.128C654.037 13.256 653.997 13.416 653.917 13.608C653.837 13.784 653.709 13.944 653.533 14.088C653.357 14.216 653.125 14.28 652.837 14.28C652.485 14.264 652.205 14.128 651.997 13.872C651.789 13.6 651.709 13.288 651.757 12.936C651.357 12.92 650.941 13.024 650.509 13.248C650.093 13.472 649.701 13.784 649.333 14.184C648.965 14.568 648.637 15.024 648.349 15.552L648.373 21.456C648.373 21.776 648.365 22.064 648.349 22.32C648.349 22.56 648.325 22.816 648.277 23.088C648.533 23.072 648.781 23.064 649.021 23.064C649.277 23.048 649.533 23.032 649.789 23.016V24H644.869V23.28ZM656.02 28.296L655.372 27.816C655.548 27.592 655.732 27.272 655.924 26.856C656.116 26.44 656.268 25.976 656.38 25.464C656.508 24.968 656.54 24.48 656.476 24C656.364 24.048 656.26 24.08 656.164 24.096C656.068 24.128 655.972 24.144 655.876 24.144C655.572 24.144 655.308 24.032 655.084 23.808C654.876 23.584 654.771 23.304 654.771 22.968C654.771 22.52 654.9 22.176 655.156 21.936C655.428 21.696 655.74 21.576 656.092 21.576C656.652 21.576 657.076 21.792 657.364 22.224C657.652 22.64 657.796 23.152 657.796 23.76C657.796 24.16 657.716 24.648 657.556 25.224C657.412 25.8 657.204 26.36 656.932 26.904C656.676 27.464 656.372 27.928 656.02 28.296ZM666.883 23.208C667.491 23.176 667.907 23.04 668.131 22.8C668.355 22.544 668.475 22.2 668.491 21.768C668.523 21.32 668.539 20.816 668.539 20.256V9.888C668.539 9.568 668.547 9.264 668.562 8.976C668.579 8.672 668.595 8.4 668.611 8.16C668.323 8.176 668.035 8.192 667.747 8.208C667.459 8.224 667.171 8.24 666.883 8.256V7.2L672.547 7.176C673.987 7.176 675.307 7.344 676.507 7.68C677.707 8.016 678.739 8.536 679.603 9.24C680.483 9.928 681.155 10.808 681.619 11.88C682.099 12.936 682.339 14.184 682.339 15.624C682.339 16.728 682.147 17.784 681.763 18.792C681.379 19.8 680.803 20.696 680.035 21.48C679.267 22.248 678.307 22.864 677.155 23.328C676.019 23.776 674.699 24 673.195 24H666.883V23.208ZM670.627 21.168C670.627 21.6 670.619 21.968 670.603 22.272C670.603 22.576 670.587 22.832 670.555 23.04C670.987 23.056 671.379 23.072 671.73 23.088C672.099 23.088 672.403 23.088 672.643 23.088C672.899 23.088 673.059 23.088 673.123 23.088C674.163 23.088 675.099 22.896 675.931 22.512C676.779 22.128 677.499 21.6 678.091 20.928C678.699 20.24 679.163 19.44 679.483 18.528C679.819 17.6 679.987 16.6 679.987 15.528C679.987 14.008 679.707 12.696 679.147 11.592C678.603 10.472 677.763 9.608 676.627 9C675.491 8.376 674.043 8.064 672.283 8.064C671.691 8.064 671.275 8.184 671.035 8.424C670.811 8.664 670.683 9 670.651 9.432C670.635 9.864 670.627 10.368 670.627 10.944V21.168ZM684.501 23.28C684.997 23.28 685.341 23.16 685.533 22.92C685.725 22.664 685.837 22.32 685.869 21.888C685.901 21.44 685.917 20.928 685.917 20.352V14.88C685.917 14.624 685.925 14.384 685.941 14.16C685.957 13.92 685.981 13.64 686.013 13.32C685.725 13.336 685.437 13.352 685.149 13.368C684.877 13.384 684.597 13.4 684.309 13.416V12.408C685.013 12.408 685.557 12.376 685.941 12.312C686.325 12.248 686.613 12.168 686.805 12.072C687.013 11.976 687.173 11.872 687.285 11.76H687.981V21.456C687.981 21.776 687.973 22.064 687.957 22.32C687.957 22.56 687.933 22.816 687.885 23.088C688.141 23.072 688.389 23.064 688.629 23.064C688.885 23.048 689.141 23.032 689.397 23.016V24H684.501V23.28ZM686.829 9.384C686.493 9.384 686.197 9.248 685.941 8.976C685.685 8.704 685.557 8.368 685.557 7.968C685.557 7.568 685.685 7.232 685.941 6.96C686.213 6.672 686.517 6.528 686.853 6.528C687.221 6.528 687.525 6.672 687.765 6.96C688.021 7.232 688.149 7.568 688.149 7.968C688.149 8.368 688.013 8.704 687.741 8.976C687.485 9.248 687.181 9.384 686.829 9.384ZM696.171 24.384C695.371 24.384 694.659 24.272 694.035 24.048C693.411 23.84 692.899 23.6 692.499 23.328L692.595 24.168H691.587L691.443 20.04H692.187C692.219 20.696 692.403 21.288 692.739 21.816C693.075 22.328 693.507 22.728 694.035 23.016C694.563 23.304 695.131 23.448 695.739 23.448C696.155 23.448 696.563 23.384 696.963 23.256C697.363 23.112 697.699 22.904 697.971 22.632C698.243 22.344 698.379 21.984 698.379 21.552C698.379 21.104 698.243 20.736 697.971 20.448C697.715 20.144 697.371 19.88 696.939 19.656C696.507 19.432 696.043 19.224 695.547 19.032C695.067 18.84 694.587 18.64 694.107 18.432C693.627 18.224 693.179 17.976 692.763 17.688C692.363 17.4 692.043 17.048 691.803 16.632C691.563 16.216 691.443 15.704 691.443 15.096C691.443 14.76 691.507 14.392 691.635 13.992C691.763 13.592 691.979 13.216 692.283 12.864C692.587 12.496 693.003 12.2 693.531 11.976C694.059 11.736 694.731 11.616 695.547 11.616C695.979 11.616 696.459 11.688 696.987 11.832C697.515 11.976 698.027 12.248 698.523 12.648L698.475 11.736H699.483V15.936H698.715C698.683 15.376 698.555 14.84 698.331 14.328C698.107 13.8 697.779 13.368 697.347 13.032C696.915 12.68 696.355 12.504 695.667 12.504C694.931 12.504 694.355 12.688 693.939 13.056C693.523 13.424 693.315 13.848 693.315 14.328C693.315 14.824 693.467 15.24 693.771 15.576C694.091 15.896 694.499 16.176 694.995 16.416C695.491 16.656 696.019 16.888 696.579 17.112C697.187 17.368 697.779 17.648 698.355 17.952C698.931 18.256 699.403 18.64 699.771 19.104C700.139 19.552 700.323 20.136 700.323 20.856C700.323 21.656 700.115 22.32 699.699 22.848C699.299 23.376 698.779 23.76 698.139 24C697.515 24.256 696.859 24.384 696.171 24.384ZM708.217 24.384C707.145 24.384 706.153 24.144 705.241 23.664C704.345 23.168 703.625 22.464 703.081 21.552C702.553 20.624 702.289 19.512 702.289 18.216C702.289 17.384 702.441 16.576 702.745 15.792C703.049 15.008 703.473 14.304 704.017 13.68C704.577 13.04 705.241 12.536 706.009 12.168C706.777 11.8 707.625 11.616 708.553 11.616C709.449 11.616 710.225 11.752 710.881 12.024C711.553 12.296 712.073 12.656 712.441 13.104C712.809 13.552 712.993 14.04 712.993 14.568C712.993 14.92 712.897 15.224 712.705 15.48C712.513 15.72 712.233 15.84 711.865 15.84C711.465 15.856 711.177 15.736 711.001 15.48C710.841 15.208 710.761 14.968 710.761 14.76C710.761 14.6 710.785 14.44 710.833 14.28C710.881 14.104 710.977 13.944 711.121 13.8C710.993 13.416 710.769 13.136 710.449 12.96C710.129 12.768 709.793 12.648 709.441 12.6C709.105 12.536 708.825 12.504 708.601 12.504C707.513 12.504 706.593 12.944 705.841 13.824C705.105 14.688 704.737 15.952 704.737 17.616C704.737 18.688 704.905 19.64 705.241 20.472C705.593 21.304 706.081 21.96 706.705 22.44C707.329 22.904 708.049 23.136 708.865 23.136C709.617 23.136 710.337 22.936 711.025 22.536C711.713 22.136 712.249 21.648 712.633 21.072L713.257 21.552C712.841 22.224 712.337 22.768 711.745 23.184C711.169 23.6 710.569 23.904 709.945 24.096C709.337 24.288 708.761 24.384 708.217 24.384ZM720.969 24.384C719.849 24.384 718.833 24.128 717.921 23.616C717.009 23.088 716.281 22.368 715.737 21.456C715.209 20.528 714.945 19.472 714.945 18.288C714.945 17.024 715.209 15.888 715.737 14.88C716.265 13.872 716.985 13.08 717.897 12.504C718.809 11.912 719.833 11.616 720.969 11.616C722.089 11.616 723.105 11.888 724.017 12.432C724.929 12.96 725.657 13.68 726.201 14.592C726.745 15.504 727.017 16.544 727.017 17.712C727.017 18.944 726.745 20.072 726.201 21.096C725.673 22.104 724.953 22.904 724.041 23.496C723.129 24.088 722.105 24.384 720.969 24.384ZM721.161 23.424C722.009 23.424 722.681 23.184 723.177 22.704C723.673 22.224 724.025 21.6 724.233 20.832C724.457 20.064 724.569 19.256 724.569 18.408C724.569 17.688 724.497 16.984 724.353 16.296C724.225 15.592 724.017 14.96 723.729 14.4C723.441 13.824 723.065 13.368 722.601 13.032C722.153 12.696 721.609 12.528 720.969 12.528C720.137 12.528 719.457 12.768 718.929 13.248C718.401 13.728 718.009 14.352 717.753 15.12C717.513 15.888 717.393 16.712 717.393 17.592C717.393 18.584 717.529 19.528 717.801 20.424C718.073 21.304 718.489 22.024 719.049 22.584C719.609 23.144 720.313 23.424 721.161 23.424ZM734.12 24.384C733.256 24.384 732.528 24.224 731.936 23.904C731.36 23.584 730.92 23.04 730.616 22.272C730.328 21.504 730.184 20.464 730.184 19.152V14.88C730.184 14.624 730.184 14.368 730.184 14.112C730.2 13.856 730.232 13.592 730.28 13.32C730.008 13.336 729.728 13.352 729.44 13.368C729.168 13.368 728.896 13.376 728.624 13.392V12.408H729.368C730.056 12.408 730.552 12.344 730.856 12.216C731.176 12.072 731.424 11.92 731.6 11.76H732.296V19.08C732.296 20.456 732.488 21.488 732.872 22.176C733.272 22.848 733.944 23.176 734.888 23.16C735.496 23.144 736.072 22.96 736.616 22.608C737.176 22.24 737.624 21.808 737.96 21.312V15.144C737.96 14.76 737.968 14.432 737.984 14.16C738 13.872 738.032 13.592 738.08 13.32C737.792 13.336 737.504 13.352 737.216 13.368C736.928 13.368 736.64 13.376 736.352 13.392V12.408H737.096C737.784 12.408 738.28 12.344 738.584 12.216C738.904 12.072 739.152 11.92 739.328 11.76H740.024L740 20.832C740 21.088 739.992 21.448 739.976 21.912C739.96 22.376 739.936 22.768 739.904 23.088C740.192 23.072 740.48 23.056 740.768 23.04C741.056 23.024 741.344 23.008 741.632 22.992V24H738.2C738.152 23.728 738.112 23.472 738.08 23.232C738.064 22.992 738.048 22.768 738.032 22.56C737.536 23.056 736.936 23.488 736.232 23.856C735.528 24.208 734.824 24.384 734.12 24.384ZM743.376 24V23.28C743.872 23.28 744.216 23.16 744.408 22.92C744.6 22.664 744.712 22.32 744.744 21.888C744.776 21.44 744.792 20.928 744.792 20.352L744.816 14.88C744.816 14.624 744.816 14.368 744.816 14.112C744.832 13.856 744.864 13.592 744.912 13.32C744.624 13.336 744.336 13.352 744.048 13.368C743.776 13.384 743.496 13.4 743.208 13.416V12.408C743.912 12.408 744.44 12.376 744.792 12.312C745.16 12.248 745.432 12.168 745.608 12.072C745.784 11.976 745.928 11.872 746.04 11.76H746.736C746.752 11.872 746.76 12 746.76 12.144C746.776 12.288 746.792 12.448 746.808 12.624C746.824 12.8 746.832 13 746.832 13.224C747.184 12.92 747.568 12.648 747.984 12.408C748.416 12.168 748.864 11.976 749.328 11.832C749.808 11.688 750.28 11.616 750.744 11.616C752.136 11.616 753.152 12.056 753.792 12.936C754.432 13.8 754.752 15.152 754.752 16.992V21.456C754.752 21.776 754.744 22.064 754.728 22.32C754.728 22.56 754.704 22.816 754.656 23.088C754.912 23.072 755.16 23.064 755.4 23.064C755.656 23.048 755.912 23.032 756.168 23.016V24H751.272V23.28C751.768 23.28 752.112 23.16 752.304 22.92C752.496 22.664 752.608 22.32 752.64 21.888C752.672 21.44 752.688 20.928 752.688 20.352V16.992C752.672 15.616 752.44 14.576 751.992 13.872C751.56 13.168 750.872 12.824 749.928 12.84C749.352 12.856 748.784 13.008 748.224 13.296C747.68 13.584 747.224 13.952 746.856 14.4C746.872 14.528 746.88 14.672 746.88 14.832C746.88 14.992 746.88 15.16 746.88 15.336L746.856 21.456C746.856 21.776 746.848 22.064 746.832 22.32C746.832 22.56 746.808 22.816 746.76 23.088C747.016 23.072 747.264 23.064 747.504 23.064C747.76 23.048 748.016 23.032 748.272 23.016V24H743.376ZM762.256 24.384C761.888 24.384 761.512 24.328 761.128 24.216C760.744 24.12 760.384 23.92 760.048 23.616C759.728 23.312 759.472 22.872 759.28 22.296C759.088 21.704 758.992 20.928 758.992 19.968L759.04 13.008L757.192 13.032V12C757.608 11.984 758.032 11.832 758.464 11.544C758.896 11.24 759.28 10.832 759.616 10.32C759.968 9.808 760.208 9.248 760.336 8.64H761.152V12H765.184V12.936L761.152 12.984L761.104 19.656C761.104 20.376 761.16 20.992 761.272 21.504C761.4 22 761.6 22.376 761.872 22.632C762.144 22.888 762.496 23.016 762.928 23.016C763.376 23.016 763.792 22.888 764.176 22.632C764.576 22.376 764.928 22.024 765.232 21.576L765.88 22.104C765.528 22.632 765.176 23.048 764.824 23.352C764.488 23.656 764.16 23.88 763.84 24.024C763.52 24.184 763.224 24.28 762.952 24.312C762.68 24.36 762.448 24.384 762.256 24.384ZM771.945 24.384C771.145 24.384 770.433 24.272 769.809 24.048C769.185 23.84 768.673 23.6 768.273 23.328L768.369 24.168H767.361L767.217 20.04H767.961C767.993 20.696 768.177 21.288 768.513 21.816C768.849 22.328 769.281 22.728 769.809 23.016C770.337 23.304 770.905 23.448 771.513 23.448C771.929 23.448 772.337 23.384 772.737 23.256C773.137 23.112 773.473 22.904 773.745 22.632C774.017 22.344 774.153 21.984 774.153 21.552C774.153 21.104 774.017 20.736 773.745 20.448C773.489 20.144 773.145 19.88 772.713 19.656C772.281 19.432 771.817 19.224 771.321 19.032C770.841 18.84 770.361 18.64 769.881 18.432C769.401 18.224 768.953 17.976 768.537 17.688C768.137 17.4 767.817 17.048 767.577 16.632C767.337 16.216 767.217 15.704 767.217 15.096C767.217 14.76 767.281 14.392 767.409 13.992C767.537 13.592 767.753 13.216 768.057 12.864C768.361 12.496 768.777 12.2 769.305 11.976C769.833 11.736 770.505 11.616 771.321 11.616C771.753 11.616 772.233 11.688 772.761 11.832C773.289 11.976 773.801 12.248 774.297 12.648L774.249 11.736H775.257V15.936H774.489C774.457 15.376 774.329 14.84 774.105 14.328C773.881 13.8 773.553 13.368 773.121 13.032C772.689 12.68 772.129 12.504 771.441 12.504C770.705 12.504 770.129 12.688 769.713 13.056C769.297 13.424 769.089 13.848 769.089 14.328C769.089 14.824 769.241 15.24 769.545 15.576C769.865 15.896 770.273 16.176 770.769 16.416C771.265 16.656 771.793 16.888 772.353 17.112C772.961 17.368 773.553 17.648 774.129 17.952C774.705 18.256 775.177 18.64 775.545 19.104C775.913 19.552 776.097 20.136 776.097 20.856C776.097 21.656 775.889 22.32 775.473 22.848C775.073 23.376 774.553 23.76 773.913 24C773.289 24.256 772.633 24.384 771.945 24.384ZM783.239 24V23.208C783.719 23.208 784.087 23.08 784.343 22.824C784.599 22.568 784.807 22.216 784.967 21.768C785.143 21.32 785.343 20.8 785.567 20.208L790.511 6.744H791.087L796.439 20.4C796.567 20.736 796.711 21.168 796.871 21.696C797.031 22.224 797.095 22.672 797.063 23.04C797.335 23.024 797.607 23.008 797.879 22.992C798.151 22.976 798.423 22.96 798.695 22.944V24H793.199V23.208C793.807 23.192 794.207 23.056 794.399 22.8C794.591 22.544 794.663 22.24 794.615 21.888C794.567 21.536 794.487 21.216 794.375 20.928L793.535 18.672L787.295 18.816L786.455 21.384C786.343 21.768 786.239 22.072 786.143 22.296C786.063 22.52 785.967 22.768 785.855 23.04C786.175 23.024 786.487 23.008 786.791 22.992C787.111 22.976 787.423 22.96 787.727 22.944V24H783.239ZM787.655 17.784H793.199L791.495 13.2C791.319 12.704 791.135 12.216 790.943 11.736C790.767 11.24 790.591 10.744 790.415 10.248H790.367C790.207 10.696 790.039 11.144 789.863 11.592C789.703 12.04 789.535 12.496 789.359 12.96L787.655 17.784ZM799.462 24V23.28C799.958 23.28 800.302 23.16 800.494 22.92C800.686 22.664 800.798 22.32 800.83 21.888C800.862 21.44 800.878 20.928 800.878 20.352L800.902 14.88C800.902 14.624 800.902 14.368 800.902 14.112C800.918 13.856 800.95 13.592 800.998 13.32C800.71 13.336 800.422 13.352 800.134 13.368C799.862 13.384 799.582 13.4 799.294 13.416V12.408C799.998 12.408 800.526 12.376 800.878 12.312C801.246 12.248 801.518 12.168 801.694 12.072C801.87 11.976 802.014 11.872 802.126 11.76H802.822C802.838 11.872 802.846 12 802.846 12.144C802.862 12.288 802.878 12.448 802.894 12.624C802.91 12.8 802.918 13 802.918 13.224C803.27 12.92 803.654 12.648 804.07 12.408C804.502 12.168 804.95 11.976 805.414 11.832C805.894 11.688 806.366 11.616 806.83 11.616C808.222 11.616 809.238 12.056 809.878 12.936C810.518 13.8 810.838 15.152 810.838 16.992V21.456C810.838 21.776 810.83 22.064 810.814 22.32C810.814 22.56 810.79 22.816 810.742 23.088C810.998 23.072 811.246 23.064 811.486 23.064C811.742 23.048 811.998 23.032 812.254 23.016V24H807.358V23.28C807.854 23.28 808.198 23.16 808.39 22.92C808.582 22.664 808.694 22.32 808.726 21.888C808.758 21.44 808.774 20.928 808.774 20.352V16.992C808.758 15.616 808.526 14.576 808.078 13.872C807.646 13.168 806.958 12.824 806.014 12.84C805.438 12.856 804.87 13.008 804.31 13.296C803.766 13.584 803.31 13.952 802.942 14.4C802.958 14.528 802.966 14.672 802.966 14.832C802.966 14.992 802.966 15.16 802.966 15.336L802.942 21.456C802.942 21.776 802.934 22.064 802.918 22.32C802.918 22.56 802.894 22.816 802.846 23.088C803.102 23.072 803.35 23.064 803.59 23.064C803.846 23.048 804.102 23.032 804.358 23.016V24H799.462ZM819.176 24.384C818.2 24.384 817.32 24.144 816.536 23.664C815.752 23.168 815.128 22.464 814.664 21.552C814.216 20.64 813.992 19.568 813.992 18.336C813.992 17.024 814.256 15.864 814.784 14.856C815.312 13.848 816.04 13.056 816.968 12.48C817.912 11.904 818.976 11.616 820.16 11.616C820.688 11.616 821.208 11.688 821.72 11.832C822.248 11.96 822.664 12.112 822.968 12.288V9C822.968 8.744 822.968 8.504 822.968 8.28C822.984 8.04 823.008 7.76 823.04 7.44C822.752 7.456 822.464 7.472 822.176 7.488C821.904 7.504 821.624 7.52 821.336 7.536V6.528C822.04 6.528 822.584 6.496 822.968 6.432C823.352 6.368 823.64 6.288 823.832 6.192C824.04 6.096 824.2 5.992 824.312 5.88H825.008V21.456C825.008 21.712 825 21.968 824.984 22.224C824.968 22.48 824.944 22.768 824.912 23.088C825.2 23.072 825.48 23.056 825.752 23.04C826.04 23.024 826.328 23.008 826.616 22.992V24H823.184C823.136 23.76 823.096 23.544 823.064 23.352C823.048 23.144 823.032 22.944 823.016 22.752C822.568 23.248 822.016 23.648 821.36 23.952C820.704 24.24 819.976 24.384 819.176 24.384ZM820.04 23.208C820.568 23.208 821.096 23.056 821.624 22.752C822.168 22.448 822.616 22.072 822.968 21.624C822.952 21.432 822.944 21.232 822.944 21.024C822.944 20.8 822.944 20.56 822.944 20.304L822.968 13.392C822.584 13.104 822.16 12.896 821.696 12.768C821.248 12.624 820.784 12.552 820.304 12.552C819.504 12.552 818.808 12.784 818.216 13.248C817.624 13.712 817.176 14.36 816.872 15.192C816.568 16.024 816.432 17 816.464 18.12C816.496 19.096 816.648 19.968 816.92 20.736C817.208 21.504 817.608 22.112 818.12 22.56C818.648 22.992 819.288 23.208 820.04 23.208ZM834.953 23.208C835.561 23.176 835.977 23.04 836.201 22.8C836.425 22.544 836.545 22.2 836.561 21.768C836.593 21.32 836.609 20.816 836.609 20.256V9.888C836.609 9.568 836.617 9.264 836.633 8.976C836.649 8.672 836.665 8.4 836.681 8.16C836.393 8.176 836.105 8.192 835.817 8.208C835.529 8.224 835.241 8.24 834.953 8.256V7.2C835.801 7.184 836.673 7.176 837.569 7.176C838.465 7.16 839.377 7.152 840.305 7.152C841.857 7.152 843.161 7.328 844.217 7.68C845.273 8.032 846.081 8.552 846.641 9.24C847.201 9.928 847.505 10.784 847.553 11.808C847.585 12.432 847.489 13.088 847.265 13.776C847.057 14.448 846.657 15.088 846.065 15.696C845.489 16.288 844.673 16.768 843.617 17.136C842.561 17.504 841.209 17.688 839.561 17.688C839.497 17.688 839.377 17.688 839.201 17.688C839.025 17.688 838.857 17.68 838.697 17.664V21.144C838.697 21.576 838.689 21.952 838.673 22.272C838.673 22.576 838.657 22.832 838.625 23.04C838.881 23.024 839.129 23.008 839.369 22.992C839.609 22.976 839.849 22.968 840.089 22.968C840.345 22.952 840.593 22.936 840.833 22.92V24H834.953V23.208ZM838.697 16.68C839.001 16.712 839.257 16.736 839.465 16.752C839.689 16.752 839.953 16.752 840.257 16.752C841.169 16.752 842.001 16.576 842.753 16.224C843.505 15.856 844.105 15.336 844.553 14.664C845.001 13.992 845.225 13.192 845.225 12.264C845.225 11.512 845.105 10.872 844.865 10.344C844.625 9.8 844.281 9.368 843.833 9.048C843.401 8.712 842.881 8.472 842.273 8.328C841.665 8.168 840.993 8.088 840.257 8.088C839.697 8.088 839.305 8.208 839.081 8.448C838.873 8.688 838.753 9.024 838.721 9.456C838.705 9.872 838.697 10.368 838.697 10.944V16.68ZM849.244 23.28C849.74 23.28 850.084 23.16 850.276 22.92C850.468 22.664 850.58 22.32 850.612 21.888C850.644 21.44 850.66 20.928 850.66 20.352V14.88C850.66 14.624 850.66 14.368 850.66 14.112C850.676 13.856 850.708 13.592 850.756 13.32C850.468 13.336 850.18 13.352 849.892 13.368C849.62 13.368 849.34 13.376 849.052 13.392V12.408H849.796C850.484 12.408 850.956 12.344 851.212 12.216C851.484 12.072 851.708 11.92 851.884 11.76H852.58C852.612 12.016 852.636 12.336 852.652 12.72C852.668 13.088 852.684 13.56 852.7 14.136C852.94 13.736 853.268 13.344 853.684 12.96C854.1 12.576 854.564 12.256 855.076 12C855.604 11.744 856.156 11.616 856.732 11.616C857.18 11.616 857.572 11.736 857.908 11.976C858.244 12.216 858.412 12.6 858.412 13.128C858.412 13.256 858.372 13.416 858.292 13.608C858.212 13.784 858.084 13.944 857.908 14.088C857.732 14.216 857.5 14.28 857.212 14.28C856.86 14.264 856.58 14.128 856.372 13.872C856.164 13.6 856.084 13.288 856.132 12.936C855.732 12.92 855.316 13.024 854.884 13.248C854.468 13.472 854.076 13.784 853.708 14.184C853.34 14.568 853.012 15.024 852.724 15.552L852.748 21.456C852.748 21.776 852.74 22.064 852.724 22.32C852.724 22.56 852.7 22.816 852.652 23.088C852.908 23.072 853.156 23.064 853.396 23.064C853.652 23.048 853.908 23.032 854.164 23.016V24H849.244V23.28ZM865.414 24.384C864.294 24.384 863.278 24.128 862.366 23.616C861.454 23.088 860.726 22.368 860.182 21.456C859.654 20.528 859.39 19.472 859.39 18.288C859.39 17.024 859.654 15.888 860.182 14.88C860.71 13.872 861.43 13.08 862.342 12.504C863.254 11.912 864.278 11.616 865.414 11.616C866.534 11.616 867.55 11.888 868.462 12.432C869.374 12.96 870.102 13.68 870.646 14.592C871.19 15.504 871.462 16.544 871.462 17.712C871.462 18.944 871.19 20.072 870.646 21.096C870.118 22.104 869.398 22.904 868.486 23.496C867.574 24.088 866.55 24.384 865.414 24.384ZM865.606 23.424C866.454 23.424 867.126 23.184 867.622 22.704C868.118 22.224 868.47 21.6 868.678 20.832C868.902 20.064 869.014 19.256 869.014 18.408C869.014 17.688 868.942 16.984 868.798 16.296C868.67 15.592 868.462 14.96 868.174 14.4C867.886 13.824 867.51 13.368 867.046 13.032C866.598 12.696 866.054 12.528 865.414 12.528C864.582 12.528 863.902 12.768 863.374 13.248C862.846 13.728 862.454 14.352 862.198 15.12C861.958 15.888 861.838 16.712 861.838 17.592C861.838 18.584 861.974 19.528 862.246 20.424C862.518 21.304 862.934 22.024 863.494 22.584C864.054 23.144 864.758 23.424 865.606 23.424ZM873.501 24V23.28C873.997 23.28 874.341 23.16 874.533 22.92C874.725 22.664 874.837 22.32 874.869 21.888C874.901 21.44 874.917 20.928 874.917 20.352V14.88C874.917 14.624 874.917 14.368 874.917 14.112C874.933 13.856 874.965 13.592 875.013 13.32C874.725 13.336 874.437 13.352 874.149 13.368C873.877 13.384 873.597 13.4 873.309 13.416V12.408C874.013 12.408 874.541 12.376 874.893 12.312C875.261 12.248 875.533 12.168 875.709 12.072C875.885 11.976 876.029 11.872 876.141 11.76H876.837C876.869 11.92 876.885 12.104 876.885 12.312C876.901 12.52 876.917 12.76 876.933 13.032C877.413 12.616 877.965 12.28 878.589 12.024C879.213 11.752 879.837 11.616 880.461 11.616C881.261 11.616 881.933 11.76 882.477 12.048C883.021 12.336 883.445 12.728 883.749 13.224C884.293 12.776 884.917 12.4 885.621 12.096C886.341 11.776 887.045 11.616 887.733 11.616C889.125 11.616 890.149 12.04 890.805 12.888C891.461 13.72 891.773 15.088 891.741 16.992L891.717 21.456C891.717 21.776 891.709 22.064 891.693 22.32C891.693 22.56 891.669 22.816 891.621 23.088C891.877 23.072 892.125 23.064 892.365 23.064C892.621 23.048 892.877 23.032 893.133 23.016V24H888.237V23.28C888.733 23.28 889.077 23.16 889.269 22.92C889.461 22.664 889.573 22.32 889.605 21.888C889.637 21.44 889.653 20.928 889.653 20.352V16.992C889.653 15.616 889.429 14.584 888.981 13.896C888.549 13.208 887.861 12.872 886.917 12.888C886.421 12.888 885.925 13 885.429 13.224C884.933 13.448 884.501 13.728 884.133 14.064C884.213 14.32 884.269 14.6 884.301 14.904C884.349 15.192 884.373 15.496 884.373 15.816C884.357 16.744 884.349 17.68 884.349 18.624C884.349 19.568 884.341 20.512 884.325 21.456C884.325 21.776 884.317 22.064 884.301 22.32C884.301 22.56 884.277 22.816 884.229 23.088C884.485 23.072 884.733 23.064 884.973 23.064C885.229 23.048 885.485 23.032 885.741 23.016V24H880.845V23.28C881.341 23.28 881.677 23.16 881.853 22.92C882.045 22.664 882.157 22.32 882.189 21.888C882.237 21.44 882.261 20.928 882.261 20.352L882.285 16.992C882.301 15.616 882.101 14.576 881.685 13.872C881.269 13.168 880.589 12.824 879.645 12.84C879.149 12.84 878.661 12.952 878.181 13.176C877.701 13.384 877.293 13.656 876.957 13.992C876.957 14.184 876.957 14.392 876.957 14.616C876.973 14.824 876.981 15.048 876.981 15.288V21.456C876.981 21.776 876.973 22.064 876.957 22.32C876.957 22.56 876.933 22.816 876.885 23.088C877.141 23.072 877.389 23.064 877.629 23.064C877.885 23.048 878.141 23.032 878.397 23.016V24H873.501ZM900.899 24.384C899.779 24.384 898.763 24.128 897.851 23.616C896.939 23.088 896.211 22.368 895.667 21.456C895.139 20.528 894.875 19.472 894.875 18.288C894.875 17.024 895.139 15.888 895.667 14.88C896.195 13.872 896.915 13.08 897.827 12.504C898.739 11.912 899.763 11.616 900.899 11.616C902.019 11.616 903.035 11.888 903.947 12.432C904.859 12.96 905.587 13.68 906.131 14.592C906.675 15.504 906.947 16.544 906.947 17.712C906.947 18.944 906.675 20.072 906.131 21.096C905.603 22.104 904.883 22.904 903.971 23.496C903.059 24.088 902.035 24.384 900.899 24.384ZM901.091 23.424C901.939 23.424 902.611 23.184 903.107 22.704C903.603 22.224 903.955 21.6 904.163 20.832C904.387 20.064 904.499 19.256 904.499 18.408C904.499 17.688 904.427 16.984 904.283 16.296C904.155 15.592 903.947 14.96 903.659 14.4C903.371 13.824 902.995 13.368 902.531 13.032C902.083 12.696 901.539 12.528 900.899 12.528C900.067 12.528 899.387 12.768 898.859 13.248C898.331 13.728 897.939 14.352 897.683 15.12C897.443 15.888 897.323 16.712 897.323 17.592C897.323 18.584 897.459 19.528 897.731 20.424C898.003 21.304 898.419 22.024 898.979 22.584C899.539 23.144 900.243 23.424 901.091 23.424ZM913.498 24.384C913.13 24.384 912.754 24.328 912.37 24.216C911.986 24.12 911.626 23.92 911.29 23.616C910.97 23.312 910.714 22.872 910.522 22.296C910.33 21.704 910.234 20.928 910.234 19.968L910.282 13.008L908.434 13.032V12C908.85 11.984 909.274 11.832 909.706 11.544C910.138 11.24 910.522 10.832 910.858 10.32C911.21 9.808 911.45 9.248 911.578 8.64H912.394V12H916.426V12.936L912.394 12.984L912.346 19.656C912.346 20.376 912.402 20.992 912.514 21.504C912.642 22 912.842 22.376 913.114 22.632C913.386 22.888 913.738 23.016 914.17 23.016C914.618 23.016 915.034 22.888 915.418 22.632C915.818 22.376 916.17 22.024 916.474 21.576L917.122 22.104C916.77 22.632 916.418 23.048 916.066 23.352C915.73 23.656 915.402 23.88 915.082 24.024C914.762 24.184 914.466 24.28 914.194 24.312C913.922 24.36 913.69 24.384 913.498 24.384ZM918.267 23.28C918.763 23.28 919.107 23.16 919.299 22.92C919.491 22.664 919.603 22.32 919.635 21.888C919.667 21.44 919.683 20.928 919.683 20.352V14.88C919.683 14.624 919.691 14.384 919.707 14.16C919.723 13.92 919.747 13.64 919.779 13.32C919.491 13.336 919.203 13.352 918.915 13.368C918.643 13.384 918.363 13.4 918.075 13.416V12.408C918.779 12.408 919.323 12.376 919.707 12.312C920.091 12.248 920.379 12.168 920.571 12.072C920.779 11.976 920.939 11.872 921.051 11.76H921.747V21.456C921.747 21.776 921.739 22.064 921.723 22.32C921.723 22.56 921.699 22.816 921.651 23.088C921.907 23.072 922.155 23.064 922.395 23.064C922.651 23.048 922.907 23.032 923.163 23.016V24H918.267V23.28ZM920.595 9.384C920.259 9.384 919.963 9.248 919.707 8.976C919.451 8.704 919.323 8.368 919.323 7.968C919.323 7.568 919.451 7.232 919.707 6.96C919.979 6.672 920.283 6.528 920.619 6.528C920.987 6.528 921.291 6.672 921.531 6.96C921.787 7.232 921.915 7.568 921.915 7.968C921.915 8.368 921.779 8.704 921.507 8.976C921.251 9.248 920.947 9.384 920.595 9.384ZM930.969 24.384C929.849 24.384 928.833 24.128 927.921 23.616C927.009 23.088 926.281 22.368 925.737 21.456C925.209 20.528 924.945 19.472 924.945 18.288C924.945 17.024 925.209 15.888 925.737 14.88C926.265 13.872 926.985 13.08 927.897 12.504C928.809 11.912 929.833 11.616 930.969 11.616C932.089 11.616 933.105 11.888 934.017 12.432C934.929 12.96 935.657 13.68 936.201 14.592C936.745 15.504 937.017 16.544 937.017 17.712C937.017 18.944 936.745 20.072 936.201 21.096C935.673 22.104 934.953 22.904 934.041 23.496C933.129 24.088 932.105 24.384 930.969 24.384ZM931.161 23.424C932.009 23.424 932.681 23.184 933.177 22.704C933.673 22.224 934.025 21.6 934.233 20.832C934.457 20.064 934.569 19.256 934.569 18.408C934.569 17.688 934.497 16.984 934.353 16.296C934.225 15.592 934.017 14.96 933.729 14.4C933.441 13.824 933.065 13.368 932.601 13.032C932.153 12.696 931.609 12.528 930.969 12.528C930.137 12.528 929.457 12.768 928.929 13.248C928.401 13.728 928.009 14.352 927.753 15.12C927.513 15.888 927.393 16.712 927.393 17.592C927.393 18.584 927.529 19.528 927.801 20.424C928.073 21.304 928.489 22.024 929.049 22.584C929.609 23.144 930.313 23.424 931.161 23.424ZM939.056 24V23.28C939.552 23.28 939.896 23.16 940.088 22.92C940.28 22.664 940.392 22.32 940.424 21.888C940.456 21.44 940.472 20.928 940.472 20.352L940.496 14.88C940.496 14.624 940.496 14.368 940.496 14.112C940.512 13.856 940.544 13.592 940.592 13.32C940.304 13.336 940.016 13.352 939.728 13.368C939.456 13.384 939.176 13.4 938.888 13.416V12.408C939.592 12.408 940.12 12.376 940.472 12.312C940.84 12.248 941.112 12.168 941.288 12.072C941.464 11.976 941.608 11.872 941.72 11.76H942.416C942.432 11.872 942.44 12 942.44 12.144C942.456 12.288 942.472 12.448 942.488 12.624C942.504 12.8 942.512 13 942.512 13.224C942.864 12.92 943.248 12.648 943.664 12.408C944.096 12.168 944.544 11.976 945.008 11.832C945.488 11.688 945.96 11.616 946.424 11.616C947.816 11.616 948.832 12.056 949.472 12.936C950.112 13.8 950.432 15.152 950.432 16.992V21.456C950.432 21.776 950.424 22.064 950.408 22.32C950.408 22.56 950.384 22.816 950.336 23.088C950.592 23.072 950.84 23.064 951.08 23.064C951.336 23.048 951.592 23.032 951.848 23.016V24H946.952V23.28C947.448 23.28 947.792 23.16 947.984 22.92C948.176 22.664 948.288 22.32 948.32 21.888C948.352 21.44 948.368 20.928 948.368 20.352V16.992C948.352 15.616 948.12 14.576 947.672 13.872C947.24 13.168 946.552 12.824 945.608 12.84C945.032 12.856 944.464 13.008 943.904 13.296C943.36 13.584 942.904 13.952 942.536 14.4C942.552 14.528 942.56 14.672 942.56 14.832C942.56 14.992 942.56 15.16 942.56 15.336L942.536 21.456C942.536 21.776 942.528 22.064 942.512 22.32C942.512 22.56 942.488 22.816 942.44 23.088C942.696 23.072 942.944 23.064 943.184 23.064C943.44 23.048 943.696 23.032 943.952 23.016V24H939.056ZM958.554 24.384C957.754 24.384 957.042 24.272 956.418 24.048C955.794 23.84 955.282 23.6 954.882 23.328L954.978 24.168H953.97L953.826 20.04H954.57C954.602 20.696 954.786 21.288 955.122 21.816C955.458 22.328 955.89 22.728 956.418 23.016C956.946 23.304 957.514 23.448 958.122 23.448C958.538 23.448 958.946 23.384 959.346 23.256C959.746 23.112 960.082 22.904 960.354 22.632C960.626 22.344 960.762 21.984 960.762 21.552C960.762 21.104 960.626 20.736 960.354 20.448C960.098 20.144 959.754 19.88 959.322 19.656C958.89 19.432 958.426 19.224 957.93 19.032C957.45 18.84 956.97 18.64 956.49 18.432C956.01 18.224 955.562 17.976 955.146 17.688C954.746 17.4 954.426 17.048 954.186 16.632C953.946 16.216 953.826 15.704 953.826 15.096C953.826 14.76 953.89 14.392 954.018 13.992C954.146 13.592 954.362 13.216 954.666 12.864C954.97 12.496 955.386 12.2 955.914 11.976C956.442 11.736 957.114 11.616 957.93 11.616C958.362 11.616 958.842 11.688 959.37 11.832C959.898 11.976 960.41 12.248 960.906 12.648L960.858 11.736H961.866V15.936H961.098C961.066 15.376 960.938 14.84 960.714 14.328C960.49 13.8 960.162 13.368 959.73 13.032C959.298 12.68 958.738 12.504 958.05 12.504C957.314 12.504 956.738 12.688 956.322 13.056C955.906 13.424 955.698 13.848 955.698 14.328C955.698 14.824 955.85 15.24 956.154 15.576C956.474 15.896 956.882 16.176 957.378 16.416C957.874 16.656 958.402 16.888 958.962 17.112C959.57 17.368 960.162 17.648 960.738 17.952C961.314 18.256 961.786 18.64 962.154 19.104C962.522 19.552 962.706 20.136 962.706 20.856C962.706 21.656 962.498 22.32 962.082 22.848C961.682 23.376 961.162 23.76 960.522 24C959.898 24.256 959.242 24.384 958.554 24.384Z" fill="#FFF9C0"/>
<path d="M982 15.5L1294 15.5" stroke="url(#paint1_linear_0_380)" stroke-width="4"/>
<defs>
<linearGradient id="paint0_linear_0_380" x1="262.737" y1="15.5" x2="0" y2="15.5" gradientUnits="userSpaceOnUse">
<stop stop-color="#FFBA41"/>
<stop offset="1" stop-color="#0B0B0B"/>
</linearGradient>
<linearGradient id="paint1_linear_0_380" x1="1031.26" y1="15.5" x2="1294" y2="15.5" gradientUnits="userSpaceOnUse">
<stop stop-color="#FFBA41"/>
<stop offset="1" stop-color="#0B0B0B"/>
</linearGradient>
</defs>
</svg>
